%FSLAX46Y46*%
G04 Gerber Fmt 4.6, Leading zero omitted, Abs format (unit mm)*
G04 Created by KiCad (PCBNEW (2014-10-18 BZR 5203)-product) date 10/30/2014 8:46:09 AM*
%MOMM*%
G01*
G04 APERTURE LIST*
%ADD10C,0.150000*%
%ADD11R,1.750000X1.750000*%
%ADD12C,1.750000*%
%ADD13R,1.000000X1.000000*%
%ADD14C,1.000000*%
%ADD15R,0.750000X1.000000*%
%ADD16C,1.270000*%
%ADD17R,0.700000X1.500000*%
%ADD18R,1.300000X0.550000*%
%ADD19R,0.635000X1.143000*%
%ADD20R,1.143000X0.635000*%
G04 APERTURE END LIST*
D10*
D11*
X200025000Y-154940000D03*
D12*
X202565000Y-154940000D03*
X200025000Y-157480000D03*
X202565000Y-157480000D03*
X200025000Y-160020000D03*
X202565000Y-160020000D03*
X200025000Y-162560000D03*
X202565000Y-162560000D03*
X200025000Y-165100000D03*
X202565000Y-165100000D03*
X200025000Y-167640000D03*
X202565000Y-167640000D03*
X200025000Y-170180000D03*
X202565000Y-170180000D03*
X200025000Y-172720000D03*
X202565000Y-172720000D03*
X200025000Y-175260000D03*
X202565000Y-175260000D03*
X200025000Y-177800000D03*
X202565000Y-177800000D03*
D13*
X210312000Y-163830000D03*
D14*
X211582000Y-163830000D03*
X210312000Y-165100000D03*
X211582000Y-165100000D03*
X210312000Y-166370000D03*
X211582000Y-166370000D03*
X210312000Y-167640000D03*
X211582000Y-167640000D03*
X210312000Y-168910000D03*
X211582000Y-168910000D03*
D15*
X212950000Y-154051000D03*
D16*
X208050000Y-154051000D03*
X211050000Y-154051000D03*
D17*
X208800000Y-155801000D03*
X207300000Y-155801000D03*
X211800000Y-155801000D03*
D15*
X206150000Y-154051000D03*
D18*
X209423000Y-176977000D03*
X209423000Y-177927000D03*
X209423000Y-178877000D03*
X211923000Y-178877000D03*
X211923000Y-176977000D03*
D19*
X206629000Y-178562000D03*
X205105000Y-178562000D03*
X212471000Y-175006000D03*
X210947000Y-175006000D03*
X206629000Y-173482000D03*
X205105000Y-173482000D03*
X206629000Y-159258000D03*
X205105000Y-159258000D03*
X206629000Y-175514000D03*
X205105000Y-175514000D03*
D20*
X205105000Y-155956000D03*
X205105000Y-157480000D03*
M02*
