G04 (created by PCBNEW (2013-07-07 BZR 4022)-stable) date 4/23/2014 9:43:38 AM*
%MOIN*%
G04 Gerber Fmt 3.4, Leading zero omitted, Abs format*
%FSLAX34Y34*%
G01*
G70*
G90*
G04 APERTURE LIST*
%ADD10C,0.00590551*%
%ADD11C,0.00472441*%
%ADD12R,0.0393701X0.0393701*%
%ADD13C,0.0393701*%
%ADD14R,0.1181X0.0394*%
%ADD15C,0.05*%
G04 APERTURE END LIST*
G54D10*
G54D11*
X78269Y-55228D02*
X78114Y-55228D01*
X78086Y-55216D01*
X78072Y-55192D01*
X78072Y-55143D01*
X78086Y-55119D01*
X78255Y-55228D02*
X78269Y-55204D01*
X78269Y-55143D01*
X78255Y-55119D01*
X78227Y-55106D01*
X78199Y-55106D01*
X78171Y-55119D01*
X78157Y-55143D01*
X78157Y-55204D01*
X78142Y-55228D01*
X78269Y-55350D02*
X78072Y-55350D01*
X78128Y-55350D02*
X78100Y-55362D01*
X78086Y-55374D01*
X78072Y-55399D01*
X78072Y-55423D01*
X78269Y-55508D02*
X78072Y-55508D01*
X78100Y-55508D02*
X78086Y-55521D01*
X78072Y-55545D01*
X78072Y-55582D01*
X78086Y-55606D01*
X78114Y-55618D01*
X78269Y-55618D01*
X78114Y-55618D02*
X78086Y-55630D01*
X78072Y-55655D01*
X78072Y-55691D01*
X78086Y-55716D01*
X78114Y-55728D01*
X78269Y-55728D01*
X78002Y-55838D02*
X77988Y-55850D01*
X77974Y-55874D01*
X77974Y-55935D01*
X77988Y-55959D01*
X78002Y-55972D01*
X78030Y-55984D01*
X78058Y-55984D01*
X78100Y-55972D01*
X78269Y-55825D01*
X78269Y-55984D01*
X77974Y-56142D02*
X77974Y-56167D01*
X77988Y-56191D01*
X78002Y-56203D01*
X78030Y-56215D01*
X78086Y-56227D01*
X78157Y-56227D01*
X78213Y-56215D01*
X78241Y-56203D01*
X78255Y-56191D01*
X78269Y-56167D01*
X78269Y-56142D01*
X78255Y-56118D01*
X78241Y-56106D01*
X78213Y-56093D01*
X78157Y-56081D01*
X78086Y-56081D01*
X78030Y-56093D01*
X78002Y-56106D01*
X77988Y-56118D01*
X77974Y-56142D01*
X78072Y-56301D02*
X78072Y-56398D01*
X77974Y-56337D02*
X78227Y-56337D01*
X78255Y-56349D01*
X78269Y-56374D01*
X78269Y-56398D01*
X78269Y-56520D02*
X78255Y-56496D01*
X78241Y-56483D01*
X78213Y-56471D01*
X78128Y-56471D01*
X78100Y-56483D01*
X78086Y-56496D01*
X78072Y-56520D01*
X78072Y-56556D01*
X78086Y-56581D01*
X78100Y-56593D01*
X78128Y-56605D01*
X78213Y-56605D01*
X78241Y-56593D01*
X78255Y-56581D01*
X78269Y-56556D01*
X78269Y-56520D01*
X78269Y-56849D02*
X78269Y-56703D01*
X78269Y-56776D02*
X77974Y-56776D01*
X78016Y-56751D01*
X78044Y-56727D01*
X78058Y-56703D01*
X77974Y-57007D02*
X77974Y-57032D01*
X77988Y-57056D01*
X78002Y-57068D01*
X78030Y-57080D01*
X78086Y-57093D01*
X78157Y-57093D01*
X78213Y-57080D01*
X78241Y-57068D01*
X78255Y-57056D01*
X78269Y-57032D01*
X78269Y-57007D01*
X78255Y-56983D01*
X78241Y-56971D01*
X78213Y-56959D01*
X78157Y-56946D01*
X78086Y-56946D01*
X78030Y-56959D01*
X78002Y-56971D01*
X77988Y-56983D01*
X77974Y-57007D01*
X78533Y-55734D02*
X78730Y-55795D01*
X78533Y-55856D01*
X78434Y-56002D02*
X78434Y-56026D01*
X78448Y-56051D01*
X78462Y-56063D01*
X78491Y-56075D01*
X78547Y-56087D01*
X78617Y-56087D01*
X78673Y-56075D01*
X78702Y-56063D01*
X78716Y-56051D01*
X78730Y-56026D01*
X78730Y-56002D01*
X78716Y-55978D01*
X78702Y-55965D01*
X78673Y-55953D01*
X78617Y-55941D01*
X78547Y-55941D01*
X78491Y-55953D01*
X78462Y-55965D01*
X78448Y-55978D01*
X78434Y-56002D01*
X78702Y-56197D02*
X78716Y-56209D01*
X78730Y-56197D01*
X78716Y-56185D01*
X78702Y-56197D01*
X78730Y-56197D01*
X78533Y-56429D02*
X78730Y-56429D01*
X78420Y-56368D02*
X78631Y-56307D01*
X78631Y-56465D01*
X78993Y-54887D02*
X79232Y-54887D01*
X79261Y-54875D01*
X79275Y-54863D01*
X79289Y-54838D01*
X79289Y-54802D01*
X79275Y-54777D01*
X79176Y-54887D02*
X79190Y-54863D01*
X79190Y-54814D01*
X79176Y-54790D01*
X79162Y-54777D01*
X79134Y-54765D01*
X79050Y-54765D01*
X79022Y-54777D01*
X79007Y-54790D01*
X78993Y-54814D01*
X78993Y-54863D01*
X79007Y-54887D01*
X79190Y-55009D02*
X78993Y-55009D01*
X78895Y-55009D02*
X78909Y-54997D01*
X78923Y-55009D01*
X78909Y-55021D01*
X78895Y-55009D01*
X78923Y-55009D01*
X78993Y-55094D02*
X78993Y-55192D01*
X78895Y-55131D02*
X79148Y-55131D01*
X79176Y-55143D01*
X79190Y-55167D01*
X79190Y-55192D01*
X79162Y-55277D02*
X79176Y-55289D01*
X79190Y-55277D01*
X79176Y-55265D01*
X79162Y-55277D01*
X79190Y-55277D01*
X79190Y-55399D02*
X78993Y-55399D01*
X78895Y-55399D02*
X78909Y-55387D01*
X78923Y-55399D01*
X78909Y-55411D01*
X78895Y-55399D01*
X78923Y-55399D01*
X79190Y-55557D02*
X79176Y-55533D01*
X79162Y-55521D01*
X79134Y-55508D01*
X79050Y-55508D01*
X79022Y-55521D01*
X79007Y-55533D01*
X78993Y-55557D01*
X78993Y-55594D01*
X79007Y-55618D01*
X79022Y-55630D01*
X79050Y-55643D01*
X79134Y-55643D01*
X79162Y-55630D01*
X79176Y-55618D01*
X79190Y-55594D01*
X79190Y-55557D01*
X78881Y-55935D02*
X79261Y-55716D01*
X79190Y-56020D02*
X78895Y-56020D01*
X79106Y-56106D01*
X78895Y-56191D01*
X79190Y-56191D01*
X78895Y-56313D02*
X79134Y-56313D01*
X79162Y-56325D01*
X79176Y-56337D01*
X79190Y-56361D01*
X79190Y-56410D01*
X79176Y-56435D01*
X79162Y-56447D01*
X79134Y-56459D01*
X78895Y-56459D01*
X78895Y-56544D02*
X78895Y-56691D01*
X79190Y-56617D02*
X78895Y-56617D01*
X79190Y-56812D02*
X79176Y-56788D01*
X79162Y-56776D01*
X79134Y-56764D01*
X79050Y-56764D01*
X79022Y-56776D01*
X79007Y-56788D01*
X78993Y-56812D01*
X78993Y-56849D01*
X79007Y-56873D01*
X79022Y-56885D01*
X79050Y-56898D01*
X79134Y-56898D01*
X79162Y-56885D01*
X79176Y-56873D01*
X79190Y-56849D01*
X79190Y-56812D01*
X79078Y-57007D02*
X79078Y-57202D01*
X79106Y-57312D02*
X79106Y-57434D01*
X79190Y-57288D02*
X78895Y-57373D01*
X79190Y-57458D01*
G54D12*
X78000Y-52000D03*
G54D13*
X78500Y-52000D03*
X78000Y-52500D03*
X78500Y-52500D03*
X78000Y-53000D03*
X78500Y-53000D03*
X78000Y-53500D03*
X78500Y-53500D03*
X78000Y-54000D03*
X78500Y-54000D03*
G54D14*
X76000Y-48500D03*
X76000Y-49500D03*
X76000Y-50500D03*
X76000Y-51500D03*
X76000Y-52500D03*
X76000Y-53500D03*
X76000Y-54500D03*
X76000Y-55500D03*
X76000Y-56500D03*
X76000Y-57500D03*
G54D15*
X79100Y-48309D03*
X79100Y-49490D03*
M02*
