M48
;DRILL file {Pcbnew (2013-07-07 BZR 4022)-stable} date 3/8/2014 12:01:56 PM
;FORMAT={-:-/ absolute / inch / decimal}
FMAT,2
INCH,TZ
T1C0.025
T2C0.028
T3C0.035
%
G90
G05
M72
T1
X7.69Y-5.
X7.7Y-5.25
X7.7Y-5.55
X7.715Y-5.71
X7.73Y-4.96
X7.73Y-5.11
X7.77Y-5.
X7.865Y-5.095
T2
X7.8Y-5.2
X7.8Y-5.25
X7.8Y-5.3
X7.8Y-5.35
X7.8Y-5.4
X7.85Y-5.2
X7.85Y-5.25
X7.85Y-5.3
X7.85Y-5.35
X7.85Y-5.4
T3
X7.91Y-4.8309
X7.91Y-4.9491
T0
M30
