%FSLAX46Y46*%
G04 Gerber Fmt 4.6, Leading zero omitted, Abs format (unit mm)*
G04 Created by KiCad (PCBNEW (2014-10-18 BZR 5203)-product) date 10/28/2014 3:51:51 PM*
%MOMM*%
G01*
G04 APERTURE LIST*
%ADD10C,0.150000*%
%ADD11C,0.200000*%
%ADD12C,0.119380*%
%ADD13C,0.127000*%
%ADD14C,0.110000*%
%ADD15C,0.114300*%
G04 APERTURE END LIST*
D10*
D11*
X208407000Y-159004000D02*
X208407000Y-173355000D01*
X213487000Y-159004000D02*
X208407000Y-159004000D01*
X213487000Y-173355000D02*
X213487000Y-159004000D01*
X208407000Y-173355000D02*
X213487000Y-173355000D01*
X207200809Y-157059381D02*
X207391286Y-157059381D01*
X207486524Y-157107000D01*
X207581762Y-157202238D01*
X207629381Y-157392714D01*
X207629381Y-157726048D01*
X207581762Y-157916524D01*
X207486524Y-158011762D01*
X207391286Y-158059381D01*
X207200809Y-158059381D01*
X207105571Y-158011762D01*
X207010333Y-157916524D01*
X206962714Y-157726048D01*
X206962714Y-157392714D01*
X207010333Y-157202238D01*
X207105571Y-157107000D01*
X207200809Y-157059381D01*
X208057952Y-158059381D02*
X208057952Y-157059381D01*
X208629381Y-158059381D01*
X208629381Y-157059381D01*
X209343666Y-158392714D02*
X209343666Y-156964143D01*
X210248428Y-157059381D02*
X210438905Y-157059381D01*
X210534143Y-157107000D01*
X210629381Y-157202238D01*
X210677000Y-157392714D01*
X210677000Y-157726048D01*
X210629381Y-157916524D01*
X210534143Y-158011762D01*
X210438905Y-158059381D01*
X210248428Y-158059381D01*
X210153190Y-158011762D01*
X210057952Y-157916524D01*
X210010333Y-157726048D01*
X210010333Y-157392714D01*
X210057952Y-157202238D01*
X210153190Y-157107000D01*
X210248428Y-157059381D01*
X211438905Y-157535571D02*
X211105571Y-157535571D01*
X211105571Y-158059381D02*
X211105571Y-157059381D01*
X211581762Y-157059381D01*
X212296048Y-157535571D02*
X211962714Y-157535571D01*
X211962714Y-158059381D02*
X211962714Y-157059381D01*
X212438905Y-157059381D01*
X205652714Y-171677023D02*
X205938429Y-172474643D01*
X206224143Y-171748452D01*
X206319381Y-171284167D02*
X205319381Y-171159167D01*
X205795571Y-171218690D02*
X205795571Y-170647261D01*
X206319381Y-170712738D02*
X205319381Y-170587738D01*
X205319381Y-169921072D02*
X205319381Y-169730595D01*
X205367000Y-169641309D01*
X205462238Y-169557976D01*
X205652714Y-169534166D01*
X205986048Y-169575833D01*
X206176524Y-169647261D01*
X206271762Y-169754404D01*
X206319381Y-169855595D01*
X206319381Y-170046072D01*
X206271762Y-170135357D01*
X206176524Y-170218690D01*
X205986048Y-170242500D01*
X205652714Y-170200833D01*
X205462238Y-170129405D01*
X205367000Y-170022262D01*
X205319381Y-169921072D01*
X206271762Y-169230595D02*
X206319381Y-169093691D01*
X206319381Y-168855595D01*
X206271762Y-168754404D01*
X206224143Y-168700833D01*
X206128905Y-168641309D01*
X206033667Y-168629404D01*
X205938429Y-168665119D01*
X205890810Y-168706785D01*
X205843190Y-168796071D01*
X205795571Y-168980595D01*
X205747952Y-169069881D01*
X205700333Y-169111548D01*
X205605095Y-169147262D01*
X205509857Y-169135357D01*
X205414619Y-169075833D01*
X205367000Y-169022262D01*
X205319381Y-168921072D01*
X205319381Y-168682976D01*
X205367000Y-168546071D01*
X205319381Y-168254405D02*
X205319381Y-167682976D01*
X206319381Y-168093691D02*
X205319381Y-167968691D01*
X205319381Y-164650262D02*
X205319381Y-164078833D01*
X206319381Y-164489548D02*
X205319381Y-164364548D01*
X206319381Y-163299071D02*
X205843190Y-163572881D01*
X206319381Y-163870500D02*
X205319381Y-163745500D01*
X205319381Y-163364547D01*
X205367000Y-163275261D01*
X205414619Y-163233594D01*
X205509857Y-163197880D01*
X205652714Y-163215737D01*
X205747952Y-163275261D01*
X205795571Y-163328832D01*
X205843190Y-163430023D01*
X205843190Y-163810976D01*
X205367000Y-162227642D02*
X205319381Y-162316928D01*
X205319381Y-162459785D01*
X205367000Y-162608595D01*
X205462238Y-162715738D01*
X205557476Y-162775261D01*
X205747952Y-162846690D01*
X205890810Y-162864547D01*
X206081286Y-162840738D01*
X206176524Y-162805023D01*
X206271762Y-162721690D01*
X206319381Y-162584785D01*
X206319381Y-162489547D01*
X206271762Y-162340737D01*
X206224143Y-162287166D01*
X205890810Y-162245499D01*
X205890810Y-162435975D01*
X205319381Y-161888357D02*
X205319381Y-161316928D01*
X206319381Y-161727643D02*
X205319381Y-161602643D01*
X205652714Y-161025261D02*
X205938429Y-160299071D01*
X206224143Y-161096690D01*
D10*
X208369803Y-176276000D02*
G75*
G03X208369803Y-176276000I-89803J0D01*
G01*
D12*
X205366620Y-177911760D02*
X204668120Y-177911760D01*
X206367380Y-177911760D02*
X207065880Y-177911760D01*
X205366620Y-179212240D02*
X204668120Y-179212240D01*
X207065880Y-179212240D02*
X206367380Y-179212240D01*
X204668120Y-179197000D02*
X204668120Y-177927000D01*
X207065880Y-177927000D02*
X207065880Y-179197000D01*
X211208620Y-174355760D02*
X210510120Y-174355760D01*
X212209380Y-174355760D02*
X212907880Y-174355760D01*
X211208620Y-175656240D02*
X210510120Y-175656240D01*
X212907880Y-175656240D02*
X212209380Y-175656240D01*
X210510120Y-175641000D02*
X210510120Y-174371000D01*
X212907880Y-174371000D02*
X212907880Y-175641000D01*
D13*
X207010000Y-174117000D02*
X204724000Y-174117000D01*
X204724000Y-174117000D02*
X204724000Y-172847000D01*
X204724000Y-172847000D02*
X207010000Y-172847000D01*
X207010000Y-172847000D02*
X207010000Y-174117000D01*
X207010000Y-159893000D02*
X204724000Y-159893000D01*
X204724000Y-159893000D02*
X204724000Y-158623000D01*
X204724000Y-158623000D02*
X207010000Y-158623000D01*
X207010000Y-158623000D02*
X207010000Y-159893000D01*
X206367380Y-176212500D02*
X207073500Y-176212500D01*
X207073500Y-176212500D02*
X207073500Y-174815500D01*
X207073500Y-174815500D02*
X206367380Y-174815500D01*
X204660500Y-176212500D02*
X205366620Y-176212500D01*
X204660500Y-176212500D02*
X204660500Y-174815500D01*
X204660500Y-174815500D02*
X205366620Y-174815500D01*
X205803500Y-156217620D02*
X205803500Y-155511500D01*
X205803500Y-155511500D02*
X204406500Y-155511500D01*
X204406500Y-155511500D02*
X204406500Y-156217620D01*
X205803500Y-157924500D02*
X205803500Y-157218380D01*
X205803500Y-157924500D02*
X204406500Y-157924500D01*
X204406500Y-157924500D02*
X204406500Y-157218380D01*
D14*
X199855666Y-152629810D02*
X199855666Y-152992667D01*
X199831476Y-153065238D01*
X199783095Y-153113619D01*
X199710523Y-153137810D01*
X199662142Y-153137810D01*
X200363667Y-153137810D02*
X200073381Y-153137810D01*
X200218524Y-153137810D02*
X200218524Y-152629810D01*
X200170143Y-152702381D01*
X200121762Y-152750762D01*
X200073381Y-152774952D01*
X207475666Y-166091810D02*
X207475666Y-166454667D01*
X207451476Y-166527238D01*
X207403095Y-166575619D01*
X207330523Y-166599810D01*
X207282142Y-166599810D01*
X207693381Y-166140190D02*
X207717571Y-166116000D01*
X207765952Y-166091810D01*
X207886905Y-166091810D01*
X207935286Y-166116000D01*
X207959476Y-166140190D01*
X207983667Y-166188571D01*
X207983667Y-166236952D01*
X207959476Y-166309524D01*
X207669190Y-166599810D01*
X207983667Y-166599810D01*
X203792667Y-153113619D02*
X203865238Y-153137810D01*
X203986191Y-153137810D01*
X204034572Y-153113619D01*
X204058762Y-153089429D01*
X204082953Y-153041048D01*
X204082953Y-152992667D01*
X204058762Y-152944286D01*
X204034572Y-152920095D01*
X203986191Y-152895905D01*
X203889429Y-152871714D01*
X203841048Y-152847524D01*
X203816857Y-152823333D01*
X203792667Y-152774952D01*
X203792667Y-152726571D01*
X203816857Y-152678190D01*
X203841048Y-152654000D01*
X203889429Y-152629810D01*
X204010381Y-152629810D01*
X204082953Y-152654000D01*
X204252286Y-152629810D02*
X204373239Y-153137810D01*
X204470001Y-152774952D01*
X204566763Y-153137810D01*
X204687715Y-152629810D01*
X205147334Y-153137810D02*
X204857048Y-153137810D01*
X205002191Y-153137810D02*
X205002191Y-152629810D01*
X204953810Y-152702381D01*
X204905429Y-152750762D01*
X204857048Y-152774952D01*
X210432952Y-179807810D02*
X210432952Y-180219048D01*
X210457143Y-180267429D01*
X210481333Y-180291619D01*
X210529714Y-180315810D01*
X210626476Y-180315810D01*
X210674857Y-180291619D01*
X210699048Y-180267429D01*
X210723238Y-180219048D01*
X210723238Y-179807810D01*
X211231238Y-180315810D02*
X210940952Y-180315810D01*
X211086095Y-180315810D02*
X211086095Y-179807810D01*
X211037714Y-179880381D01*
X210989333Y-179928762D01*
X210940952Y-179952952D01*
D15*
X205092300Y-180076929D02*
X205070529Y-180101119D01*
X205005215Y-180125310D01*
X204961672Y-180125310D01*
X204896357Y-180101119D01*
X204852815Y-180052738D01*
X204831043Y-180004357D01*
X204809272Y-179907595D01*
X204809272Y-179835024D01*
X204831043Y-179738262D01*
X204852815Y-179689881D01*
X204896357Y-179641500D01*
X204961672Y-179617310D01*
X205005215Y-179617310D01*
X205070529Y-179641500D01*
X205092300Y-179665690D01*
X205527729Y-180125310D02*
X205266472Y-180125310D01*
X205397100Y-180125310D02*
X205397100Y-179617310D01*
X205353557Y-179689881D01*
X205310015Y-179738262D01*
X205266472Y-179762452D01*
X209600800Y-175187429D02*
X209579029Y-175211619D01*
X209513715Y-175235810D01*
X209470172Y-175235810D01*
X209404857Y-175211619D01*
X209361315Y-175163238D01*
X209339543Y-175114857D01*
X209317772Y-175018095D01*
X209317772Y-174945524D01*
X209339543Y-174848762D01*
X209361315Y-174800381D01*
X209404857Y-174752000D01*
X209470172Y-174727810D01*
X209513715Y-174727810D01*
X209579029Y-174752000D01*
X209600800Y-174776190D01*
X209774972Y-174776190D02*
X209796743Y-174752000D01*
X209840286Y-174727810D01*
X209949143Y-174727810D01*
X209992686Y-174752000D01*
X210014457Y-174776190D01*
X210036229Y-174824571D01*
X210036229Y-174872952D01*
X210014457Y-174945524D01*
X209753200Y-175235810D01*
X210036229Y-175235810D01*
X207434543Y-174219810D02*
X207434543Y-173711810D01*
X207543400Y-173711810D01*
X207608715Y-173736000D01*
X207652257Y-173784381D01*
X207674029Y-173832762D01*
X207695800Y-173929524D01*
X207695800Y-174002095D01*
X207674029Y-174098857D01*
X207652257Y-174147238D01*
X207608715Y-174195619D01*
X207543400Y-174219810D01*
X207434543Y-174219810D01*
X208131229Y-174219810D02*
X207869972Y-174219810D01*
X208000600Y-174219810D02*
X208000600Y-173711810D01*
X207957057Y-173784381D01*
X207913515Y-173832762D01*
X207869972Y-173856952D01*
X207307543Y-159995810D02*
X207307543Y-159487810D01*
X207416400Y-159487810D01*
X207481715Y-159512000D01*
X207525257Y-159560381D01*
X207547029Y-159608762D01*
X207568800Y-159705524D01*
X207568800Y-159778095D01*
X207547029Y-159874857D01*
X207525257Y-159923238D01*
X207481715Y-159971619D01*
X207416400Y-159995810D01*
X207307543Y-159995810D01*
X207742972Y-159536190D02*
X207764743Y-159512000D01*
X207808286Y-159487810D01*
X207917143Y-159487810D01*
X207960686Y-159512000D01*
X207982457Y-159536190D01*
X208004229Y-159584571D01*
X208004229Y-159632952D01*
X207982457Y-159705524D01*
X207721200Y-159995810D01*
X208004229Y-159995810D01*
X205028800Y-177073862D02*
X204876400Y-176835586D01*
X204767543Y-177073862D02*
X204767543Y-176573482D01*
X204941715Y-176573482D01*
X204985257Y-176597310D01*
X205007029Y-176621138D01*
X205028800Y-176668793D01*
X205028800Y-176740276D01*
X205007029Y-176787931D01*
X204985257Y-176811759D01*
X204941715Y-176835586D01*
X204767543Y-176835586D01*
X205464229Y-177073862D02*
X205202972Y-177073862D01*
X205333600Y-177073862D02*
X205333600Y-176573482D01*
X205290057Y-176644965D01*
X205246515Y-176692620D01*
X205202972Y-176716448D01*
X204393800Y-155166362D02*
X204241400Y-154928086D01*
X204132543Y-155166362D02*
X204132543Y-154665982D01*
X204306715Y-154665982D01*
X204350257Y-154689810D01*
X204372029Y-154713638D01*
X204393800Y-154761293D01*
X204393800Y-154832776D01*
X204372029Y-154880431D01*
X204350257Y-154904259D01*
X204306715Y-154928086D01*
X204132543Y-154928086D01*
X204567972Y-154713638D02*
X204589743Y-154689810D01*
X204633286Y-154665982D01*
X204742143Y-154665982D01*
X204785686Y-154689810D01*
X204807457Y-154713638D01*
X204829229Y-154761293D01*
X204829229Y-154808948D01*
X204807457Y-154880431D01*
X204546200Y-155166362D01*
X204829229Y-155166362D01*
M02*
