M48
;DRILL file {kicad (2014-10-18 BZR 5203)-product} date 12/2/2014 8:42:47 AM
;FORMAT={-:-/ absolute / inch / decimal}
FMAT,2
INCH,TZ
T1C0.013
T2C0.028
T3C0.032
T4C0.040
%
G90
G05
M72
T1
X8.13Y-6.21
X8.29Y-6.735
X8.3Y-6.36
T2
X8.28Y-6.45
X8.28Y-6.5
X8.28Y-6.55
X8.28Y-6.6
X8.28Y-6.65
X8.33Y-6.45
X8.33Y-6.5
X8.33Y-6.55
X8.33Y-6.6
X8.33Y-6.65
T3
X8.1909Y-6.065
X8.3091Y-6.065
T4
X7.875Y-6.1
X7.875Y-6.2
X7.875Y-6.3
X7.875Y-6.4
X7.875Y-6.5
X7.875Y-6.6
X7.875Y-6.7
X7.875Y-6.8
X7.875Y-6.9
X7.875Y-7.
X7.975Y-6.1
X7.975Y-6.2
X7.975Y-6.3
X7.975Y-6.4
X7.975Y-6.5
X7.975Y-6.6
X7.975Y-6.7
X7.975Y-6.8
X7.975Y-6.9
X7.975Y-7.
T0
M30
