G04 (created by PCBNEW (2013-07-07 BZR 4022)-stable) date 2/20/2014 13:17:59*
%MOIN*%
G04 Gerber Fmt 3.4, Leading zero omitted, Abs format*
%FSLAX34Y34*%
G01*
G70*
G90*
G04 APERTURE LIST*
%ADD10C,0.00590551*%
%ADD11R,0.0393701X0.0393701*%
%ADD12C,0.0393701*%
%ADD13R,0.1181X0.0394*%
%ADD14O,0.1181X0.0394*%
%ADD15C,0.05*%
%ADD16R,0.0590551X0.0275591*%
%ADD17R,0.03X0.02*%
%ADD18R,0.045X0.025*%
%ADD19R,0.025X0.045*%
%ADD20C,0.035*%
%ADD21C,0.0137795*%
%ADD22C,0.01*%
%ADD23C,0.005*%
G04 APERTURE END LIST*
G54D10*
G54D11*
X78000Y-52000D03*
G54D12*
X78500Y-52000D03*
X78000Y-52500D03*
X78500Y-52500D03*
X78000Y-53000D03*
X78500Y-53000D03*
X78000Y-53500D03*
X78500Y-53500D03*
X78000Y-54000D03*
X78500Y-54000D03*
G54D13*
X76000Y-49500D03*
X76000Y-50500D03*
G54D14*
X76000Y-48500D03*
G54D13*
X76000Y-51500D03*
X76000Y-52500D03*
X76000Y-53500D03*
X76000Y-54500D03*
X76000Y-55500D03*
X76000Y-56500D03*
X76000Y-57500D03*
G54D15*
X79050Y-48709D03*
X79050Y-49890D03*
G54D16*
X78361Y-49004D03*
X78361Y-48414D03*
X78361Y-50185D03*
G54D17*
X77550Y-56725D03*
X77550Y-57475D03*
X78550Y-56725D03*
X77550Y-57100D03*
X78550Y-57475D03*
G54D18*
X78850Y-56000D03*
X78850Y-55400D03*
G54D19*
X77500Y-56000D03*
X78100Y-56000D03*
G54D20*
X77150Y-57100D03*
X77700Y-50000D03*
X76900Y-50000D03*
X77000Y-55500D03*
X77000Y-52500D03*
X77300Y-51100D03*
X78650Y-50950D03*
X77300Y-49250D03*
G54D21*
X76800Y-57500D02*
X76800Y-56550D01*
X77350Y-56000D02*
X77500Y-56000D01*
X76800Y-56550D02*
X77350Y-56000D01*
X77550Y-56725D02*
X77500Y-56675D01*
X77500Y-56675D02*
X77500Y-56000D01*
X76000Y-57500D02*
X76800Y-57500D01*
X76800Y-57500D02*
X77050Y-57500D01*
X77050Y-57500D02*
X77500Y-57500D01*
G54D22*
X77550Y-57100D02*
X77150Y-57100D01*
G54D21*
X77700Y-50000D02*
X76900Y-50000D01*
X79350Y-50450D02*
X79350Y-55900D01*
X79650Y-50150D02*
X79350Y-50450D01*
X78361Y-49004D02*
X78656Y-49300D01*
X79650Y-49650D02*
X79650Y-50050D01*
X79300Y-49300D02*
X79650Y-49650D01*
X78656Y-49300D02*
X79300Y-49300D01*
X79650Y-50050D02*
X79650Y-50150D01*
X79250Y-56000D02*
X78850Y-56000D01*
X79350Y-55900D02*
X79250Y-56000D01*
X78550Y-56725D02*
X78850Y-56425D01*
X78850Y-56425D02*
X78850Y-56000D01*
G54D22*
X76000Y-55500D02*
X77000Y-55500D01*
X76000Y-53500D02*
X78000Y-53500D01*
X76000Y-54500D02*
X78700Y-54500D01*
X78800Y-53000D02*
X78500Y-53000D01*
X79000Y-53200D02*
X78800Y-53000D01*
X79000Y-54200D02*
X79000Y-53200D01*
X78700Y-54500D02*
X79000Y-54200D01*
X77300Y-51100D02*
X78300Y-51100D01*
X78300Y-51100D02*
X78400Y-51200D01*
X78500Y-52500D02*
X78600Y-52500D01*
X77000Y-52500D02*
X76000Y-52500D01*
X79000Y-51800D02*
X78400Y-51200D01*
X79000Y-52100D02*
X79000Y-51800D01*
X78600Y-52500D02*
X79000Y-52100D01*
X78650Y-50950D02*
X78350Y-50650D01*
X78350Y-50650D02*
X78300Y-50650D01*
X76150Y-50650D02*
X78300Y-50650D01*
X76150Y-50650D02*
X76000Y-50500D01*
X78500Y-52000D02*
X78500Y-51700D01*
X78300Y-51500D02*
X76000Y-51500D01*
X78500Y-51700D02*
X78300Y-51500D01*
G54D21*
X77300Y-49250D02*
X76550Y-48500D01*
X76550Y-48500D02*
X76000Y-48500D01*
X77300Y-49250D02*
X78135Y-48414D01*
X78135Y-48414D02*
X78361Y-48414D01*
X76000Y-48500D02*
X76085Y-48414D01*
G54D10*
G36*
X78294Y-53250D02*
X78249Y-53294D01*
X78182Y-53227D01*
X78180Y-53226D01*
X78187Y-53208D01*
X78000Y-53020D01*
X77979Y-53040D01*
X77979Y-53000D01*
X77791Y-52812D01*
X77743Y-52831D01*
X77698Y-52942D01*
X77699Y-53062D01*
X77743Y-53168D01*
X77791Y-53187D01*
X77979Y-53000D01*
X77979Y-53040D01*
X77812Y-53208D01*
X77819Y-53226D01*
X77817Y-53226D01*
X77727Y-53317D01*
X77724Y-53325D01*
X76715Y-53325D01*
X76715Y-53278D01*
X76696Y-53232D01*
X76661Y-53197D01*
X76615Y-53178D01*
X76565Y-53177D01*
X75423Y-53177D01*
X75423Y-52822D01*
X75434Y-52822D01*
X76615Y-52822D01*
X76661Y-52803D01*
X76696Y-52767D01*
X76715Y-52721D01*
X76715Y-52675D01*
X76750Y-52675D01*
X76829Y-52754D01*
X76940Y-52799D01*
X77059Y-52800D01*
X77169Y-52754D01*
X77254Y-52670D01*
X77299Y-52559D01*
X77300Y-52440D01*
X77254Y-52330D01*
X77170Y-52245D01*
X77059Y-52200D01*
X76940Y-52199D01*
X76830Y-52245D01*
X76750Y-52325D01*
X76715Y-52325D01*
X76715Y-52278D01*
X76696Y-52232D01*
X76661Y-52197D01*
X76615Y-52178D01*
X76565Y-52177D01*
X75423Y-52177D01*
X75423Y-51822D01*
X75434Y-51822D01*
X76615Y-51822D01*
X76661Y-51803D01*
X76696Y-51767D01*
X76715Y-51721D01*
X76715Y-51675D01*
X78227Y-51675D01*
X78236Y-51684D01*
X78221Y-51678D01*
X78172Y-51678D01*
X77778Y-51678D01*
X77732Y-51697D01*
X77697Y-51732D01*
X77678Y-51778D01*
X77678Y-51827D01*
X77678Y-52221D01*
X77697Y-52267D01*
X77732Y-52302D01*
X77773Y-52319D01*
X77743Y-52331D01*
X77698Y-52442D01*
X77699Y-52562D01*
X77743Y-52668D01*
X77791Y-52687D01*
X77979Y-52500D01*
X77974Y-52494D01*
X77994Y-52474D01*
X78000Y-52479D01*
X78005Y-52474D01*
X78025Y-52494D01*
X78020Y-52500D01*
X78208Y-52687D01*
X78226Y-52680D01*
X78226Y-52682D01*
X78294Y-52750D01*
X78227Y-52817D01*
X78226Y-52819D01*
X78208Y-52812D01*
X78187Y-52832D01*
X78187Y-52791D01*
X78170Y-52750D01*
X78187Y-52708D01*
X78000Y-52520D01*
X77812Y-52708D01*
X77829Y-52750D01*
X77812Y-52791D01*
X78000Y-52979D01*
X78187Y-52791D01*
X78187Y-52832D01*
X78020Y-53000D01*
X78208Y-53187D01*
X78226Y-53180D01*
X78226Y-53182D01*
X78294Y-53250D01*
X78294Y-53250D01*
G37*
G54D23*
X78294Y-53250D02*
X78249Y-53294D01*
X78182Y-53227D01*
X78180Y-53226D01*
X78187Y-53208D01*
X78000Y-53020D01*
X77979Y-53040D01*
X77979Y-53000D01*
X77791Y-52812D01*
X77743Y-52831D01*
X77698Y-52942D01*
X77699Y-53062D01*
X77743Y-53168D01*
X77791Y-53187D01*
X77979Y-53000D01*
X77979Y-53040D01*
X77812Y-53208D01*
X77819Y-53226D01*
X77817Y-53226D01*
X77727Y-53317D01*
X77724Y-53325D01*
X76715Y-53325D01*
X76715Y-53278D01*
X76696Y-53232D01*
X76661Y-53197D01*
X76615Y-53178D01*
X76565Y-53177D01*
X75423Y-53177D01*
X75423Y-52822D01*
X75434Y-52822D01*
X76615Y-52822D01*
X76661Y-52803D01*
X76696Y-52767D01*
X76715Y-52721D01*
X76715Y-52675D01*
X76750Y-52675D01*
X76829Y-52754D01*
X76940Y-52799D01*
X77059Y-52800D01*
X77169Y-52754D01*
X77254Y-52670D01*
X77299Y-52559D01*
X77300Y-52440D01*
X77254Y-52330D01*
X77170Y-52245D01*
X77059Y-52200D01*
X76940Y-52199D01*
X76830Y-52245D01*
X76750Y-52325D01*
X76715Y-52325D01*
X76715Y-52278D01*
X76696Y-52232D01*
X76661Y-52197D01*
X76615Y-52178D01*
X76565Y-52177D01*
X75423Y-52177D01*
X75423Y-51822D01*
X75434Y-51822D01*
X76615Y-51822D01*
X76661Y-51803D01*
X76696Y-51767D01*
X76715Y-51721D01*
X76715Y-51675D01*
X78227Y-51675D01*
X78236Y-51684D01*
X78221Y-51678D01*
X78172Y-51678D01*
X77778Y-51678D01*
X77732Y-51697D01*
X77697Y-51732D01*
X77678Y-51778D01*
X77678Y-51827D01*
X77678Y-52221D01*
X77697Y-52267D01*
X77732Y-52302D01*
X77773Y-52319D01*
X77743Y-52331D01*
X77698Y-52442D01*
X77699Y-52562D01*
X77743Y-52668D01*
X77791Y-52687D01*
X77979Y-52500D01*
X77974Y-52494D01*
X77994Y-52474D01*
X78000Y-52479D01*
X78005Y-52474D01*
X78025Y-52494D01*
X78020Y-52500D01*
X78208Y-52687D01*
X78226Y-52680D01*
X78226Y-52682D01*
X78294Y-52750D01*
X78227Y-52817D01*
X78226Y-52819D01*
X78208Y-52812D01*
X78187Y-52832D01*
X78187Y-52791D01*
X78170Y-52750D01*
X78187Y-52708D01*
X78000Y-52520D01*
X77812Y-52708D01*
X77829Y-52750D01*
X77812Y-52791D01*
X78000Y-52979D01*
X78187Y-52791D01*
X78187Y-52832D01*
X78020Y-53000D01*
X78208Y-53187D01*
X78226Y-53180D01*
X78226Y-53182D01*
X78294Y-53250D01*
G54D10*
G36*
X78677Y-54274D02*
X78627Y-54325D01*
X78187Y-54325D01*
X78187Y-54208D01*
X78000Y-54020D01*
X77979Y-54040D01*
X77979Y-54000D01*
X77791Y-53812D01*
X77743Y-53831D01*
X77698Y-53942D01*
X77699Y-54062D01*
X77743Y-54168D01*
X77791Y-54187D01*
X77979Y-54000D01*
X77979Y-54040D01*
X77812Y-54208D01*
X77831Y-54256D01*
X77942Y-54301D01*
X78062Y-54300D01*
X78168Y-54256D01*
X78187Y-54208D01*
X78187Y-54325D01*
X76715Y-54325D01*
X76715Y-54278D01*
X76696Y-54232D01*
X76661Y-54197D01*
X76615Y-54178D01*
X76565Y-54177D01*
X75423Y-54177D01*
X75423Y-53822D01*
X75434Y-53822D01*
X76615Y-53822D01*
X76661Y-53803D01*
X76696Y-53767D01*
X76715Y-53721D01*
X76715Y-53675D01*
X77724Y-53675D01*
X77726Y-53682D01*
X77817Y-53772D01*
X77819Y-53773D01*
X77812Y-53791D01*
X78000Y-53979D01*
X78187Y-53791D01*
X78180Y-53773D01*
X78182Y-53773D01*
X78250Y-53705D01*
X78294Y-53750D01*
X78227Y-53817D01*
X78226Y-53819D01*
X78208Y-53812D01*
X78020Y-54000D01*
X78208Y-54187D01*
X78226Y-54180D01*
X78226Y-54182D01*
X78317Y-54272D01*
X78435Y-54321D01*
X78563Y-54321D01*
X78677Y-54274D01*
X78677Y-54274D01*
G37*
G54D23*
X78677Y-54274D02*
X78627Y-54325D01*
X78187Y-54325D01*
X78187Y-54208D01*
X78000Y-54020D01*
X77979Y-54040D01*
X77979Y-54000D01*
X77791Y-53812D01*
X77743Y-53831D01*
X77698Y-53942D01*
X77699Y-54062D01*
X77743Y-54168D01*
X77791Y-54187D01*
X77979Y-54000D01*
X77979Y-54040D01*
X77812Y-54208D01*
X77831Y-54256D01*
X77942Y-54301D01*
X78062Y-54300D01*
X78168Y-54256D01*
X78187Y-54208D01*
X78187Y-54325D01*
X76715Y-54325D01*
X76715Y-54278D01*
X76696Y-54232D01*
X76661Y-54197D01*
X76615Y-54178D01*
X76565Y-54177D01*
X75423Y-54177D01*
X75423Y-53822D01*
X75434Y-53822D01*
X76615Y-53822D01*
X76661Y-53803D01*
X76696Y-53767D01*
X76715Y-53721D01*
X76715Y-53675D01*
X77724Y-53675D01*
X77726Y-53682D01*
X77817Y-53772D01*
X77819Y-53773D01*
X77812Y-53791D01*
X78000Y-53979D01*
X78187Y-53791D01*
X78180Y-53773D01*
X78182Y-53773D01*
X78250Y-53705D01*
X78294Y-53750D01*
X78227Y-53817D01*
X78226Y-53819D01*
X78208Y-53812D01*
X78020Y-54000D01*
X78208Y-54187D01*
X78226Y-54180D01*
X78226Y-54182D01*
X78317Y-54272D01*
X78435Y-54321D01*
X78563Y-54321D01*
X78677Y-54274D01*
G54D10*
G36*
X79456Y-50069D02*
X79425Y-50100D01*
X79425Y-49816D01*
X79368Y-49678D01*
X79262Y-49572D01*
X79124Y-49515D01*
X78975Y-49515D01*
X78837Y-49572D01*
X78732Y-49677D01*
X78675Y-49815D01*
X78674Y-49923D01*
X78631Y-49923D01*
X78040Y-49923D01*
X77995Y-49942D01*
X77959Y-49977D01*
X77940Y-50023D01*
X77940Y-50072D01*
X77940Y-50348D01*
X77959Y-50394D01*
X77994Y-50429D01*
X78040Y-50448D01*
X78090Y-50448D01*
X78681Y-50448D01*
X78727Y-50429D01*
X78762Y-50394D01*
X78781Y-50348D01*
X78781Y-50298D01*
X78781Y-50152D01*
X78837Y-50208D01*
X78975Y-50265D01*
X79124Y-50265D01*
X79262Y-50208D01*
X79367Y-50103D01*
X79424Y-49965D01*
X79425Y-49816D01*
X79425Y-50100D01*
X79212Y-50312D01*
X79170Y-50375D01*
X79156Y-50450D01*
X79156Y-51724D01*
X79123Y-51676D01*
X78697Y-51250D01*
X78709Y-51250D01*
X78819Y-51204D01*
X78904Y-51120D01*
X78949Y-51009D01*
X78950Y-50890D01*
X78904Y-50780D01*
X78820Y-50695D01*
X78709Y-50650D01*
X78597Y-50649D01*
X78473Y-50526D01*
X78416Y-50488D01*
X78350Y-50475D01*
X78300Y-50475D01*
X76715Y-50475D01*
X76715Y-50278D01*
X76696Y-50232D01*
X76661Y-50197D01*
X76615Y-50178D01*
X76565Y-50177D01*
X75423Y-50177D01*
X75423Y-49822D01*
X75434Y-49822D01*
X76615Y-49822D01*
X76661Y-49803D01*
X76696Y-49767D01*
X76715Y-49721D01*
X76715Y-49672D01*
X76715Y-49278D01*
X76696Y-49232D01*
X76661Y-49197D01*
X76615Y-49178D01*
X76565Y-49177D01*
X75423Y-49177D01*
X75423Y-48766D01*
X75469Y-48797D01*
X75592Y-48822D01*
X76407Y-48822D01*
X76530Y-48797D01*
X76556Y-48780D01*
X77000Y-49224D01*
X76999Y-49309D01*
X77045Y-49419D01*
X77129Y-49504D01*
X77240Y-49549D01*
X77359Y-49550D01*
X77469Y-49504D01*
X77554Y-49420D01*
X77599Y-49309D01*
X77600Y-49224D01*
X77940Y-48883D01*
X77940Y-48891D01*
X77940Y-49167D01*
X77959Y-49213D01*
X77994Y-49248D01*
X78040Y-49267D01*
X78090Y-49267D01*
X78349Y-49267D01*
X78519Y-49437D01*
X78582Y-49479D01*
X78656Y-49493D01*
X79219Y-49493D01*
X79456Y-49730D01*
X79456Y-50050D01*
X79456Y-50069D01*
X79456Y-50069D01*
G37*
G54D23*
X79456Y-50069D02*
X79425Y-50100D01*
X79425Y-49816D01*
X79368Y-49678D01*
X79262Y-49572D01*
X79124Y-49515D01*
X78975Y-49515D01*
X78837Y-49572D01*
X78732Y-49677D01*
X78675Y-49815D01*
X78674Y-49923D01*
X78631Y-49923D01*
X78040Y-49923D01*
X77995Y-49942D01*
X77959Y-49977D01*
X77940Y-50023D01*
X77940Y-50072D01*
X77940Y-50348D01*
X77959Y-50394D01*
X77994Y-50429D01*
X78040Y-50448D01*
X78090Y-50448D01*
X78681Y-50448D01*
X78727Y-50429D01*
X78762Y-50394D01*
X78781Y-50348D01*
X78781Y-50298D01*
X78781Y-50152D01*
X78837Y-50208D01*
X78975Y-50265D01*
X79124Y-50265D01*
X79262Y-50208D01*
X79367Y-50103D01*
X79424Y-49965D01*
X79425Y-49816D01*
X79425Y-50100D01*
X79212Y-50312D01*
X79170Y-50375D01*
X79156Y-50450D01*
X79156Y-51724D01*
X79123Y-51676D01*
X78697Y-51250D01*
X78709Y-51250D01*
X78819Y-51204D01*
X78904Y-51120D01*
X78949Y-51009D01*
X78950Y-50890D01*
X78904Y-50780D01*
X78820Y-50695D01*
X78709Y-50650D01*
X78597Y-50649D01*
X78473Y-50526D01*
X78416Y-50488D01*
X78350Y-50475D01*
X78300Y-50475D01*
X76715Y-50475D01*
X76715Y-50278D01*
X76696Y-50232D01*
X76661Y-50197D01*
X76615Y-50178D01*
X76565Y-50177D01*
X75423Y-50177D01*
X75423Y-49822D01*
X75434Y-49822D01*
X76615Y-49822D01*
X76661Y-49803D01*
X76696Y-49767D01*
X76715Y-49721D01*
X76715Y-49672D01*
X76715Y-49278D01*
X76696Y-49232D01*
X76661Y-49197D01*
X76615Y-49178D01*
X76565Y-49177D01*
X75423Y-49177D01*
X75423Y-48766D01*
X75469Y-48797D01*
X75592Y-48822D01*
X76407Y-48822D01*
X76530Y-48797D01*
X76556Y-48780D01*
X77000Y-49224D01*
X76999Y-49309D01*
X77045Y-49419D01*
X77129Y-49504D01*
X77240Y-49549D01*
X77359Y-49550D01*
X77469Y-49504D01*
X77554Y-49420D01*
X77599Y-49309D01*
X77600Y-49224D01*
X77940Y-48883D01*
X77940Y-48891D01*
X77940Y-49167D01*
X77959Y-49213D01*
X77994Y-49248D01*
X78040Y-49267D01*
X78090Y-49267D01*
X78349Y-49267D01*
X78519Y-49437D01*
X78582Y-49479D01*
X78656Y-49493D01*
X79219Y-49493D01*
X79456Y-49730D01*
X79456Y-50050D01*
X79456Y-50069D01*
G54D10*
G36*
X79926Y-56839D02*
X79846Y-57240D01*
X79623Y-57575D01*
X79292Y-57795D01*
X78887Y-57876D01*
X78825Y-57876D01*
X78825Y-57550D01*
X78825Y-57350D01*
X78806Y-57304D01*
X78770Y-57269D01*
X78724Y-57250D01*
X78675Y-57249D01*
X78375Y-57249D01*
X78329Y-57268D01*
X78294Y-57304D01*
X78275Y-57350D01*
X78274Y-57399D01*
X78274Y-57599D01*
X78293Y-57645D01*
X78329Y-57680D01*
X78375Y-57699D01*
X78424Y-57700D01*
X78724Y-57700D01*
X78770Y-57681D01*
X78805Y-57645D01*
X78824Y-57599D01*
X78825Y-57550D01*
X78825Y-57876D01*
X78085Y-57876D01*
X78085Y-56302D01*
X78085Y-56014D01*
X78085Y-55985D01*
X78085Y-55697D01*
X78059Y-55671D01*
X77954Y-55671D01*
X77916Y-55687D01*
X77887Y-55716D01*
X77871Y-55754D01*
X77871Y-55795D01*
X77871Y-55959D01*
X77897Y-55985D01*
X78085Y-55985D01*
X78085Y-56014D01*
X77897Y-56014D01*
X77871Y-56040D01*
X77871Y-56204D01*
X77871Y-56245D01*
X77887Y-56283D01*
X77916Y-56312D01*
X77954Y-56328D01*
X78059Y-56328D01*
X78085Y-56302D01*
X78085Y-57876D01*
X75423Y-57876D01*
X75423Y-57822D01*
X75434Y-57822D01*
X76615Y-57822D01*
X76661Y-57803D01*
X76696Y-57767D01*
X76715Y-57721D01*
X76715Y-57693D01*
X76800Y-57693D01*
X77050Y-57693D01*
X77360Y-57693D01*
X77375Y-57699D01*
X77424Y-57700D01*
X77724Y-57700D01*
X77770Y-57681D01*
X77805Y-57645D01*
X77824Y-57599D01*
X77825Y-57550D01*
X77825Y-57350D01*
X77806Y-57304D01*
X77774Y-57272D01*
X77787Y-57258D01*
X77803Y-57220D01*
X77803Y-57140D01*
X77777Y-57114D01*
X77564Y-57114D01*
X77564Y-57122D01*
X77535Y-57122D01*
X77535Y-57114D01*
X77322Y-57114D01*
X77296Y-57140D01*
X77296Y-57220D01*
X77312Y-57258D01*
X77325Y-57272D01*
X77294Y-57304D01*
X77293Y-57306D01*
X77050Y-57306D01*
X76993Y-57306D01*
X76993Y-56630D01*
X77298Y-56325D01*
X77304Y-56330D01*
X77306Y-56331D01*
X77306Y-56542D01*
X77294Y-56554D01*
X77275Y-56600D01*
X77274Y-56649D01*
X77274Y-56849D01*
X77293Y-56895D01*
X77325Y-56927D01*
X77312Y-56941D01*
X77296Y-56979D01*
X77296Y-57059D01*
X77322Y-57085D01*
X77535Y-57085D01*
X77535Y-57077D01*
X77564Y-57077D01*
X77564Y-57085D01*
X77777Y-57085D01*
X77803Y-57059D01*
X77803Y-56979D01*
X77787Y-56941D01*
X77774Y-56927D01*
X77805Y-56895D01*
X77824Y-56849D01*
X77825Y-56800D01*
X77825Y-56600D01*
X77806Y-56554D01*
X77770Y-56519D01*
X77724Y-56500D01*
X77693Y-56499D01*
X77693Y-56331D01*
X77695Y-56331D01*
X77730Y-56295D01*
X77749Y-56249D01*
X77750Y-56200D01*
X77750Y-55750D01*
X77731Y-55704D01*
X77695Y-55669D01*
X77649Y-55650D01*
X77600Y-55649D01*
X77350Y-55649D01*
X77304Y-55668D01*
X77269Y-55704D01*
X77250Y-55750D01*
X77249Y-55799D01*
X77249Y-55838D01*
X77212Y-55862D01*
X76715Y-56360D01*
X76715Y-56278D01*
X76696Y-56232D01*
X76661Y-56197D01*
X76615Y-56178D01*
X76565Y-56177D01*
X75423Y-56177D01*
X75423Y-55822D01*
X75434Y-55822D01*
X76615Y-55822D01*
X76661Y-55803D01*
X76696Y-55767D01*
X76715Y-55721D01*
X76715Y-55675D01*
X76750Y-55675D01*
X76829Y-55754D01*
X76940Y-55799D01*
X77059Y-55800D01*
X77169Y-55754D01*
X77254Y-55670D01*
X77299Y-55559D01*
X77300Y-55440D01*
X77254Y-55330D01*
X77170Y-55245D01*
X77059Y-55200D01*
X76940Y-55199D01*
X76830Y-55245D01*
X76750Y-55325D01*
X76715Y-55325D01*
X76715Y-55278D01*
X76696Y-55232D01*
X76661Y-55197D01*
X76615Y-55178D01*
X76565Y-55177D01*
X75423Y-55177D01*
X75423Y-54822D01*
X75434Y-54822D01*
X76615Y-54822D01*
X76661Y-54803D01*
X76696Y-54767D01*
X76715Y-54721D01*
X76715Y-54675D01*
X78700Y-54675D01*
X78766Y-54661D01*
X78766Y-54661D01*
X78823Y-54623D01*
X79123Y-54323D01*
X79123Y-54323D01*
X79123Y-54323D01*
X79156Y-54275D01*
X79156Y-55209D01*
X79133Y-55187D01*
X79095Y-55171D01*
X79054Y-55171D01*
X78890Y-55171D01*
X78864Y-55197D01*
X78864Y-55385D01*
X78872Y-55385D01*
X78872Y-55414D01*
X78864Y-55414D01*
X78864Y-55602D01*
X78890Y-55628D01*
X79054Y-55628D01*
X79095Y-55628D01*
X79133Y-55612D01*
X79156Y-55590D01*
X79156Y-55779D01*
X79145Y-55769D01*
X79099Y-55750D01*
X79050Y-55749D01*
X78835Y-55749D01*
X78835Y-55602D01*
X78835Y-55414D01*
X78835Y-55385D01*
X78835Y-55197D01*
X78809Y-55171D01*
X78645Y-55171D01*
X78604Y-55171D01*
X78566Y-55187D01*
X78537Y-55216D01*
X78521Y-55254D01*
X78521Y-55359D01*
X78547Y-55385D01*
X78835Y-55385D01*
X78835Y-55414D01*
X78547Y-55414D01*
X78521Y-55440D01*
X78521Y-55545D01*
X78537Y-55583D01*
X78566Y-55612D01*
X78604Y-55628D01*
X78645Y-55628D01*
X78809Y-55628D01*
X78835Y-55602D01*
X78835Y-55749D01*
X78600Y-55749D01*
X78554Y-55768D01*
X78519Y-55804D01*
X78500Y-55850D01*
X78499Y-55899D01*
X78499Y-56149D01*
X78518Y-56195D01*
X78554Y-56230D01*
X78600Y-56249D01*
X78649Y-56250D01*
X78656Y-56250D01*
X78656Y-56344D01*
X78500Y-56499D01*
X78375Y-56499D01*
X78329Y-56518D01*
X78328Y-56519D01*
X78328Y-56204D01*
X78328Y-55795D01*
X78328Y-55754D01*
X78312Y-55716D01*
X78283Y-55687D01*
X78245Y-55671D01*
X78140Y-55671D01*
X78114Y-55697D01*
X78114Y-55985D01*
X78302Y-55985D01*
X78328Y-55959D01*
X78328Y-55795D01*
X78328Y-56204D01*
X78328Y-56040D01*
X78302Y-56014D01*
X78114Y-56014D01*
X78114Y-56302D01*
X78140Y-56328D01*
X78245Y-56328D01*
X78283Y-56312D01*
X78312Y-56283D01*
X78328Y-56245D01*
X78328Y-56204D01*
X78328Y-56519D01*
X78294Y-56554D01*
X78275Y-56600D01*
X78274Y-56649D01*
X78274Y-56849D01*
X78293Y-56895D01*
X78329Y-56930D01*
X78375Y-56949D01*
X78424Y-56950D01*
X78724Y-56950D01*
X78770Y-56931D01*
X78805Y-56895D01*
X78824Y-56849D01*
X78825Y-56800D01*
X78825Y-56724D01*
X78987Y-56562D01*
X78987Y-56562D01*
X79029Y-56499D01*
X79043Y-56425D01*
X79043Y-56425D01*
X79043Y-56250D01*
X79099Y-56250D01*
X79145Y-56231D01*
X79180Y-56195D01*
X79181Y-56193D01*
X79250Y-56193D01*
X79324Y-56179D01*
X79387Y-56137D01*
X79487Y-56037D01*
X79529Y-55974D01*
X79543Y-55900D01*
X79543Y-50530D01*
X79787Y-50287D01*
X79787Y-50287D01*
X79829Y-50224D01*
X79843Y-50150D01*
X79843Y-50150D01*
X79843Y-50050D01*
X79843Y-49650D01*
X79843Y-49649D01*
X79829Y-49575D01*
X79787Y-49512D01*
X79787Y-49512D01*
X79437Y-49162D01*
X79374Y-49120D01*
X79300Y-49106D01*
X78781Y-49106D01*
X78781Y-48971D01*
X78837Y-49027D01*
X78975Y-49084D01*
X79124Y-49084D01*
X79262Y-49027D01*
X79367Y-48922D01*
X79424Y-48784D01*
X79425Y-48635D01*
X79368Y-48497D01*
X79262Y-48391D01*
X79124Y-48334D01*
X78975Y-48334D01*
X78837Y-48391D01*
X78781Y-48447D01*
X78781Y-48251D01*
X78762Y-48205D01*
X78727Y-48170D01*
X78681Y-48151D01*
X78631Y-48151D01*
X78040Y-48151D01*
X77995Y-48170D01*
X77959Y-48205D01*
X77940Y-48251D01*
X77940Y-48301D01*
X77940Y-48335D01*
X77325Y-48950D01*
X77274Y-48949D01*
X76706Y-48381D01*
X76705Y-48376D01*
X76635Y-48272D01*
X76530Y-48202D01*
X76407Y-48178D01*
X75592Y-48178D01*
X75469Y-48202D01*
X75423Y-48233D01*
X75423Y-48123D01*
X78935Y-48123D01*
X79332Y-48220D01*
X79655Y-48456D01*
X79863Y-48798D01*
X79926Y-49207D01*
X79926Y-56839D01*
X79926Y-56839D01*
G37*
G54D23*
X79926Y-56839D02*
X79846Y-57240D01*
X79623Y-57575D01*
X79292Y-57795D01*
X78887Y-57876D01*
X78825Y-57876D01*
X78825Y-57550D01*
X78825Y-57350D01*
X78806Y-57304D01*
X78770Y-57269D01*
X78724Y-57250D01*
X78675Y-57249D01*
X78375Y-57249D01*
X78329Y-57268D01*
X78294Y-57304D01*
X78275Y-57350D01*
X78274Y-57399D01*
X78274Y-57599D01*
X78293Y-57645D01*
X78329Y-57680D01*
X78375Y-57699D01*
X78424Y-57700D01*
X78724Y-57700D01*
X78770Y-57681D01*
X78805Y-57645D01*
X78824Y-57599D01*
X78825Y-57550D01*
X78825Y-57876D01*
X78085Y-57876D01*
X78085Y-56302D01*
X78085Y-56014D01*
X78085Y-55985D01*
X78085Y-55697D01*
X78059Y-55671D01*
X77954Y-55671D01*
X77916Y-55687D01*
X77887Y-55716D01*
X77871Y-55754D01*
X77871Y-55795D01*
X77871Y-55959D01*
X77897Y-55985D01*
X78085Y-55985D01*
X78085Y-56014D01*
X77897Y-56014D01*
X77871Y-56040D01*
X77871Y-56204D01*
X77871Y-56245D01*
X77887Y-56283D01*
X77916Y-56312D01*
X77954Y-56328D01*
X78059Y-56328D01*
X78085Y-56302D01*
X78085Y-57876D01*
X75423Y-57876D01*
X75423Y-57822D01*
X75434Y-57822D01*
X76615Y-57822D01*
X76661Y-57803D01*
X76696Y-57767D01*
X76715Y-57721D01*
X76715Y-57693D01*
X76800Y-57693D01*
X77050Y-57693D01*
X77360Y-57693D01*
X77375Y-57699D01*
X77424Y-57700D01*
X77724Y-57700D01*
X77770Y-57681D01*
X77805Y-57645D01*
X77824Y-57599D01*
X77825Y-57550D01*
X77825Y-57350D01*
X77806Y-57304D01*
X77774Y-57272D01*
X77787Y-57258D01*
X77803Y-57220D01*
X77803Y-57140D01*
X77777Y-57114D01*
X77564Y-57114D01*
X77564Y-57122D01*
X77535Y-57122D01*
X77535Y-57114D01*
X77322Y-57114D01*
X77296Y-57140D01*
X77296Y-57220D01*
X77312Y-57258D01*
X77325Y-57272D01*
X77294Y-57304D01*
X77293Y-57306D01*
X77050Y-57306D01*
X76993Y-57306D01*
X76993Y-56630D01*
X77298Y-56325D01*
X77304Y-56330D01*
X77306Y-56331D01*
X77306Y-56542D01*
X77294Y-56554D01*
X77275Y-56600D01*
X77274Y-56649D01*
X77274Y-56849D01*
X77293Y-56895D01*
X77325Y-56927D01*
X77312Y-56941D01*
X77296Y-56979D01*
X77296Y-57059D01*
X77322Y-57085D01*
X77535Y-57085D01*
X77535Y-57077D01*
X77564Y-57077D01*
X77564Y-57085D01*
X77777Y-57085D01*
X77803Y-57059D01*
X77803Y-56979D01*
X77787Y-56941D01*
X77774Y-56927D01*
X77805Y-56895D01*
X77824Y-56849D01*
X77825Y-56800D01*
X77825Y-56600D01*
X77806Y-56554D01*
X77770Y-56519D01*
X77724Y-56500D01*
X77693Y-56499D01*
X77693Y-56331D01*
X77695Y-56331D01*
X77730Y-56295D01*
X77749Y-56249D01*
X77750Y-56200D01*
X77750Y-55750D01*
X77731Y-55704D01*
X77695Y-55669D01*
X77649Y-55650D01*
X77600Y-55649D01*
X77350Y-55649D01*
X77304Y-55668D01*
X77269Y-55704D01*
X77250Y-55750D01*
X77249Y-55799D01*
X77249Y-55838D01*
X77212Y-55862D01*
X76715Y-56360D01*
X76715Y-56278D01*
X76696Y-56232D01*
X76661Y-56197D01*
X76615Y-56178D01*
X76565Y-56177D01*
X75423Y-56177D01*
X75423Y-55822D01*
X75434Y-55822D01*
X76615Y-55822D01*
X76661Y-55803D01*
X76696Y-55767D01*
X76715Y-55721D01*
X76715Y-55675D01*
X76750Y-55675D01*
X76829Y-55754D01*
X76940Y-55799D01*
X77059Y-55800D01*
X77169Y-55754D01*
X77254Y-55670D01*
X77299Y-55559D01*
X77300Y-55440D01*
X77254Y-55330D01*
X77170Y-55245D01*
X77059Y-55200D01*
X76940Y-55199D01*
X76830Y-55245D01*
X76750Y-55325D01*
X76715Y-55325D01*
X76715Y-55278D01*
X76696Y-55232D01*
X76661Y-55197D01*
X76615Y-55178D01*
X76565Y-55177D01*
X75423Y-55177D01*
X75423Y-54822D01*
X75434Y-54822D01*
X76615Y-54822D01*
X76661Y-54803D01*
X76696Y-54767D01*
X76715Y-54721D01*
X76715Y-54675D01*
X78700Y-54675D01*
X78766Y-54661D01*
X78766Y-54661D01*
X78823Y-54623D01*
X79123Y-54323D01*
X79123Y-54323D01*
X79123Y-54323D01*
X79156Y-54275D01*
X79156Y-55209D01*
X79133Y-55187D01*
X79095Y-55171D01*
X79054Y-55171D01*
X78890Y-55171D01*
X78864Y-55197D01*
X78864Y-55385D01*
X78872Y-55385D01*
X78872Y-55414D01*
X78864Y-55414D01*
X78864Y-55602D01*
X78890Y-55628D01*
X79054Y-55628D01*
X79095Y-55628D01*
X79133Y-55612D01*
X79156Y-55590D01*
X79156Y-55779D01*
X79145Y-55769D01*
X79099Y-55750D01*
X79050Y-55749D01*
X78835Y-55749D01*
X78835Y-55602D01*
X78835Y-55414D01*
X78835Y-55385D01*
X78835Y-55197D01*
X78809Y-55171D01*
X78645Y-55171D01*
X78604Y-55171D01*
X78566Y-55187D01*
X78537Y-55216D01*
X78521Y-55254D01*
X78521Y-55359D01*
X78547Y-55385D01*
X78835Y-55385D01*
X78835Y-55414D01*
X78547Y-55414D01*
X78521Y-55440D01*
X78521Y-55545D01*
X78537Y-55583D01*
X78566Y-55612D01*
X78604Y-55628D01*
X78645Y-55628D01*
X78809Y-55628D01*
X78835Y-55602D01*
X78835Y-55749D01*
X78600Y-55749D01*
X78554Y-55768D01*
X78519Y-55804D01*
X78500Y-55850D01*
X78499Y-55899D01*
X78499Y-56149D01*
X78518Y-56195D01*
X78554Y-56230D01*
X78600Y-56249D01*
X78649Y-56250D01*
X78656Y-56250D01*
X78656Y-56344D01*
X78500Y-56499D01*
X78375Y-56499D01*
X78329Y-56518D01*
X78328Y-56519D01*
X78328Y-56204D01*
X78328Y-55795D01*
X78328Y-55754D01*
X78312Y-55716D01*
X78283Y-55687D01*
X78245Y-55671D01*
X78140Y-55671D01*
X78114Y-55697D01*
X78114Y-55985D01*
X78302Y-55985D01*
X78328Y-55959D01*
X78328Y-55795D01*
X78328Y-56204D01*
X78328Y-56040D01*
X78302Y-56014D01*
X78114Y-56014D01*
X78114Y-56302D01*
X78140Y-56328D01*
X78245Y-56328D01*
X78283Y-56312D01*
X78312Y-56283D01*
X78328Y-56245D01*
X78328Y-56204D01*
X78328Y-56519D01*
X78294Y-56554D01*
X78275Y-56600D01*
X78274Y-56649D01*
X78274Y-56849D01*
X78293Y-56895D01*
X78329Y-56930D01*
X78375Y-56949D01*
X78424Y-56950D01*
X78724Y-56950D01*
X78770Y-56931D01*
X78805Y-56895D01*
X78824Y-56849D01*
X78825Y-56800D01*
X78825Y-56724D01*
X78987Y-56562D01*
X78987Y-56562D01*
X79029Y-56499D01*
X79043Y-56425D01*
X79043Y-56425D01*
X79043Y-56250D01*
X79099Y-56250D01*
X79145Y-56231D01*
X79180Y-56195D01*
X79181Y-56193D01*
X79250Y-56193D01*
X79324Y-56179D01*
X79387Y-56137D01*
X79487Y-56037D01*
X79529Y-55974D01*
X79543Y-55900D01*
X79543Y-50530D01*
X79787Y-50287D01*
X79787Y-50287D01*
X79829Y-50224D01*
X79843Y-50150D01*
X79843Y-50150D01*
X79843Y-50050D01*
X79843Y-49650D01*
X79843Y-49649D01*
X79829Y-49575D01*
X79787Y-49512D01*
X79787Y-49512D01*
X79437Y-49162D01*
X79374Y-49120D01*
X79300Y-49106D01*
X78781Y-49106D01*
X78781Y-48971D01*
X78837Y-49027D01*
X78975Y-49084D01*
X79124Y-49084D01*
X79262Y-49027D01*
X79367Y-48922D01*
X79424Y-48784D01*
X79425Y-48635D01*
X79368Y-48497D01*
X79262Y-48391D01*
X79124Y-48334D01*
X78975Y-48334D01*
X78837Y-48391D01*
X78781Y-48447D01*
X78781Y-48251D01*
X78762Y-48205D01*
X78727Y-48170D01*
X78681Y-48151D01*
X78631Y-48151D01*
X78040Y-48151D01*
X77995Y-48170D01*
X77959Y-48205D01*
X77940Y-48251D01*
X77940Y-48301D01*
X77940Y-48335D01*
X77325Y-48950D01*
X77274Y-48949D01*
X76706Y-48381D01*
X76705Y-48376D01*
X76635Y-48272D01*
X76530Y-48202D01*
X76407Y-48178D01*
X75592Y-48178D01*
X75469Y-48202D01*
X75423Y-48233D01*
X75423Y-48123D01*
X78935Y-48123D01*
X79332Y-48220D01*
X79655Y-48456D01*
X79863Y-48798D01*
X79926Y-49207D01*
X79926Y-56839D01*
M02*
