G04 (created by PCBNEW (2013-07-07 BZR 4022)-stable) date 4/23/2014 9:43:38 AM*
%MOIN*%
G04 Gerber Fmt 3.4, Leading zero omitted, Abs format*
%FSLAX34Y34*%
G01*
G70*
G90*
G04 APERTURE LIST*
%ADD10C,0.00590551*%
%ADD11C,0.00472441*%
%ADD12C,0.00787402*%
%ADD13C,0.005*%
%ADD14C,0.0028*%
G04 APERTURE END LIST*
G54D10*
G54D11*
X75575Y-58269D02*
X75575Y-57974D01*
X75575Y-58114D02*
X75743Y-58114D01*
X75743Y-58269D02*
X75743Y-57974D01*
X75940Y-57974D02*
X75996Y-57974D01*
X76025Y-57988D01*
X76053Y-58016D01*
X76067Y-58072D01*
X76067Y-58171D01*
X76053Y-58227D01*
X76025Y-58255D01*
X75996Y-58269D01*
X75940Y-58269D01*
X75912Y-58255D01*
X75884Y-58227D01*
X75870Y-58171D01*
X75870Y-58072D01*
X75884Y-58016D01*
X75912Y-57988D01*
X75940Y-57974D01*
X76179Y-58255D02*
X76221Y-58269D01*
X76292Y-58269D01*
X76320Y-58255D01*
X76334Y-58241D01*
X76348Y-58213D01*
X76348Y-58185D01*
X76334Y-58157D01*
X76320Y-58142D01*
X76292Y-58128D01*
X76235Y-58114D01*
X76207Y-58100D01*
X76193Y-58086D01*
X76179Y-58058D01*
X76179Y-58030D01*
X76193Y-58002D01*
X76207Y-57988D01*
X76235Y-57974D01*
X76306Y-57974D01*
X76348Y-57988D01*
X76432Y-57974D02*
X76601Y-57974D01*
X76517Y-58269D02*
X76517Y-57974D01*
X76699Y-58072D02*
X76924Y-58157D01*
X76699Y-58241D01*
X75575Y-47624D02*
X75743Y-47624D01*
X75659Y-47919D02*
X75659Y-47624D01*
X76010Y-47919D02*
X75912Y-47778D01*
X75842Y-47919D02*
X75842Y-47624D01*
X75954Y-47624D01*
X75982Y-47638D01*
X75996Y-47652D01*
X76010Y-47680D01*
X76010Y-47722D01*
X75996Y-47750D01*
X75982Y-47764D01*
X75954Y-47778D01*
X75842Y-47778D01*
X76292Y-47638D02*
X76264Y-47624D01*
X76221Y-47624D01*
X76179Y-47638D01*
X76151Y-47666D01*
X76137Y-47694D01*
X76123Y-47750D01*
X76123Y-47792D01*
X76137Y-47849D01*
X76151Y-47877D01*
X76179Y-47905D01*
X76221Y-47919D01*
X76250Y-47919D01*
X76292Y-47905D01*
X76306Y-47891D01*
X76306Y-47792D01*
X76250Y-47792D01*
X76390Y-47624D02*
X76559Y-47624D01*
X76474Y-47919D02*
X76474Y-47624D01*
X76657Y-47722D02*
X76882Y-47807D01*
X76657Y-47891D01*
G54D12*
X77350Y-56500D02*
G75*
G03X77350Y-56500I-50J0D01*
G74*
G01*
G54D13*
X78400Y-57700D02*
X77700Y-57700D01*
X77700Y-57700D02*
X77700Y-56500D01*
X77700Y-56500D02*
X78400Y-56500D01*
X78400Y-56500D02*
X78400Y-57700D01*
X77850Y-48050D02*
X76950Y-48050D01*
X76950Y-48050D02*
X76950Y-47550D01*
X76950Y-47550D02*
X77850Y-47550D01*
X77850Y-47550D02*
X77850Y-48050D01*
X77000Y-57850D02*
X77900Y-57850D01*
X77900Y-57850D02*
X77900Y-58350D01*
X77900Y-58350D02*
X77000Y-58350D01*
X77000Y-58350D02*
X77000Y-57850D01*
G54D14*
X79000Y-56150D02*
X79200Y-56150D01*
X79200Y-56150D02*
X79200Y-55850D01*
X79200Y-55850D02*
X79000Y-55850D01*
X78800Y-56150D02*
X78600Y-56150D01*
X78600Y-56150D02*
X78600Y-55850D01*
X78600Y-55850D02*
X78800Y-55850D01*
X77700Y-55850D02*
X77500Y-55850D01*
X77500Y-55850D02*
X77500Y-56150D01*
X77500Y-56150D02*
X77700Y-56150D01*
X77900Y-55850D02*
X78100Y-55850D01*
X78100Y-55850D02*
X78100Y-56150D01*
X78100Y-56150D02*
X77900Y-56150D01*
X77050Y-48800D02*
X77050Y-49000D01*
X77050Y-49000D02*
X77350Y-49000D01*
X77350Y-49000D02*
X77350Y-48800D01*
X77050Y-48600D02*
X77050Y-48400D01*
X77050Y-48400D02*
X77350Y-48400D01*
X77350Y-48400D02*
X77350Y-48600D01*
X78800Y-58250D02*
X79000Y-58250D01*
X79000Y-58250D02*
X79000Y-57950D01*
X79000Y-57950D02*
X78800Y-57950D01*
X78600Y-58250D02*
X78400Y-58250D01*
X78400Y-58250D02*
X78400Y-57950D01*
X78400Y-57950D02*
X78600Y-57950D01*
G54D11*
X77901Y-51274D02*
X77901Y-51485D01*
X77887Y-51527D01*
X77859Y-51555D01*
X77817Y-51569D01*
X77789Y-51569D01*
X78028Y-51302D02*
X78042Y-51288D01*
X78070Y-51274D01*
X78140Y-51274D01*
X78168Y-51288D01*
X78182Y-51302D01*
X78196Y-51330D01*
X78196Y-51358D01*
X78182Y-51400D01*
X78014Y-51569D01*
X78196Y-51569D01*
X76001Y-48824D02*
X76001Y-49035D01*
X75987Y-49077D01*
X75959Y-49105D01*
X75917Y-49119D01*
X75889Y-49119D01*
X76296Y-49119D02*
X76128Y-49119D01*
X76212Y-49119D02*
X76212Y-48824D01*
X76184Y-48866D01*
X76156Y-48894D01*
X76128Y-48908D01*
X77532Y-48469D02*
X77532Y-48174D01*
X77602Y-48174D01*
X77644Y-48188D01*
X77672Y-48216D01*
X77686Y-48244D01*
X77700Y-48300D01*
X77700Y-48342D01*
X77686Y-48399D01*
X77672Y-48427D01*
X77644Y-48455D01*
X77602Y-48469D01*
X77532Y-48469D01*
X77813Y-48202D02*
X77827Y-48188D01*
X77855Y-48174D01*
X77925Y-48174D01*
X77953Y-48188D01*
X77967Y-48202D01*
X77982Y-48230D01*
X77982Y-48258D01*
X77967Y-48300D01*
X77799Y-48469D01*
X77982Y-48469D01*
X76782Y-57719D02*
X76782Y-57424D01*
X76852Y-57424D01*
X76894Y-57438D01*
X76922Y-57466D01*
X76936Y-57494D01*
X76950Y-57550D01*
X76950Y-57592D01*
X76936Y-57649D01*
X76922Y-57677D01*
X76894Y-57705D01*
X76852Y-57719D01*
X76782Y-57719D01*
X77232Y-57719D02*
X77063Y-57719D01*
X77147Y-57719D02*
X77147Y-57424D01*
X77119Y-57466D01*
X77091Y-57494D01*
X77063Y-57508D01*
X79500Y-56091D02*
X79486Y-56105D01*
X79444Y-56119D01*
X79416Y-56119D01*
X79374Y-56105D01*
X79346Y-56077D01*
X79332Y-56049D01*
X79317Y-55992D01*
X79317Y-55950D01*
X79332Y-55894D01*
X79346Y-55866D01*
X79374Y-55838D01*
X79416Y-55824D01*
X79444Y-55824D01*
X79486Y-55838D01*
X79500Y-55852D01*
X79613Y-55852D02*
X79627Y-55838D01*
X79655Y-55824D01*
X79725Y-55824D01*
X79753Y-55838D01*
X79767Y-55852D01*
X79782Y-55880D01*
X79782Y-55908D01*
X79767Y-55950D01*
X79599Y-56119D01*
X79782Y-56119D01*
X77100Y-56091D02*
X77086Y-56105D01*
X77044Y-56119D01*
X77016Y-56119D01*
X76974Y-56105D01*
X76946Y-56077D01*
X76932Y-56049D01*
X76917Y-55992D01*
X76917Y-55950D01*
X76932Y-55894D01*
X76946Y-55866D01*
X76974Y-55838D01*
X77016Y-55824D01*
X77044Y-55824D01*
X77086Y-55838D01*
X77100Y-55852D01*
X77382Y-56119D02*
X77213Y-56119D01*
X77297Y-56119D02*
X77297Y-55824D01*
X77269Y-55866D01*
X77241Y-55894D01*
X77213Y-55908D01*
X77700Y-49169D02*
X77602Y-49028D01*
X77532Y-49169D02*
X77532Y-48874D01*
X77644Y-48874D01*
X77672Y-48888D01*
X77686Y-48902D01*
X77700Y-48930D01*
X77700Y-48972D01*
X77686Y-49000D01*
X77672Y-49014D01*
X77644Y-49028D01*
X77532Y-49028D01*
X77813Y-48902D02*
X77827Y-48888D01*
X77855Y-48874D01*
X77925Y-48874D01*
X77953Y-48888D01*
X77967Y-48902D01*
X77982Y-48930D01*
X77982Y-48958D01*
X77967Y-49000D01*
X77799Y-49169D01*
X77982Y-49169D01*
X79300Y-58219D02*
X79202Y-58078D01*
X79132Y-58219D02*
X79132Y-57924D01*
X79244Y-57924D01*
X79272Y-57938D01*
X79286Y-57952D01*
X79300Y-57980D01*
X79300Y-58022D01*
X79286Y-58050D01*
X79272Y-58064D01*
X79244Y-58078D01*
X79132Y-58078D01*
X79582Y-58219D02*
X79413Y-58219D01*
X79497Y-58219D02*
X79497Y-57924D01*
X79469Y-57966D01*
X79441Y-57994D01*
X79413Y-58008D01*
M02*
