G04 (created by PCBNEW (2013-07-07 BZR 4022)-stable) date 4/23/2014 9:43:38 AM*
%MOIN*%
G04 Gerber Fmt 3.4, Leading zero omitted, Abs format*
%FSLAX34Y34*%
G01*
G70*
G90*
G04 APERTURE LIST*
%ADD10C,0.00590551*%
%ADD11R,0.0393701X0.0393701*%
%ADD12C,0.0393701*%
%ADD13R,0.1181X0.0394*%
%ADD14O,0.1181X0.0394*%
%ADD15C,0.05*%
%ADD16R,0.0590551X0.0275591*%
%ADD17R,0.03X0.02*%
%ADD18R,0.025X0.045*%
%ADD19R,0.0157X0.0236*%
%ADD20R,0.0236X0.0157*%
%ADD21C,0.02*%
%ADD22C,0.035*%
%ADD23C,0.0137795*%
%ADD24C,0.01*%
G04 APERTURE END LIST*
G54D10*
G54D11*
X78000Y-52000D03*
G54D12*
X78500Y-52000D03*
X78000Y-52500D03*
X78500Y-52500D03*
X78000Y-53000D03*
X78500Y-53000D03*
X78000Y-53500D03*
X78500Y-53500D03*
X78000Y-54000D03*
X78500Y-54000D03*
G54D13*
X76000Y-49500D03*
X76000Y-50500D03*
G54D14*
X76000Y-48500D03*
G54D13*
X76000Y-51500D03*
X76000Y-52500D03*
X76000Y-53500D03*
X76000Y-54500D03*
X76000Y-55500D03*
X76000Y-56500D03*
X76000Y-57500D03*
G54D15*
X79100Y-48309D03*
X79100Y-49490D03*
G54D16*
X78411Y-48604D03*
X78411Y-48014D03*
X78411Y-49785D03*
G54D17*
X77550Y-56725D03*
X77550Y-57475D03*
X78550Y-56725D03*
X77550Y-57100D03*
X78550Y-57475D03*
G54D18*
X77700Y-47800D03*
X77100Y-47800D03*
X77150Y-58100D03*
X77750Y-58100D03*
G54D19*
X79077Y-56000D03*
X78723Y-56000D03*
X77623Y-56000D03*
X77977Y-56000D03*
G54D20*
X77200Y-48877D03*
X77200Y-48523D03*
G54D19*
X78877Y-58100D03*
X78523Y-58100D03*
G54D21*
X77000Y-55500D03*
X77300Y-51100D03*
X77000Y-52500D03*
X78650Y-50950D03*
G54D22*
X76700Y-49000D03*
G54D21*
X77300Y-49600D03*
X77150Y-57100D03*
X77700Y-50000D03*
X76900Y-50000D03*
G54D23*
X77550Y-56725D02*
X76800Y-56725D01*
X77623Y-56000D02*
X77350Y-56000D01*
X77150Y-58100D02*
X76800Y-57750D01*
X76800Y-57750D02*
X76800Y-57500D01*
X76800Y-57500D02*
X76800Y-56725D01*
X76800Y-56725D02*
X76800Y-56550D01*
X76800Y-56550D02*
X77350Y-56000D01*
X77350Y-56000D02*
X77500Y-56000D01*
X77550Y-56725D02*
X77500Y-56675D01*
X76000Y-57500D02*
X76800Y-57500D01*
X76800Y-57500D02*
X76900Y-57500D01*
X76900Y-57500D02*
X77050Y-57500D01*
X77050Y-57500D02*
X77500Y-57500D01*
G54D24*
X77000Y-55500D02*
X76000Y-55500D01*
X76000Y-53500D02*
X78000Y-53500D01*
X79000Y-54200D02*
X79000Y-54300D01*
X79000Y-54200D02*
X79000Y-53200D01*
X79000Y-53200D02*
X78800Y-53000D01*
X78500Y-53000D02*
X78800Y-53000D01*
X78800Y-54500D02*
X76000Y-54500D01*
X79000Y-54300D02*
X78800Y-54500D01*
X77300Y-51100D02*
X78300Y-51100D01*
X78300Y-51100D02*
X78400Y-51200D01*
X78500Y-52500D02*
X78600Y-52500D01*
X77000Y-52500D02*
X76000Y-52500D01*
X79000Y-51800D02*
X78400Y-51200D01*
X79000Y-52100D02*
X79000Y-51800D01*
X78600Y-52500D02*
X79000Y-52100D01*
X76000Y-50500D02*
X76150Y-50650D01*
X76150Y-50650D02*
X78300Y-50650D01*
X78350Y-50650D02*
X78300Y-50650D01*
X78650Y-50950D02*
X78350Y-50650D01*
X78500Y-52000D02*
X78500Y-51700D01*
X78300Y-51500D02*
X76000Y-51500D01*
X78500Y-51700D02*
X78300Y-51500D01*
G54D23*
X76700Y-49000D02*
X76200Y-48500D01*
X76200Y-48500D02*
X76000Y-48500D01*
X77800Y-49100D02*
X77800Y-48950D01*
X77300Y-49600D02*
X77800Y-49100D01*
X77800Y-48950D02*
X77800Y-48700D01*
X78411Y-48014D02*
X77914Y-48014D01*
X77914Y-48014D02*
X77700Y-47800D01*
X77800Y-47900D02*
X77700Y-47800D01*
X77800Y-48700D02*
X77800Y-47900D01*
G54D24*
X77550Y-57100D02*
X77150Y-57100D01*
G54D23*
X77700Y-50000D02*
X76900Y-50000D01*
X78523Y-58100D02*
X77750Y-58100D01*
X77200Y-48523D02*
X77200Y-47900D01*
X77200Y-47900D02*
X77100Y-47800D01*
X79077Y-56000D02*
X79200Y-56000D01*
X79500Y-55700D02*
X79500Y-50000D01*
X79500Y-50000D02*
X79700Y-49800D01*
X79700Y-49800D02*
X79700Y-49200D01*
X79700Y-49200D02*
X79400Y-48900D01*
X79400Y-48900D02*
X78706Y-48900D01*
X78706Y-48900D02*
X78411Y-48604D01*
X79200Y-56000D02*
X79500Y-55700D01*
X79077Y-56000D02*
X79077Y-56573D01*
X79077Y-56573D02*
X78925Y-56725D01*
X78925Y-56725D02*
X78550Y-56725D01*
G54D10*
G36*
X78259Y-53250D02*
X78249Y-53259D01*
X78196Y-53206D01*
X78091Y-53162D01*
X78000Y-53070D01*
X77929Y-53141D01*
X77929Y-53000D01*
X77743Y-52814D01*
X77687Y-52834D01*
X77647Y-52966D01*
X77662Y-53104D01*
X77687Y-53165D01*
X77743Y-53185D01*
X77929Y-53000D01*
X77929Y-53141D01*
X77907Y-53162D01*
X77803Y-53205D01*
X77709Y-53300D01*
X76740Y-53300D01*
X76740Y-53273D01*
X76717Y-53218D01*
X76675Y-53175D01*
X76620Y-53153D01*
X76560Y-53152D01*
X75469Y-53152D01*
X75469Y-52847D01*
X76620Y-52847D01*
X76675Y-52824D01*
X76717Y-52782D01*
X76740Y-52726D01*
X76740Y-52700D01*
X76846Y-52700D01*
X76858Y-52711D01*
X76950Y-52749D01*
X77049Y-52750D01*
X77141Y-52712D01*
X77211Y-52641D01*
X77249Y-52549D01*
X77250Y-52450D01*
X77212Y-52358D01*
X77141Y-52288D01*
X77049Y-52250D01*
X76950Y-52249D01*
X76858Y-52287D01*
X76846Y-52300D01*
X76740Y-52300D01*
X76740Y-52273D01*
X76717Y-52218D01*
X76675Y-52175D01*
X76620Y-52153D01*
X76560Y-52152D01*
X75469Y-52152D01*
X75469Y-51847D01*
X76620Y-51847D01*
X76675Y-51824D01*
X76717Y-51782D01*
X76740Y-51726D01*
X76740Y-51700D01*
X77694Y-51700D01*
X77676Y-51718D01*
X77653Y-51773D01*
X77653Y-51832D01*
X77653Y-52226D01*
X77675Y-52281D01*
X77717Y-52323D01*
X77687Y-52334D01*
X77647Y-52466D01*
X77662Y-52604D01*
X77687Y-52665D01*
X77743Y-52685D01*
X77929Y-52500D01*
X77923Y-52494D01*
X77994Y-52423D01*
X78000Y-52429D01*
X78005Y-52423D01*
X78076Y-52494D01*
X78070Y-52500D01*
X78162Y-52592D01*
X78205Y-52696D01*
X78259Y-52750D01*
X78206Y-52803D01*
X78185Y-52853D01*
X78185Y-52756D01*
X78179Y-52750D01*
X78185Y-52743D01*
X78165Y-52687D01*
X78095Y-52666D01*
X78000Y-52570D01*
X77910Y-52660D01*
X77895Y-52662D01*
X77834Y-52687D01*
X77814Y-52743D01*
X77820Y-52750D01*
X77814Y-52756D01*
X77834Y-52812D01*
X77904Y-52833D01*
X78000Y-52929D01*
X78089Y-52839D01*
X78104Y-52837D01*
X78165Y-52812D01*
X78185Y-52756D01*
X78185Y-52853D01*
X78162Y-52908D01*
X78070Y-53000D01*
X78162Y-53092D01*
X78205Y-53196D01*
X78259Y-53250D01*
X78259Y-53250D01*
G37*
G54D24*
X78259Y-53250D02*
X78249Y-53259D01*
X78196Y-53206D01*
X78091Y-53162D01*
X78000Y-53070D01*
X77929Y-53141D01*
X77929Y-53000D01*
X77743Y-52814D01*
X77687Y-52834D01*
X77647Y-52966D01*
X77662Y-53104D01*
X77687Y-53165D01*
X77743Y-53185D01*
X77929Y-53000D01*
X77929Y-53141D01*
X77907Y-53162D01*
X77803Y-53205D01*
X77709Y-53300D01*
X76740Y-53300D01*
X76740Y-53273D01*
X76717Y-53218D01*
X76675Y-53175D01*
X76620Y-53153D01*
X76560Y-53152D01*
X75469Y-53152D01*
X75469Y-52847D01*
X76620Y-52847D01*
X76675Y-52824D01*
X76717Y-52782D01*
X76740Y-52726D01*
X76740Y-52700D01*
X76846Y-52700D01*
X76858Y-52711D01*
X76950Y-52749D01*
X77049Y-52750D01*
X77141Y-52712D01*
X77211Y-52641D01*
X77249Y-52549D01*
X77250Y-52450D01*
X77212Y-52358D01*
X77141Y-52288D01*
X77049Y-52250D01*
X76950Y-52249D01*
X76858Y-52287D01*
X76846Y-52300D01*
X76740Y-52300D01*
X76740Y-52273D01*
X76717Y-52218D01*
X76675Y-52175D01*
X76620Y-52153D01*
X76560Y-52152D01*
X75469Y-52152D01*
X75469Y-51847D01*
X76620Y-51847D01*
X76675Y-51824D01*
X76717Y-51782D01*
X76740Y-51726D01*
X76740Y-51700D01*
X77694Y-51700D01*
X77676Y-51718D01*
X77653Y-51773D01*
X77653Y-51832D01*
X77653Y-52226D01*
X77675Y-52281D01*
X77717Y-52323D01*
X77687Y-52334D01*
X77647Y-52466D01*
X77662Y-52604D01*
X77687Y-52665D01*
X77743Y-52685D01*
X77929Y-52500D01*
X77923Y-52494D01*
X77994Y-52423D01*
X78000Y-52429D01*
X78005Y-52423D01*
X78076Y-52494D01*
X78070Y-52500D01*
X78162Y-52592D01*
X78205Y-52696D01*
X78259Y-52750D01*
X78206Y-52803D01*
X78185Y-52853D01*
X78185Y-52756D01*
X78179Y-52750D01*
X78185Y-52743D01*
X78165Y-52687D01*
X78095Y-52666D01*
X78000Y-52570D01*
X77910Y-52660D01*
X77895Y-52662D01*
X77834Y-52687D01*
X77814Y-52743D01*
X77820Y-52750D01*
X77814Y-52756D01*
X77834Y-52812D01*
X77904Y-52833D01*
X78000Y-52929D01*
X78089Y-52839D01*
X78104Y-52837D01*
X78165Y-52812D01*
X78185Y-52756D01*
X78185Y-52853D01*
X78162Y-52908D01*
X78070Y-53000D01*
X78162Y-53092D01*
X78205Y-53196D01*
X78259Y-53250D01*
G54D10*
G36*
X78318Y-54300D02*
X78169Y-54300D01*
X78185Y-54256D01*
X78000Y-54070D01*
X77929Y-54141D01*
X77929Y-54000D01*
X77743Y-53814D01*
X77687Y-53834D01*
X77647Y-53966D01*
X77662Y-54104D01*
X77687Y-54165D01*
X77743Y-54185D01*
X77929Y-54000D01*
X77929Y-54141D01*
X77814Y-54256D01*
X77830Y-54300D01*
X76740Y-54300D01*
X76740Y-54273D01*
X76717Y-54218D01*
X76675Y-54175D01*
X76620Y-54153D01*
X76560Y-54152D01*
X75469Y-54152D01*
X75469Y-53847D01*
X76620Y-53847D01*
X76675Y-53824D01*
X76717Y-53782D01*
X76740Y-53726D01*
X76740Y-53700D01*
X77709Y-53700D01*
X77803Y-53793D01*
X77908Y-53837D01*
X78000Y-53929D01*
X78092Y-53837D01*
X78196Y-53794D01*
X78250Y-53740D01*
X78259Y-53750D01*
X78206Y-53803D01*
X78162Y-53908D01*
X78070Y-54000D01*
X78162Y-54092D01*
X78205Y-54196D01*
X78303Y-54293D01*
X78318Y-54300D01*
X78318Y-54300D01*
G37*
G54D24*
X78318Y-54300D02*
X78169Y-54300D01*
X78185Y-54256D01*
X78000Y-54070D01*
X77929Y-54141D01*
X77929Y-54000D01*
X77743Y-53814D01*
X77687Y-53834D01*
X77647Y-53966D01*
X77662Y-54104D01*
X77687Y-54165D01*
X77743Y-54185D01*
X77929Y-54000D01*
X77929Y-54141D01*
X77814Y-54256D01*
X77830Y-54300D01*
X76740Y-54300D01*
X76740Y-54273D01*
X76717Y-54218D01*
X76675Y-54175D01*
X76620Y-54153D01*
X76560Y-54152D01*
X75469Y-54152D01*
X75469Y-53847D01*
X76620Y-53847D01*
X76675Y-53824D01*
X76717Y-53782D01*
X76740Y-53726D01*
X76740Y-53700D01*
X77709Y-53700D01*
X77803Y-53793D01*
X77908Y-53837D01*
X78000Y-53929D01*
X78092Y-53837D01*
X78196Y-53794D01*
X78250Y-53740D01*
X78259Y-53750D01*
X78206Y-53803D01*
X78162Y-53908D01*
X78070Y-54000D01*
X78162Y-54092D01*
X78205Y-54196D01*
X78303Y-54293D01*
X78318Y-54300D01*
G54D10*
G36*
X79930Y-57381D02*
X79848Y-57794D01*
X79626Y-58125D01*
X79292Y-58349D01*
X79105Y-58386D01*
X79105Y-58188D01*
X79105Y-58011D01*
X79105Y-57952D01*
X79082Y-57896D01*
X79040Y-57854D01*
X78985Y-57831D01*
X78953Y-57832D01*
X78916Y-57869D01*
X78916Y-58050D01*
X79068Y-58050D01*
X79105Y-58012D01*
X79105Y-58011D01*
X79105Y-58188D01*
X79105Y-58187D01*
X79068Y-58150D01*
X78916Y-58150D01*
X78916Y-58330D01*
X78953Y-58368D01*
X78985Y-58368D01*
X79040Y-58345D01*
X79082Y-58303D01*
X79105Y-58247D01*
X79105Y-58188D01*
X79105Y-58386D01*
X78883Y-58430D01*
X78850Y-58430D01*
X78850Y-57545D01*
X78850Y-57345D01*
X78827Y-57290D01*
X78785Y-57247D01*
X78729Y-57225D01*
X78670Y-57224D01*
X78370Y-57224D01*
X78315Y-57247D01*
X78272Y-57289D01*
X78250Y-57345D01*
X78249Y-57404D01*
X78249Y-57604D01*
X78272Y-57659D01*
X78314Y-57702D01*
X78370Y-57724D01*
X78429Y-57725D01*
X78729Y-57725D01*
X78784Y-57702D01*
X78827Y-57660D01*
X78849Y-57604D01*
X78850Y-57545D01*
X78850Y-58430D01*
X77981Y-58430D01*
X78002Y-58410D01*
X78024Y-58354D01*
X78025Y-58318D01*
X78333Y-58318D01*
X78359Y-58345D01*
X78414Y-58367D01*
X78474Y-58368D01*
X78631Y-58368D01*
X78686Y-58345D01*
X78700Y-58331D01*
X78713Y-58345D01*
X78768Y-58368D01*
X78800Y-58368D01*
X78837Y-58330D01*
X78837Y-58150D01*
X78819Y-58150D01*
X78819Y-58050D01*
X78837Y-58050D01*
X78837Y-57869D01*
X78800Y-57832D01*
X78768Y-57831D01*
X78713Y-57854D01*
X78700Y-57868D01*
X78686Y-57854D01*
X78631Y-57832D01*
X78571Y-57831D01*
X78414Y-57831D01*
X78359Y-57854D01*
X78333Y-57881D01*
X78205Y-57881D01*
X78205Y-56088D01*
X78205Y-55911D01*
X78205Y-55852D01*
X78182Y-55796D01*
X78140Y-55754D01*
X78085Y-55731D01*
X78053Y-55732D01*
X78016Y-55769D01*
X78016Y-55950D01*
X78168Y-55950D01*
X78205Y-55912D01*
X78205Y-55911D01*
X78205Y-56088D01*
X78205Y-56087D01*
X78168Y-56050D01*
X78016Y-56050D01*
X78016Y-56230D01*
X78053Y-56268D01*
X78085Y-56268D01*
X78140Y-56245D01*
X78182Y-56203D01*
X78205Y-56147D01*
X78205Y-56088D01*
X78205Y-57881D01*
X78025Y-57881D01*
X78025Y-57845D01*
X78002Y-57790D01*
X77960Y-57747D01*
X77904Y-57725D01*
X77845Y-57724D01*
X77729Y-57724D01*
X77784Y-57702D01*
X77827Y-57660D01*
X77849Y-57604D01*
X77850Y-57545D01*
X77850Y-57345D01*
X77827Y-57290D01*
X77824Y-57287D01*
X77827Y-57284D01*
X77850Y-57229D01*
X77850Y-57187D01*
X77812Y-57150D01*
X77600Y-57150D01*
X77600Y-57157D01*
X77500Y-57157D01*
X77500Y-57150D01*
X77287Y-57150D01*
X77250Y-57187D01*
X77249Y-57229D01*
X77271Y-57281D01*
X77050Y-57281D01*
X77018Y-57281D01*
X77018Y-56943D01*
X77260Y-56943D01*
X77249Y-56970D01*
X77250Y-57012D01*
X77287Y-57050D01*
X77500Y-57050D01*
X77500Y-57042D01*
X77600Y-57042D01*
X77600Y-57050D01*
X77812Y-57050D01*
X77850Y-57012D01*
X77850Y-56970D01*
X77827Y-56915D01*
X77824Y-56912D01*
X77827Y-56910D01*
X77849Y-56854D01*
X77850Y-56795D01*
X77850Y-56595D01*
X77827Y-56540D01*
X77785Y-56497D01*
X77729Y-56475D01*
X77670Y-56474D01*
X77587Y-56474D01*
X77583Y-56472D01*
X77500Y-56456D01*
X77416Y-56472D01*
X77412Y-56474D01*
X77370Y-56474D01*
X77315Y-56497D01*
X77306Y-56506D01*
X77153Y-56506D01*
X77436Y-56222D01*
X77459Y-56245D01*
X77514Y-56267D01*
X77574Y-56268D01*
X77731Y-56268D01*
X77786Y-56245D01*
X77800Y-56231D01*
X77813Y-56245D01*
X77868Y-56268D01*
X77900Y-56268D01*
X77937Y-56230D01*
X77937Y-56050D01*
X77919Y-56050D01*
X77919Y-55950D01*
X77937Y-55950D01*
X77937Y-55769D01*
X77900Y-55732D01*
X77868Y-55731D01*
X77813Y-55754D01*
X77800Y-55768D01*
X77786Y-55754D01*
X77731Y-55732D01*
X77671Y-55731D01*
X77514Y-55731D01*
X77459Y-55754D01*
X77433Y-55781D01*
X77350Y-55781D01*
X77266Y-55797D01*
X77195Y-55845D01*
X76740Y-56299D01*
X76740Y-56273D01*
X76717Y-56218D01*
X76675Y-56175D01*
X76620Y-56153D01*
X76560Y-56152D01*
X75469Y-56152D01*
X75469Y-55847D01*
X76620Y-55847D01*
X76675Y-55824D01*
X76717Y-55782D01*
X76740Y-55726D01*
X76740Y-55700D01*
X76846Y-55700D01*
X76858Y-55711D01*
X76950Y-55749D01*
X77049Y-55750D01*
X77141Y-55712D01*
X77211Y-55641D01*
X77249Y-55549D01*
X77250Y-55450D01*
X77212Y-55358D01*
X77141Y-55288D01*
X77049Y-55250D01*
X76950Y-55249D01*
X76858Y-55287D01*
X76846Y-55300D01*
X76740Y-55300D01*
X76740Y-55273D01*
X76717Y-55218D01*
X76675Y-55175D01*
X76620Y-55153D01*
X76560Y-55152D01*
X75469Y-55152D01*
X75469Y-54847D01*
X76620Y-54847D01*
X76675Y-54824D01*
X76717Y-54782D01*
X76740Y-54726D01*
X76740Y-54700D01*
X78800Y-54700D01*
X78876Y-54684D01*
X78941Y-54641D01*
X79141Y-54441D01*
X79141Y-54441D01*
X79170Y-54398D01*
X79184Y-54376D01*
X79184Y-54376D01*
X79199Y-54300D01*
X79200Y-54300D01*
X79200Y-54200D01*
X79200Y-53200D01*
X79184Y-53123D01*
X79184Y-53123D01*
X79170Y-53101D01*
X79141Y-53058D01*
X79141Y-53058D01*
X78941Y-52858D01*
X78876Y-52815D01*
X78800Y-52800D01*
X78790Y-52800D01*
X78740Y-52749D01*
X78793Y-52696D01*
X78846Y-52569D01*
X78846Y-52536D01*
X79141Y-52241D01*
X79141Y-52241D01*
X79170Y-52198D01*
X79184Y-52176D01*
X79184Y-52176D01*
X79199Y-52100D01*
X79200Y-52100D01*
X79200Y-51800D01*
X79184Y-51723D01*
X79184Y-51723D01*
X79170Y-51701D01*
X79141Y-51658D01*
X79141Y-51658D01*
X78682Y-51200D01*
X78699Y-51200D01*
X78791Y-51162D01*
X78861Y-51091D01*
X78899Y-50999D01*
X78900Y-50900D01*
X78862Y-50808D01*
X78791Y-50738D01*
X78699Y-50700D01*
X78682Y-50700D01*
X78491Y-50508D01*
X78426Y-50465D01*
X78350Y-50450D01*
X78300Y-50450D01*
X76740Y-50450D01*
X76740Y-50273D01*
X76717Y-50218D01*
X76675Y-50175D01*
X76620Y-50153D01*
X76560Y-50152D01*
X75469Y-50152D01*
X75469Y-49847D01*
X76620Y-49847D01*
X76675Y-49824D01*
X76717Y-49782D01*
X76740Y-49726D01*
X76740Y-49667D01*
X76740Y-49325D01*
X76764Y-49325D01*
X76883Y-49275D01*
X76975Y-49184D01*
X77014Y-49089D01*
X77052Y-49105D01*
X77111Y-49105D01*
X77112Y-49105D01*
X77150Y-49068D01*
X77150Y-48916D01*
X77142Y-48916D01*
X77142Y-48837D01*
X77150Y-48837D01*
X77150Y-48819D01*
X77250Y-48819D01*
X77250Y-48837D01*
X77430Y-48837D01*
X77468Y-48800D01*
X77468Y-48768D01*
X77445Y-48713D01*
X77431Y-48700D01*
X77445Y-48686D01*
X77467Y-48631D01*
X77468Y-48571D01*
X77468Y-48414D01*
X77445Y-48359D01*
X77418Y-48333D01*
X77418Y-47900D01*
X77402Y-47816D01*
X77375Y-47775D01*
X77375Y-47569D01*
X77425Y-47569D01*
X77424Y-47604D01*
X77424Y-48054D01*
X77447Y-48109D01*
X77489Y-48152D01*
X77545Y-48174D01*
X77581Y-48175D01*
X77581Y-48700D01*
X77581Y-48950D01*
X77581Y-49009D01*
X77468Y-49122D01*
X77468Y-48985D01*
X77468Y-48953D01*
X77430Y-48916D01*
X77250Y-48916D01*
X77250Y-49068D01*
X77287Y-49105D01*
X77288Y-49105D01*
X77347Y-49105D01*
X77403Y-49082D01*
X77445Y-49040D01*
X77468Y-48985D01*
X77468Y-49122D01*
X77233Y-49357D01*
X77158Y-49387D01*
X77088Y-49458D01*
X77050Y-49550D01*
X77049Y-49649D01*
X77087Y-49741D01*
X77158Y-49811D01*
X77250Y-49849D01*
X77349Y-49850D01*
X77441Y-49812D01*
X77511Y-49741D01*
X77543Y-49666D01*
X77954Y-49254D01*
X77954Y-49254D01*
X78002Y-49183D01*
X78018Y-49100D01*
X78018Y-49100D01*
X78018Y-48950D01*
X78018Y-48857D01*
X78030Y-48869D01*
X78085Y-48892D01*
X78145Y-48892D01*
X78389Y-48892D01*
X78551Y-49054D01*
X78622Y-49102D01*
X78706Y-49118D01*
X78952Y-49118D01*
X78873Y-49151D01*
X78761Y-49263D01*
X78700Y-49410D01*
X78699Y-49498D01*
X78676Y-49498D01*
X78086Y-49498D01*
X78030Y-49520D01*
X77988Y-49562D01*
X77965Y-49618D01*
X77965Y-49677D01*
X77965Y-49953D01*
X77988Y-50008D01*
X78030Y-50050D01*
X78085Y-50073D01*
X78145Y-50073D01*
X78736Y-50073D01*
X78791Y-50050D01*
X78833Y-50008D01*
X78856Y-49953D01*
X78856Y-49893D01*
X78856Y-49812D01*
X78873Y-49829D01*
X79020Y-49890D01*
X79179Y-49890D01*
X79326Y-49829D01*
X79438Y-49717D01*
X79481Y-49615D01*
X79481Y-49709D01*
X79345Y-49845D01*
X79297Y-49916D01*
X79281Y-50000D01*
X79281Y-55609D01*
X79158Y-55732D01*
X79125Y-55731D01*
X78968Y-55731D01*
X78913Y-55754D01*
X78900Y-55768D01*
X78886Y-55754D01*
X78831Y-55731D01*
X78799Y-55732D01*
X78762Y-55769D01*
X78762Y-55950D01*
X78780Y-55950D01*
X78780Y-56050D01*
X78762Y-56050D01*
X78762Y-56230D01*
X78799Y-56268D01*
X78831Y-56268D01*
X78858Y-56256D01*
X78858Y-56482D01*
X78834Y-56506D01*
X78793Y-56506D01*
X78785Y-56497D01*
X78729Y-56475D01*
X78683Y-56474D01*
X78683Y-56230D01*
X78683Y-56050D01*
X78683Y-55950D01*
X78683Y-55769D01*
X78646Y-55732D01*
X78614Y-55731D01*
X78559Y-55754D01*
X78517Y-55796D01*
X78494Y-55852D01*
X78494Y-55911D01*
X78494Y-55912D01*
X78532Y-55950D01*
X78683Y-55950D01*
X78683Y-56050D01*
X78532Y-56050D01*
X78494Y-56087D01*
X78494Y-56088D01*
X78494Y-56147D01*
X78517Y-56203D01*
X78559Y-56245D01*
X78614Y-56268D01*
X78646Y-56268D01*
X78683Y-56230D01*
X78683Y-56474D01*
X78670Y-56474D01*
X78370Y-56474D01*
X78315Y-56497D01*
X78272Y-56539D01*
X78250Y-56595D01*
X78249Y-56654D01*
X78249Y-56854D01*
X78272Y-56909D01*
X78314Y-56952D01*
X78370Y-56974D01*
X78429Y-56975D01*
X78729Y-56975D01*
X78784Y-56952D01*
X78793Y-56943D01*
X78925Y-56943D01*
X78925Y-56943D01*
X79008Y-56927D01*
X79079Y-56879D01*
X79231Y-56727D01*
X79231Y-56727D01*
X79279Y-56656D01*
X79295Y-56573D01*
X79295Y-56573D01*
X79295Y-56194D01*
X79354Y-56154D01*
X79654Y-55854D01*
X79654Y-55854D01*
X79673Y-55826D01*
X79702Y-55783D01*
X79702Y-55783D01*
X79718Y-55700D01*
X79718Y-55700D01*
X79718Y-50090D01*
X79854Y-49954D01*
X79854Y-49954D01*
X79902Y-49883D01*
X79918Y-49800D01*
X79918Y-49800D01*
X79918Y-49200D01*
X79918Y-49199D01*
X79902Y-49116D01*
X79873Y-49073D01*
X79854Y-49045D01*
X79854Y-49045D01*
X79554Y-48745D01*
X79483Y-48697D01*
X79400Y-48681D01*
X79247Y-48681D01*
X79326Y-48648D01*
X79438Y-48536D01*
X79499Y-48389D01*
X79500Y-48230D01*
X79439Y-48083D01*
X79326Y-47970D01*
X79179Y-47909D01*
X79020Y-47909D01*
X78873Y-47970D01*
X78856Y-47987D01*
X78856Y-47846D01*
X78833Y-47791D01*
X78791Y-47749D01*
X78736Y-47726D01*
X78676Y-47726D01*
X78086Y-47726D01*
X78030Y-47749D01*
X77994Y-47785D01*
X77975Y-47765D01*
X77975Y-47569D01*
X78883Y-47569D01*
X79292Y-47650D01*
X79626Y-47874D01*
X79848Y-48205D01*
X79930Y-48618D01*
X79930Y-57381D01*
X79930Y-57381D01*
G37*
G54D24*
X79930Y-57381D02*
X79848Y-57794D01*
X79626Y-58125D01*
X79292Y-58349D01*
X79105Y-58386D01*
X79105Y-58188D01*
X79105Y-58011D01*
X79105Y-57952D01*
X79082Y-57896D01*
X79040Y-57854D01*
X78985Y-57831D01*
X78953Y-57832D01*
X78916Y-57869D01*
X78916Y-58050D01*
X79068Y-58050D01*
X79105Y-58012D01*
X79105Y-58011D01*
X79105Y-58188D01*
X79105Y-58187D01*
X79068Y-58150D01*
X78916Y-58150D01*
X78916Y-58330D01*
X78953Y-58368D01*
X78985Y-58368D01*
X79040Y-58345D01*
X79082Y-58303D01*
X79105Y-58247D01*
X79105Y-58188D01*
X79105Y-58386D01*
X78883Y-58430D01*
X78850Y-58430D01*
X78850Y-57545D01*
X78850Y-57345D01*
X78827Y-57290D01*
X78785Y-57247D01*
X78729Y-57225D01*
X78670Y-57224D01*
X78370Y-57224D01*
X78315Y-57247D01*
X78272Y-57289D01*
X78250Y-57345D01*
X78249Y-57404D01*
X78249Y-57604D01*
X78272Y-57659D01*
X78314Y-57702D01*
X78370Y-57724D01*
X78429Y-57725D01*
X78729Y-57725D01*
X78784Y-57702D01*
X78827Y-57660D01*
X78849Y-57604D01*
X78850Y-57545D01*
X78850Y-58430D01*
X77981Y-58430D01*
X78002Y-58410D01*
X78024Y-58354D01*
X78025Y-58318D01*
X78333Y-58318D01*
X78359Y-58345D01*
X78414Y-58367D01*
X78474Y-58368D01*
X78631Y-58368D01*
X78686Y-58345D01*
X78700Y-58331D01*
X78713Y-58345D01*
X78768Y-58368D01*
X78800Y-58368D01*
X78837Y-58330D01*
X78837Y-58150D01*
X78819Y-58150D01*
X78819Y-58050D01*
X78837Y-58050D01*
X78837Y-57869D01*
X78800Y-57832D01*
X78768Y-57831D01*
X78713Y-57854D01*
X78700Y-57868D01*
X78686Y-57854D01*
X78631Y-57832D01*
X78571Y-57831D01*
X78414Y-57831D01*
X78359Y-57854D01*
X78333Y-57881D01*
X78205Y-57881D01*
X78205Y-56088D01*
X78205Y-55911D01*
X78205Y-55852D01*
X78182Y-55796D01*
X78140Y-55754D01*
X78085Y-55731D01*
X78053Y-55732D01*
X78016Y-55769D01*
X78016Y-55950D01*
X78168Y-55950D01*
X78205Y-55912D01*
X78205Y-55911D01*
X78205Y-56088D01*
X78205Y-56087D01*
X78168Y-56050D01*
X78016Y-56050D01*
X78016Y-56230D01*
X78053Y-56268D01*
X78085Y-56268D01*
X78140Y-56245D01*
X78182Y-56203D01*
X78205Y-56147D01*
X78205Y-56088D01*
X78205Y-57881D01*
X78025Y-57881D01*
X78025Y-57845D01*
X78002Y-57790D01*
X77960Y-57747D01*
X77904Y-57725D01*
X77845Y-57724D01*
X77729Y-57724D01*
X77784Y-57702D01*
X77827Y-57660D01*
X77849Y-57604D01*
X77850Y-57545D01*
X77850Y-57345D01*
X77827Y-57290D01*
X77824Y-57287D01*
X77827Y-57284D01*
X77850Y-57229D01*
X77850Y-57187D01*
X77812Y-57150D01*
X77600Y-57150D01*
X77600Y-57157D01*
X77500Y-57157D01*
X77500Y-57150D01*
X77287Y-57150D01*
X77250Y-57187D01*
X77249Y-57229D01*
X77271Y-57281D01*
X77050Y-57281D01*
X77018Y-57281D01*
X77018Y-56943D01*
X77260Y-56943D01*
X77249Y-56970D01*
X77250Y-57012D01*
X77287Y-57050D01*
X77500Y-57050D01*
X77500Y-57042D01*
X77600Y-57042D01*
X77600Y-57050D01*
X77812Y-57050D01*
X77850Y-57012D01*
X77850Y-56970D01*
X77827Y-56915D01*
X77824Y-56912D01*
X77827Y-56910D01*
X77849Y-56854D01*
X77850Y-56795D01*
X77850Y-56595D01*
X77827Y-56540D01*
X77785Y-56497D01*
X77729Y-56475D01*
X77670Y-56474D01*
X77587Y-56474D01*
X77583Y-56472D01*
X77500Y-56456D01*
X77416Y-56472D01*
X77412Y-56474D01*
X77370Y-56474D01*
X77315Y-56497D01*
X77306Y-56506D01*
X77153Y-56506D01*
X77436Y-56222D01*
X77459Y-56245D01*
X77514Y-56267D01*
X77574Y-56268D01*
X77731Y-56268D01*
X77786Y-56245D01*
X77800Y-56231D01*
X77813Y-56245D01*
X77868Y-56268D01*
X77900Y-56268D01*
X77937Y-56230D01*
X77937Y-56050D01*
X77919Y-56050D01*
X77919Y-55950D01*
X77937Y-55950D01*
X77937Y-55769D01*
X77900Y-55732D01*
X77868Y-55731D01*
X77813Y-55754D01*
X77800Y-55768D01*
X77786Y-55754D01*
X77731Y-55732D01*
X77671Y-55731D01*
X77514Y-55731D01*
X77459Y-55754D01*
X77433Y-55781D01*
X77350Y-55781D01*
X77266Y-55797D01*
X77195Y-55845D01*
X76740Y-56299D01*
X76740Y-56273D01*
X76717Y-56218D01*
X76675Y-56175D01*
X76620Y-56153D01*
X76560Y-56152D01*
X75469Y-56152D01*
X75469Y-55847D01*
X76620Y-55847D01*
X76675Y-55824D01*
X76717Y-55782D01*
X76740Y-55726D01*
X76740Y-55700D01*
X76846Y-55700D01*
X76858Y-55711D01*
X76950Y-55749D01*
X77049Y-55750D01*
X77141Y-55712D01*
X77211Y-55641D01*
X77249Y-55549D01*
X77250Y-55450D01*
X77212Y-55358D01*
X77141Y-55288D01*
X77049Y-55250D01*
X76950Y-55249D01*
X76858Y-55287D01*
X76846Y-55300D01*
X76740Y-55300D01*
X76740Y-55273D01*
X76717Y-55218D01*
X76675Y-55175D01*
X76620Y-55153D01*
X76560Y-55152D01*
X75469Y-55152D01*
X75469Y-54847D01*
X76620Y-54847D01*
X76675Y-54824D01*
X76717Y-54782D01*
X76740Y-54726D01*
X76740Y-54700D01*
X78800Y-54700D01*
X78876Y-54684D01*
X78941Y-54641D01*
X79141Y-54441D01*
X79141Y-54441D01*
X79170Y-54398D01*
X79184Y-54376D01*
X79184Y-54376D01*
X79199Y-54300D01*
X79200Y-54300D01*
X79200Y-54200D01*
X79200Y-53200D01*
X79184Y-53123D01*
X79184Y-53123D01*
X79170Y-53101D01*
X79141Y-53058D01*
X79141Y-53058D01*
X78941Y-52858D01*
X78876Y-52815D01*
X78800Y-52800D01*
X78790Y-52800D01*
X78740Y-52749D01*
X78793Y-52696D01*
X78846Y-52569D01*
X78846Y-52536D01*
X79141Y-52241D01*
X79141Y-52241D01*
X79170Y-52198D01*
X79184Y-52176D01*
X79184Y-52176D01*
X79199Y-52100D01*
X79200Y-52100D01*
X79200Y-51800D01*
X79184Y-51723D01*
X79184Y-51723D01*
X79170Y-51701D01*
X79141Y-51658D01*
X79141Y-51658D01*
X78682Y-51200D01*
X78699Y-51200D01*
X78791Y-51162D01*
X78861Y-51091D01*
X78899Y-50999D01*
X78900Y-50900D01*
X78862Y-50808D01*
X78791Y-50738D01*
X78699Y-50700D01*
X78682Y-50700D01*
X78491Y-50508D01*
X78426Y-50465D01*
X78350Y-50450D01*
X78300Y-50450D01*
X76740Y-50450D01*
X76740Y-50273D01*
X76717Y-50218D01*
X76675Y-50175D01*
X76620Y-50153D01*
X76560Y-50152D01*
X75469Y-50152D01*
X75469Y-49847D01*
X76620Y-49847D01*
X76675Y-49824D01*
X76717Y-49782D01*
X76740Y-49726D01*
X76740Y-49667D01*
X76740Y-49325D01*
X76764Y-49325D01*
X76883Y-49275D01*
X76975Y-49184D01*
X77014Y-49089D01*
X77052Y-49105D01*
X77111Y-49105D01*
X77112Y-49105D01*
X77150Y-49068D01*
X77150Y-48916D01*
X77142Y-48916D01*
X77142Y-48837D01*
X77150Y-48837D01*
X77150Y-48819D01*
X77250Y-48819D01*
X77250Y-48837D01*
X77430Y-48837D01*
X77468Y-48800D01*
X77468Y-48768D01*
X77445Y-48713D01*
X77431Y-48700D01*
X77445Y-48686D01*
X77467Y-48631D01*
X77468Y-48571D01*
X77468Y-48414D01*
X77445Y-48359D01*
X77418Y-48333D01*
X77418Y-47900D01*
X77402Y-47816D01*
X77375Y-47775D01*
X77375Y-47569D01*
X77425Y-47569D01*
X77424Y-47604D01*
X77424Y-48054D01*
X77447Y-48109D01*
X77489Y-48152D01*
X77545Y-48174D01*
X77581Y-48175D01*
X77581Y-48700D01*
X77581Y-48950D01*
X77581Y-49009D01*
X77468Y-49122D01*
X77468Y-48985D01*
X77468Y-48953D01*
X77430Y-48916D01*
X77250Y-48916D01*
X77250Y-49068D01*
X77287Y-49105D01*
X77288Y-49105D01*
X77347Y-49105D01*
X77403Y-49082D01*
X77445Y-49040D01*
X77468Y-48985D01*
X77468Y-49122D01*
X77233Y-49357D01*
X77158Y-49387D01*
X77088Y-49458D01*
X77050Y-49550D01*
X77049Y-49649D01*
X77087Y-49741D01*
X77158Y-49811D01*
X77250Y-49849D01*
X77349Y-49850D01*
X77441Y-49812D01*
X77511Y-49741D01*
X77543Y-49666D01*
X77954Y-49254D01*
X77954Y-49254D01*
X78002Y-49183D01*
X78018Y-49100D01*
X78018Y-49100D01*
X78018Y-48950D01*
X78018Y-48857D01*
X78030Y-48869D01*
X78085Y-48892D01*
X78145Y-48892D01*
X78389Y-48892D01*
X78551Y-49054D01*
X78622Y-49102D01*
X78706Y-49118D01*
X78952Y-49118D01*
X78873Y-49151D01*
X78761Y-49263D01*
X78700Y-49410D01*
X78699Y-49498D01*
X78676Y-49498D01*
X78086Y-49498D01*
X78030Y-49520D01*
X77988Y-49562D01*
X77965Y-49618D01*
X77965Y-49677D01*
X77965Y-49953D01*
X77988Y-50008D01*
X78030Y-50050D01*
X78085Y-50073D01*
X78145Y-50073D01*
X78736Y-50073D01*
X78791Y-50050D01*
X78833Y-50008D01*
X78856Y-49953D01*
X78856Y-49893D01*
X78856Y-49812D01*
X78873Y-49829D01*
X79020Y-49890D01*
X79179Y-49890D01*
X79326Y-49829D01*
X79438Y-49717D01*
X79481Y-49615D01*
X79481Y-49709D01*
X79345Y-49845D01*
X79297Y-49916D01*
X79281Y-50000D01*
X79281Y-55609D01*
X79158Y-55732D01*
X79125Y-55731D01*
X78968Y-55731D01*
X78913Y-55754D01*
X78900Y-55768D01*
X78886Y-55754D01*
X78831Y-55731D01*
X78799Y-55732D01*
X78762Y-55769D01*
X78762Y-55950D01*
X78780Y-55950D01*
X78780Y-56050D01*
X78762Y-56050D01*
X78762Y-56230D01*
X78799Y-56268D01*
X78831Y-56268D01*
X78858Y-56256D01*
X78858Y-56482D01*
X78834Y-56506D01*
X78793Y-56506D01*
X78785Y-56497D01*
X78729Y-56475D01*
X78683Y-56474D01*
X78683Y-56230D01*
X78683Y-56050D01*
X78683Y-55950D01*
X78683Y-55769D01*
X78646Y-55732D01*
X78614Y-55731D01*
X78559Y-55754D01*
X78517Y-55796D01*
X78494Y-55852D01*
X78494Y-55911D01*
X78494Y-55912D01*
X78532Y-55950D01*
X78683Y-55950D01*
X78683Y-56050D01*
X78532Y-56050D01*
X78494Y-56087D01*
X78494Y-56088D01*
X78494Y-56147D01*
X78517Y-56203D01*
X78559Y-56245D01*
X78614Y-56268D01*
X78646Y-56268D01*
X78683Y-56230D01*
X78683Y-56474D01*
X78670Y-56474D01*
X78370Y-56474D01*
X78315Y-56497D01*
X78272Y-56539D01*
X78250Y-56595D01*
X78249Y-56654D01*
X78249Y-56854D01*
X78272Y-56909D01*
X78314Y-56952D01*
X78370Y-56974D01*
X78429Y-56975D01*
X78729Y-56975D01*
X78784Y-56952D01*
X78793Y-56943D01*
X78925Y-56943D01*
X78925Y-56943D01*
X79008Y-56927D01*
X79079Y-56879D01*
X79231Y-56727D01*
X79231Y-56727D01*
X79279Y-56656D01*
X79295Y-56573D01*
X79295Y-56573D01*
X79295Y-56194D01*
X79354Y-56154D01*
X79654Y-55854D01*
X79654Y-55854D01*
X79673Y-55826D01*
X79702Y-55783D01*
X79702Y-55783D01*
X79718Y-55700D01*
X79718Y-55700D01*
X79718Y-50090D01*
X79854Y-49954D01*
X79854Y-49954D01*
X79902Y-49883D01*
X79918Y-49800D01*
X79918Y-49800D01*
X79918Y-49200D01*
X79918Y-49199D01*
X79902Y-49116D01*
X79873Y-49073D01*
X79854Y-49045D01*
X79854Y-49045D01*
X79554Y-48745D01*
X79483Y-48697D01*
X79400Y-48681D01*
X79247Y-48681D01*
X79326Y-48648D01*
X79438Y-48536D01*
X79499Y-48389D01*
X79500Y-48230D01*
X79439Y-48083D01*
X79326Y-47970D01*
X79179Y-47909D01*
X79020Y-47909D01*
X78873Y-47970D01*
X78856Y-47987D01*
X78856Y-47846D01*
X78833Y-47791D01*
X78791Y-47749D01*
X78736Y-47726D01*
X78676Y-47726D01*
X78086Y-47726D01*
X78030Y-47749D01*
X77994Y-47785D01*
X77975Y-47765D01*
X77975Y-47569D01*
X78883Y-47569D01*
X79292Y-47650D01*
X79626Y-47874D01*
X79848Y-48205D01*
X79930Y-48618D01*
X79930Y-57381D01*
M02*
