%FSLAX46Y46*%
G04 Gerber Fmt 4.6, Leading zero omitted, Abs format (unit mm)*
G04 Created by KiCad (PCBNEW (2014-10-18 BZR 5203)-product) date 12/2/2014 8:42:45 AM*
%MOMM*%
G01*
G04 APERTURE LIST*
%ADD10C,0.150000*%
%ADD11C,0.200000*%
G04 APERTURE END LIST*
D10*
D11*
X205741714Y-155155714D02*
X206551238Y-155155714D01*
X206646476Y-155108095D01*
X206694095Y-155060476D01*
X206741714Y-154965237D01*
X206741714Y-154822380D01*
X206694095Y-154727142D01*
X206360762Y-155155714D02*
X206408381Y-155060476D01*
X206408381Y-154869999D01*
X206360762Y-154774761D01*
X206313143Y-154727142D01*
X206217905Y-154679523D01*
X205932190Y-154679523D01*
X205836952Y-154727142D01*
X205789333Y-154774761D01*
X205741714Y-154869999D01*
X205741714Y-155060476D01*
X205789333Y-155155714D01*
X206408381Y-155631904D02*
X205741714Y-155631904D01*
X205408381Y-155631904D02*
X205456000Y-155584285D01*
X205503619Y-155631904D01*
X205456000Y-155679523D01*
X205408381Y-155631904D01*
X205503619Y-155631904D01*
X205741714Y-155965237D02*
X205741714Y-156346189D01*
X205408381Y-156108094D02*
X206265524Y-156108094D01*
X206360762Y-156155713D01*
X206408381Y-156250951D01*
X206408381Y-156346189D01*
X206408381Y-156679523D02*
X205408381Y-156679523D01*
X206408381Y-157108095D02*
X205884571Y-157108095D01*
X205789333Y-157060476D01*
X205741714Y-156965238D01*
X205741714Y-156822380D01*
X205789333Y-156727142D01*
X205836952Y-156679523D01*
X205741714Y-158012857D02*
X206408381Y-158012857D01*
X205741714Y-157584285D02*
X206265524Y-157584285D01*
X206360762Y-157631904D01*
X206408381Y-157727142D01*
X206408381Y-157870000D01*
X206360762Y-157965238D01*
X206313143Y-158012857D01*
X206408381Y-158489047D02*
X205408381Y-158489047D01*
X205789333Y-158489047D02*
X205741714Y-158584285D01*
X205741714Y-158774762D01*
X205789333Y-158870000D01*
X205836952Y-158917619D01*
X205932190Y-158965238D01*
X206217905Y-158965238D01*
X206313143Y-158917619D01*
X206360762Y-158870000D01*
X206408381Y-158774762D01*
X206408381Y-158584285D01*
X206360762Y-158489047D01*
X206313143Y-159393809D02*
X206360762Y-159441428D01*
X206408381Y-159393809D01*
X206360762Y-159346190D01*
X206313143Y-159393809D01*
X206408381Y-159393809D01*
X206360762Y-160298571D02*
X206408381Y-160203333D01*
X206408381Y-160012856D01*
X206360762Y-159917618D01*
X206313143Y-159869999D01*
X206217905Y-159822380D01*
X205932190Y-159822380D01*
X205836952Y-159869999D01*
X205789333Y-159917618D01*
X205741714Y-160012856D01*
X205741714Y-160203333D01*
X205789333Y-160298571D01*
X206408381Y-160869999D02*
X206360762Y-160774761D01*
X206313143Y-160727142D01*
X206217905Y-160679523D01*
X205932190Y-160679523D01*
X205836952Y-160727142D01*
X205789333Y-160774761D01*
X205741714Y-160869999D01*
X205741714Y-161012857D01*
X205789333Y-161108095D01*
X205836952Y-161155714D01*
X205932190Y-161203333D01*
X206217905Y-161203333D01*
X206313143Y-161155714D01*
X206360762Y-161108095D01*
X206408381Y-161012857D01*
X206408381Y-160869999D01*
X206408381Y-161631904D02*
X205741714Y-161631904D01*
X205836952Y-161631904D02*
X205789333Y-161679523D01*
X205741714Y-161774761D01*
X205741714Y-161917619D01*
X205789333Y-162012857D01*
X205884571Y-162060476D01*
X206408381Y-162060476D01*
X205884571Y-162060476D02*
X205789333Y-162108095D01*
X205741714Y-162203333D01*
X205741714Y-162346190D01*
X205789333Y-162441428D01*
X205884571Y-162489047D01*
X206408381Y-162489047D01*
X205360762Y-163679523D02*
X206646476Y-162822380D01*
X205741714Y-164012856D02*
X206408381Y-164012856D01*
X205836952Y-164012856D02*
X205789333Y-164060475D01*
X205741714Y-164155713D01*
X205741714Y-164298571D01*
X205789333Y-164393809D01*
X205884571Y-164441428D01*
X206408381Y-164441428D01*
X206408381Y-165060475D02*
X206360762Y-164965237D01*
X206313143Y-164917618D01*
X206217905Y-164869999D01*
X205932190Y-164869999D01*
X205836952Y-164917618D01*
X205789333Y-164965237D01*
X205741714Y-165060475D01*
X205741714Y-165203333D01*
X205789333Y-165298571D01*
X205836952Y-165346190D01*
X205932190Y-165393809D01*
X206217905Y-165393809D01*
X206313143Y-165346190D01*
X206360762Y-165298571D01*
X206408381Y-165203333D01*
X206408381Y-165060475D01*
X206408381Y-166250952D02*
X205884571Y-166250952D01*
X205789333Y-166203333D01*
X205741714Y-166108095D01*
X205741714Y-165917618D01*
X205789333Y-165822380D01*
X206360762Y-166250952D02*
X206408381Y-166155714D01*
X206408381Y-165917618D01*
X206360762Y-165822380D01*
X206265524Y-165774761D01*
X206170286Y-165774761D01*
X206075048Y-165822380D01*
X206027429Y-165917618D01*
X206027429Y-166155714D01*
X205979810Y-166250952D01*
X206408381Y-166727142D02*
X205408381Y-166727142D01*
X206408381Y-167155714D02*
X205884571Y-167155714D01*
X205789333Y-167108095D01*
X205741714Y-167012857D01*
X205741714Y-166869999D01*
X205789333Y-166774761D01*
X205836952Y-166727142D01*
X205741714Y-167631904D02*
X206741714Y-167631904D01*
X205789333Y-167631904D02*
X205741714Y-167727142D01*
X205741714Y-167917619D01*
X205789333Y-168012857D01*
X205836952Y-168060476D01*
X205932190Y-168108095D01*
X206217905Y-168108095D01*
X206313143Y-168060476D01*
X206360762Y-168012857D01*
X206408381Y-167917619D01*
X206408381Y-167727142D01*
X206360762Y-167631904D01*
X205360762Y-169250952D02*
X206646476Y-168393809D01*
X206408381Y-170012857D02*
X205884571Y-170012857D01*
X205789333Y-169965238D01*
X205741714Y-169870000D01*
X205741714Y-169679523D01*
X205789333Y-169584285D01*
X206360762Y-170012857D02*
X206408381Y-169917619D01*
X206408381Y-169679523D01*
X206360762Y-169584285D01*
X206265524Y-169536666D01*
X206170286Y-169536666D01*
X206075048Y-169584285D01*
X206027429Y-169679523D01*
X206027429Y-169917619D01*
X205979810Y-170012857D01*
X206408381Y-170489047D02*
X205741714Y-170489047D01*
X205932190Y-170489047D02*
X205836952Y-170536666D01*
X205789333Y-170584285D01*
X205741714Y-170679523D01*
X205741714Y-170774762D01*
X206408381Y-171108095D02*
X205741714Y-171108095D01*
X205836952Y-171108095D02*
X205789333Y-171155714D01*
X205741714Y-171250952D01*
X205741714Y-171393810D01*
X205789333Y-171489048D01*
X205884571Y-171536667D01*
X206408381Y-171536667D01*
X205884571Y-171536667D02*
X205789333Y-171584286D01*
X205741714Y-171679524D01*
X205741714Y-171822381D01*
X205789333Y-171917619D01*
X205884571Y-171965238D01*
X206408381Y-171965238D01*
X206503619Y-172203333D02*
X206503619Y-172965238D01*
X205503619Y-173155714D02*
X205456000Y-173203333D01*
X205408381Y-173298571D01*
X205408381Y-173536667D01*
X205456000Y-173631905D01*
X205503619Y-173679524D01*
X205598857Y-173727143D01*
X205694095Y-173727143D01*
X205836952Y-173679524D01*
X206408381Y-173108095D01*
X206408381Y-173727143D01*
X205408381Y-174346190D02*
X205408381Y-174441429D01*
X205456000Y-174536667D01*
X205503619Y-174584286D01*
X205598857Y-174631905D01*
X205789333Y-174679524D01*
X206027429Y-174679524D01*
X206217905Y-174631905D01*
X206313143Y-174584286D01*
X206360762Y-174536667D01*
X206408381Y-174441429D01*
X206408381Y-174346190D01*
X206360762Y-174250952D01*
X206313143Y-174203333D01*
X206217905Y-174155714D01*
X206027429Y-174108095D01*
X205789333Y-174108095D01*
X205598857Y-174155714D01*
X205503619Y-174203333D01*
X205456000Y-174250952D01*
X205408381Y-174346190D01*
X205741714Y-174965238D02*
X205741714Y-175346190D01*
X205408381Y-175108095D02*
X206265524Y-175108095D01*
X206360762Y-175155714D01*
X206408381Y-175250952D01*
X206408381Y-175346190D01*
X206408381Y-175822381D02*
X206360762Y-175727143D01*
X206313143Y-175679524D01*
X206217905Y-175631905D01*
X205932190Y-175631905D01*
X205836952Y-175679524D01*
X205789333Y-175727143D01*
X205741714Y-175822381D01*
X205741714Y-175965239D01*
X205789333Y-176060477D01*
X205836952Y-176108096D01*
X205932190Y-176155715D01*
X206217905Y-176155715D01*
X206313143Y-176108096D01*
X206360762Y-176060477D01*
X206408381Y-175965239D01*
X206408381Y-175822381D01*
X206408381Y-177108096D02*
X206408381Y-176536667D01*
X206408381Y-176822381D02*
X205408381Y-176822381D01*
X205551238Y-176727143D01*
X205646476Y-176631905D01*
X205694095Y-176536667D01*
X205408381Y-177727143D02*
X205408381Y-177822382D01*
X205456000Y-177917620D01*
X205503619Y-177965239D01*
X205598857Y-178012858D01*
X205789333Y-178060477D01*
X206027429Y-178060477D01*
X206217905Y-178012858D01*
X206313143Y-177965239D01*
X206360762Y-177917620D01*
X206408381Y-177822382D01*
X206408381Y-177727143D01*
X206360762Y-177631905D01*
X206313143Y-177584286D01*
X206217905Y-177536667D01*
X206027429Y-177489048D01*
X205789333Y-177489048D01*
X205598857Y-177536667D01*
X205503619Y-177584286D01*
X205456000Y-177631905D01*
X205408381Y-177727143D01*
X207341714Y-164941429D02*
X208008381Y-165179524D01*
X207341714Y-165417620D01*
X207103619Y-165750953D02*
X207056000Y-165798572D01*
X207008381Y-165893810D01*
X207008381Y-166131906D01*
X207056000Y-166227144D01*
X207103619Y-166274763D01*
X207198857Y-166322382D01*
X207294095Y-166322382D01*
X207436952Y-166274763D01*
X208008381Y-165703334D01*
X208008381Y-166322382D01*
X207913143Y-166750953D02*
X207960762Y-166798572D01*
X208008381Y-166750953D01*
X207960762Y-166703334D01*
X207913143Y-166750953D01*
X208008381Y-166750953D01*
X207008381Y-167417619D02*
X207008381Y-167512858D01*
X207056000Y-167608096D01*
X207103619Y-167655715D01*
X207198857Y-167703334D01*
X207389333Y-167750953D01*
X207627429Y-167750953D01*
X207817905Y-167703334D01*
X207913143Y-167655715D01*
X207960762Y-167608096D01*
X208008381Y-167512858D01*
X208008381Y-167417619D01*
X207960762Y-167322381D01*
X207913143Y-167274762D01*
X207817905Y-167227143D01*
X207627429Y-167179524D01*
X207389333Y-167179524D01*
X207198857Y-167227143D01*
X207103619Y-167274762D01*
X207056000Y-167322381D01*
X207008381Y-167417619D01*
M02*
