%FSLAX46Y46*%
G04 Gerber Fmt 4.6, Leading zero omitted, Abs format (unit mm)*
G04 Created by KiCad (PCBNEW (2014-10-18 BZR 5203)-product) date 10/28/2014 3:51:51 PM*
%MOMM*%
G01*
G04 APERTURE LIST*
%ADD10C,0.150000*%
%ADD11R,1.750000X1.750000*%
%ADD12C,1.750000*%
%ADD13R,1.000000X1.000000*%
%ADD14C,1.000000*%
%ADD15R,0.750000X1.000000*%
%ADD16C,1.270000*%
%ADD17R,0.700000X1.500000*%
%ADD18R,1.300000X0.550000*%
%ADD19R,0.635000X1.143000*%
%ADD20R,1.143000X0.635000*%
%ADD21C,0.508000*%
%ADD22C,0.254000*%
G04 APERTURE END LIST*
D10*
D11*
X200025000Y-154940000D03*
D12*
X202565000Y-154940000D03*
X200025000Y-157480000D03*
X202565000Y-157480000D03*
X200025000Y-160020000D03*
X202565000Y-160020000D03*
X200025000Y-162560000D03*
X202565000Y-162560000D03*
X200025000Y-165100000D03*
X202565000Y-165100000D03*
X200025000Y-167640000D03*
X202565000Y-167640000D03*
X200025000Y-170180000D03*
X202565000Y-170180000D03*
X200025000Y-172720000D03*
X202565000Y-172720000D03*
X200025000Y-175260000D03*
X202565000Y-175260000D03*
X200025000Y-177800000D03*
X202565000Y-177800000D03*
D13*
X210312000Y-163830000D03*
D14*
X211582000Y-163830000D03*
X210312000Y-165100000D03*
X211582000Y-165100000D03*
X210312000Y-166370000D03*
X211582000Y-166370000D03*
X210312000Y-167640000D03*
X211582000Y-167640000D03*
X210312000Y-168910000D03*
X211582000Y-168910000D03*
D15*
X212950000Y-154051000D03*
D16*
X208050000Y-154051000D03*
X211050000Y-154051000D03*
D17*
X208800000Y-155801000D03*
X207300000Y-155801000D03*
X211800000Y-155801000D03*
D15*
X206150000Y-154051000D03*
D18*
X209423000Y-176977000D03*
X209423000Y-177927000D03*
X209423000Y-178877000D03*
X211923000Y-178877000D03*
X211923000Y-176977000D03*
D19*
X206629000Y-178562000D03*
X205105000Y-178562000D03*
X212471000Y-175006000D03*
X210947000Y-175006000D03*
X206629000Y-173482000D03*
X205105000Y-173482000D03*
X206629000Y-159258000D03*
X205105000Y-159258000D03*
X206629000Y-175514000D03*
X205105000Y-175514000D03*
D20*
X205105000Y-155956000D03*
X205105000Y-157480000D03*
D21*
X210566000Y-171069000D03*
X210820000Y-161544000D03*
X206502000Y-157734000D03*
D22*
X207134500Y-176977000D02*
X209423000Y-176977000D01*
X206629000Y-177482500D02*
X207134500Y-176977000D01*
X206629000Y-177482500D02*
X206629000Y-178562000D01*
X206184500Y-177038000D02*
X206629000Y-177482500D01*
X204279500Y-177038000D02*
X206184500Y-177038000D01*
X203771500Y-176530000D02*
X204279500Y-177038000D01*
X201295000Y-176530000D02*
X203771500Y-176530000D01*
X200025000Y-177800000D02*
X201295000Y-176530000D01*
X207645000Y-173482000D02*
X208788000Y-174625000D01*
X206629000Y-173482000D02*
X207645000Y-173482000D01*
X208788000Y-176342000D02*
X209423000Y-176977000D01*
X208788000Y-174625000D02*
X208788000Y-176342000D01*
X206944000Y-178877000D02*
X206629000Y-178562000D01*
X207266500Y-178877000D02*
X207076000Y-178877000D01*
X207076000Y-178877000D02*
X206944000Y-178877000D01*
X209423000Y-178877000D02*
X207266500Y-178877000D01*
X211582000Y-170053000D02*
X211582000Y-168910000D01*
X210566000Y-171069000D02*
X211582000Y-170053000D01*
X200025000Y-160020000D02*
X201295000Y-161290000D01*
X212217000Y-167640000D02*
X211582000Y-167640000D01*
X212788500Y-168211500D02*
X212217000Y-167640000D01*
X212788500Y-169926000D02*
X212788500Y-168211500D01*
X210947000Y-171767500D02*
X212788500Y-169926000D01*
X210312000Y-171767500D02*
X210947000Y-171767500D01*
X206819500Y-168275000D02*
X210312000Y-171767500D01*
X206819500Y-161290000D02*
X206819500Y-168275000D01*
X201295000Y-161290000D02*
X206819500Y-161290000D01*
X211582000Y-163830000D02*
X211582000Y-162306000D01*
X211582000Y-162306000D02*
X210820000Y-161544000D01*
X207300000Y-156936000D02*
X207300000Y-155801000D01*
X206502000Y-157734000D02*
X207300000Y-156936000D01*
X210312000Y-162941000D02*
X206629000Y-159258000D01*
X210312000Y-163830000D02*
X210312000Y-162941000D01*
X207300000Y-158587000D02*
X207300000Y-155801000D01*
X206629000Y-159258000D02*
X207300000Y-158587000D01*
X207228500Y-155801000D02*
X207300000Y-155801000D01*
X212471000Y-175006000D02*
X212471000Y-171259500D01*
X213360000Y-160718500D02*
X208800000Y-156158500D01*
X213360000Y-170370500D02*
X213360000Y-160718500D01*
X212471000Y-171259500D02*
X213360000Y-170370500D01*
X208800000Y-156158500D02*
X208800000Y-155801000D01*
X212471000Y-176429000D02*
X212471000Y-175006000D01*
X211923000Y-176977000D02*
X212471000Y-176429000D01*
X205105000Y-175514000D02*
X205105000Y-173482000D01*
X205105000Y-157480000D02*
X205105000Y-159258000D01*
G36*
X213945000Y-178646552D02*
X213868000Y-179033656D01*
X213868000Y-170370500D01*
X213868000Y-160718500D01*
X213829331Y-160524097D01*
X213719210Y-160359290D01*
X213706000Y-160346080D01*
X213706000Y-154626785D01*
X213706000Y-154475214D01*
X213706000Y-153475214D01*
X213647996Y-153335180D01*
X213540819Y-153228004D01*
X213400785Y-153170000D01*
X213249214Y-153170000D01*
X212499214Y-153170000D01*
X212359180Y-153228004D01*
X212252004Y-153335181D01*
X212194000Y-153475215D01*
X212194000Y-153626786D01*
X212194000Y-154626786D01*
X212211899Y-154670000D01*
X212074214Y-154670000D01*
X211868015Y-154670000D01*
X211910821Y-154627269D01*
X212065824Y-154253982D01*
X212066176Y-153849792D01*
X211911825Y-153476234D01*
X211626269Y-153190179D01*
X211252982Y-153035176D01*
X210848792Y-153034824D01*
X210475234Y-153189175D01*
X210189179Y-153474731D01*
X210034176Y-153848018D01*
X210033824Y-154252208D01*
X210188175Y-154625766D01*
X210473731Y-154911821D01*
X210847018Y-155066824D01*
X211069000Y-155067017D01*
X211069000Y-155126786D01*
X211069000Y-156626786D01*
X211127004Y-156766820D01*
X211234181Y-156873996D01*
X211374215Y-156932000D01*
X211525786Y-156932000D01*
X212225786Y-156932000D01*
X212365820Y-156873996D01*
X212472996Y-156766819D01*
X212531000Y-156626785D01*
X212531000Y-156475214D01*
X212531000Y-154975214D01*
X212513100Y-154932000D01*
X212650786Y-154932000D01*
X213400786Y-154932000D01*
X213540820Y-154873996D01*
X213647996Y-154766819D01*
X213706000Y-154626785D01*
X213706000Y-160346080D01*
X209531000Y-156171080D01*
X209531000Y-154975214D01*
X209472996Y-154835180D01*
X209365819Y-154728004D01*
X209225785Y-154670000D01*
X209074214Y-154670000D01*
X208868015Y-154670000D01*
X208910821Y-154627269D01*
X209065824Y-154253982D01*
X209066176Y-153849792D01*
X208911825Y-153476234D01*
X208626269Y-153190179D01*
X208252982Y-153035176D01*
X207848792Y-153034824D01*
X207475234Y-153189175D01*
X207189179Y-153474731D01*
X207034176Y-153848018D01*
X207033824Y-154252208D01*
X207188175Y-154625766D01*
X207232331Y-154670000D01*
X206888099Y-154670000D01*
X206906000Y-154626785D01*
X206906000Y-154475214D01*
X206906000Y-153475214D01*
X206847996Y-153335180D01*
X206740819Y-153228004D01*
X206600785Y-153170000D01*
X206449214Y-153170000D01*
X205699214Y-153170000D01*
X205559180Y-153228004D01*
X205452004Y-153335181D01*
X205394000Y-153475215D01*
X205394000Y-153626786D01*
X205394000Y-154626786D01*
X205452004Y-154766820D01*
X205559181Y-154873996D01*
X205699215Y-154932000D01*
X205850786Y-154932000D01*
X206586900Y-154932000D01*
X206569000Y-154975215D01*
X206569000Y-155126786D01*
X206569000Y-156626786D01*
X206627004Y-156766820D01*
X206688881Y-156828697D01*
X206418652Y-157098927D01*
X206376245Y-157098890D01*
X206142772Y-157195360D01*
X206057500Y-157280482D01*
X206057500Y-157086714D01*
X206057500Y-156349286D01*
X206057500Y-156051750D01*
X206057500Y-155860250D01*
X206057500Y-155562714D01*
X205999496Y-155422680D01*
X205892319Y-155315504D01*
X205752285Y-155257500D01*
X205600714Y-155257500D01*
X205200750Y-155257500D01*
X205105500Y-155352750D01*
X205105500Y-155955500D01*
X205962250Y-155955500D01*
X206057500Y-155860250D01*
X206057500Y-156051750D01*
X205962250Y-155956500D01*
X205105500Y-155956500D01*
X205105500Y-156559250D01*
X205200750Y-156654500D01*
X205600714Y-156654500D01*
X205752285Y-156654500D01*
X205892319Y-156596496D01*
X205999496Y-156489320D01*
X206057500Y-156349286D01*
X206057500Y-157086714D01*
X205999496Y-156946680D01*
X205892319Y-156839504D01*
X205752285Y-156781500D01*
X205600714Y-156781500D01*
X205104500Y-156781500D01*
X205104500Y-156559250D01*
X205104500Y-155956500D01*
X205104500Y-155955500D01*
X205104500Y-155352750D01*
X205009250Y-155257500D01*
X204609286Y-155257500D01*
X204457715Y-155257500D01*
X204317681Y-155315504D01*
X204210504Y-155422680D01*
X204152500Y-155562714D01*
X204152500Y-155860250D01*
X204247750Y-155955500D01*
X205104500Y-155955500D01*
X205104500Y-155956500D01*
X204247750Y-155956500D01*
X204152500Y-156051750D01*
X204152500Y-156349286D01*
X204210504Y-156489320D01*
X204317681Y-156596496D01*
X204457715Y-156654500D01*
X204609286Y-156654500D01*
X205009250Y-156654500D01*
X205104500Y-156559250D01*
X205104500Y-156781500D01*
X204457714Y-156781500D01*
X204317680Y-156839504D01*
X204210504Y-156946681D01*
X204152500Y-157086715D01*
X204152500Y-157238286D01*
X204152500Y-157873286D01*
X204210504Y-158013320D01*
X204317681Y-158120496D01*
X204457715Y-158178500D01*
X204597000Y-158178500D01*
X204597000Y-158353016D01*
X204571680Y-158363504D01*
X204464504Y-158470681D01*
X204406500Y-158610715D01*
X204406500Y-158762286D01*
X204406500Y-159905286D01*
X204464504Y-160045320D01*
X204571681Y-160152496D01*
X204711715Y-160210500D01*
X204863286Y-160210500D01*
X205498286Y-160210500D01*
X205638320Y-160152496D01*
X205745496Y-160045319D01*
X205803500Y-159905285D01*
X205803500Y-159753714D01*
X205803500Y-158610714D01*
X205745496Y-158470680D01*
X205638319Y-158363504D01*
X205613000Y-158353016D01*
X205613000Y-158178500D01*
X205752286Y-158178500D01*
X205892320Y-158120496D01*
X205950561Y-158062253D01*
X205963360Y-158093228D01*
X206141832Y-158272013D01*
X206229087Y-158308244D01*
X206095680Y-158363504D01*
X205988504Y-158470681D01*
X205930500Y-158610715D01*
X205930500Y-158762286D01*
X205930500Y-159905286D01*
X205988504Y-160045320D01*
X206095681Y-160152496D01*
X206235715Y-160210500D01*
X206387286Y-160210500D01*
X206863079Y-160210500D01*
X209641012Y-162988433D01*
X209596180Y-163007004D01*
X209489004Y-163114181D01*
X209431000Y-163254215D01*
X209431000Y-163405786D01*
X209431000Y-164405786D01*
X209489004Y-164545820D01*
X209563123Y-164619939D01*
X209438442Y-164890792D01*
X209424878Y-165241013D01*
X209546370Y-165569766D01*
X209584998Y-165627579D01*
X209743833Y-165667460D01*
X210311293Y-165100000D01*
X210297150Y-165085857D01*
X210297857Y-165085150D01*
X210312000Y-165099293D01*
X210326142Y-165085150D01*
X210326849Y-165085857D01*
X210312707Y-165100000D01*
X210880167Y-165667460D01*
X210898930Y-165662748D01*
X210971077Y-165735020D01*
X210898762Y-165807209D01*
X210880167Y-165802540D01*
X210879460Y-165803247D01*
X210879460Y-165801833D01*
X210862679Y-165735000D01*
X210879460Y-165668167D01*
X210312000Y-165100707D01*
X209744540Y-165668167D01*
X209761320Y-165735000D01*
X209744540Y-165801833D01*
X210312000Y-166369293D01*
X210879460Y-165801833D01*
X210879460Y-165803247D01*
X210312707Y-166370000D01*
X210880167Y-166937460D01*
X210898930Y-166932748D01*
X210971077Y-167005020D01*
X210946979Y-167029077D01*
X210874790Y-166956762D01*
X210879460Y-166938167D01*
X210312000Y-166370707D01*
X210311293Y-166371414D01*
X210311293Y-166370000D01*
X209743833Y-165802540D01*
X209584998Y-165842421D01*
X209438442Y-166160792D01*
X209424878Y-166511013D01*
X209546370Y-166839766D01*
X209584998Y-166897579D01*
X209743833Y-166937460D01*
X210311293Y-166370000D01*
X210311293Y-166371414D01*
X209744540Y-166938167D01*
X209749251Y-166956930D01*
X209565560Y-167140302D01*
X209431153Y-167463989D01*
X209430847Y-167814473D01*
X209564689Y-168138395D01*
X209749209Y-168323237D01*
X209744540Y-168341833D01*
X210312000Y-168909293D01*
X210879460Y-168341833D01*
X210874748Y-168323069D01*
X210947020Y-168250922D01*
X210971077Y-168275020D01*
X210898762Y-168347209D01*
X210880167Y-168342540D01*
X210312707Y-168910000D01*
X210880167Y-169477460D01*
X210898930Y-169472748D01*
X211074000Y-169648123D01*
X211074000Y-169842580D01*
X210879460Y-170037119D01*
X210879460Y-169478167D01*
X210312000Y-168910707D01*
X210311293Y-168911414D01*
X210311293Y-168910000D01*
X209743833Y-168342540D01*
X209584998Y-168382421D01*
X209438442Y-168700792D01*
X209424878Y-169051013D01*
X209546370Y-169379766D01*
X209584998Y-169437579D01*
X209743833Y-169477460D01*
X210311293Y-168910000D01*
X210311293Y-168911414D01*
X209744540Y-169478167D01*
X209784421Y-169637002D01*
X210102792Y-169783558D01*
X210453013Y-169797122D01*
X210781766Y-169675630D01*
X210839579Y-169637002D01*
X210879460Y-169478167D01*
X210879460Y-170037119D01*
X210482652Y-170433927D01*
X210440245Y-170433890D01*
X210206772Y-170530360D01*
X210027987Y-170708832D01*
X210011487Y-170748567D01*
X207327500Y-168064580D01*
X207327500Y-161290000D01*
X207288831Y-161095597D01*
X207178710Y-160930790D01*
X207013903Y-160820669D01*
X206819500Y-160782000D01*
X203578923Y-160782000D01*
X203601326Y-160772316D01*
X203810339Y-160318465D01*
X203829760Y-159819175D01*
X203829760Y-157279175D01*
X203821217Y-157256045D01*
X203821217Y-154691262D01*
X203630405Y-154229463D01*
X203277396Y-153875836D01*
X202815930Y-153684219D01*
X202316262Y-153683783D01*
X201854463Y-153874595D01*
X201500836Y-154227604D01*
X201309219Y-154689070D01*
X201308783Y-155188738D01*
X201499595Y-155650537D01*
X201852604Y-156004164D01*
X202314070Y-156195781D01*
X202813738Y-156196217D01*
X203275537Y-156005405D01*
X203629164Y-155652396D01*
X203820781Y-155190930D01*
X203821217Y-154691262D01*
X203821217Y-157256045D01*
X203656634Y-156810460D01*
X203601326Y-156727684D01*
X203403527Y-156642180D01*
X203402820Y-156642887D01*
X203402820Y-156641473D01*
X203317316Y-156443674D01*
X202863465Y-156234661D01*
X202364175Y-156215240D01*
X201895460Y-156388366D01*
X201812684Y-156443674D01*
X201727180Y-156641473D01*
X202565000Y-157479293D01*
X203402820Y-156641473D01*
X203402820Y-156642887D01*
X202565707Y-157480000D01*
X203403527Y-158317820D01*
X203601326Y-158232316D01*
X203810339Y-157778465D01*
X203829760Y-157279175D01*
X203829760Y-159819175D01*
X203656634Y-159350460D01*
X203601326Y-159267684D01*
X203403527Y-159182180D01*
X203402820Y-159182887D01*
X203402820Y-159181473D01*
X203402820Y-158318527D01*
X202565000Y-157480707D01*
X202564293Y-157481414D01*
X202564293Y-157480000D01*
X201726473Y-156642180D01*
X201528674Y-156727684D01*
X201319661Y-157181535D01*
X201300240Y-157680825D01*
X201473366Y-158149540D01*
X201528674Y-158232316D01*
X201726473Y-158317820D01*
X202564293Y-157480000D01*
X202564293Y-157481414D01*
X201727180Y-158318527D01*
X201812684Y-158516326D01*
X202266535Y-158725339D01*
X202765825Y-158744760D01*
X203234540Y-158571634D01*
X203317316Y-158516326D01*
X203402820Y-158318527D01*
X203402820Y-159181473D01*
X203317316Y-158983674D01*
X202863465Y-158774661D01*
X202364175Y-158755240D01*
X201895460Y-158928366D01*
X201812684Y-158983674D01*
X201727180Y-159181473D01*
X202565000Y-160019293D01*
X203402820Y-159181473D01*
X203402820Y-159182887D01*
X202565707Y-160020000D01*
X202579849Y-160034142D01*
X202579142Y-160034849D01*
X202565000Y-160020707D01*
X202550857Y-160034849D01*
X202550150Y-160034142D01*
X202564293Y-160020000D01*
X201726473Y-159182180D01*
X201528674Y-159267684D01*
X201319661Y-159721535D01*
X201300240Y-160220825D01*
X201473366Y-160689540D01*
X201528674Y-160772316D01*
X201551076Y-160782000D01*
X201505420Y-160782000D01*
X201196741Y-160473321D01*
X201280781Y-160270930D01*
X201281217Y-159771262D01*
X201281217Y-157231262D01*
X201281000Y-157230736D01*
X201281000Y-155890785D01*
X201281000Y-155739214D01*
X201281000Y-153989214D01*
X201222996Y-153849180D01*
X201115819Y-153742004D01*
X200975785Y-153684000D01*
X200824214Y-153684000D01*
X199074214Y-153684000D01*
X198934180Y-153742004D01*
X198827004Y-153849181D01*
X198769000Y-153989215D01*
X198769000Y-154140786D01*
X198769000Y-155890786D01*
X198827004Y-156030820D01*
X198934181Y-156137996D01*
X199074215Y-156196000D01*
X199225786Y-156196000D01*
X200975786Y-156196000D01*
X201115820Y-156137996D01*
X201222996Y-156030819D01*
X201281000Y-155890785D01*
X201281000Y-157230736D01*
X201090405Y-156769463D01*
X200737396Y-156415836D01*
X200275930Y-156224219D01*
X199776262Y-156223783D01*
X199314463Y-156414595D01*
X198960836Y-156767604D01*
X198769219Y-157229070D01*
X198768783Y-157728738D01*
X198959595Y-158190537D01*
X199312604Y-158544164D01*
X199774070Y-158735781D01*
X200273738Y-158736217D01*
X200735537Y-158545405D01*
X201089164Y-158192396D01*
X201280781Y-157730930D01*
X201281217Y-157231262D01*
X201281217Y-159771262D01*
X201090405Y-159309463D01*
X200737396Y-158955836D01*
X200275930Y-158764219D01*
X199776262Y-158763783D01*
X199314463Y-158954595D01*
X198960836Y-159307604D01*
X198769219Y-159769070D01*
X198768783Y-160268738D01*
X198959595Y-160730537D01*
X199312604Y-161084164D01*
X199774070Y-161275781D01*
X200273738Y-161276217D01*
X200478281Y-161191701D01*
X200935790Y-161649210D01*
X201100596Y-161759331D01*
X201100597Y-161759331D01*
X201132849Y-161765746D01*
X201295000Y-161798000D01*
X201551076Y-161798000D01*
X201528674Y-161807684D01*
X201319661Y-162261535D01*
X201300240Y-162760825D01*
X201473366Y-163229540D01*
X201528674Y-163312316D01*
X201726473Y-163397820D01*
X202564293Y-162560000D01*
X202550150Y-162545857D01*
X202550857Y-162545150D01*
X202565000Y-162559293D01*
X202579142Y-162545150D01*
X202579849Y-162545857D01*
X202565707Y-162560000D01*
X203403527Y-163397820D01*
X203601326Y-163312316D01*
X203810339Y-162858465D01*
X203829760Y-162359175D01*
X203656634Y-161890460D01*
X203601326Y-161807684D01*
X203578923Y-161798000D01*
X206311500Y-161798000D01*
X206311500Y-168275000D01*
X206350169Y-168469403D01*
X206460290Y-168634210D01*
X209952790Y-172126710D01*
X210117597Y-172236831D01*
X210312000Y-172275500D01*
X210947000Y-172275500D01*
X211141403Y-172236831D01*
X211306210Y-172126710D01*
X211963000Y-171469920D01*
X211963000Y-174101016D01*
X211937680Y-174111504D01*
X211830504Y-174218681D01*
X211772500Y-174358715D01*
X211772500Y-174510286D01*
X211772500Y-175653286D01*
X211830504Y-175793320D01*
X211937681Y-175900496D01*
X211963000Y-175910983D01*
X211963000Y-176218580D01*
X211860580Y-176321000D01*
X211645500Y-176321000D01*
X211645500Y-175653285D01*
X211645500Y-175501714D01*
X211645500Y-175101750D01*
X211645500Y-174910250D01*
X211645500Y-174510286D01*
X211645500Y-174358715D01*
X211587496Y-174218681D01*
X211480320Y-174111504D01*
X211340286Y-174053500D01*
X211042750Y-174053500D01*
X210947500Y-174148750D01*
X210947500Y-175005500D01*
X211550250Y-175005500D01*
X211645500Y-174910250D01*
X211645500Y-175101750D01*
X211550250Y-175006500D01*
X210947500Y-175006500D01*
X210947500Y-175863250D01*
X211042750Y-175958500D01*
X211340286Y-175958500D01*
X211480320Y-175900496D01*
X211587496Y-175793319D01*
X211645500Y-175653285D01*
X211645500Y-176321000D01*
X211197214Y-176321000D01*
X211057180Y-176379004D01*
X210950004Y-176486181D01*
X210946500Y-176494640D01*
X210946500Y-175863250D01*
X210946500Y-175006500D01*
X210946500Y-175005500D01*
X210946500Y-174148750D01*
X210851250Y-174053500D01*
X210553714Y-174053500D01*
X210413680Y-174111504D01*
X210306504Y-174218681D01*
X210248500Y-174358715D01*
X210248500Y-174510286D01*
X210248500Y-174910250D01*
X210343750Y-175005500D01*
X210946500Y-175005500D01*
X210946500Y-175006500D01*
X210343750Y-175006500D01*
X210248500Y-175101750D01*
X210248500Y-175501714D01*
X210248500Y-175653285D01*
X210306504Y-175793319D01*
X210413680Y-175900496D01*
X210553714Y-175958500D01*
X210851250Y-175958500D01*
X210946500Y-175863250D01*
X210946500Y-176494640D01*
X210892000Y-176626215D01*
X210892000Y-176777786D01*
X210892000Y-177327786D01*
X210950004Y-177467820D01*
X211057181Y-177574996D01*
X211197215Y-177633000D01*
X211348786Y-177633000D01*
X212648786Y-177633000D01*
X212788820Y-177574996D01*
X212895996Y-177467819D01*
X212954000Y-177327785D01*
X212954000Y-177176214D01*
X212954000Y-176626214D01*
X212944387Y-176603008D01*
X212979000Y-176429000D01*
X212979000Y-175910983D01*
X213004320Y-175900496D01*
X213111496Y-175793319D01*
X213169500Y-175653285D01*
X213169500Y-175501714D01*
X213169500Y-174358714D01*
X213111496Y-174218680D01*
X213004319Y-174111504D01*
X212979000Y-174101016D01*
X212979000Y-171469920D01*
X213719210Y-170729710D01*
X213829331Y-170564903D01*
X213868000Y-170370500D01*
X213868000Y-179033656D01*
X213776661Y-179492847D01*
X213321317Y-180174317D01*
X212954000Y-180419750D01*
X212954000Y-179227785D01*
X212954000Y-179076214D01*
X212954000Y-178526214D01*
X212895996Y-178386180D01*
X212788819Y-178279004D01*
X212648785Y-178221000D01*
X212497214Y-178221000D01*
X211197214Y-178221000D01*
X211057180Y-178279004D01*
X210950004Y-178386181D01*
X210892000Y-178526215D01*
X210892000Y-178677786D01*
X210892000Y-179227786D01*
X210950004Y-179367820D01*
X211057181Y-179474996D01*
X211197215Y-179533000D01*
X211348786Y-179533000D01*
X212648786Y-179533000D01*
X212788820Y-179474996D01*
X212895996Y-179367819D01*
X212954000Y-179227785D01*
X212954000Y-180419750D01*
X212639847Y-180629661D01*
X211793552Y-180798000D01*
X210454000Y-180798000D01*
X210454000Y-179227785D01*
X210454000Y-179076214D01*
X210454000Y-178526214D01*
X210402548Y-178401999D01*
X210454000Y-178277785D01*
X210454000Y-178126214D01*
X210454000Y-178022750D01*
X210358750Y-177927500D01*
X209423500Y-177927500D01*
X209423500Y-177947500D01*
X209422500Y-177947500D01*
X209422500Y-177927500D01*
X208487250Y-177927500D01*
X208392000Y-178022750D01*
X208392000Y-178126214D01*
X208392000Y-178277785D01*
X208429782Y-178369000D01*
X207327500Y-178369000D01*
X207327500Y-177914714D01*
X207269496Y-177774680D01*
X207162367Y-177667552D01*
X207344920Y-177485000D01*
X208429782Y-177485000D01*
X208392000Y-177576215D01*
X208392000Y-177727786D01*
X208392000Y-177831250D01*
X208487250Y-177926500D01*
X209422500Y-177926500D01*
X209422500Y-177906500D01*
X209423500Y-177906500D01*
X209423500Y-177926500D01*
X210358750Y-177926500D01*
X210454000Y-177831250D01*
X210454000Y-177727786D01*
X210454000Y-177576215D01*
X210402548Y-177452000D01*
X210454000Y-177327785D01*
X210454000Y-177176214D01*
X210454000Y-176626214D01*
X210395996Y-176486180D01*
X210288819Y-176379004D01*
X210148785Y-176321000D01*
X209997214Y-176321000D01*
X209485420Y-176321000D01*
X209296000Y-176131579D01*
X209296000Y-174625000D01*
X209257331Y-174430597D01*
X209257331Y-174430596D01*
X209147210Y-174265790D01*
X208004210Y-173122790D01*
X207839403Y-173012669D01*
X207645000Y-172974000D01*
X207327500Y-172974000D01*
X207327500Y-172834714D01*
X207269496Y-172694680D01*
X207162319Y-172587504D01*
X207022285Y-172529500D01*
X206870714Y-172529500D01*
X206235714Y-172529500D01*
X206095680Y-172587504D01*
X205988504Y-172694681D01*
X205930500Y-172834715D01*
X205930500Y-172986286D01*
X205930500Y-174129286D01*
X205988504Y-174269320D01*
X206095681Y-174376496D01*
X206235715Y-174434500D01*
X206387286Y-174434500D01*
X207022286Y-174434500D01*
X207162320Y-174376496D01*
X207269496Y-174269319D01*
X207327500Y-174129285D01*
X207327500Y-173990000D01*
X207434580Y-173990000D01*
X208280000Y-174835420D01*
X208280000Y-176342000D01*
X208305261Y-176469000D01*
X207327500Y-176469000D01*
X207327500Y-176161285D01*
X207327500Y-176009714D01*
X207327500Y-175609750D01*
X207327500Y-175418250D01*
X207327500Y-175018286D01*
X207327500Y-174866715D01*
X207269496Y-174726681D01*
X207162320Y-174619504D01*
X207022286Y-174561500D01*
X206724750Y-174561500D01*
X206629500Y-174656750D01*
X206629500Y-175513500D01*
X207232250Y-175513500D01*
X207327500Y-175418250D01*
X207327500Y-175609750D01*
X207232250Y-175514500D01*
X206629500Y-175514500D01*
X206629500Y-176371250D01*
X206724750Y-176466500D01*
X207022286Y-176466500D01*
X207162320Y-176408496D01*
X207269496Y-176301319D01*
X207327500Y-176161285D01*
X207327500Y-176469000D01*
X207134500Y-176469000D01*
X206940097Y-176507669D01*
X206775290Y-176617790D01*
X206629000Y-176764080D01*
X206628500Y-176763580D01*
X206628500Y-176371250D01*
X206628500Y-175514500D01*
X206628500Y-175513500D01*
X206628500Y-174656750D01*
X206533250Y-174561500D01*
X206235714Y-174561500D01*
X206095680Y-174619504D01*
X205988504Y-174726681D01*
X205930500Y-174866715D01*
X205930500Y-175018286D01*
X205930500Y-175418250D01*
X206025750Y-175513500D01*
X206628500Y-175513500D01*
X206628500Y-175514500D01*
X206025750Y-175514500D01*
X205930500Y-175609750D01*
X205930500Y-176009714D01*
X205930500Y-176161285D01*
X205988504Y-176301319D01*
X206095680Y-176408496D01*
X206235714Y-176466500D01*
X206533250Y-176466500D01*
X206628500Y-176371250D01*
X206628500Y-176763580D01*
X206543710Y-176678790D01*
X206378903Y-176568669D01*
X206184500Y-176530000D01*
X205803500Y-176530000D01*
X205803500Y-176161285D01*
X205803500Y-176009714D01*
X205803500Y-174866714D01*
X205745496Y-174726680D01*
X205638319Y-174619504D01*
X205613000Y-174609016D01*
X205613000Y-174386983D01*
X205638320Y-174376496D01*
X205745496Y-174269319D01*
X205803500Y-174129285D01*
X205803500Y-173977714D01*
X205803500Y-172834714D01*
X205745496Y-172694680D01*
X205638319Y-172587504D01*
X205498285Y-172529500D01*
X205346714Y-172529500D01*
X204711714Y-172529500D01*
X204571680Y-172587504D01*
X204464504Y-172694681D01*
X204406500Y-172834715D01*
X204406500Y-172986286D01*
X204406500Y-174129286D01*
X204464504Y-174269320D01*
X204571681Y-174376496D01*
X204597000Y-174386983D01*
X204597000Y-174609016D01*
X204571680Y-174619504D01*
X204464504Y-174726681D01*
X204406500Y-174866715D01*
X204406500Y-175018286D01*
X204406500Y-176161286D01*
X204464504Y-176301320D01*
X204571681Y-176408496D01*
X204711715Y-176466500D01*
X204863286Y-176466500D01*
X205498286Y-176466500D01*
X205638320Y-176408496D01*
X205745496Y-176301319D01*
X205803500Y-176161285D01*
X205803500Y-176530000D01*
X204489920Y-176530000D01*
X204130710Y-176170790D01*
X203965903Y-176060669D01*
X203771500Y-176022000D01*
X203578923Y-176022000D01*
X203601326Y-176012316D01*
X203810339Y-175558465D01*
X203829760Y-175059175D01*
X203829760Y-172519175D01*
X203829760Y-169979175D01*
X203829760Y-167439175D01*
X203829760Y-164899175D01*
X203656634Y-164430460D01*
X203601326Y-164347684D01*
X203403527Y-164262180D01*
X203402820Y-164262887D01*
X203402820Y-164261473D01*
X203402820Y-163398527D01*
X202565000Y-162560707D01*
X201727180Y-163398527D01*
X201812684Y-163596326D01*
X202266535Y-163805339D01*
X202765825Y-163824760D01*
X203234540Y-163651634D01*
X203317316Y-163596326D01*
X203402820Y-163398527D01*
X203402820Y-164261473D01*
X203317316Y-164063674D01*
X202863465Y-163854661D01*
X202364175Y-163835240D01*
X201895460Y-164008366D01*
X201812684Y-164063674D01*
X201727180Y-164261473D01*
X202565000Y-165099293D01*
X203402820Y-164261473D01*
X203402820Y-164262887D01*
X202565707Y-165100000D01*
X203403527Y-165937820D01*
X203601326Y-165852316D01*
X203810339Y-165398465D01*
X203829760Y-164899175D01*
X203829760Y-167439175D01*
X203656634Y-166970460D01*
X203601326Y-166887684D01*
X203403527Y-166802180D01*
X203402820Y-166802887D01*
X203402820Y-166801473D01*
X203402820Y-165938527D01*
X202565000Y-165100707D01*
X202564293Y-165101414D01*
X202564293Y-165100000D01*
X201726473Y-164262180D01*
X201528674Y-164347684D01*
X201319661Y-164801535D01*
X201300240Y-165300825D01*
X201473366Y-165769540D01*
X201528674Y-165852316D01*
X201726473Y-165937820D01*
X202564293Y-165100000D01*
X202564293Y-165101414D01*
X201727180Y-165938527D01*
X201812684Y-166136326D01*
X202266535Y-166345339D01*
X202765825Y-166364760D01*
X203234540Y-166191634D01*
X203317316Y-166136326D01*
X203402820Y-165938527D01*
X203402820Y-166801473D01*
X203317316Y-166603674D01*
X202863465Y-166394661D01*
X202364175Y-166375240D01*
X201895460Y-166548366D01*
X201812684Y-166603674D01*
X201727180Y-166801473D01*
X202565000Y-167639293D01*
X203402820Y-166801473D01*
X203402820Y-166802887D01*
X202565707Y-167640000D01*
X203403527Y-168477820D01*
X203601326Y-168392316D01*
X203810339Y-167938465D01*
X203829760Y-167439175D01*
X203829760Y-169979175D01*
X203656634Y-169510460D01*
X203601326Y-169427684D01*
X203403527Y-169342180D01*
X203402820Y-169342887D01*
X203402820Y-169341473D01*
X203402820Y-168478527D01*
X202565000Y-167640707D01*
X202564293Y-167641414D01*
X202564293Y-167640000D01*
X201726473Y-166802180D01*
X201528674Y-166887684D01*
X201319661Y-167341535D01*
X201300240Y-167840825D01*
X201473366Y-168309540D01*
X201528674Y-168392316D01*
X201726473Y-168477820D01*
X202564293Y-167640000D01*
X202564293Y-167641414D01*
X201727180Y-168478527D01*
X201812684Y-168676326D01*
X202266535Y-168885339D01*
X202765825Y-168904760D01*
X203234540Y-168731634D01*
X203317316Y-168676326D01*
X203402820Y-168478527D01*
X203402820Y-169341473D01*
X203317316Y-169143674D01*
X202863465Y-168934661D01*
X202364175Y-168915240D01*
X201895460Y-169088366D01*
X201812684Y-169143674D01*
X201727180Y-169341473D01*
X202565000Y-170179293D01*
X203402820Y-169341473D01*
X203402820Y-169342887D01*
X202565707Y-170180000D01*
X203403527Y-171017820D01*
X203601326Y-170932316D01*
X203810339Y-170478465D01*
X203829760Y-169979175D01*
X203829760Y-172519175D01*
X203656634Y-172050460D01*
X203601326Y-171967684D01*
X203403527Y-171882180D01*
X203402820Y-171882887D01*
X203402820Y-171881473D01*
X203402820Y-171018527D01*
X202565000Y-170180707D01*
X202564293Y-170181414D01*
X202564293Y-170180000D01*
X201726473Y-169342180D01*
X201528674Y-169427684D01*
X201319661Y-169881535D01*
X201300240Y-170380825D01*
X201473366Y-170849540D01*
X201528674Y-170932316D01*
X201726473Y-171017820D01*
X202564293Y-170180000D01*
X202564293Y-170181414D01*
X201727180Y-171018527D01*
X201812684Y-171216326D01*
X202266535Y-171425339D01*
X202765825Y-171444760D01*
X203234540Y-171271634D01*
X203317316Y-171216326D01*
X203402820Y-171018527D01*
X203402820Y-171881473D01*
X203317316Y-171683674D01*
X202863465Y-171474661D01*
X202364175Y-171455240D01*
X201895460Y-171628366D01*
X201812684Y-171683674D01*
X201727180Y-171881473D01*
X202565000Y-172719293D01*
X203402820Y-171881473D01*
X203402820Y-171882887D01*
X202565707Y-172720000D01*
X203403527Y-173557820D01*
X203601326Y-173472316D01*
X203810339Y-173018465D01*
X203829760Y-172519175D01*
X203829760Y-175059175D01*
X203656634Y-174590460D01*
X203601326Y-174507684D01*
X203403527Y-174422180D01*
X203402820Y-174422887D01*
X203402820Y-174421473D01*
X203402820Y-173558527D01*
X202565000Y-172720707D01*
X202564293Y-172721414D01*
X202564293Y-172720000D01*
X201726473Y-171882180D01*
X201528674Y-171967684D01*
X201319661Y-172421535D01*
X201300240Y-172920825D01*
X201473366Y-173389540D01*
X201528674Y-173472316D01*
X201726473Y-173557820D01*
X202564293Y-172720000D01*
X202564293Y-172721414D01*
X201727180Y-173558527D01*
X201812684Y-173756326D01*
X202266535Y-173965339D01*
X202765825Y-173984760D01*
X203234540Y-173811634D01*
X203317316Y-173756326D01*
X203402820Y-173558527D01*
X203402820Y-174421473D01*
X203317316Y-174223674D01*
X202863465Y-174014661D01*
X202364175Y-173995240D01*
X201895460Y-174168366D01*
X201812684Y-174223674D01*
X201727180Y-174421473D01*
X202565000Y-175259293D01*
X203402820Y-174421473D01*
X203402820Y-174422887D01*
X202565707Y-175260000D01*
X202579849Y-175274142D01*
X202579142Y-175274849D01*
X202565000Y-175260707D01*
X202550857Y-175274849D01*
X202550150Y-175274142D01*
X202564293Y-175260000D01*
X201726473Y-174422180D01*
X201528674Y-174507684D01*
X201319661Y-174961535D01*
X201300240Y-175460825D01*
X201473366Y-175929540D01*
X201528674Y-176012316D01*
X201551076Y-176022000D01*
X201295000Y-176022000D01*
X201281217Y-176024741D01*
X201281217Y-175011262D01*
X201281217Y-172471262D01*
X201281217Y-169931262D01*
X201281217Y-167391262D01*
X201281217Y-164851262D01*
X201281217Y-162311262D01*
X201090405Y-161849463D01*
X200737396Y-161495836D01*
X200275930Y-161304219D01*
X199776262Y-161303783D01*
X199314463Y-161494595D01*
X198960836Y-161847604D01*
X198769219Y-162309070D01*
X198768783Y-162808738D01*
X198959595Y-163270537D01*
X199312604Y-163624164D01*
X199774070Y-163815781D01*
X200273738Y-163816217D01*
X200735537Y-163625405D01*
X201089164Y-163272396D01*
X201280781Y-162810930D01*
X201281217Y-162311262D01*
X201281217Y-164851262D01*
X201090405Y-164389463D01*
X200737396Y-164035836D01*
X200275930Y-163844219D01*
X199776262Y-163843783D01*
X199314463Y-164034595D01*
X198960836Y-164387604D01*
X198769219Y-164849070D01*
X198768783Y-165348738D01*
X198959595Y-165810537D01*
X199312604Y-166164164D01*
X199774070Y-166355781D01*
X200273738Y-166356217D01*
X200735537Y-166165405D01*
X201089164Y-165812396D01*
X201280781Y-165350930D01*
X201281217Y-164851262D01*
X201281217Y-167391262D01*
X201090405Y-166929463D01*
X200737396Y-166575836D01*
X200275930Y-166384219D01*
X199776262Y-166383783D01*
X199314463Y-166574595D01*
X198960836Y-166927604D01*
X198769219Y-167389070D01*
X198768783Y-167888738D01*
X198959595Y-168350537D01*
X199312604Y-168704164D01*
X199774070Y-168895781D01*
X200273738Y-168896217D01*
X200735537Y-168705405D01*
X201089164Y-168352396D01*
X201280781Y-167890930D01*
X201281217Y-167391262D01*
X201281217Y-169931262D01*
X201090405Y-169469463D01*
X200737396Y-169115836D01*
X200275930Y-168924219D01*
X199776262Y-168923783D01*
X199314463Y-169114595D01*
X198960836Y-169467604D01*
X198769219Y-169929070D01*
X198768783Y-170428738D01*
X198959595Y-170890537D01*
X199312604Y-171244164D01*
X199774070Y-171435781D01*
X200273738Y-171436217D01*
X200735537Y-171245405D01*
X201089164Y-170892396D01*
X201280781Y-170430930D01*
X201281217Y-169931262D01*
X201281217Y-172471262D01*
X201090405Y-172009463D01*
X200737396Y-171655836D01*
X200275930Y-171464219D01*
X199776262Y-171463783D01*
X199314463Y-171654595D01*
X198960836Y-172007604D01*
X198769219Y-172469070D01*
X198768783Y-172968738D01*
X198959595Y-173430537D01*
X199312604Y-173784164D01*
X199774070Y-173975781D01*
X200273738Y-173976217D01*
X200735537Y-173785405D01*
X201089164Y-173432396D01*
X201280781Y-172970930D01*
X201281217Y-172471262D01*
X201281217Y-175011262D01*
X201090405Y-174549463D01*
X200737396Y-174195836D01*
X200275930Y-174004219D01*
X199776262Y-174003783D01*
X199314463Y-174194595D01*
X198960836Y-174547604D01*
X198769219Y-175009070D01*
X198768783Y-175508738D01*
X198959595Y-175970537D01*
X199312604Y-176324164D01*
X199774070Y-176515781D01*
X200273738Y-176516217D01*
X200735537Y-176325405D01*
X201089164Y-175972396D01*
X201280781Y-175510930D01*
X201281217Y-175011262D01*
X201281217Y-176024741D01*
X201132849Y-176054253D01*
X201100596Y-176060669D01*
X200935790Y-176170790D01*
X200478321Y-176628258D01*
X200275930Y-176544219D01*
X199776262Y-176543783D01*
X199314463Y-176734595D01*
X198960836Y-177087604D01*
X198769219Y-177549070D01*
X198768783Y-178048738D01*
X198959595Y-178510537D01*
X199312604Y-178864164D01*
X199774070Y-179055781D01*
X200273738Y-179056217D01*
X200735537Y-178865405D01*
X201089164Y-178512396D01*
X201280781Y-178050930D01*
X201281217Y-177551262D01*
X201196701Y-177346718D01*
X201505420Y-177038000D01*
X201551076Y-177038000D01*
X201528674Y-177047684D01*
X201319661Y-177501535D01*
X201300240Y-178000825D01*
X201473366Y-178469540D01*
X201528674Y-178552316D01*
X201726473Y-178637820D01*
X202564293Y-177800000D01*
X202550150Y-177785857D01*
X202550857Y-177785150D01*
X202565000Y-177799293D01*
X202579142Y-177785150D01*
X202579849Y-177785857D01*
X202565707Y-177800000D01*
X203403527Y-178637820D01*
X203601326Y-178552316D01*
X203810339Y-178098465D01*
X203829760Y-177599175D01*
X203658446Y-177135366D01*
X203920289Y-177397210D01*
X203920290Y-177397210D01*
X204030410Y-177470790D01*
X204085096Y-177507330D01*
X204085097Y-177507331D01*
X204279500Y-177546000D01*
X205974080Y-177546000D01*
X206095632Y-177667552D01*
X205988504Y-177774681D01*
X205930500Y-177914715D01*
X205930500Y-178066286D01*
X205930500Y-179209286D01*
X205988504Y-179349320D01*
X206095681Y-179456496D01*
X206235715Y-179514500D01*
X206387286Y-179514500D01*
X207022286Y-179514500D01*
X207162320Y-179456496D01*
X207233815Y-179385000D01*
X207266500Y-179385000D01*
X208467184Y-179385000D01*
X208557181Y-179474996D01*
X208697215Y-179533000D01*
X208848786Y-179533000D01*
X210148786Y-179533000D01*
X210288820Y-179474996D01*
X210395996Y-179367819D01*
X210454000Y-179227785D01*
X210454000Y-180798000D01*
X205803500Y-180798000D01*
X205803500Y-179209285D01*
X205803500Y-179057714D01*
X205803500Y-178657750D01*
X205803500Y-178466250D01*
X205803500Y-178066286D01*
X205803500Y-177914715D01*
X205745496Y-177774681D01*
X205638320Y-177667504D01*
X205498286Y-177609500D01*
X205200750Y-177609500D01*
X205105500Y-177704750D01*
X205105500Y-178561500D01*
X205708250Y-178561500D01*
X205803500Y-178466250D01*
X205803500Y-178657750D01*
X205708250Y-178562500D01*
X205105500Y-178562500D01*
X205105500Y-179419250D01*
X205200750Y-179514500D01*
X205498286Y-179514500D01*
X205638320Y-179456496D01*
X205745496Y-179349319D01*
X205803500Y-179209285D01*
X205803500Y-180798000D01*
X205104500Y-180798000D01*
X205104500Y-179419250D01*
X205104500Y-178562500D01*
X205104500Y-178561500D01*
X205104500Y-177704750D01*
X205009250Y-177609500D01*
X204711714Y-177609500D01*
X204571680Y-177667504D01*
X204464504Y-177774681D01*
X204406500Y-177914715D01*
X204406500Y-178066286D01*
X204406500Y-178466250D01*
X204501750Y-178561500D01*
X205104500Y-178561500D01*
X205104500Y-178562500D01*
X204501750Y-178562500D01*
X204406500Y-178657750D01*
X204406500Y-179057714D01*
X204406500Y-179209285D01*
X204464504Y-179349319D01*
X204571680Y-179456496D01*
X204711714Y-179514500D01*
X205009250Y-179514500D01*
X205104500Y-179419250D01*
X205104500Y-180798000D01*
X203402820Y-180798000D01*
X203402820Y-178638527D01*
X202565000Y-177800707D01*
X201727180Y-178638527D01*
X201812684Y-178836326D01*
X202266535Y-179045339D01*
X202765825Y-179064760D01*
X203234540Y-178891634D01*
X203317316Y-178836326D01*
X203402820Y-178638527D01*
X203402820Y-180798000D01*
X200067447Y-180798000D01*
X199221152Y-180629661D01*
X198539682Y-180174317D01*
X198084338Y-179492847D01*
X197916000Y-178646552D01*
X197916000Y-154093447D01*
X198084338Y-153247152D01*
X198539682Y-152565682D01*
X199221152Y-152110338D01*
X200067447Y-151942000D01*
X211793552Y-151942000D01*
X212639847Y-152110338D01*
X213321317Y-152565682D01*
X213776661Y-153247152D01*
X213945000Y-154093447D01*
X213945000Y-178646552D01*
X213945000Y-178646552D01*
G37*
X213945000Y-178646552D02*
X213868000Y-179033656D01*
X213868000Y-170370500D01*
X213868000Y-160718500D01*
X213829331Y-160524097D01*
X213719210Y-160359290D01*
X213706000Y-160346080D01*
X213706000Y-154626785D01*
X213706000Y-154475214D01*
X213706000Y-153475214D01*
X213647996Y-153335180D01*
X213540819Y-153228004D01*
X213400785Y-153170000D01*
X213249214Y-153170000D01*
X212499214Y-153170000D01*
X212359180Y-153228004D01*
X212252004Y-153335181D01*
X212194000Y-153475215D01*
X212194000Y-153626786D01*
X212194000Y-154626786D01*
X212211899Y-154670000D01*
X212074214Y-154670000D01*
X211868015Y-154670000D01*
X211910821Y-154627269D01*
X212065824Y-154253982D01*
X212066176Y-153849792D01*
X211911825Y-153476234D01*
X211626269Y-153190179D01*
X211252982Y-153035176D01*
X210848792Y-153034824D01*
X210475234Y-153189175D01*
X210189179Y-153474731D01*
X210034176Y-153848018D01*
X210033824Y-154252208D01*
X210188175Y-154625766D01*
X210473731Y-154911821D01*
X210847018Y-155066824D01*
X211069000Y-155067017D01*
X211069000Y-155126786D01*
X211069000Y-156626786D01*
X211127004Y-156766820D01*
X211234181Y-156873996D01*
X211374215Y-156932000D01*
X211525786Y-156932000D01*
X212225786Y-156932000D01*
X212365820Y-156873996D01*
X212472996Y-156766819D01*
X212531000Y-156626785D01*
X212531000Y-156475214D01*
X212531000Y-154975214D01*
X212513100Y-154932000D01*
X212650786Y-154932000D01*
X213400786Y-154932000D01*
X213540820Y-154873996D01*
X213647996Y-154766819D01*
X213706000Y-154626785D01*
X213706000Y-160346080D01*
X209531000Y-156171080D01*
X209531000Y-154975214D01*
X209472996Y-154835180D01*
X209365819Y-154728004D01*
X209225785Y-154670000D01*
X209074214Y-154670000D01*
X208868015Y-154670000D01*
X208910821Y-154627269D01*
X209065824Y-154253982D01*
X209066176Y-153849792D01*
X208911825Y-153476234D01*
X208626269Y-153190179D01*
X208252982Y-153035176D01*
X207848792Y-153034824D01*
X207475234Y-153189175D01*
X207189179Y-153474731D01*
X207034176Y-153848018D01*
X207033824Y-154252208D01*
X207188175Y-154625766D01*
X207232331Y-154670000D01*
X206888099Y-154670000D01*
X206906000Y-154626785D01*
X206906000Y-154475214D01*
X206906000Y-153475214D01*
X206847996Y-153335180D01*
X206740819Y-153228004D01*
X206600785Y-153170000D01*
X206449214Y-153170000D01*
X205699214Y-153170000D01*
X205559180Y-153228004D01*
X205452004Y-153335181D01*
X205394000Y-153475215D01*
X205394000Y-153626786D01*
X205394000Y-154626786D01*
X205452004Y-154766820D01*
X205559181Y-154873996D01*
X205699215Y-154932000D01*
X205850786Y-154932000D01*
X206586900Y-154932000D01*
X206569000Y-154975215D01*
X206569000Y-155126786D01*
X206569000Y-156626786D01*
X206627004Y-156766820D01*
X206688881Y-156828697D01*
X206418652Y-157098927D01*
X206376245Y-157098890D01*
X206142772Y-157195360D01*
X206057500Y-157280482D01*
X206057500Y-157086714D01*
X206057500Y-156349286D01*
X206057500Y-156051750D01*
X206057500Y-155860250D01*
X206057500Y-155562714D01*
X205999496Y-155422680D01*
X205892319Y-155315504D01*
X205752285Y-155257500D01*
X205600714Y-155257500D01*
X205200750Y-155257500D01*
X205105500Y-155352750D01*
X205105500Y-155955500D01*
X205962250Y-155955500D01*
X206057500Y-155860250D01*
X206057500Y-156051750D01*
X205962250Y-155956500D01*
X205105500Y-155956500D01*
X205105500Y-156559250D01*
X205200750Y-156654500D01*
X205600714Y-156654500D01*
X205752285Y-156654500D01*
X205892319Y-156596496D01*
X205999496Y-156489320D01*
X206057500Y-156349286D01*
X206057500Y-157086714D01*
X205999496Y-156946680D01*
X205892319Y-156839504D01*
X205752285Y-156781500D01*
X205600714Y-156781500D01*
X205104500Y-156781500D01*
X205104500Y-156559250D01*
X205104500Y-155956500D01*
X205104500Y-155955500D01*
X205104500Y-155352750D01*
X205009250Y-155257500D01*
X204609286Y-155257500D01*
X204457715Y-155257500D01*
X204317681Y-155315504D01*
X204210504Y-155422680D01*
X204152500Y-155562714D01*
X204152500Y-155860250D01*
X204247750Y-155955500D01*
X205104500Y-155955500D01*
X205104500Y-155956500D01*
X204247750Y-155956500D01*
X204152500Y-156051750D01*
X204152500Y-156349286D01*
X204210504Y-156489320D01*
X204317681Y-156596496D01*
X204457715Y-156654500D01*
X204609286Y-156654500D01*
X205009250Y-156654500D01*
X205104500Y-156559250D01*
X205104500Y-156781500D01*
X204457714Y-156781500D01*
X204317680Y-156839504D01*
X204210504Y-156946681D01*
X204152500Y-157086715D01*
X204152500Y-157238286D01*
X204152500Y-157873286D01*
X204210504Y-158013320D01*
X204317681Y-158120496D01*
X204457715Y-158178500D01*
X204597000Y-158178500D01*
X204597000Y-158353016D01*
X204571680Y-158363504D01*
X204464504Y-158470681D01*
X204406500Y-158610715D01*
X204406500Y-158762286D01*
X204406500Y-159905286D01*
X204464504Y-160045320D01*
X204571681Y-160152496D01*
X204711715Y-160210500D01*
X204863286Y-160210500D01*
X205498286Y-160210500D01*
X205638320Y-160152496D01*
X205745496Y-160045319D01*
X205803500Y-159905285D01*
X205803500Y-159753714D01*
X205803500Y-158610714D01*
X205745496Y-158470680D01*
X205638319Y-158363504D01*
X205613000Y-158353016D01*
X205613000Y-158178500D01*
X205752286Y-158178500D01*
X205892320Y-158120496D01*
X205950561Y-158062253D01*
X205963360Y-158093228D01*
X206141832Y-158272013D01*
X206229087Y-158308244D01*
X206095680Y-158363504D01*
X205988504Y-158470681D01*
X205930500Y-158610715D01*
X205930500Y-158762286D01*
X205930500Y-159905286D01*
X205988504Y-160045320D01*
X206095681Y-160152496D01*
X206235715Y-160210500D01*
X206387286Y-160210500D01*
X206863079Y-160210500D01*
X209641012Y-162988433D01*
X209596180Y-163007004D01*
X209489004Y-163114181D01*
X209431000Y-163254215D01*
X209431000Y-163405786D01*
X209431000Y-164405786D01*
X209489004Y-164545820D01*
X209563123Y-164619939D01*
X209438442Y-164890792D01*
X209424878Y-165241013D01*
X209546370Y-165569766D01*
X209584998Y-165627579D01*
X209743833Y-165667460D01*
X210311293Y-165100000D01*
X210297150Y-165085857D01*
X210297857Y-165085150D01*
X210312000Y-165099293D01*
X210326142Y-165085150D01*
X210326849Y-165085857D01*
X210312707Y-165100000D01*
X210880167Y-165667460D01*
X210898930Y-165662748D01*
X210971077Y-165735020D01*
X210898762Y-165807209D01*
X210880167Y-165802540D01*
X210879460Y-165803247D01*
X210879460Y-165801833D01*
X210862679Y-165735000D01*
X210879460Y-165668167D01*
X210312000Y-165100707D01*
X209744540Y-165668167D01*
X209761320Y-165735000D01*
X209744540Y-165801833D01*
X210312000Y-166369293D01*
X210879460Y-165801833D01*
X210879460Y-165803247D01*
X210312707Y-166370000D01*
X210880167Y-166937460D01*
X210898930Y-166932748D01*
X210971077Y-167005020D01*
X210946979Y-167029077D01*
X210874790Y-166956762D01*
X210879460Y-166938167D01*
X210312000Y-166370707D01*
X210311293Y-166371414D01*
X210311293Y-166370000D01*
X209743833Y-165802540D01*
X209584998Y-165842421D01*
X209438442Y-166160792D01*
X209424878Y-166511013D01*
X209546370Y-166839766D01*
X209584998Y-166897579D01*
X209743833Y-166937460D01*
X210311293Y-166370000D01*
X210311293Y-166371414D01*
X209744540Y-166938167D01*
X209749251Y-166956930D01*
X209565560Y-167140302D01*
X209431153Y-167463989D01*
X209430847Y-167814473D01*
X209564689Y-168138395D01*
X209749209Y-168323237D01*
X209744540Y-168341833D01*
X210312000Y-168909293D01*
X210879460Y-168341833D01*
X210874748Y-168323069D01*
X210947020Y-168250922D01*
X210971077Y-168275020D01*
X210898762Y-168347209D01*
X210880167Y-168342540D01*
X210312707Y-168910000D01*
X210880167Y-169477460D01*
X210898930Y-169472748D01*
X211074000Y-169648123D01*
X211074000Y-169842580D01*
X210879460Y-170037119D01*
X210879460Y-169478167D01*
X210312000Y-168910707D01*
X210311293Y-168911414D01*
X210311293Y-168910000D01*
X209743833Y-168342540D01*
X209584998Y-168382421D01*
X209438442Y-168700792D01*
X209424878Y-169051013D01*
X209546370Y-169379766D01*
X209584998Y-169437579D01*
X209743833Y-169477460D01*
X210311293Y-168910000D01*
X210311293Y-168911414D01*
X209744540Y-169478167D01*
X209784421Y-169637002D01*
X210102792Y-169783558D01*
X210453013Y-169797122D01*
X210781766Y-169675630D01*
X210839579Y-169637002D01*
X210879460Y-169478167D01*
X210879460Y-170037119D01*
X210482652Y-170433927D01*
X210440245Y-170433890D01*
X210206772Y-170530360D01*
X210027987Y-170708832D01*
X210011487Y-170748567D01*
X207327500Y-168064580D01*
X207327500Y-161290000D01*
X207288831Y-161095597D01*
X207178710Y-160930790D01*
X207013903Y-160820669D01*
X206819500Y-160782000D01*
X203578923Y-160782000D01*
X203601326Y-160772316D01*
X203810339Y-160318465D01*
X203829760Y-159819175D01*
X203829760Y-157279175D01*
X203821217Y-157256045D01*
X203821217Y-154691262D01*
X203630405Y-154229463D01*
X203277396Y-153875836D01*
X202815930Y-153684219D01*
X202316262Y-153683783D01*
X201854463Y-153874595D01*
X201500836Y-154227604D01*
X201309219Y-154689070D01*
X201308783Y-155188738D01*
X201499595Y-155650537D01*
X201852604Y-156004164D01*
X202314070Y-156195781D01*
X202813738Y-156196217D01*
X203275537Y-156005405D01*
X203629164Y-155652396D01*
X203820781Y-155190930D01*
X203821217Y-154691262D01*
X203821217Y-157256045D01*
X203656634Y-156810460D01*
X203601326Y-156727684D01*
X203403527Y-156642180D01*
X203402820Y-156642887D01*
X203402820Y-156641473D01*
X203317316Y-156443674D01*
X202863465Y-156234661D01*
X202364175Y-156215240D01*
X201895460Y-156388366D01*
X201812684Y-156443674D01*
X201727180Y-156641473D01*
X202565000Y-157479293D01*
X203402820Y-156641473D01*
X203402820Y-156642887D01*
X202565707Y-157480000D01*
X203403527Y-158317820D01*
X203601326Y-158232316D01*
X203810339Y-157778465D01*
X203829760Y-157279175D01*
X203829760Y-159819175D01*
X203656634Y-159350460D01*
X203601326Y-159267684D01*
X203403527Y-159182180D01*
X203402820Y-159182887D01*
X203402820Y-159181473D01*
X203402820Y-158318527D01*
X202565000Y-157480707D01*
X202564293Y-157481414D01*
X202564293Y-157480000D01*
X201726473Y-156642180D01*
X201528674Y-156727684D01*
X201319661Y-157181535D01*
X201300240Y-157680825D01*
X201473366Y-158149540D01*
X201528674Y-158232316D01*
X201726473Y-158317820D01*
X202564293Y-157480000D01*
X202564293Y-157481414D01*
X201727180Y-158318527D01*
X201812684Y-158516326D01*
X202266535Y-158725339D01*
X202765825Y-158744760D01*
X203234540Y-158571634D01*
X203317316Y-158516326D01*
X203402820Y-158318527D01*
X203402820Y-159181473D01*
X203317316Y-158983674D01*
X202863465Y-158774661D01*
X202364175Y-158755240D01*
X201895460Y-158928366D01*
X201812684Y-158983674D01*
X201727180Y-159181473D01*
X202565000Y-160019293D01*
X203402820Y-159181473D01*
X203402820Y-159182887D01*
X202565707Y-160020000D01*
X202579849Y-160034142D01*
X202579142Y-160034849D01*
X202565000Y-160020707D01*
X202550857Y-160034849D01*
X202550150Y-160034142D01*
X202564293Y-160020000D01*
X201726473Y-159182180D01*
X201528674Y-159267684D01*
X201319661Y-159721535D01*
X201300240Y-160220825D01*
X201473366Y-160689540D01*
X201528674Y-160772316D01*
X201551076Y-160782000D01*
X201505420Y-160782000D01*
X201196741Y-160473321D01*
X201280781Y-160270930D01*
X201281217Y-159771262D01*
X201281217Y-157231262D01*
X201281000Y-157230736D01*
X201281000Y-155890785D01*
X201281000Y-155739214D01*
X201281000Y-153989214D01*
X201222996Y-153849180D01*
X201115819Y-153742004D01*
X200975785Y-153684000D01*
X200824214Y-153684000D01*
X199074214Y-153684000D01*
X198934180Y-153742004D01*
X198827004Y-153849181D01*
X198769000Y-153989215D01*
X198769000Y-154140786D01*
X198769000Y-155890786D01*
X198827004Y-156030820D01*
X198934181Y-156137996D01*
X199074215Y-156196000D01*
X199225786Y-156196000D01*
X200975786Y-156196000D01*
X201115820Y-156137996D01*
X201222996Y-156030819D01*
X201281000Y-155890785D01*
X201281000Y-157230736D01*
X201090405Y-156769463D01*
X200737396Y-156415836D01*
X200275930Y-156224219D01*
X199776262Y-156223783D01*
X199314463Y-156414595D01*
X198960836Y-156767604D01*
X198769219Y-157229070D01*
X198768783Y-157728738D01*
X198959595Y-158190537D01*
X199312604Y-158544164D01*
X199774070Y-158735781D01*
X200273738Y-158736217D01*
X200735537Y-158545405D01*
X201089164Y-158192396D01*
X201280781Y-157730930D01*
X201281217Y-157231262D01*
X201281217Y-159771262D01*
X201090405Y-159309463D01*
X200737396Y-158955836D01*
X200275930Y-158764219D01*
X199776262Y-158763783D01*
X199314463Y-158954595D01*
X198960836Y-159307604D01*
X198769219Y-159769070D01*
X198768783Y-160268738D01*
X198959595Y-160730537D01*
X199312604Y-161084164D01*
X199774070Y-161275781D01*
X200273738Y-161276217D01*
X200478281Y-161191701D01*
X200935790Y-161649210D01*
X201100596Y-161759331D01*
X201100597Y-161759331D01*
X201132849Y-161765746D01*
X201295000Y-161798000D01*
X201551076Y-161798000D01*
X201528674Y-161807684D01*
X201319661Y-162261535D01*
X201300240Y-162760825D01*
X201473366Y-163229540D01*
X201528674Y-163312316D01*
X201726473Y-163397820D01*
X202564293Y-162560000D01*
X202550150Y-162545857D01*
X202550857Y-162545150D01*
X202565000Y-162559293D01*
X202579142Y-162545150D01*
X202579849Y-162545857D01*
X202565707Y-162560000D01*
X203403527Y-163397820D01*
X203601326Y-163312316D01*
X203810339Y-162858465D01*
X203829760Y-162359175D01*
X203656634Y-161890460D01*
X203601326Y-161807684D01*
X203578923Y-161798000D01*
X206311500Y-161798000D01*
X206311500Y-168275000D01*
X206350169Y-168469403D01*
X206460290Y-168634210D01*
X209952790Y-172126710D01*
X210117597Y-172236831D01*
X210312000Y-172275500D01*
X210947000Y-172275500D01*
X211141403Y-172236831D01*
X211306210Y-172126710D01*
X211963000Y-171469920D01*
X211963000Y-174101016D01*
X211937680Y-174111504D01*
X211830504Y-174218681D01*
X211772500Y-174358715D01*
X211772500Y-174510286D01*
X211772500Y-175653286D01*
X211830504Y-175793320D01*
X211937681Y-175900496D01*
X211963000Y-175910983D01*
X211963000Y-176218580D01*
X211860580Y-176321000D01*
X211645500Y-176321000D01*
X211645500Y-175653285D01*
X211645500Y-175501714D01*
X211645500Y-175101750D01*
X211645500Y-174910250D01*
X211645500Y-174510286D01*
X211645500Y-174358715D01*
X211587496Y-174218681D01*
X211480320Y-174111504D01*
X211340286Y-174053500D01*
X211042750Y-174053500D01*
X210947500Y-174148750D01*
X210947500Y-175005500D01*
X211550250Y-175005500D01*
X211645500Y-174910250D01*
X211645500Y-175101750D01*
X211550250Y-175006500D01*
X210947500Y-175006500D01*
X210947500Y-175863250D01*
X211042750Y-175958500D01*
X211340286Y-175958500D01*
X211480320Y-175900496D01*
X211587496Y-175793319D01*
X211645500Y-175653285D01*
X211645500Y-176321000D01*
X211197214Y-176321000D01*
X211057180Y-176379004D01*
X210950004Y-176486181D01*
X210946500Y-176494640D01*
X210946500Y-175863250D01*
X210946500Y-175006500D01*
X210946500Y-175005500D01*
X210946500Y-174148750D01*
X210851250Y-174053500D01*
X210553714Y-174053500D01*
X210413680Y-174111504D01*
X210306504Y-174218681D01*
X210248500Y-174358715D01*
X210248500Y-174510286D01*
X210248500Y-174910250D01*
X210343750Y-175005500D01*
X210946500Y-175005500D01*
X210946500Y-175006500D01*
X210343750Y-175006500D01*
X210248500Y-175101750D01*
X210248500Y-175501714D01*
X210248500Y-175653285D01*
X210306504Y-175793319D01*
X210413680Y-175900496D01*
X210553714Y-175958500D01*
X210851250Y-175958500D01*
X210946500Y-175863250D01*
X210946500Y-176494640D01*
X210892000Y-176626215D01*
X210892000Y-176777786D01*
X210892000Y-177327786D01*
X210950004Y-177467820D01*
X211057181Y-177574996D01*
X211197215Y-177633000D01*
X211348786Y-177633000D01*
X212648786Y-177633000D01*
X212788820Y-177574996D01*
X212895996Y-177467819D01*
X212954000Y-177327785D01*
X212954000Y-177176214D01*
X212954000Y-176626214D01*
X212944387Y-176603008D01*
X212979000Y-176429000D01*
X212979000Y-175910983D01*
X213004320Y-175900496D01*
X213111496Y-175793319D01*
X213169500Y-175653285D01*
X213169500Y-175501714D01*
X213169500Y-174358714D01*
X213111496Y-174218680D01*
X213004319Y-174111504D01*
X212979000Y-174101016D01*
X212979000Y-171469920D01*
X213719210Y-170729710D01*
X213829331Y-170564903D01*
X213868000Y-170370500D01*
X213868000Y-179033656D01*
X213776661Y-179492847D01*
X213321317Y-180174317D01*
X212954000Y-180419750D01*
X212954000Y-179227785D01*
X212954000Y-179076214D01*
X212954000Y-178526214D01*
X212895996Y-178386180D01*
X212788819Y-178279004D01*
X212648785Y-178221000D01*
X212497214Y-178221000D01*
X211197214Y-178221000D01*
X211057180Y-178279004D01*
X210950004Y-178386181D01*
X210892000Y-178526215D01*
X210892000Y-178677786D01*
X210892000Y-179227786D01*
X210950004Y-179367820D01*
X211057181Y-179474996D01*
X211197215Y-179533000D01*
X211348786Y-179533000D01*
X212648786Y-179533000D01*
X212788820Y-179474996D01*
X212895996Y-179367819D01*
X212954000Y-179227785D01*
X212954000Y-180419750D01*
X212639847Y-180629661D01*
X211793552Y-180798000D01*
X210454000Y-180798000D01*
X210454000Y-179227785D01*
X210454000Y-179076214D01*
X210454000Y-178526214D01*
X210402548Y-178401999D01*
X210454000Y-178277785D01*
X210454000Y-178126214D01*
X210454000Y-178022750D01*
X210358750Y-177927500D01*
X209423500Y-177927500D01*
X209423500Y-177947500D01*
X209422500Y-177947500D01*
X209422500Y-177927500D01*
X208487250Y-177927500D01*
X208392000Y-178022750D01*
X208392000Y-178126214D01*
X208392000Y-178277785D01*
X208429782Y-178369000D01*
X207327500Y-178369000D01*
X207327500Y-177914714D01*
X207269496Y-177774680D01*
X207162367Y-177667552D01*
X207344920Y-177485000D01*
X208429782Y-177485000D01*
X208392000Y-177576215D01*
X208392000Y-177727786D01*
X208392000Y-177831250D01*
X208487250Y-177926500D01*
X209422500Y-177926500D01*
X209422500Y-177906500D01*
X209423500Y-177906500D01*
X209423500Y-177926500D01*
X210358750Y-177926500D01*
X210454000Y-177831250D01*
X210454000Y-177727786D01*
X210454000Y-177576215D01*
X210402548Y-177452000D01*
X210454000Y-177327785D01*
X210454000Y-177176214D01*
X210454000Y-176626214D01*
X210395996Y-176486180D01*
X210288819Y-176379004D01*
X210148785Y-176321000D01*
X209997214Y-176321000D01*
X209485420Y-176321000D01*
X209296000Y-176131579D01*
X209296000Y-174625000D01*
X209257331Y-174430597D01*
X209257331Y-174430596D01*
X209147210Y-174265790D01*
X208004210Y-173122790D01*
X207839403Y-173012669D01*
X207645000Y-172974000D01*
X207327500Y-172974000D01*
X207327500Y-172834714D01*
X207269496Y-172694680D01*
X207162319Y-172587504D01*
X207022285Y-172529500D01*
X206870714Y-172529500D01*
X206235714Y-172529500D01*
X206095680Y-172587504D01*
X205988504Y-172694681D01*
X205930500Y-172834715D01*
X205930500Y-172986286D01*
X205930500Y-174129286D01*
X205988504Y-174269320D01*
X206095681Y-174376496D01*
X206235715Y-174434500D01*
X206387286Y-174434500D01*
X207022286Y-174434500D01*
X207162320Y-174376496D01*
X207269496Y-174269319D01*
X207327500Y-174129285D01*
X207327500Y-173990000D01*
X207434580Y-173990000D01*
X208280000Y-174835420D01*
X208280000Y-176342000D01*
X208305261Y-176469000D01*
X207327500Y-176469000D01*
X207327500Y-176161285D01*
X207327500Y-176009714D01*
X207327500Y-175609750D01*
X207327500Y-175418250D01*
X207327500Y-175018286D01*
X207327500Y-174866715D01*
X207269496Y-174726681D01*
X207162320Y-174619504D01*
X207022286Y-174561500D01*
X206724750Y-174561500D01*
X206629500Y-174656750D01*
X206629500Y-175513500D01*
X207232250Y-175513500D01*
X207327500Y-175418250D01*
X207327500Y-175609750D01*
X207232250Y-175514500D01*
X206629500Y-175514500D01*
X206629500Y-176371250D01*
X206724750Y-176466500D01*
X207022286Y-176466500D01*
X207162320Y-176408496D01*
X207269496Y-176301319D01*
X207327500Y-176161285D01*
X207327500Y-176469000D01*
X207134500Y-176469000D01*
X206940097Y-176507669D01*
X206775290Y-176617790D01*
X206629000Y-176764080D01*
X206628500Y-176763580D01*
X206628500Y-176371250D01*
X206628500Y-175514500D01*
X206628500Y-175513500D01*
X206628500Y-174656750D01*
X206533250Y-174561500D01*
X206235714Y-174561500D01*
X206095680Y-174619504D01*
X205988504Y-174726681D01*
X205930500Y-174866715D01*
X205930500Y-175018286D01*
X205930500Y-175418250D01*
X206025750Y-175513500D01*
X206628500Y-175513500D01*
X206628500Y-175514500D01*
X206025750Y-175514500D01*
X205930500Y-175609750D01*
X205930500Y-176009714D01*
X205930500Y-176161285D01*
X205988504Y-176301319D01*
X206095680Y-176408496D01*
X206235714Y-176466500D01*
X206533250Y-176466500D01*
X206628500Y-176371250D01*
X206628500Y-176763580D01*
X206543710Y-176678790D01*
X206378903Y-176568669D01*
X206184500Y-176530000D01*
X205803500Y-176530000D01*
X205803500Y-176161285D01*
X205803500Y-176009714D01*
X205803500Y-174866714D01*
X205745496Y-174726680D01*
X205638319Y-174619504D01*
X205613000Y-174609016D01*
X205613000Y-174386983D01*
X205638320Y-174376496D01*
X205745496Y-174269319D01*
X205803500Y-174129285D01*
X205803500Y-173977714D01*
X205803500Y-172834714D01*
X205745496Y-172694680D01*
X205638319Y-172587504D01*
X205498285Y-172529500D01*
X205346714Y-172529500D01*
X204711714Y-172529500D01*
X204571680Y-172587504D01*
X204464504Y-172694681D01*
X204406500Y-172834715D01*
X204406500Y-172986286D01*
X204406500Y-174129286D01*
X204464504Y-174269320D01*
X204571681Y-174376496D01*
X204597000Y-174386983D01*
X204597000Y-174609016D01*
X204571680Y-174619504D01*
X204464504Y-174726681D01*
X204406500Y-174866715D01*
X204406500Y-175018286D01*
X204406500Y-176161286D01*
X204464504Y-176301320D01*
X204571681Y-176408496D01*
X204711715Y-176466500D01*
X204863286Y-176466500D01*
X205498286Y-176466500D01*
X205638320Y-176408496D01*
X205745496Y-176301319D01*
X205803500Y-176161285D01*
X205803500Y-176530000D01*
X204489920Y-176530000D01*
X204130710Y-176170790D01*
X203965903Y-176060669D01*
X203771500Y-176022000D01*
X203578923Y-176022000D01*
X203601326Y-176012316D01*
X203810339Y-175558465D01*
X203829760Y-175059175D01*
X203829760Y-172519175D01*
X203829760Y-169979175D01*
X203829760Y-167439175D01*
X203829760Y-164899175D01*
X203656634Y-164430460D01*
X203601326Y-164347684D01*
X203403527Y-164262180D01*
X203402820Y-164262887D01*
X203402820Y-164261473D01*
X203402820Y-163398527D01*
X202565000Y-162560707D01*
X201727180Y-163398527D01*
X201812684Y-163596326D01*
X202266535Y-163805339D01*
X202765825Y-163824760D01*
X203234540Y-163651634D01*
X203317316Y-163596326D01*
X203402820Y-163398527D01*
X203402820Y-164261473D01*
X203317316Y-164063674D01*
X202863465Y-163854661D01*
X202364175Y-163835240D01*
X201895460Y-164008366D01*
X201812684Y-164063674D01*
X201727180Y-164261473D01*
X202565000Y-165099293D01*
X203402820Y-164261473D01*
X203402820Y-164262887D01*
X202565707Y-165100000D01*
X203403527Y-165937820D01*
X203601326Y-165852316D01*
X203810339Y-165398465D01*
X203829760Y-164899175D01*
X203829760Y-167439175D01*
X203656634Y-166970460D01*
X203601326Y-166887684D01*
X203403527Y-166802180D01*
X203402820Y-166802887D01*
X203402820Y-166801473D01*
X203402820Y-165938527D01*
X202565000Y-165100707D01*
X202564293Y-165101414D01*
X202564293Y-165100000D01*
X201726473Y-164262180D01*
X201528674Y-164347684D01*
X201319661Y-164801535D01*
X201300240Y-165300825D01*
X201473366Y-165769540D01*
X201528674Y-165852316D01*
X201726473Y-165937820D01*
X202564293Y-165100000D01*
X202564293Y-165101414D01*
X201727180Y-165938527D01*
X201812684Y-166136326D01*
X202266535Y-166345339D01*
X202765825Y-166364760D01*
X203234540Y-166191634D01*
X203317316Y-166136326D01*
X203402820Y-165938527D01*
X203402820Y-166801473D01*
X203317316Y-166603674D01*
X202863465Y-166394661D01*
X202364175Y-166375240D01*
X201895460Y-166548366D01*
X201812684Y-166603674D01*
X201727180Y-166801473D01*
X202565000Y-167639293D01*
X203402820Y-166801473D01*
X203402820Y-166802887D01*
X202565707Y-167640000D01*
X203403527Y-168477820D01*
X203601326Y-168392316D01*
X203810339Y-167938465D01*
X203829760Y-167439175D01*
X203829760Y-169979175D01*
X203656634Y-169510460D01*
X203601326Y-169427684D01*
X203403527Y-169342180D01*
X203402820Y-169342887D01*
X203402820Y-169341473D01*
X203402820Y-168478527D01*
X202565000Y-167640707D01*
X202564293Y-167641414D01*
X202564293Y-167640000D01*
X201726473Y-166802180D01*
X201528674Y-166887684D01*
X201319661Y-167341535D01*
X201300240Y-167840825D01*
X201473366Y-168309540D01*
X201528674Y-168392316D01*
X201726473Y-168477820D01*
X202564293Y-167640000D01*
X202564293Y-167641414D01*
X201727180Y-168478527D01*
X201812684Y-168676326D01*
X202266535Y-168885339D01*
X202765825Y-168904760D01*
X203234540Y-168731634D01*
X203317316Y-168676326D01*
X203402820Y-168478527D01*
X203402820Y-169341473D01*
X203317316Y-169143674D01*
X202863465Y-168934661D01*
X202364175Y-168915240D01*
X201895460Y-169088366D01*
X201812684Y-169143674D01*
X201727180Y-169341473D01*
X202565000Y-170179293D01*
X203402820Y-169341473D01*
X203402820Y-169342887D01*
X202565707Y-170180000D01*
X203403527Y-171017820D01*
X203601326Y-170932316D01*
X203810339Y-170478465D01*
X203829760Y-169979175D01*
X203829760Y-172519175D01*
X203656634Y-172050460D01*
X203601326Y-171967684D01*
X203403527Y-171882180D01*
X203402820Y-171882887D01*
X203402820Y-171881473D01*
X203402820Y-171018527D01*
X202565000Y-170180707D01*
X202564293Y-170181414D01*
X202564293Y-170180000D01*
X201726473Y-169342180D01*
X201528674Y-169427684D01*
X201319661Y-169881535D01*
X201300240Y-170380825D01*
X201473366Y-170849540D01*
X201528674Y-170932316D01*
X201726473Y-171017820D01*
X202564293Y-170180000D01*
X202564293Y-170181414D01*
X201727180Y-171018527D01*
X201812684Y-171216326D01*
X202266535Y-171425339D01*
X202765825Y-171444760D01*
X203234540Y-171271634D01*
X203317316Y-171216326D01*
X203402820Y-171018527D01*
X203402820Y-171881473D01*
X203317316Y-171683674D01*
X202863465Y-171474661D01*
X202364175Y-171455240D01*
X201895460Y-171628366D01*
X201812684Y-171683674D01*
X201727180Y-171881473D01*
X202565000Y-172719293D01*
X203402820Y-171881473D01*
X203402820Y-171882887D01*
X202565707Y-172720000D01*
X203403527Y-173557820D01*
X203601326Y-173472316D01*
X203810339Y-173018465D01*
X203829760Y-172519175D01*
X203829760Y-175059175D01*
X203656634Y-174590460D01*
X203601326Y-174507684D01*
X203403527Y-174422180D01*
X203402820Y-174422887D01*
X203402820Y-174421473D01*
X203402820Y-173558527D01*
X202565000Y-172720707D01*
X202564293Y-172721414D01*
X202564293Y-172720000D01*
X201726473Y-171882180D01*
X201528674Y-171967684D01*
X201319661Y-172421535D01*
X201300240Y-172920825D01*
X201473366Y-173389540D01*
X201528674Y-173472316D01*
X201726473Y-173557820D01*
X202564293Y-172720000D01*
X202564293Y-172721414D01*
X201727180Y-173558527D01*
X201812684Y-173756326D01*
X202266535Y-173965339D01*
X202765825Y-173984760D01*
X203234540Y-173811634D01*
X203317316Y-173756326D01*
X203402820Y-173558527D01*
X203402820Y-174421473D01*
X203317316Y-174223674D01*
X202863465Y-174014661D01*
X202364175Y-173995240D01*
X201895460Y-174168366D01*
X201812684Y-174223674D01*
X201727180Y-174421473D01*
X202565000Y-175259293D01*
X203402820Y-174421473D01*
X203402820Y-174422887D01*
X202565707Y-175260000D01*
X202579849Y-175274142D01*
X202579142Y-175274849D01*
X202565000Y-175260707D01*
X202550857Y-175274849D01*
X202550150Y-175274142D01*
X202564293Y-175260000D01*
X201726473Y-174422180D01*
X201528674Y-174507684D01*
X201319661Y-174961535D01*
X201300240Y-175460825D01*
X201473366Y-175929540D01*
X201528674Y-176012316D01*
X201551076Y-176022000D01*
X201295000Y-176022000D01*
X201281217Y-176024741D01*
X201281217Y-175011262D01*
X201281217Y-172471262D01*
X201281217Y-169931262D01*
X201281217Y-167391262D01*
X201281217Y-164851262D01*
X201281217Y-162311262D01*
X201090405Y-161849463D01*
X200737396Y-161495836D01*
X200275930Y-161304219D01*
X199776262Y-161303783D01*
X199314463Y-161494595D01*
X198960836Y-161847604D01*
X198769219Y-162309070D01*
X198768783Y-162808738D01*
X198959595Y-163270537D01*
X199312604Y-163624164D01*
X199774070Y-163815781D01*
X200273738Y-163816217D01*
X200735537Y-163625405D01*
X201089164Y-163272396D01*
X201280781Y-162810930D01*
X201281217Y-162311262D01*
X201281217Y-164851262D01*
X201090405Y-164389463D01*
X200737396Y-164035836D01*
X200275930Y-163844219D01*
X199776262Y-163843783D01*
X199314463Y-164034595D01*
X198960836Y-164387604D01*
X198769219Y-164849070D01*
X198768783Y-165348738D01*
X198959595Y-165810537D01*
X199312604Y-166164164D01*
X199774070Y-166355781D01*
X200273738Y-166356217D01*
X200735537Y-166165405D01*
X201089164Y-165812396D01*
X201280781Y-165350930D01*
X201281217Y-164851262D01*
X201281217Y-167391262D01*
X201090405Y-166929463D01*
X200737396Y-166575836D01*
X200275930Y-166384219D01*
X199776262Y-166383783D01*
X199314463Y-166574595D01*
X198960836Y-166927604D01*
X198769219Y-167389070D01*
X198768783Y-167888738D01*
X198959595Y-168350537D01*
X199312604Y-168704164D01*
X199774070Y-168895781D01*
X200273738Y-168896217D01*
X200735537Y-168705405D01*
X201089164Y-168352396D01*
X201280781Y-167890930D01*
X201281217Y-167391262D01*
X201281217Y-169931262D01*
X201090405Y-169469463D01*
X200737396Y-169115836D01*
X200275930Y-168924219D01*
X199776262Y-168923783D01*
X199314463Y-169114595D01*
X198960836Y-169467604D01*
X198769219Y-169929070D01*
X198768783Y-170428738D01*
X198959595Y-170890537D01*
X199312604Y-171244164D01*
X199774070Y-171435781D01*
X200273738Y-171436217D01*
X200735537Y-171245405D01*
X201089164Y-170892396D01*
X201280781Y-170430930D01*
X201281217Y-169931262D01*
X201281217Y-172471262D01*
X201090405Y-172009463D01*
X200737396Y-171655836D01*
X200275930Y-171464219D01*
X199776262Y-171463783D01*
X199314463Y-171654595D01*
X198960836Y-172007604D01*
X198769219Y-172469070D01*
X198768783Y-172968738D01*
X198959595Y-173430537D01*
X199312604Y-173784164D01*
X199774070Y-173975781D01*
X200273738Y-173976217D01*
X200735537Y-173785405D01*
X201089164Y-173432396D01*
X201280781Y-172970930D01*
X201281217Y-172471262D01*
X201281217Y-175011262D01*
X201090405Y-174549463D01*
X200737396Y-174195836D01*
X200275930Y-174004219D01*
X199776262Y-174003783D01*
X199314463Y-174194595D01*
X198960836Y-174547604D01*
X198769219Y-175009070D01*
X198768783Y-175508738D01*
X198959595Y-175970537D01*
X199312604Y-176324164D01*
X199774070Y-176515781D01*
X200273738Y-176516217D01*
X200735537Y-176325405D01*
X201089164Y-175972396D01*
X201280781Y-175510930D01*
X201281217Y-175011262D01*
X201281217Y-176024741D01*
X201132849Y-176054253D01*
X201100596Y-176060669D01*
X200935790Y-176170790D01*
X200478321Y-176628258D01*
X200275930Y-176544219D01*
X199776262Y-176543783D01*
X199314463Y-176734595D01*
X198960836Y-177087604D01*
X198769219Y-177549070D01*
X198768783Y-178048738D01*
X198959595Y-178510537D01*
X199312604Y-178864164D01*
X199774070Y-179055781D01*
X200273738Y-179056217D01*
X200735537Y-178865405D01*
X201089164Y-178512396D01*
X201280781Y-178050930D01*
X201281217Y-177551262D01*
X201196701Y-177346718D01*
X201505420Y-177038000D01*
X201551076Y-177038000D01*
X201528674Y-177047684D01*
X201319661Y-177501535D01*
X201300240Y-178000825D01*
X201473366Y-178469540D01*
X201528674Y-178552316D01*
X201726473Y-178637820D01*
X202564293Y-177800000D01*
X202550150Y-177785857D01*
X202550857Y-177785150D01*
X202565000Y-177799293D01*
X202579142Y-177785150D01*
X202579849Y-177785857D01*
X202565707Y-177800000D01*
X203403527Y-178637820D01*
X203601326Y-178552316D01*
X203810339Y-178098465D01*
X203829760Y-177599175D01*
X203658446Y-177135366D01*
X203920289Y-177397210D01*
X203920290Y-177397210D01*
X204030410Y-177470790D01*
X204085096Y-177507330D01*
X204085097Y-177507331D01*
X204279500Y-177546000D01*
X205974080Y-177546000D01*
X206095632Y-177667552D01*
X205988504Y-177774681D01*
X205930500Y-177914715D01*
X205930500Y-178066286D01*
X205930500Y-179209286D01*
X205988504Y-179349320D01*
X206095681Y-179456496D01*
X206235715Y-179514500D01*
X206387286Y-179514500D01*
X207022286Y-179514500D01*
X207162320Y-179456496D01*
X207233815Y-179385000D01*
X207266500Y-179385000D01*
X208467184Y-179385000D01*
X208557181Y-179474996D01*
X208697215Y-179533000D01*
X208848786Y-179533000D01*
X210148786Y-179533000D01*
X210288820Y-179474996D01*
X210395996Y-179367819D01*
X210454000Y-179227785D01*
X210454000Y-180798000D01*
X205803500Y-180798000D01*
X205803500Y-179209285D01*
X205803500Y-179057714D01*
X205803500Y-178657750D01*
X205803500Y-178466250D01*
X205803500Y-178066286D01*
X205803500Y-177914715D01*
X205745496Y-177774681D01*
X205638320Y-177667504D01*
X205498286Y-177609500D01*
X205200750Y-177609500D01*
X205105500Y-177704750D01*
X205105500Y-178561500D01*
X205708250Y-178561500D01*
X205803500Y-178466250D01*
X205803500Y-178657750D01*
X205708250Y-178562500D01*
X205105500Y-178562500D01*
X205105500Y-179419250D01*
X205200750Y-179514500D01*
X205498286Y-179514500D01*
X205638320Y-179456496D01*
X205745496Y-179349319D01*
X205803500Y-179209285D01*
X205803500Y-180798000D01*
X205104500Y-180798000D01*
X205104500Y-179419250D01*
X205104500Y-178562500D01*
X205104500Y-178561500D01*
X205104500Y-177704750D01*
X205009250Y-177609500D01*
X204711714Y-177609500D01*
X204571680Y-177667504D01*
X204464504Y-177774681D01*
X204406500Y-177914715D01*
X204406500Y-178066286D01*
X204406500Y-178466250D01*
X204501750Y-178561500D01*
X205104500Y-178561500D01*
X205104500Y-178562500D01*
X204501750Y-178562500D01*
X204406500Y-178657750D01*
X204406500Y-179057714D01*
X204406500Y-179209285D01*
X204464504Y-179349319D01*
X204571680Y-179456496D01*
X204711714Y-179514500D01*
X205009250Y-179514500D01*
X205104500Y-179419250D01*
X205104500Y-180798000D01*
X203402820Y-180798000D01*
X203402820Y-178638527D01*
X202565000Y-177800707D01*
X201727180Y-178638527D01*
X201812684Y-178836326D01*
X202266535Y-179045339D01*
X202765825Y-179064760D01*
X203234540Y-178891634D01*
X203317316Y-178836326D01*
X203402820Y-178638527D01*
X203402820Y-180798000D01*
X200067447Y-180798000D01*
X199221152Y-180629661D01*
X198539682Y-180174317D01*
X198084338Y-179492847D01*
X197916000Y-178646552D01*
X197916000Y-154093447D01*
X198084338Y-153247152D01*
X198539682Y-152565682D01*
X199221152Y-152110338D01*
X200067447Y-151942000D01*
X211793552Y-151942000D01*
X212639847Y-152110338D01*
X213321317Y-152565682D01*
X213776661Y-153247152D01*
X213945000Y-154093447D01*
X213945000Y-178646552D01*
M02*
