G04 #@! TF.FileFunction,Legend,Top*
%FSLAX46Y46*%
G04 Gerber Fmt 4.6, Leading zero omitted, Abs format (unit mm)*
G04 Created by KiCad (PCBNEW 4.0.0-rc2-stable) date 11/11/2015 9:02:01 AM*
%MOMM*%
G01*
G04 APERTURE LIST*
%ADD10C,0.150000*%
%ADD11C,0.200000*%
%ADD12C,0.120000*%
G04 APERTURE END LIST*
D10*
D11*
X207708809Y-157059381D02*
X207899286Y-157059381D01*
X207994524Y-157107000D01*
X208089762Y-157202238D01*
X208137381Y-157392714D01*
X208137381Y-157726048D01*
X208089762Y-157916524D01*
X207994524Y-158011762D01*
X207899286Y-158059381D01*
X207708809Y-158059381D01*
X207613571Y-158011762D01*
X207518333Y-157916524D01*
X207470714Y-157726048D01*
X207470714Y-157392714D01*
X207518333Y-157202238D01*
X207613571Y-157107000D01*
X207708809Y-157059381D01*
X208565952Y-158059381D02*
X208565952Y-157059381D01*
X209137381Y-158059381D01*
X209137381Y-157059381D01*
X209851666Y-158392714D02*
X209851666Y-156964143D01*
X210756428Y-157059381D02*
X210946905Y-157059381D01*
X211042143Y-157107000D01*
X211137381Y-157202238D01*
X211185000Y-157392714D01*
X211185000Y-157726048D01*
X211137381Y-157916524D01*
X211042143Y-158011762D01*
X210946905Y-158059381D01*
X210756428Y-158059381D01*
X210661190Y-158011762D01*
X210565952Y-157916524D01*
X210518333Y-157726048D01*
X210518333Y-157392714D01*
X210565952Y-157202238D01*
X210661190Y-157107000D01*
X210756428Y-157059381D01*
X211946905Y-157535571D02*
X211613571Y-157535571D01*
X211613571Y-158059381D02*
X211613571Y-157059381D01*
X212089762Y-157059381D01*
X212804048Y-157535571D02*
X212470714Y-157535571D01*
X212470714Y-158059381D02*
X212470714Y-157059381D01*
X212946905Y-157059381D01*
X205652714Y-171677023D02*
X205938429Y-172474643D01*
X206224143Y-171748452D01*
X206319381Y-171284167D02*
X205319381Y-171159167D01*
X205795571Y-171218690D02*
X205795571Y-170647261D01*
X206319381Y-170712738D02*
X205319381Y-170587738D01*
X205319381Y-169921072D02*
X205319381Y-169730595D01*
X205367000Y-169641309D01*
X205462238Y-169557976D01*
X205652714Y-169534166D01*
X205986048Y-169575833D01*
X206176524Y-169647261D01*
X206271762Y-169754404D01*
X206319381Y-169855595D01*
X206319381Y-170046072D01*
X206271762Y-170135357D01*
X206176524Y-170218690D01*
X205986048Y-170242500D01*
X205652714Y-170200833D01*
X205462238Y-170129405D01*
X205367000Y-170022262D01*
X205319381Y-169921072D01*
X206271762Y-169230595D02*
X206319381Y-169093691D01*
X206319381Y-168855595D01*
X206271762Y-168754404D01*
X206224143Y-168700833D01*
X206128905Y-168641309D01*
X206033667Y-168629404D01*
X205938429Y-168665119D01*
X205890810Y-168706785D01*
X205843190Y-168796071D01*
X205795571Y-168980595D01*
X205747952Y-169069881D01*
X205700333Y-169111548D01*
X205605095Y-169147262D01*
X205509857Y-169135357D01*
X205414619Y-169075833D01*
X205367000Y-169022262D01*
X205319381Y-168921072D01*
X205319381Y-168682976D01*
X205367000Y-168546071D01*
X205319381Y-168254405D02*
X205319381Y-167682976D01*
X206319381Y-168093691D02*
X205319381Y-167968691D01*
X205319381Y-164650262D02*
X205319381Y-164078833D01*
X206319381Y-164489548D02*
X205319381Y-164364548D01*
X206319381Y-163299071D02*
X205843190Y-163572881D01*
X206319381Y-163870500D02*
X205319381Y-163745500D01*
X205319381Y-163364547D01*
X205367000Y-163275261D01*
X205414619Y-163233594D01*
X205509857Y-163197880D01*
X205652714Y-163215737D01*
X205747952Y-163275261D01*
X205795571Y-163328832D01*
X205843190Y-163430023D01*
X205843190Y-163810976D01*
X205367000Y-162227642D02*
X205319381Y-162316928D01*
X205319381Y-162459785D01*
X205367000Y-162608595D01*
X205462238Y-162715738D01*
X205557476Y-162775261D01*
X205747952Y-162846690D01*
X205890810Y-162864547D01*
X206081286Y-162840738D01*
X206176524Y-162805023D01*
X206271762Y-162721690D01*
X206319381Y-162584785D01*
X206319381Y-162489547D01*
X206271762Y-162340737D01*
X206224143Y-162287166D01*
X205890810Y-162245499D01*
X205890810Y-162435975D01*
X205319381Y-161888357D02*
X205319381Y-161316928D01*
X206319381Y-161727643D02*
X205319381Y-161602643D01*
X205652714Y-161025261D02*
X205938429Y-160299071D01*
X206224143Y-161096690D01*
D12*
X205798500Y-158008000D02*
X204401500Y-158008000D01*
X205798500Y-155468000D02*
X204401500Y-155468000D01*
X205798500Y-155468000D02*
X205798500Y-158008000D01*
X204401500Y-158008000D02*
X204401500Y-155468000D01*
X204592000Y-176198500D02*
X204592000Y-174801500D01*
X207132000Y-176198500D02*
X207132000Y-174801500D01*
X207132000Y-176198500D02*
X204592000Y-176198500D01*
X204592000Y-174801500D02*
X207132000Y-174801500D01*
X205608000Y-173817500D02*
X205608000Y-173182500D01*
X206116000Y-173182500D02*
X205671500Y-173500000D01*
X205671500Y-173500000D02*
X206116000Y-173817500D01*
X206116000Y-173817500D02*
X206116000Y-173182500D01*
X204592000Y-174198500D02*
X204592000Y-172801500D01*
X207132000Y-174198500D02*
X207132000Y-172801500D01*
X207132000Y-172801500D02*
X204592000Y-172801500D01*
X204592000Y-174198500D02*
X207132000Y-174198500D01*
X205608000Y-159617500D02*
X205608000Y-158982500D01*
X206116000Y-158982500D02*
X205671500Y-159300000D01*
X205671500Y-159300000D02*
X206116000Y-159617500D01*
X206116000Y-159617500D02*
X206116000Y-158982500D01*
X204592000Y-159998500D02*
X204592000Y-158601500D01*
X207132000Y-159998500D02*
X207132000Y-158601500D01*
X207132000Y-158601500D02*
X204592000Y-158601500D01*
X204592000Y-159998500D02*
X207132000Y-159998500D01*
X205359000Y-179260500D02*
X205359000Y-177863500D01*
X207899000Y-179260500D02*
X207899000Y-177863500D01*
X207899000Y-179260500D02*
X205359000Y-179260500D01*
X205359000Y-177863500D02*
X207899000Y-177863500D01*
X211201000Y-175704500D02*
X211201000Y-174307500D01*
X213741000Y-175704500D02*
X213741000Y-174307500D01*
X213741000Y-175704500D02*
X211201000Y-175704500D01*
X211201000Y-174307500D02*
X213741000Y-174307500D01*
D10*
X208446803Y-176249000D02*
G75*
G03X208446803Y-176249000I-89803J0D01*
G01*
X207712000Y-159970000D02*
X212912000Y-159970000D01*
X207712000Y-172770000D02*
X207712000Y-159970000D01*
X212912000Y-172770000D02*
X207712000Y-172770000D01*
X212912000Y-159970000D02*
X212912000Y-172770000D01*
D12*
X204980000Y-155152286D02*
X204730000Y-154795143D01*
X204551428Y-155152286D02*
X204551428Y-154402286D01*
X204837143Y-154402286D01*
X204908571Y-154438000D01*
X204944286Y-154473714D01*
X204980000Y-154545143D01*
X204980000Y-154652286D01*
X204944286Y-154723714D01*
X204908571Y-154759429D01*
X204837143Y-154795143D01*
X204551428Y-154795143D01*
X205265714Y-154473714D02*
X205301428Y-154438000D01*
X205372857Y-154402286D01*
X205551428Y-154402286D01*
X205622857Y-154438000D01*
X205658571Y-154473714D01*
X205694286Y-154545143D01*
X205694286Y-154616571D01*
X205658571Y-154723714D01*
X205230000Y-155152286D01*
X205694286Y-155152286D01*
X205737000Y-177363286D02*
X205487000Y-177006143D01*
X205308428Y-177363286D02*
X205308428Y-176613286D01*
X205594143Y-176613286D01*
X205665571Y-176649000D01*
X205701286Y-176684714D01*
X205737000Y-176756143D01*
X205737000Y-176863286D01*
X205701286Y-176934714D01*
X205665571Y-176970429D01*
X205594143Y-177006143D01*
X205308428Y-177006143D01*
X206451286Y-177363286D02*
X206022714Y-177363286D01*
X206237000Y-177363286D02*
X206237000Y-176613286D01*
X206165571Y-176720429D01*
X206094143Y-176791857D01*
X206022714Y-176827571D01*
X207472428Y-173948286D02*
X207472428Y-173198286D01*
X207651000Y-173198286D01*
X207758143Y-173234000D01*
X207829571Y-173305429D01*
X207865286Y-173376857D01*
X207901000Y-173519714D01*
X207901000Y-173626857D01*
X207865286Y-173769714D01*
X207829571Y-173841143D01*
X207758143Y-173912571D01*
X207651000Y-173948286D01*
X207472428Y-173948286D01*
X208615286Y-173948286D02*
X208186714Y-173948286D01*
X208401000Y-173948286D02*
X208401000Y-173198286D01*
X208329571Y-173305429D01*
X208258143Y-173376857D01*
X208186714Y-173412571D01*
X207472428Y-159470286D02*
X207472428Y-158720286D01*
X207651000Y-158720286D01*
X207758143Y-158756000D01*
X207829571Y-158827429D01*
X207865286Y-158898857D01*
X207901000Y-159041714D01*
X207901000Y-159148857D01*
X207865286Y-159291714D01*
X207829571Y-159363143D01*
X207758143Y-159434571D01*
X207651000Y-159470286D01*
X207472428Y-159470286D01*
X208186714Y-158791714D02*
X208222428Y-158756000D01*
X208293857Y-158720286D01*
X208472428Y-158720286D01*
X208543857Y-158756000D01*
X208579571Y-158791714D01*
X208615286Y-158863143D01*
X208615286Y-158934571D01*
X208579571Y-159041714D01*
X208151000Y-159470286D01*
X208615286Y-159470286D01*
X206504000Y-180353857D02*
X206468286Y-180389571D01*
X206361143Y-180425286D01*
X206289714Y-180425286D01*
X206182571Y-180389571D01*
X206111143Y-180318143D01*
X206075428Y-180246714D01*
X206039714Y-180103857D01*
X206039714Y-179996714D01*
X206075428Y-179853857D01*
X206111143Y-179782429D01*
X206182571Y-179711000D01*
X206289714Y-179675286D01*
X206361143Y-179675286D01*
X206468286Y-179711000D01*
X206504000Y-179746714D01*
X207218286Y-180425286D02*
X206789714Y-180425286D01*
X207004000Y-180425286D02*
X207004000Y-179675286D01*
X206932571Y-179782429D01*
X206861143Y-179853857D01*
X206789714Y-179889571D01*
X210187000Y-175273857D02*
X210151286Y-175309571D01*
X210044143Y-175345286D01*
X209972714Y-175345286D01*
X209865571Y-175309571D01*
X209794143Y-175238143D01*
X209758428Y-175166714D01*
X209722714Y-175023857D01*
X209722714Y-174916714D01*
X209758428Y-174773857D01*
X209794143Y-174702429D01*
X209865571Y-174631000D01*
X209972714Y-174595286D01*
X210044143Y-174595286D01*
X210151286Y-174631000D01*
X210187000Y-174666714D01*
X210472714Y-174666714D02*
X210508428Y-174631000D01*
X210579857Y-174595286D01*
X210758428Y-174595286D01*
X210829857Y-174631000D01*
X210865571Y-174666714D01*
X210901286Y-174738143D01*
X210901286Y-174809571D01*
X210865571Y-174916714D01*
X210437000Y-175345286D01*
X210901286Y-175345286D01*
X210248571Y-179675286D02*
X210248571Y-180282429D01*
X210284286Y-180353857D01*
X210320000Y-180389571D01*
X210391429Y-180425286D01*
X210534286Y-180425286D01*
X210605714Y-180389571D01*
X210641429Y-180353857D01*
X210677143Y-180282429D01*
X210677143Y-179675286D01*
X211427143Y-180425286D02*
X210998571Y-180425286D01*
X211212857Y-180425286D02*
X211212857Y-179675286D01*
X211141428Y-179782429D01*
X211070000Y-179853857D01*
X210998571Y-179889571D01*
X212094000Y-158847286D02*
X212094000Y-159383000D01*
X212058286Y-159490143D01*
X211986857Y-159561571D01*
X211879714Y-159597286D01*
X211808286Y-159597286D01*
X212415429Y-158918714D02*
X212451143Y-158883000D01*
X212522572Y-158847286D01*
X212701143Y-158847286D01*
X212772572Y-158883000D01*
X212808286Y-158918714D01*
X212844001Y-158990143D01*
X212844001Y-159061571D01*
X212808286Y-159168714D01*
X212379715Y-159597286D01*
X212844001Y-159597286D01*
X208991286Y-164209286D02*
X208562714Y-164209286D01*
X208777000Y-164209286D02*
X208777000Y-163459286D01*
X208705571Y-163566429D01*
X208634143Y-163637857D01*
X208562714Y-163673571D01*
X203851000Y-153338571D02*
X203958143Y-153374286D01*
X204136714Y-153374286D01*
X204208143Y-153338571D01*
X204243857Y-153302857D01*
X204279572Y-153231429D01*
X204279572Y-153160000D01*
X204243857Y-153088571D01*
X204208143Y-153052857D01*
X204136714Y-153017143D01*
X203993857Y-152981429D01*
X203922429Y-152945714D01*
X203886714Y-152910000D01*
X203851000Y-152838571D01*
X203851000Y-152767143D01*
X203886714Y-152695714D01*
X203922429Y-152660000D01*
X203993857Y-152624286D01*
X204172429Y-152624286D01*
X204279572Y-152660000D01*
X204529572Y-152624286D02*
X204708143Y-153374286D01*
X204851000Y-152838571D01*
X204993858Y-153374286D01*
X205172429Y-152624286D01*
X205851001Y-153374286D02*
X205422429Y-153374286D01*
X205636715Y-153374286D02*
X205636715Y-152624286D01*
X205565286Y-152731429D01*
X205493858Y-152802857D01*
X205422429Y-152838571D01*
X202315000Y-152624286D02*
X202315000Y-153160000D01*
X202279286Y-153267143D01*
X202207857Y-153338571D01*
X202100714Y-153374286D01*
X202029286Y-153374286D01*
X203065001Y-153374286D02*
X202636429Y-153374286D01*
X202850715Y-153374286D02*
X202850715Y-152624286D01*
X202779286Y-152731429D01*
X202707858Y-152802857D01*
X202636429Y-152838571D01*
M02*
