G04 (created by PCBNEW (2013-07-07 BZR 4022)-stable) date 1/29/2014 8:45:00 PM*
%MOIN*%
G04 Gerber Fmt 3.4, Leading zero omitted, Abs format*
%FSLAX34Y34*%
G01*
G70*
G90*
G04 APERTURE LIST*
%ADD10C,0.00590551*%
%ADD11C,0.0688976*%
%ADD12R,0.0393701X0.0393701*%
%ADD13C,0.0393701*%
%ADD14R,0.1181X0.0394*%
%ADD15O,0.1181X0.0394*%
%ADD16C,0.035*%
%ADD17C,0.01*%
G04 APERTURE END LIST*
G54D10*
G54D11*
X78000Y-57500D03*
X78000Y-49500D03*
G54D12*
X78000Y-52000D03*
G54D13*
X78500Y-52000D03*
X78000Y-52500D03*
X78500Y-52500D03*
X78000Y-53000D03*
X78500Y-53000D03*
X78000Y-53500D03*
X78500Y-53500D03*
X78000Y-54000D03*
X78500Y-54000D03*
G54D11*
X78000Y-56000D03*
G54D14*
X76000Y-49500D03*
X76000Y-50500D03*
G54D15*
X76000Y-48500D03*
G54D14*
X76000Y-51500D03*
X76000Y-52500D03*
X76000Y-53500D03*
X76000Y-54500D03*
X76000Y-55500D03*
X76000Y-56500D03*
X76000Y-57500D03*
G54D16*
X77000Y-55500D03*
X77000Y-52500D03*
X77300Y-51100D03*
X78400Y-50500D03*
G54D17*
X76000Y-57500D02*
X78000Y-57500D01*
X76000Y-55500D02*
X77000Y-55500D01*
X76000Y-53500D02*
X78000Y-53500D01*
X76000Y-54500D02*
X78700Y-54500D01*
X78800Y-53000D02*
X78500Y-53000D01*
X79000Y-53200D02*
X78800Y-53000D01*
X79000Y-54200D02*
X79000Y-53200D01*
X78700Y-54500D02*
X79000Y-54200D01*
X77300Y-51100D02*
X78300Y-51100D01*
X78300Y-51100D02*
X78400Y-51200D01*
X78500Y-52500D02*
X78600Y-52500D01*
X77000Y-52500D02*
X76000Y-52500D01*
X79000Y-51800D02*
X78400Y-51200D01*
X79000Y-52100D02*
X79000Y-51800D01*
X78600Y-52500D02*
X79000Y-52100D01*
X78400Y-50500D02*
X76000Y-50500D01*
X78500Y-52000D02*
X78500Y-51700D01*
X78300Y-51500D02*
X76000Y-51500D01*
X78500Y-51700D02*
X78300Y-51500D01*
X76000Y-48500D02*
X77000Y-48500D01*
X77000Y-48500D02*
X78000Y-49500D01*
G54D10*
G36*
X78259Y-53250D02*
X78249Y-53259D01*
X78196Y-53206D01*
X78091Y-53162D01*
X78000Y-53070D01*
X77929Y-53141D01*
X77929Y-53000D01*
X77743Y-52814D01*
X77687Y-52834D01*
X77647Y-52966D01*
X77662Y-53104D01*
X77687Y-53165D01*
X77743Y-53185D01*
X77929Y-53000D01*
X77929Y-53141D01*
X77907Y-53162D01*
X77803Y-53205D01*
X77709Y-53300D01*
X76740Y-53300D01*
X76740Y-53273D01*
X76717Y-53218D01*
X76675Y-53175D01*
X76620Y-53153D01*
X76560Y-53152D01*
X75469Y-53152D01*
X75469Y-52847D01*
X76620Y-52847D01*
X76675Y-52824D01*
X76717Y-52782D01*
X76740Y-52726D01*
X76740Y-52700D01*
X76815Y-52775D01*
X76935Y-52824D01*
X77064Y-52825D01*
X77183Y-52775D01*
X77275Y-52684D01*
X77324Y-52564D01*
X77325Y-52435D01*
X77275Y-52316D01*
X77184Y-52224D01*
X77064Y-52175D01*
X76935Y-52174D01*
X76816Y-52224D01*
X76740Y-52299D01*
X76740Y-52273D01*
X76717Y-52218D01*
X76675Y-52175D01*
X76620Y-52153D01*
X76560Y-52152D01*
X75469Y-52152D01*
X75469Y-51847D01*
X76620Y-51847D01*
X76675Y-51824D01*
X76717Y-51782D01*
X76740Y-51726D01*
X76740Y-51700D01*
X77694Y-51700D01*
X77676Y-51718D01*
X77653Y-51773D01*
X77653Y-51832D01*
X77653Y-52226D01*
X77675Y-52281D01*
X77717Y-52323D01*
X77687Y-52334D01*
X77647Y-52466D01*
X77662Y-52604D01*
X77687Y-52665D01*
X77743Y-52685D01*
X77929Y-52500D01*
X77923Y-52494D01*
X77994Y-52423D01*
X78000Y-52429D01*
X78005Y-52423D01*
X78076Y-52494D01*
X78070Y-52500D01*
X78162Y-52592D01*
X78205Y-52696D01*
X78259Y-52750D01*
X78206Y-52803D01*
X78185Y-52853D01*
X78185Y-52756D01*
X78179Y-52750D01*
X78185Y-52743D01*
X78165Y-52687D01*
X78095Y-52666D01*
X78000Y-52570D01*
X77910Y-52660D01*
X77895Y-52662D01*
X77834Y-52687D01*
X77814Y-52743D01*
X77820Y-52750D01*
X77814Y-52756D01*
X77834Y-52812D01*
X77904Y-52833D01*
X78000Y-52929D01*
X78089Y-52839D01*
X78104Y-52837D01*
X78165Y-52812D01*
X78185Y-52756D01*
X78185Y-52853D01*
X78162Y-52908D01*
X78070Y-53000D01*
X78162Y-53092D01*
X78205Y-53196D01*
X78259Y-53250D01*
X78259Y-53250D01*
G37*
G54D17*
X78259Y-53250D02*
X78249Y-53259D01*
X78196Y-53206D01*
X78091Y-53162D01*
X78000Y-53070D01*
X77929Y-53141D01*
X77929Y-53000D01*
X77743Y-52814D01*
X77687Y-52834D01*
X77647Y-52966D01*
X77662Y-53104D01*
X77687Y-53165D01*
X77743Y-53185D01*
X77929Y-53000D01*
X77929Y-53141D01*
X77907Y-53162D01*
X77803Y-53205D01*
X77709Y-53300D01*
X76740Y-53300D01*
X76740Y-53273D01*
X76717Y-53218D01*
X76675Y-53175D01*
X76620Y-53153D01*
X76560Y-53152D01*
X75469Y-53152D01*
X75469Y-52847D01*
X76620Y-52847D01*
X76675Y-52824D01*
X76717Y-52782D01*
X76740Y-52726D01*
X76740Y-52700D01*
X76815Y-52775D01*
X76935Y-52824D01*
X77064Y-52825D01*
X77183Y-52775D01*
X77275Y-52684D01*
X77324Y-52564D01*
X77325Y-52435D01*
X77275Y-52316D01*
X77184Y-52224D01*
X77064Y-52175D01*
X76935Y-52174D01*
X76816Y-52224D01*
X76740Y-52299D01*
X76740Y-52273D01*
X76717Y-52218D01*
X76675Y-52175D01*
X76620Y-52153D01*
X76560Y-52152D01*
X75469Y-52152D01*
X75469Y-51847D01*
X76620Y-51847D01*
X76675Y-51824D01*
X76717Y-51782D01*
X76740Y-51726D01*
X76740Y-51700D01*
X77694Y-51700D01*
X77676Y-51718D01*
X77653Y-51773D01*
X77653Y-51832D01*
X77653Y-52226D01*
X77675Y-52281D01*
X77717Y-52323D01*
X77687Y-52334D01*
X77647Y-52466D01*
X77662Y-52604D01*
X77687Y-52665D01*
X77743Y-52685D01*
X77929Y-52500D01*
X77923Y-52494D01*
X77994Y-52423D01*
X78000Y-52429D01*
X78005Y-52423D01*
X78076Y-52494D01*
X78070Y-52500D01*
X78162Y-52592D01*
X78205Y-52696D01*
X78259Y-52750D01*
X78206Y-52803D01*
X78185Y-52853D01*
X78185Y-52756D01*
X78179Y-52750D01*
X78185Y-52743D01*
X78165Y-52687D01*
X78095Y-52666D01*
X78000Y-52570D01*
X77910Y-52660D01*
X77895Y-52662D01*
X77834Y-52687D01*
X77814Y-52743D01*
X77820Y-52750D01*
X77814Y-52756D01*
X77834Y-52812D01*
X77904Y-52833D01*
X78000Y-52929D01*
X78089Y-52839D01*
X78104Y-52837D01*
X78165Y-52812D01*
X78185Y-52756D01*
X78185Y-52853D01*
X78162Y-52908D01*
X78070Y-53000D01*
X78162Y-53092D01*
X78205Y-53196D01*
X78259Y-53250D01*
G54D10*
G36*
X78318Y-54300D02*
X78169Y-54300D01*
X78185Y-54256D01*
X78000Y-54070D01*
X77929Y-54141D01*
X77929Y-54000D01*
X77743Y-53814D01*
X77687Y-53834D01*
X77647Y-53966D01*
X77662Y-54104D01*
X77687Y-54165D01*
X77743Y-54185D01*
X77929Y-54000D01*
X77929Y-54141D01*
X77814Y-54256D01*
X77830Y-54300D01*
X76740Y-54300D01*
X76740Y-54273D01*
X76717Y-54218D01*
X76675Y-54175D01*
X76620Y-54153D01*
X76560Y-54152D01*
X75469Y-54152D01*
X75469Y-53847D01*
X76620Y-53847D01*
X76675Y-53824D01*
X76717Y-53782D01*
X76740Y-53726D01*
X76740Y-53700D01*
X77709Y-53700D01*
X77803Y-53793D01*
X77908Y-53837D01*
X78000Y-53929D01*
X78092Y-53837D01*
X78196Y-53794D01*
X78250Y-53740D01*
X78259Y-53750D01*
X78206Y-53803D01*
X78162Y-53908D01*
X78070Y-54000D01*
X78162Y-54092D01*
X78205Y-54196D01*
X78303Y-54293D01*
X78318Y-54300D01*
X78318Y-54300D01*
G37*
G54D17*
X78318Y-54300D02*
X78169Y-54300D01*
X78185Y-54256D01*
X78000Y-54070D01*
X77929Y-54141D01*
X77929Y-54000D01*
X77743Y-53814D01*
X77687Y-53834D01*
X77647Y-53966D01*
X77662Y-54104D01*
X77687Y-54165D01*
X77743Y-54185D01*
X77929Y-54000D01*
X77929Y-54141D01*
X77814Y-54256D01*
X77830Y-54300D01*
X76740Y-54300D01*
X76740Y-54273D01*
X76717Y-54218D01*
X76675Y-54175D01*
X76620Y-54153D01*
X76560Y-54152D01*
X75469Y-54152D01*
X75469Y-53847D01*
X76620Y-53847D01*
X76675Y-53824D01*
X76717Y-53782D01*
X76740Y-53726D01*
X76740Y-53700D01*
X77709Y-53700D01*
X77803Y-53793D01*
X77908Y-53837D01*
X78000Y-53929D01*
X78092Y-53837D01*
X78196Y-53794D01*
X78250Y-53740D01*
X78259Y-53750D01*
X78206Y-53803D01*
X78162Y-53908D01*
X78070Y-54000D01*
X78162Y-54092D01*
X78205Y-54196D01*
X78303Y-54293D01*
X78318Y-54300D01*
G54D10*
G36*
X79130Y-56885D02*
X79056Y-57255D01*
X78856Y-57554D01*
X78555Y-57755D01*
X78499Y-57767D01*
X78499Y-56068D01*
X78487Y-55872D01*
X78435Y-55745D01*
X78363Y-55707D01*
X78292Y-55777D01*
X78292Y-55636D01*
X78254Y-55564D01*
X78068Y-55500D01*
X77872Y-55512D01*
X77745Y-55564D01*
X77707Y-55636D01*
X78000Y-55929D01*
X78292Y-55636D01*
X78292Y-55777D01*
X78070Y-56000D01*
X78363Y-56292D01*
X78435Y-56254D01*
X78499Y-56068D01*
X78499Y-57767D01*
X78415Y-57783D01*
X78418Y-57780D01*
X78494Y-57598D01*
X78494Y-57402D01*
X78419Y-57220D01*
X78292Y-57093D01*
X78292Y-56363D01*
X78000Y-56070D01*
X77929Y-56141D01*
X77929Y-56000D01*
X77636Y-55707D01*
X77564Y-55745D01*
X77500Y-55931D01*
X77512Y-56127D01*
X77564Y-56254D01*
X77636Y-56292D01*
X77929Y-56000D01*
X77929Y-56141D01*
X77707Y-56363D01*
X77745Y-56435D01*
X77931Y-56499D01*
X78127Y-56487D01*
X78254Y-56435D01*
X78292Y-56363D01*
X78292Y-57093D01*
X78280Y-57081D01*
X78098Y-57005D01*
X77902Y-57005D01*
X77720Y-57080D01*
X77581Y-57219D01*
X77547Y-57300D01*
X76740Y-57300D01*
X76740Y-57273D01*
X76717Y-57218D01*
X76675Y-57175D01*
X76620Y-57153D01*
X76560Y-57152D01*
X75469Y-57152D01*
X75469Y-56847D01*
X76620Y-56847D01*
X76675Y-56824D01*
X76717Y-56782D01*
X76740Y-56726D01*
X76740Y-56667D01*
X76740Y-56273D01*
X76717Y-56218D01*
X76675Y-56175D01*
X76620Y-56153D01*
X76560Y-56152D01*
X75469Y-56152D01*
X75469Y-55847D01*
X76620Y-55847D01*
X76675Y-55824D01*
X76717Y-55782D01*
X76740Y-55726D01*
X76740Y-55700D01*
X76815Y-55775D01*
X76935Y-55824D01*
X77064Y-55825D01*
X77183Y-55775D01*
X77275Y-55684D01*
X77324Y-55564D01*
X77325Y-55435D01*
X77275Y-55316D01*
X77184Y-55224D01*
X77064Y-55175D01*
X76935Y-55174D01*
X76816Y-55224D01*
X76740Y-55299D01*
X76740Y-55273D01*
X76717Y-55218D01*
X76675Y-55175D01*
X76620Y-55153D01*
X76560Y-55152D01*
X75469Y-55152D01*
X75469Y-54847D01*
X76620Y-54847D01*
X76675Y-54824D01*
X76717Y-54782D01*
X76740Y-54726D01*
X76740Y-54700D01*
X78700Y-54700D01*
X78776Y-54684D01*
X78841Y-54641D01*
X79130Y-54352D01*
X79130Y-56885D01*
X79130Y-56885D01*
G37*
G54D17*
X79130Y-56885D02*
X79056Y-57255D01*
X78856Y-57554D01*
X78555Y-57755D01*
X78499Y-57767D01*
X78499Y-56068D01*
X78487Y-55872D01*
X78435Y-55745D01*
X78363Y-55707D01*
X78292Y-55777D01*
X78292Y-55636D01*
X78254Y-55564D01*
X78068Y-55500D01*
X77872Y-55512D01*
X77745Y-55564D01*
X77707Y-55636D01*
X78000Y-55929D01*
X78292Y-55636D01*
X78292Y-55777D01*
X78070Y-56000D01*
X78363Y-56292D01*
X78435Y-56254D01*
X78499Y-56068D01*
X78499Y-57767D01*
X78415Y-57783D01*
X78418Y-57780D01*
X78494Y-57598D01*
X78494Y-57402D01*
X78419Y-57220D01*
X78292Y-57093D01*
X78292Y-56363D01*
X78000Y-56070D01*
X77929Y-56141D01*
X77929Y-56000D01*
X77636Y-55707D01*
X77564Y-55745D01*
X77500Y-55931D01*
X77512Y-56127D01*
X77564Y-56254D01*
X77636Y-56292D01*
X77929Y-56000D01*
X77929Y-56141D01*
X77707Y-56363D01*
X77745Y-56435D01*
X77931Y-56499D01*
X78127Y-56487D01*
X78254Y-56435D01*
X78292Y-56363D01*
X78292Y-57093D01*
X78280Y-57081D01*
X78098Y-57005D01*
X77902Y-57005D01*
X77720Y-57080D01*
X77581Y-57219D01*
X77547Y-57300D01*
X76740Y-57300D01*
X76740Y-57273D01*
X76717Y-57218D01*
X76675Y-57175D01*
X76620Y-57153D01*
X76560Y-57152D01*
X75469Y-57152D01*
X75469Y-56847D01*
X76620Y-56847D01*
X76675Y-56824D01*
X76717Y-56782D01*
X76740Y-56726D01*
X76740Y-56667D01*
X76740Y-56273D01*
X76717Y-56218D01*
X76675Y-56175D01*
X76620Y-56153D01*
X76560Y-56152D01*
X75469Y-56152D01*
X75469Y-55847D01*
X76620Y-55847D01*
X76675Y-55824D01*
X76717Y-55782D01*
X76740Y-55726D01*
X76740Y-55700D01*
X76815Y-55775D01*
X76935Y-55824D01*
X77064Y-55825D01*
X77183Y-55775D01*
X77275Y-55684D01*
X77324Y-55564D01*
X77325Y-55435D01*
X77275Y-55316D01*
X77184Y-55224D01*
X77064Y-55175D01*
X76935Y-55174D01*
X76816Y-55224D01*
X76740Y-55299D01*
X76740Y-55273D01*
X76717Y-55218D01*
X76675Y-55175D01*
X76620Y-55153D01*
X76560Y-55152D01*
X75469Y-55152D01*
X75469Y-54847D01*
X76620Y-54847D01*
X76675Y-54824D01*
X76717Y-54782D01*
X76740Y-54726D01*
X76740Y-54700D01*
X78700Y-54700D01*
X78776Y-54684D01*
X78841Y-54641D01*
X79130Y-54352D01*
X79130Y-56885D01*
M02*
