G04 (created by PCBNEW (2013-07-07 BZR 4022)-stable) date 6/17/2014 8:54:33 PM*
%MOIN*%
G04 Gerber Fmt 3.4, Leading zero omitted, Abs format*
%FSLAX34Y34*%
G01*
G70*
G90*
G04 APERTURE LIST*
%ADD10C,0.00590551*%
%ADD11R,0.0393701X0.0393701*%
%ADD12C,0.0393701*%
%ADD13R,0.1181X0.0394*%
%ADD14C,0.05*%
%ADD15C,0.02*%
%ADD16C,0.035*%
%ADD17C,0.01*%
%ADD18C,0.0137795*%
G04 APERTURE END LIST*
G54D10*
G54D11*
X78000Y-52000D03*
G54D12*
X78500Y-52000D03*
X78000Y-52500D03*
X78500Y-52500D03*
X78000Y-53000D03*
X78500Y-53000D03*
X78000Y-53500D03*
X78500Y-53500D03*
X78000Y-54000D03*
X78500Y-54000D03*
G54D13*
X76000Y-48500D03*
X76000Y-49500D03*
X76000Y-50500D03*
X76000Y-51500D03*
X76000Y-52500D03*
X76000Y-53500D03*
X76000Y-54500D03*
X76000Y-55500D03*
X76000Y-56500D03*
X76000Y-57500D03*
G54D14*
X79100Y-48309D03*
X79100Y-49490D03*
G54D15*
X77000Y-55500D03*
X77300Y-51100D03*
X77000Y-52500D03*
X78650Y-50950D03*
G54D16*
X76700Y-49000D03*
G54D15*
X77300Y-49600D03*
X77150Y-57100D03*
X77700Y-50000D03*
X76900Y-50000D03*
G54D17*
X78500Y-54000D02*
X77000Y-55500D01*
X77300Y-52200D02*
X77000Y-52500D01*
X77300Y-51100D02*
X77300Y-52200D01*
X79000Y-53200D02*
X79000Y-51450D01*
X78700Y-53500D02*
X79000Y-53200D01*
X78700Y-53500D02*
X78500Y-53500D01*
X79000Y-51300D02*
X79000Y-51450D01*
X78650Y-50950D02*
X79000Y-51300D01*
G54D18*
X76000Y-48500D02*
X76200Y-48500D01*
X76200Y-48500D02*
X76700Y-49000D01*
X76700Y-49000D02*
X77300Y-49600D01*
X78000Y-52000D02*
X78000Y-51000D01*
X77300Y-50300D02*
X78000Y-51000D01*
X77300Y-49700D02*
X77300Y-50300D01*
X77300Y-49600D02*
X77300Y-49700D01*
X76400Y-49500D02*
X76000Y-49500D01*
X76900Y-50000D02*
X76400Y-49500D01*
G54D10*
G36*
X79930Y-57381D02*
X79848Y-57794D01*
X79626Y-58125D01*
X79500Y-58210D01*
X79500Y-49411D01*
X79500Y-48230D01*
X79439Y-48083D01*
X79326Y-47970D01*
X79179Y-47909D01*
X79020Y-47909D01*
X78873Y-47970D01*
X78761Y-48082D01*
X78700Y-48229D01*
X78699Y-48388D01*
X78760Y-48535D01*
X78873Y-48648D01*
X79020Y-48709D01*
X79179Y-48709D01*
X79326Y-48648D01*
X79438Y-48536D01*
X79499Y-48389D01*
X79500Y-48230D01*
X79500Y-49411D01*
X79439Y-49264D01*
X79326Y-49151D01*
X79179Y-49090D01*
X79020Y-49090D01*
X78873Y-49151D01*
X78761Y-49263D01*
X78700Y-49410D01*
X78699Y-49569D01*
X78760Y-49716D01*
X78873Y-49829D01*
X79020Y-49890D01*
X79179Y-49890D01*
X79326Y-49829D01*
X79438Y-49717D01*
X79499Y-49570D01*
X79500Y-49411D01*
X79500Y-58210D01*
X79292Y-58349D01*
X78883Y-58430D01*
X76740Y-58430D01*
X76740Y-57667D01*
X76740Y-57332D01*
X76740Y-56667D01*
X76740Y-56332D01*
X76740Y-55667D01*
X76740Y-55332D01*
X76740Y-54667D01*
X76740Y-54332D01*
X76740Y-53667D01*
X76740Y-53332D01*
X76740Y-52667D01*
X76740Y-52332D01*
X76740Y-51667D01*
X76740Y-51332D01*
X76740Y-50667D01*
X76740Y-50332D01*
X76740Y-49667D01*
X76740Y-49587D01*
X76703Y-49550D01*
X76050Y-49550D01*
X76050Y-49809D01*
X76087Y-49847D01*
X76620Y-49847D01*
X76675Y-49824D01*
X76717Y-49782D01*
X76740Y-49726D01*
X76740Y-49667D01*
X76740Y-50332D01*
X76740Y-50273D01*
X76717Y-50217D01*
X76675Y-50175D01*
X76620Y-50152D01*
X76087Y-50153D01*
X76050Y-50190D01*
X76050Y-50450D01*
X76703Y-50450D01*
X76740Y-50412D01*
X76740Y-50332D01*
X76740Y-50667D01*
X76740Y-50587D01*
X76703Y-50550D01*
X76050Y-50550D01*
X76050Y-50809D01*
X76087Y-50847D01*
X76620Y-50847D01*
X76675Y-50824D01*
X76717Y-50782D01*
X76740Y-50726D01*
X76740Y-50667D01*
X76740Y-51332D01*
X76740Y-51273D01*
X76717Y-51217D01*
X76675Y-51175D01*
X76620Y-51152D01*
X76087Y-51153D01*
X76050Y-51190D01*
X76050Y-51450D01*
X76703Y-51450D01*
X76740Y-51412D01*
X76740Y-51332D01*
X76740Y-51667D01*
X76740Y-51587D01*
X76703Y-51550D01*
X76050Y-51550D01*
X76050Y-51809D01*
X76087Y-51847D01*
X76620Y-51847D01*
X76675Y-51824D01*
X76717Y-51782D01*
X76740Y-51726D01*
X76740Y-51667D01*
X76740Y-52332D01*
X76740Y-52273D01*
X76717Y-52217D01*
X76675Y-52175D01*
X76620Y-52152D01*
X76087Y-52153D01*
X76050Y-52190D01*
X76050Y-52450D01*
X76703Y-52450D01*
X76740Y-52412D01*
X76740Y-52332D01*
X76740Y-52667D01*
X76740Y-52587D01*
X76703Y-52550D01*
X76050Y-52550D01*
X76050Y-52809D01*
X76087Y-52847D01*
X76620Y-52847D01*
X76675Y-52824D01*
X76717Y-52782D01*
X76740Y-52726D01*
X76740Y-52667D01*
X76740Y-53332D01*
X76740Y-53273D01*
X76717Y-53217D01*
X76675Y-53175D01*
X76620Y-53152D01*
X76087Y-53153D01*
X76050Y-53190D01*
X76050Y-53450D01*
X76703Y-53450D01*
X76740Y-53412D01*
X76740Y-53332D01*
X76740Y-53667D01*
X76740Y-53587D01*
X76703Y-53550D01*
X76050Y-53550D01*
X76050Y-53809D01*
X76087Y-53847D01*
X76620Y-53847D01*
X76675Y-53824D01*
X76717Y-53782D01*
X76740Y-53726D01*
X76740Y-53667D01*
X76740Y-54332D01*
X76740Y-54273D01*
X76717Y-54217D01*
X76675Y-54175D01*
X76620Y-54152D01*
X76087Y-54153D01*
X76050Y-54190D01*
X76050Y-54450D01*
X76703Y-54450D01*
X76740Y-54412D01*
X76740Y-54332D01*
X76740Y-54667D01*
X76740Y-54587D01*
X76703Y-54550D01*
X76050Y-54550D01*
X76050Y-54809D01*
X76087Y-54847D01*
X76620Y-54847D01*
X76675Y-54824D01*
X76717Y-54782D01*
X76740Y-54726D01*
X76740Y-54667D01*
X76740Y-55332D01*
X76740Y-55273D01*
X76717Y-55217D01*
X76675Y-55175D01*
X76620Y-55152D01*
X76087Y-55153D01*
X76050Y-55190D01*
X76050Y-55450D01*
X76703Y-55450D01*
X76740Y-55412D01*
X76740Y-55332D01*
X76740Y-55667D01*
X76740Y-55587D01*
X76703Y-55550D01*
X76050Y-55550D01*
X76050Y-55809D01*
X76087Y-55847D01*
X76620Y-55847D01*
X76675Y-55824D01*
X76717Y-55782D01*
X76740Y-55726D01*
X76740Y-55667D01*
X76740Y-56332D01*
X76740Y-56273D01*
X76717Y-56217D01*
X76675Y-56175D01*
X76620Y-56152D01*
X76087Y-56153D01*
X76050Y-56190D01*
X76050Y-56450D01*
X76703Y-56450D01*
X76740Y-56412D01*
X76740Y-56332D01*
X76740Y-56667D01*
X76740Y-56587D01*
X76703Y-56550D01*
X76050Y-56550D01*
X76050Y-56809D01*
X76087Y-56847D01*
X76620Y-56847D01*
X76675Y-56824D01*
X76717Y-56782D01*
X76740Y-56726D01*
X76740Y-56667D01*
X76740Y-57332D01*
X76740Y-57273D01*
X76717Y-57217D01*
X76675Y-57175D01*
X76620Y-57152D01*
X76087Y-57153D01*
X76050Y-57190D01*
X76050Y-57450D01*
X76703Y-57450D01*
X76740Y-57412D01*
X76740Y-57332D01*
X76740Y-57667D01*
X76740Y-57587D01*
X76703Y-57550D01*
X76050Y-57550D01*
X76050Y-57809D01*
X76087Y-57847D01*
X76620Y-57847D01*
X76675Y-57824D01*
X76717Y-57782D01*
X76740Y-57726D01*
X76740Y-57667D01*
X76740Y-58430D01*
X75469Y-58430D01*
X75469Y-57847D01*
X75912Y-57847D01*
X75950Y-57809D01*
X75950Y-57550D01*
X75942Y-57550D01*
X75942Y-57450D01*
X75950Y-57450D01*
X75950Y-57190D01*
X75912Y-57153D01*
X75469Y-57152D01*
X75469Y-56847D01*
X75912Y-56847D01*
X75950Y-56809D01*
X75950Y-56550D01*
X75942Y-56550D01*
X75942Y-56450D01*
X75950Y-56450D01*
X75950Y-56190D01*
X75912Y-56153D01*
X75469Y-56152D01*
X75469Y-55847D01*
X75912Y-55847D01*
X75950Y-55809D01*
X75950Y-55550D01*
X75942Y-55550D01*
X75942Y-55450D01*
X75950Y-55450D01*
X75950Y-55190D01*
X75912Y-55153D01*
X75469Y-55152D01*
X75469Y-54847D01*
X75912Y-54847D01*
X75950Y-54809D01*
X75950Y-54550D01*
X75942Y-54550D01*
X75942Y-54450D01*
X75950Y-54450D01*
X75950Y-54190D01*
X75912Y-54153D01*
X75469Y-54152D01*
X75469Y-53847D01*
X75912Y-53847D01*
X75950Y-53809D01*
X75950Y-53550D01*
X75942Y-53550D01*
X75942Y-53450D01*
X75950Y-53450D01*
X75950Y-53190D01*
X75912Y-53153D01*
X75469Y-53152D01*
X75469Y-52847D01*
X75912Y-52847D01*
X75950Y-52809D01*
X75950Y-52550D01*
X75942Y-52550D01*
X75942Y-52450D01*
X75950Y-52450D01*
X75950Y-52190D01*
X75912Y-52153D01*
X75469Y-52152D01*
X75469Y-51847D01*
X75912Y-51847D01*
X75950Y-51809D01*
X75950Y-51550D01*
X75942Y-51550D01*
X75942Y-51450D01*
X75950Y-51450D01*
X75950Y-51190D01*
X75912Y-51153D01*
X75469Y-51152D01*
X75469Y-50847D01*
X75912Y-50847D01*
X75950Y-50809D01*
X75950Y-50550D01*
X75942Y-50550D01*
X75942Y-50450D01*
X75950Y-50450D01*
X75950Y-50190D01*
X75912Y-50153D01*
X75469Y-50152D01*
X75469Y-49847D01*
X75912Y-49847D01*
X75950Y-49809D01*
X75950Y-49550D01*
X75942Y-49550D01*
X75942Y-49450D01*
X75950Y-49450D01*
X75950Y-49190D01*
X75912Y-49153D01*
X75469Y-49152D01*
X75469Y-48847D01*
X76237Y-48847D01*
X76375Y-48984D01*
X76374Y-49064D01*
X76411Y-49152D01*
X76087Y-49153D01*
X76050Y-49190D01*
X76050Y-49450D01*
X76703Y-49450D01*
X76740Y-49412D01*
X76740Y-49350D01*
X77057Y-49666D01*
X77081Y-49724D01*
X77081Y-50300D01*
X77097Y-50383D01*
X77145Y-50454D01*
X77781Y-51090D01*
X77781Y-51653D01*
X77773Y-51653D01*
X77718Y-51675D01*
X77676Y-51718D01*
X77653Y-51773D01*
X77653Y-51832D01*
X77653Y-52226D01*
X77675Y-52281D01*
X77717Y-52323D01*
X77687Y-52334D01*
X77647Y-52466D01*
X77662Y-52604D01*
X77687Y-52665D01*
X77743Y-52685D01*
X77929Y-52500D01*
X77923Y-52494D01*
X77994Y-52423D01*
X78000Y-52429D01*
X78005Y-52423D01*
X78076Y-52494D01*
X78070Y-52500D01*
X78162Y-52592D01*
X78205Y-52696D01*
X78259Y-52750D01*
X78206Y-52803D01*
X78185Y-52853D01*
X78185Y-52756D01*
X78179Y-52750D01*
X78185Y-52743D01*
X78165Y-52687D01*
X78095Y-52666D01*
X78000Y-52570D01*
X77910Y-52660D01*
X77895Y-52662D01*
X77834Y-52687D01*
X77814Y-52743D01*
X77820Y-52750D01*
X77814Y-52756D01*
X77834Y-52812D01*
X77904Y-52833D01*
X78000Y-52929D01*
X78089Y-52839D01*
X78104Y-52837D01*
X78165Y-52812D01*
X78185Y-52756D01*
X78185Y-52853D01*
X78162Y-52908D01*
X78070Y-53000D01*
X78162Y-53092D01*
X78205Y-53196D01*
X78259Y-53250D01*
X78249Y-53259D01*
X78196Y-53206D01*
X78091Y-53162D01*
X78000Y-53070D01*
X77929Y-53141D01*
X77929Y-53000D01*
X77743Y-52814D01*
X77687Y-52834D01*
X77647Y-52966D01*
X77662Y-53104D01*
X77687Y-53165D01*
X77743Y-53185D01*
X77929Y-53000D01*
X77929Y-53141D01*
X77907Y-53162D01*
X77803Y-53205D01*
X77706Y-53303D01*
X77653Y-53430D01*
X77653Y-53568D01*
X77705Y-53696D01*
X77803Y-53793D01*
X77908Y-53837D01*
X78000Y-53929D01*
X78092Y-53837D01*
X78196Y-53794D01*
X78250Y-53740D01*
X78259Y-53750D01*
X78206Y-53803D01*
X78162Y-53908D01*
X78070Y-54000D01*
X78076Y-54005D01*
X78005Y-54076D01*
X78000Y-54070D01*
X77929Y-54141D01*
X77929Y-54000D01*
X77743Y-53814D01*
X77687Y-53834D01*
X77647Y-53966D01*
X77662Y-54104D01*
X77687Y-54165D01*
X77743Y-54185D01*
X77929Y-54000D01*
X77929Y-54141D01*
X77814Y-54256D01*
X77834Y-54312D01*
X77888Y-54328D01*
X77550Y-54667D01*
X77550Y-51050D01*
X77512Y-50958D01*
X77441Y-50888D01*
X77349Y-50850D01*
X77250Y-50849D01*
X77158Y-50887D01*
X77088Y-50958D01*
X77050Y-51050D01*
X77049Y-51149D01*
X77087Y-51241D01*
X77100Y-51253D01*
X77100Y-52117D01*
X76967Y-52249D01*
X76950Y-52249D01*
X76858Y-52287D01*
X76788Y-52358D01*
X76750Y-52450D01*
X76749Y-52549D01*
X76787Y-52641D01*
X76858Y-52711D01*
X76950Y-52749D01*
X77049Y-52750D01*
X77141Y-52712D01*
X77211Y-52641D01*
X77249Y-52549D01*
X77249Y-52532D01*
X77441Y-52341D01*
X77441Y-52341D01*
X77470Y-52298D01*
X77484Y-52276D01*
X77484Y-52276D01*
X77499Y-52200D01*
X77500Y-52200D01*
X77500Y-51253D01*
X77511Y-51241D01*
X77549Y-51149D01*
X77550Y-51050D01*
X77550Y-54667D01*
X76967Y-55249D01*
X76950Y-55249D01*
X76858Y-55287D01*
X76788Y-55358D01*
X76750Y-55450D01*
X76749Y-55549D01*
X76787Y-55641D01*
X76858Y-55711D01*
X76950Y-55749D01*
X77049Y-55750D01*
X77141Y-55712D01*
X77211Y-55641D01*
X77249Y-55549D01*
X77249Y-55532D01*
X78436Y-54346D01*
X78568Y-54346D01*
X78696Y-54294D01*
X78793Y-54196D01*
X78846Y-54069D01*
X78846Y-53931D01*
X78794Y-53803D01*
X78740Y-53749D01*
X78793Y-53696D01*
X78807Y-53664D01*
X78841Y-53641D01*
X79141Y-53341D01*
X79141Y-53341D01*
X79170Y-53298D01*
X79184Y-53276D01*
X79184Y-53276D01*
X79199Y-53200D01*
X79200Y-53200D01*
X79200Y-51450D01*
X79200Y-51300D01*
X79199Y-51299D01*
X79184Y-51223D01*
X79184Y-51223D01*
X79170Y-51201D01*
X79141Y-51158D01*
X79141Y-51158D01*
X78900Y-50917D01*
X78900Y-50900D01*
X78862Y-50808D01*
X78791Y-50738D01*
X78699Y-50700D01*
X78600Y-50699D01*
X78508Y-50737D01*
X78438Y-50808D01*
X78400Y-50900D01*
X78399Y-50999D01*
X78437Y-51091D01*
X78508Y-51161D01*
X78600Y-51199D01*
X78617Y-51199D01*
X78800Y-51382D01*
X78800Y-51450D01*
X78800Y-51817D01*
X78794Y-51803D01*
X78696Y-51706D01*
X78569Y-51653D01*
X78431Y-51653D01*
X78309Y-51703D01*
X78281Y-51676D01*
X78226Y-51653D01*
X78218Y-51653D01*
X78218Y-51000D01*
X78218Y-50999D01*
X78202Y-50916D01*
X78154Y-50845D01*
X78154Y-50845D01*
X77518Y-50209D01*
X77518Y-49724D01*
X77549Y-49649D01*
X77550Y-49550D01*
X77512Y-49458D01*
X77441Y-49388D01*
X77366Y-49356D01*
X77024Y-49015D01*
X77025Y-48935D01*
X76975Y-48816D01*
X76884Y-48724D01*
X76764Y-48675D01*
X76740Y-48675D01*
X76740Y-48667D01*
X76740Y-48273D01*
X76717Y-48218D01*
X76675Y-48175D01*
X76620Y-48153D01*
X76560Y-48152D01*
X75469Y-48152D01*
X75469Y-47569D01*
X78883Y-47569D01*
X79292Y-47650D01*
X79626Y-47874D01*
X79848Y-48205D01*
X79930Y-48618D01*
X79930Y-57381D01*
X79930Y-57381D01*
G37*
G54D17*
X79930Y-57381D02*
X79848Y-57794D01*
X79626Y-58125D01*
X79500Y-58210D01*
X79500Y-49411D01*
X79500Y-48230D01*
X79439Y-48083D01*
X79326Y-47970D01*
X79179Y-47909D01*
X79020Y-47909D01*
X78873Y-47970D01*
X78761Y-48082D01*
X78700Y-48229D01*
X78699Y-48388D01*
X78760Y-48535D01*
X78873Y-48648D01*
X79020Y-48709D01*
X79179Y-48709D01*
X79326Y-48648D01*
X79438Y-48536D01*
X79499Y-48389D01*
X79500Y-48230D01*
X79500Y-49411D01*
X79439Y-49264D01*
X79326Y-49151D01*
X79179Y-49090D01*
X79020Y-49090D01*
X78873Y-49151D01*
X78761Y-49263D01*
X78700Y-49410D01*
X78699Y-49569D01*
X78760Y-49716D01*
X78873Y-49829D01*
X79020Y-49890D01*
X79179Y-49890D01*
X79326Y-49829D01*
X79438Y-49717D01*
X79499Y-49570D01*
X79500Y-49411D01*
X79500Y-58210D01*
X79292Y-58349D01*
X78883Y-58430D01*
X76740Y-58430D01*
X76740Y-57667D01*
X76740Y-57332D01*
X76740Y-56667D01*
X76740Y-56332D01*
X76740Y-55667D01*
X76740Y-55332D01*
X76740Y-54667D01*
X76740Y-54332D01*
X76740Y-53667D01*
X76740Y-53332D01*
X76740Y-52667D01*
X76740Y-52332D01*
X76740Y-51667D01*
X76740Y-51332D01*
X76740Y-50667D01*
X76740Y-50332D01*
X76740Y-49667D01*
X76740Y-49587D01*
X76703Y-49550D01*
X76050Y-49550D01*
X76050Y-49809D01*
X76087Y-49847D01*
X76620Y-49847D01*
X76675Y-49824D01*
X76717Y-49782D01*
X76740Y-49726D01*
X76740Y-49667D01*
X76740Y-50332D01*
X76740Y-50273D01*
X76717Y-50217D01*
X76675Y-50175D01*
X76620Y-50152D01*
X76087Y-50153D01*
X76050Y-50190D01*
X76050Y-50450D01*
X76703Y-50450D01*
X76740Y-50412D01*
X76740Y-50332D01*
X76740Y-50667D01*
X76740Y-50587D01*
X76703Y-50550D01*
X76050Y-50550D01*
X76050Y-50809D01*
X76087Y-50847D01*
X76620Y-50847D01*
X76675Y-50824D01*
X76717Y-50782D01*
X76740Y-50726D01*
X76740Y-50667D01*
X76740Y-51332D01*
X76740Y-51273D01*
X76717Y-51217D01*
X76675Y-51175D01*
X76620Y-51152D01*
X76087Y-51153D01*
X76050Y-51190D01*
X76050Y-51450D01*
X76703Y-51450D01*
X76740Y-51412D01*
X76740Y-51332D01*
X76740Y-51667D01*
X76740Y-51587D01*
X76703Y-51550D01*
X76050Y-51550D01*
X76050Y-51809D01*
X76087Y-51847D01*
X76620Y-51847D01*
X76675Y-51824D01*
X76717Y-51782D01*
X76740Y-51726D01*
X76740Y-51667D01*
X76740Y-52332D01*
X76740Y-52273D01*
X76717Y-52217D01*
X76675Y-52175D01*
X76620Y-52152D01*
X76087Y-52153D01*
X76050Y-52190D01*
X76050Y-52450D01*
X76703Y-52450D01*
X76740Y-52412D01*
X76740Y-52332D01*
X76740Y-52667D01*
X76740Y-52587D01*
X76703Y-52550D01*
X76050Y-52550D01*
X76050Y-52809D01*
X76087Y-52847D01*
X76620Y-52847D01*
X76675Y-52824D01*
X76717Y-52782D01*
X76740Y-52726D01*
X76740Y-52667D01*
X76740Y-53332D01*
X76740Y-53273D01*
X76717Y-53217D01*
X76675Y-53175D01*
X76620Y-53152D01*
X76087Y-53153D01*
X76050Y-53190D01*
X76050Y-53450D01*
X76703Y-53450D01*
X76740Y-53412D01*
X76740Y-53332D01*
X76740Y-53667D01*
X76740Y-53587D01*
X76703Y-53550D01*
X76050Y-53550D01*
X76050Y-53809D01*
X76087Y-53847D01*
X76620Y-53847D01*
X76675Y-53824D01*
X76717Y-53782D01*
X76740Y-53726D01*
X76740Y-53667D01*
X76740Y-54332D01*
X76740Y-54273D01*
X76717Y-54217D01*
X76675Y-54175D01*
X76620Y-54152D01*
X76087Y-54153D01*
X76050Y-54190D01*
X76050Y-54450D01*
X76703Y-54450D01*
X76740Y-54412D01*
X76740Y-54332D01*
X76740Y-54667D01*
X76740Y-54587D01*
X76703Y-54550D01*
X76050Y-54550D01*
X76050Y-54809D01*
X76087Y-54847D01*
X76620Y-54847D01*
X76675Y-54824D01*
X76717Y-54782D01*
X76740Y-54726D01*
X76740Y-54667D01*
X76740Y-55332D01*
X76740Y-55273D01*
X76717Y-55217D01*
X76675Y-55175D01*
X76620Y-55152D01*
X76087Y-55153D01*
X76050Y-55190D01*
X76050Y-55450D01*
X76703Y-55450D01*
X76740Y-55412D01*
X76740Y-55332D01*
X76740Y-55667D01*
X76740Y-55587D01*
X76703Y-55550D01*
X76050Y-55550D01*
X76050Y-55809D01*
X76087Y-55847D01*
X76620Y-55847D01*
X76675Y-55824D01*
X76717Y-55782D01*
X76740Y-55726D01*
X76740Y-55667D01*
X76740Y-56332D01*
X76740Y-56273D01*
X76717Y-56217D01*
X76675Y-56175D01*
X76620Y-56152D01*
X76087Y-56153D01*
X76050Y-56190D01*
X76050Y-56450D01*
X76703Y-56450D01*
X76740Y-56412D01*
X76740Y-56332D01*
X76740Y-56667D01*
X76740Y-56587D01*
X76703Y-56550D01*
X76050Y-56550D01*
X76050Y-56809D01*
X76087Y-56847D01*
X76620Y-56847D01*
X76675Y-56824D01*
X76717Y-56782D01*
X76740Y-56726D01*
X76740Y-56667D01*
X76740Y-57332D01*
X76740Y-57273D01*
X76717Y-57217D01*
X76675Y-57175D01*
X76620Y-57152D01*
X76087Y-57153D01*
X76050Y-57190D01*
X76050Y-57450D01*
X76703Y-57450D01*
X76740Y-57412D01*
X76740Y-57332D01*
X76740Y-57667D01*
X76740Y-57587D01*
X76703Y-57550D01*
X76050Y-57550D01*
X76050Y-57809D01*
X76087Y-57847D01*
X76620Y-57847D01*
X76675Y-57824D01*
X76717Y-57782D01*
X76740Y-57726D01*
X76740Y-57667D01*
X76740Y-58430D01*
X75469Y-58430D01*
X75469Y-57847D01*
X75912Y-57847D01*
X75950Y-57809D01*
X75950Y-57550D01*
X75942Y-57550D01*
X75942Y-57450D01*
X75950Y-57450D01*
X75950Y-57190D01*
X75912Y-57153D01*
X75469Y-57152D01*
X75469Y-56847D01*
X75912Y-56847D01*
X75950Y-56809D01*
X75950Y-56550D01*
X75942Y-56550D01*
X75942Y-56450D01*
X75950Y-56450D01*
X75950Y-56190D01*
X75912Y-56153D01*
X75469Y-56152D01*
X75469Y-55847D01*
X75912Y-55847D01*
X75950Y-55809D01*
X75950Y-55550D01*
X75942Y-55550D01*
X75942Y-55450D01*
X75950Y-55450D01*
X75950Y-55190D01*
X75912Y-55153D01*
X75469Y-55152D01*
X75469Y-54847D01*
X75912Y-54847D01*
X75950Y-54809D01*
X75950Y-54550D01*
X75942Y-54550D01*
X75942Y-54450D01*
X75950Y-54450D01*
X75950Y-54190D01*
X75912Y-54153D01*
X75469Y-54152D01*
X75469Y-53847D01*
X75912Y-53847D01*
X75950Y-53809D01*
X75950Y-53550D01*
X75942Y-53550D01*
X75942Y-53450D01*
X75950Y-53450D01*
X75950Y-53190D01*
X75912Y-53153D01*
X75469Y-53152D01*
X75469Y-52847D01*
X75912Y-52847D01*
X75950Y-52809D01*
X75950Y-52550D01*
X75942Y-52550D01*
X75942Y-52450D01*
X75950Y-52450D01*
X75950Y-52190D01*
X75912Y-52153D01*
X75469Y-52152D01*
X75469Y-51847D01*
X75912Y-51847D01*
X75950Y-51809D01*
X75950Y-51550D01*
X75942Y-51550D01*
X75942Y-51450D01*
X75950Y-51450D01*
X75950Y-51190D01*
X75912Y-51153D01*
X75469Y-51152D01*
X75469Y-50847D01*
X75912Y-50847D01*
X75950Y-50809D01*
X75950Y-50550D01*
X75942Y-50550D01*
X75942Y-50450D01*
X75950Y-50450D01*
X75950Y-50190D01*
X75912Y-50153D01*
X75469Y-50152D01*
X75469Y-49847D01*
X75912Y-49847D01*
X75950Y-49809D01*
X75950Y-49550D01*
X75942Y-49550D01*
X75942Y-49450D01*
X75950Y-49450D01*
X75950Y-49190D01*
X75912Y-49153D01*
X75469Y-49152D01*
X75469Y-48847D01*
X76237Y-48847D01*
X76375Y-48984D01*
X76374Y-49064D01*
X76411Y-49152D01*
X76087Y-49153D01*
X76050Y-49190D01*
X76050Y-49450D01*
X76703Y-49450D01*
X76740Y-49412D01*
X76740Y-49350D01*
X77057Y-49666D01*
X77081Y-49724D01*
X77081Y-50300D01*
X77097Y-50383D01*
X77145Y-50454D01*
X77781Y-51090D01*
X77781Y-51653D01*
X77773Y-51653D01*
X77718Y-51675D01*
X77676Y-51718D01*
X77653Y-51773D01*
X77653Y-51832D01*
X77653Y-52226D01*
X77675Y-52281D01*
X77717Y-52323D01*
X77687Y-52334D01*
X77647Y-52466D01*
X77662Y-52604D01*
X77687Y-52665D01*
X77743Y-52685D01*
X77929Y-52500D01*
X77923Y-52494D01*
X77994Y-52423D01*
X78000Y-52429D01*
X78005Y-52423D01*
X78076Y-52494D01*
X78070Y-52500D01*
X78162Y-52592D01*
X78205Y-52696D01*
X78259Y-52750D01*
X78206Y-52803D01*
X78185Y-52853D01*
X78185Y-52756D01*
X78179Y-52750D01*
X78185Y-52743D01*
X78165Y-52687D01*
X78095Y-52666D01*
X78000Y-52570D01*
X77910Y-52660D01*
X77895Y-52662D01*
X77834Y-52687D01*
X77814Y-52743D01*
X77820Y-52750D01*
X77814Y-52756D01*
X77834Y-52812D01*
X77904Y-52833D01*
X78000Y-52929D01*
X78089Y-52839D01*
X78104Y-52837D01*
X78165Y-52812D01*
X78185Y-52756D01*
X78185Y-52853D01*
X78162Y-52908D01*
X78070Y-53000D01*
X78162Y-53092D01*
X78205Y-53196D01*
X78259Y-53250D01*
X78249Y-53259D01*
X78196Y-53206D01*
X78091Y-53162D01*
X78000Y-53070D01*
X77929Y-53141D01*
X77929Y-53000D01*
X77743Y-52814D01*
X77687Y-52834D01*
X77647Y-52966D01*
X77662Y-53104D01*
X77687Y-53165D01*
X77743Y-53185D01*
X77929Y-53000D01*
X77929Y-53141D01*
X77907Y-53162D01*
X77803Y-53205D01*
X77706Y-53303D01*
X77653Y-53430D01*
X77653Y-53568D01*
X77705Y-53696D01*
X77803Y-53793D01*
X77908Y-53837D01*
X78000Y-53929D01*
X78092Y-53837D01*
X78196Y-53794D01*
X78250Y-53740D01*
X78259Y-53750D01*
X78206Y-53803D01*
X78162Y-53908D01*
X78070Y-54000D01*
X78076Y-54005D01*
X78005Y-54076D01*
X78000Y-54070D01*
X77929Y-54141D01*
X77929Y-54000D01*
X77743Y-53814D01*
X77687Y-53834D01*
X77647Y-53966D01*
X77662Y-54104D01*
X77687Y-54165D01*
X77743Y-54185D01*
X77929Y-54000D01*
X77929Y-54141D01*
X77814Y-54256D01*
X77834Y-54312D01*
X77888Y-54328D01*
X77550Y-54667D01*
X77550Y-51050D01*
X77512Y-50958D01*
X77441Y-50888D01*
X77349Y-50850D01*
X77250Y-50849D01*
X77158Y-50887D01*
X77088Y-50958D01*
X77050Y-51050D01*
X77049Y-51149D01*
X77087Y-51241D01*
X77100Y-51253D01*
X77100Y-52117D01*
X76967Y-52249D01*
X76950Y-52249D01*
X76858Y-52287D01*
X76788Y-52358D01*
X76750Y-52450D01*
X76749Y-52549D01*
X76787Y-52641D01*
X76858Y-52711D01*
X76950Y-52749D01*
X77049Y-52750D01*
X77141Y-52712D01*
X77211Y-52641D01*
X77249Y-52549D01*
X77249Y-52532D01*
X77441Y-52341D01*
X77441Y-52341D01*
X77470Y-52298D01*
X77484Y-52276D01*
X77484Y-52276D01*
X77499Y-52200D01*
X77500Y-52200D01*
X77500Y-51253D01*
X77511Y-51241D01*
X77549Y-51149D01*
X77550Y-51050D01*
X77550Y-54667D01*
X76967Y-55249D01*
X76950Y-55249D01*
X76858Y-55287D01*
X76788Y-55358D01*
X76750Y-55450D01*
X76749Y-55549D01*
X76787Y-55641D01*
X76858Y-55711D01*
X76950Y-55749D01*
X77049Y-55750D01*
X77141Y-55712D01*
X77211Y-55641D01*
X77249Y-55549D01*
X77249Y-55532D01*
X78436Y-54346D01*
X78568Y-54346D01*
X78696Y-54294D01*
X78793Y-54196D01*
X78846Y-54069D01*
X78846Y-53931D01*
X78794Y-53803D01*
X78740Y-53749D01*
X78793Y-53696D01*
X78807Y-53664D01*
X78841Y-53641D01*
X79141Y-53341D01*
X79141Y-53341D01*
X79170Y-53298D01*
X79184Y-53276D01*
X79184Y-53276D01*
X79199Y-53200D01*
X79200Y-53200D01*
X79200Y-51450D01*
X79200Y-51300D01*
X79199Y-51299D01*
X79184Y-51223D01*
X79184Y-51223D01*
X79170Y-51201D01*
X79141Y-51158D01*
X79141Y-51158D01*
X78900Y-50917D01*
X78900Y-50900D01*
X78862Y-50808D01*
X78791Y-50738D01*
X78699Y-50700D01*
X78600Y-50699D01*
X78508Y-50737D01*
X78438Y-50808D01*
X78400Y-50900D01*
X78399Y-50999D01*
X78437Y-51091D01*
X78508Y-51161D01*
X78600Y-51199D01*
X78617Y-51199D01*
X78800Y-51382D01*
X78800Y-51450D01*
X78800Y-51817D01*
X78794Y-51803D01*
X78696Y-51706D01*
X78569Y-51653D01*
X78431Y-51653D01*
X78309Y-51703D01*
X78281Y-51676D01*
X78226Y-51653D01*
X78218Y-51653D01*
X78218Y-51000D01*
X78218Y-50999D01*
X78202Y-50916D01*
X78154Y-50845D01*
X78154Y-50845D01*
X77518Y-50209D01*
X77518Y-49724D01*
X77549Y-49649D01*
X77550Y-49550D01*
X77512Y-49458D01*
X77441Y-49388D01*
X77366Y-49356D01*
X77024Y-49015D01*
X77025Y-48935D01*
X76975Y-48816D01*
X76884Y-48724D01*
X76764Y-48675D01*
X76740Y-48675D01*
X76740Y-48667D01*
X76740Y-48273D01*
X76717Y-48218D01*
X76675Y-48175D01*
X76620Y-48153D01*
X76560Y-48152D01*
X75469Y-48152D01*
X75469Y-47569D01*
X78883Y-47569D01*
X79292Y-47650D01*
X79626Y-47874D01*
X79848Y-48205D01*
X79930Y-48618D01*
X79930Y-57381D01*
M02*
