G04 (created by PCBNEW (2013-07-07 BZR 4022)-stable) date 1/31/2014 11:28:53*
%MOIN*%
G04 Gerber Fmt 3.4, Leading zero omitted, Abs format*
%FSLAX34Y34*%
G01*
G70*
G90*
G04 APERTURE LIST*
%ADD10C,0.00590551*%
%ADD11C,0.00472441*%
%ADD12C,0.0688976*%
%ADD13R,0.0393701X0.0393701*%
%ADD14C,0.0393701*%
%ADD15R,0.1181X0.0394*%
G04 APERTURE END LIST*
G54D10*
G54D11*
X78722Y-54837D02*
X78961Y-54837D01*
X78989Y-54825D01*
X79003Y-54813D01*
X79017Y-54788D01*
X79017Y-54752D01*
X79003Y-54727D01*
X78905Y-54837D02*
X78919Y-54813D01*
X78919Y-54764D01*
X78905Y-54740D01*
X78891Y-54727D01*
X78863Y-54715D01*
X78778Y-54715D01*
X78750Y-54727D01*
X78736Y-54740D01*
X78722Y-54764D01*
X78722Y-54813D01*
X78736Y-54837D01*
X78919Y-54959D02*
X78722Y-54959D01*
X78624Y-54959D02*
X78638Y-54947D01*
X78652Y-54959D01*
X78638Y-54971D01*
X78624Y-54959D01*
X78652Y-54959D01*
X78722Y-55044D02*
X78722Y-55142D01*
X78624Y-55081D02*
X78877Y-55081D01*
X78905Y-55093D01*
X78919Y-55117D01*
X78919Y-55142D01*
X78891Y-55227D02*
X78905Y-55239D01*
X78919Y-55227D01*
X78905Y-55215D01*
X78891Y-55227D01*
X78919Y-55227D01*
X78919Y-55349D02*
X78722Y-55349D01*
X78624Y-55349D02*
X78638Y-55337D01*
X78652Y-55349D01*
X78638Y-55361D01*
X78624Y-55349D01*
X78652Y-55349D01*
X78919Y-55507D02*
X78905Y-55483D01*
X78891Y-55471D01*
X78863Y-55458D01*
X78778Y-55458D01*
X78750Y-55471D01*
X78736Y-55483D01*
X78722Y-55507D01*
X78722Y-55544D01*
X78736Y-55568D01*
X78750Y-55580D01*
X78778Y-55593D01*
X78863Y-55593D01*
X78891Y-55580D01*
X78905Y-55568D01*
X78919Y-55544D01*
X78919Y-55507D01*
X78610Y-55885D02*
X78989Y-55666D01*
X78919Y-55970D02*
X78624Y-55970D01*
X78835Y-56056D01*
X78624Y-56141D01*
X78919Y-56141D01*
X78624Y-56263D02*
X78863Y-56263D01*
X78891Y-56275D01*
X78905Y-56287D01*
X78919Y-56311D01*
X78919Y-56360D01*
X78905Y-56385D01*
X78891Y-56397D01*
X78863Y-56409D01*
X78624Y-56409D01*
X78624Y-56494D02*
X78624Y-56641D01*
X78919Y-56567D02*
X78624Y-56567D01*
X78919Y-56762D02*
X78905Y-56738D01*
X78891Y-56726D01*
X78863Y-56714D01*
X78778Y-56714D01*
X78750Y-56726D01*
X78736Y-56738D01*
X78722Y-56762D01*
X78722Y-56799D01*
X78736Y-56823D01*
X78750Y-56835D01*
X78778Y-56848D01*
X78863Y-56848D01*
X78891Y-56835D01*
X78905Y-56823D01*
X78919Y-56799D01*
X78919Y-56762D01*
X78807Y-56957D02*
X78807Y-57152D01*
X78835Y-57262D02*
X78835Y-57384D01*
X78919Y-57238D02*
X78624Y-57323D01*
X78919Y-57408D01*
G54D12*
X78000Y-57000D03*
X78000Y-49000D03*
G54D13*
X78000Y-52000D03*
G54D14*
X78500Y-52000D03*
X78000Y-52500D03*
X78500Y-52500D03*
X78000Y-53000D03*
X78500Y-53000D03*
X78000Y-53500D03*
X78500Y-53500D03*
X78000Y-54000D03*
X78500Y-54000D03*
G54D12*
X78000Y-56000D03*
G54D15*
X76000Y-48500D03*
X76000Y-49500D03*
X76000Y-50500D03*
X76000Y-51500D03*
X76000Y-52500D03*
X76000Y-53500D03*
X76000Y-54500D03*
X76000Y-55500D03*
X76000Y-56500D03*
X76000Y-57500D03*
G54D12*
X78000Y-50000D03*
M02*
