G04 (created by PCBNEW (2013-07-07 BZR 4022)-stable) date 1/29/2014 8:45:00 PM*
%MOIN*%
G04 Gerber Fmt 3.4, Leading zero omitted, Abs format*
%FSLAX34Y34*%
G01*
G70*
G90*
G04 APERTURE LIST*
%ADD10C,0.00590551*%
%ADD11C,0.00472441*%
%ADD12C,0.0049*%
G04 APERTURE END LIST*
G54D10*
G54D11*
X78607Y-57679D02*
X78607Y-57454D01*
X78719Y-57567D02*
X78494Y-57567D01*
X78424Y-57173D02*
X78424Y-57314D01*
X78564Y-57328D01*
X78550Y-57314D01*
X78536Y-57285D01*
X78536Y-57215D01*
X78550Y-57187D01*
X78564Y-57173D01*
X78592Y-57159D01*
X78663Y-57159D01*
X78691Y-57173D01*
X78705Y-57187D01*
X78719Y-57215D01*
X78719Y-57285D01*
X78705Y-57314D01*
X78691Y-57328D01*
X78424Y-57075D02*
X78719Y-56976D01*
X78424Y-56878D01*
X78424Y-49893D02*
X78719Y-49795D01*
X78424Y-49696D01*
X78691Y-49429D02*
X78705Y-49443D01*
X78719Y-49485D01*
X78719Y-49514D01*
X78705Y-49556D01*
X78677Y-49584D01*
X78649Y-49598D01*
X78592Y-49612D01*
X78550Y-49612D01*
X78494Y-49598D01*
X78466Y-49584D01*
X78438Y-49556D01*
X78424Y-49514D01*
X78424Y-49485D01*
X78438Y-49443D01*
X78452Y-49429D01*
X78691Y-49134D02*
X78705Y-49148D01*
X78719Y-49190D01*
X78719Y-49218D01*
X78705Y-49260D01*
X78677Y-49289D01*
X78649Y-49303D01*
X78592Y-49317D01*
X78550Y-49317D01*
X78494Y-49303D01*
X78466Y-49289D01*
X78438Y-49260D01*
X78424Y-49218D01*
X78424Y-49190D01*
X78438Y-49148D01*
X78452Y-49134D01*
X77401Y-51424D02*
X77401Y-51635D01*
X77387Y-51677D01*
X77359Y-51705D01*
X77317Y-51719D01*
X77289Y-51719D01*
X77528Y-51452D02*
X77542Y-51438D01*
X77570Y-51424D01*
X77640Y-51424D01*
X77668Y-51438D01*
X77682Y-51452D01*
X77696Y-51480D01*
X77696Y-51508D01*
X77682Y-51550D01*
X77514Y-51719D01*
X77696Y-51719D01*
X78438Y-56224D02*
X78424Y-56253D01*
X78424Y-56295D01*
X78438Y-56337D01*
X78466Y-56365D01*
X78494Y-56379D01*
X78550Y-56393D01*
X78592Y-56393D01*
X78649Y-56379D01*
X78677Y-56365D01*
X78705Y-56337D01*
X78719Y-56295D01*
X78719Y-56267D01*
X78705Y-56224D01*
X78691Y-56210D01*
X78592Y-56210D01*
X78592Y-56267D01*
X78719Y-56084D02*
X78424Y-56084D01*
X78719Y-55915D01*
X78424Y-55915D01*
X78719Y-55775D02*
X78424Y-55775D01*
X78424Y-55704D01*
X78438Y-55662D01*
X78466Y-55634D01*
X78494Y-55620D01*
X78550Y-55606D01*
X78592Y-55606D01*
X78649Y-55620D01*
X78677Y-55634D01*
X78705Y-55662D01*
X78719Y-55704D01*
X78719Y-55775D01*
X76901Y-48324D02*
X76901Y-48535D01*
X76887Y-48577D01*
X76859Y-48605D01*
X76817Y-48619D01*
X76789Y-48619D01*
X77196Y-48619D02*
X77028Y-48619D01*
X77112Y-48619D02*
X77112Y-48324D01*
X77084Y-48366D01*
X77056Y-48394D01*
X77028Y-48408D01*
G54D12*
X76756Y-48979D02*
X76643Y-48979D01*
X76700Y-48979D02*
X76700Y-48782D01*
X76681Y-48810D01*
X76662Y-48829D01*
X76643Y-48839D01*
M02*
