G04 #@! TF.FileFunction,Copper,L2,Bot,Signal*
%FSLAX46Y46*%
G04 Gerber Fmt 4.6, Leading zero omitted, Abs format (unit mm)*
G04 Created by KiCad (PCBNEW 4.0.0-rc2-stable) date 11/11/2015 9:02:01 AM*
%MOMM*%
G01*
G04 APERTURE LIST*
%ADD10C,0.150000*%
%ADD11R,1.000000X1.000000*%
%ADD12C,1.000000*%
%ADD13C,1.270000*%
%ADD14R,1.750000X1.750000*%
%ADD15C,1.750000*%
%ADD16C,0.508000*%
%ADD17C,0.254000*%
G04 APERTURE END LIST*
D10*
D11*
X209677000Y-163830000D03*
D12*
X210947000Y-163830000D03*
X209677000Y-165100000D03*
X210947000Y-165100000D03*
X209677000Y-166370000D03*
X210947000Y-166370000D03*
X209677000Y-167640000D03*
X210947000Y-167640000D03*
X209677000Y-168910000D03*
X210947000Y-168910000D03*
D13*
X208050000Y-154051000D03*
X211050000Y-154051000D03*
D14*
X202565000Y-154940000D03*
D15*
X200025000Y-154940000D03*
X202565000Y-157480000D03*
X200025000Y-157480000D03*
X202565000Y-160020000D03*
X200025000Y-160020000D03*
X202565000Y-162560000D03*
X200025000Y-162560000D03*
X202565000Y-165100000D03*
X200025000Y-165100000D03*
X202565000Y-167640000D03*
X200025000Y-167640000D03*
X202565000Y-170180000D03*
X200025000Y-170180000D03*
X202565000Y-172720000D03*
X200025000Y-172720000D03*
X202565000Y-175260000D03*
X200025000Y-175260000D03*
X202565000Y-177800000D03*
X200025000Y-177800000D03*
D16*
X210566000Y-171069000D03*
X210820000Y-161544000D03*
X206502000Y-157734000D03*
D17*
X202565000Y-172720000D02*
X208915000Y-172720000D01*
X209327750Y-172307250D02*
X210566000Y-171069000D01*
X208915000Y-172720000D02*
X209327750Y-172307250D01*
X202565000Y-167640000D02*
X209550000Y-167640000D01*
X209169000Y-167640000D02*
X209550000Y-167640000D01*
X209550000Y-167640000D02*
X210312000Y-167640000D01*
X202565000Y-170180000D02*
X212534500Y-170180000D01*
X212534500Y-170180000D02*
X212788500Y-169926000D01*
X212344000Y-166370000D02*
X211582000Y-166370000D01*
X212788500Y-166814500D02*
X212344000Y-166370000D01*
X212788500Y-169926000D02*
X212788500Y-169545000D01*
X212788500Y-169545000D02*
X212788500Y-169608500D01*
X212788500Y-169545000D02*
X212788500Y-166814500D01*
X202565000Y-165100000D02*
X206375000Y-165100000D01*
X212725000Y-164401500D02*
X212026500Y-165100000D01*
X212725000Y-162814000D02*
X212725000Y-164401500D01*
X212153500Y-162242500D02*
X212725000Y-162814000D01*
X209232500Y-162242500D02*
X212153500Y-162242500D01*
X206375000Y-165100000D02*
X209232500Y-162242500D01*
X212026500Y-165100000D02*
X211582000Y-165100000D01*
X208216500Y-162496500D02*
X202628500Y-162496500D01*
X202628500Y-162496500D02*
X202565000Y-162560000D01*
X210820000Y-161544000D02*
X209169000Y-161544000D01*
X209169000Y-161544000D02*
X209042000Y-161671000D01*
X208216500Y-162496500D02*
X209042000Y-161671000D01*
X202565000Y-154940000D02*
X205359000Y-157734000D01*
X205359000Y-157734000D02*
X206502000Y-157734000D01*
X202565000Y-154940000D02*
X200025000Y-154940000D01*
G36*
X212639848Y-152110339D02*
X213321317Y-152565683D01*
X213776661Y-153247152D01*
X213945000Y-154093448D01*
X213945000Y-178646552D01*
X213776661Y-179492848D01*
X213321317Y-180174317D01*
X212639848Y-180629661D01*
X211793552Y-180798000D01*
X200067448Y-180798000D01*
X199221152Y-180629661D01*
X198539683Y-180174317D01*
X198084339Y-179492848D01*
X197916000Y-178646552D01*
X197916000Y-178638527D01*
X199187180Y-178638527D01*
X199272684Y-178836326D01*
X199726535Y-179045339D01*
X200225825Y-179064760D01*
X200694540Y-178891634D01*
X200777316Y-178836326D01*
X200862820Y-178638527D01*
X200025000Y-177800707D01*
X199187180Y-178638527D01*
X197916000Y-178638527D01*
X197916000Y-178000825D01*
X198760240Y-178000825D01*
X198933366Y-178469540D01*
X198988674Y-178552316D01*
X199186473Y-178637820D01*
X200024293Y-177800000D01*
X200025707Y-177800000D01*
X200863527Y-178637820D01*
X201061326Y-178552316D01*
X201270339Y-178098465D01*
X201272273Y-178048738D01*
X201308783Y-178048738D01*
X201499595Y-178510537D01*
X201852604Y-178864164D01*
X202314070Y-179055781D01*
X202813738Y-179056217D01*
X203275537Y-178865405D01*
X203629164Y-178512396D01*
X203820781Y-178050930D01*
X203821217Y-177551262D01*
X203630405Y-177089463D01*
X203277396Y-176735836D01*
X202815930Y-176544219D01*
X202316262Y-176543783D01*
X201854463Y-176734595D01*
X201500836Y-177087604D01*
X201309219Y-177549070D01*
X201308783Y-178048738D01*
X201272273Y-178048738D01*
X201289760Y-177599175D01*
X201116634Y-177130460D01*
X201061326Y-177047684D01*
X200863527Y-176962180D01*
X200025707Y-177800000D01*
X200024293Y-177800000D01*
X199186473Y-176962180D01*
X198988674Y-177047684D01*
X198779661Y-177501535D01*
X198760240Y-178000825D01*
X197916000Y-178000825D01*
X197916000Y-176961473D01*
X199187180Y-176961473D01*
X200025000Y-177799293D01*
X200862820Y-176961473D01*
X200777316Y-176763674D01*
X200323465Y-176554661D01*
X199824175Y-176535240D01*
X199355460Y-176708366D01*
X199272684Y-176763674D01*
X199187180Y-176961473D01*
X197916000Y-176961473D01*
X197916000Y-176098527D01*
X199187180Y-176098527D01*
X199272684Y-176296326D01*
X199726535Y-176505339D01*
X200225825Y-176524760D01*
X200694540Y-176351634D01*
X200777316Y-176296326D01*
X200862820Y-176098527D01*
X200025000Y-175260707D01*
X199187180Y-176098527D01*
X197916000Y-176098527D01*
X197916000Y-175460825D01*
X198760240Y-175460825D01*
X198933366Y-175929540D01*
X198988674Y-176012316D01*
X199186473Y-176097820D01*
X200024293Y-175260000D01*
X200025707Y-175260000D01*
X200863527Y-176097820D01*
X201061326Y-176012316D01*
X201270339Y-175558465D01*
X201272273Y-175508738D01*
X201308783Y-175508738D01*
X201499595Y-175970537D01*
X201852604Y-176324164D01*
X202314070Y-176515781D01*
X202813738Y-176516217D01*
X203275537Y-176325405D01*
X203629164Y-175972396D01*
X203820781Y-175510930D01*
X203821217Y-175011262D01*
X203630405Y-174549463D01*
X203277396Y-174195836D01*
X202815930Y-174004219D01*
X202316262Y-174003783D01*
X201854463Y-174194595D01*
X201500836Y-174547604D01*
X201309219Y-175009070D01*
X201308783Y-175508738D01*
X201272273Y-175508738D01*
X201289760Y-175059175D01*
X201116634Y-174590460D01*
X201061326Y-174507684D01*
X200863527Y-174422180D01*
X200025707Y-175260000D01*
X200024293Y-175260000D01*
X199186473Y-174422180D01*
X198988674Y-174507684D01*
X198779661Y-174961535D01*
X198760240Y-175460825D01*
X197916000Y-175460825D01*
X197916000Y-174421473D01*
X199187180Y-174421473D01*
X200025000Y-175259293D01*
X200862820Y-174421473D01*
X200777316Y-174223674D01*
X200323465Y-174014661D01*
X199824175Y-173995240D01*
X199355460Y-174168366D01*
X199272684Y-174223674D01*
X199187180Y-174421473D01*
X197916000Y-174421473D01*
X197916000Y-173558527D01*
X199187180Y-173558527D01*
X199272684Y-173756326D01*
X199726535Y-173965339D01*
X200225825Y-173984760D01*
X200694540Y-173811634D01*
X200777316Y-173756326D01*
X200862820Y-173558527D01*
X200025000Y-172720707D01*
X199187180Y-173558527D01*
X197916000Y-173558527D01*
X197916000Y-172920825D01*
X198760240Y-172920825D01*
X198933366Y-173389540D01*
X198988674Y-173472316D01*
X199186473Y-173557820D01*
X200024293Y-172720000D01*
X200025707Y-172720000D01*
X200863527Y-173557820D01*
X201061326Y-173472316D01*
X201270339Y-173018465D01*
X201289760Y-172519175D01*
X201116634Y-172050460D01*
X201061326Y-171967684D01*
X200863527Y-171882180D01*
X200025707Y-172720000D01*
X200024293Y-172720000D01*
X199186473Y-171882180D01*
X198988674Y-171967684D01*
X198779661Y-172421535D01*
X198760240Y-172920825D01*
X197916000Y-172920825D01*
X197916000Y-171881473D01*
X199187180Y-171881473D01*
X200025000Y-172719293D01*
X200862820Y-171881473D01*
X200777316Y-171683674D01*
X200323465Y-171474661D01*
X199824175Y-171455240D01*
X199355460Y-171628366D01*
X199272684Y-171683674D01*
X199187180Y-171881473D01*
X197916000Y-171881473D01*
X197916000Y-171018527D01*
X199187180Y-171018527D01*
X199272684Y-171216326D01*
X199726535Y-171425339D01*
X200225825Y-171444760D01*
X200694540Y-171271634D01*
X200777316Y-171216326D01*
X200862820Y-171018527D01*
X200025000Y-170180707D01*
X199187180Y-171018527D01*
X197916000Y-171018527D01*
X197916000Y-170380825D01*
X198760240Y-170380825D01*
X198933366Y-170849540D01*
X198988674Y-170932316D01*
X199186473Y-171017820D01*
X200024293Y-170180000D01*
X200025707Y-170180000D01*
X200863527Y-171017820D01*
X201061326Y-170932316D01*
X201270339Y-170478465D01*
X201289760Y-169979175D01*
X201116634Y-169510460D01*
X201061326Y-169427684D01*
X200863527Y-169342180D01*
X200025707Y-170180000D01*
X200024293Y-170180000D01*
X199186473Y-169342180D01*
X198988674Y-169427684D01*
X198779661Y-169881535D01*
X198760240Y-170380825D01*
X197916000Y-170380825D01*
X197916000Y-169341473D01*
X199187180Y-169341473D01*
X200025000Y-170179293D01*
X200862820Y-169341473D01*
X200777316Y-169143674D01*
X200323465Y-168934661D01*
X199824175Y-168915240D01*
X199355460Y-169088366D01*
X199272684Y-169143674D01*
X199187180Y-169341473D01*
X197916000Y-169341473D01*
X197916000Y-168478527D01*
X199187180Y-168478527D01*
X199272684Y-168676326D01*
X199726535Y-168885339D01*
X200225825Y-168904760D01*
X200694540Y-168731634D01*
X200777316Y-168676326D01*
X200862820Y-168478527D01*
X200025000Y-167640707D01*
X199187180Y-168478527D01*
X197916000Y-168478527D01*
X197916000Y-167840825D01*
X198760240Y-167840825D01*
X198933366Y-168309540D01*
X198988674Y-168392316D01*
X199186473Y-168477820D01*
X200024293Y-167640000D01*
X200025707Y-167640000D01*
X200863527Y-168477820D01*
X201061326Y-168392316D01*
X201270339Y-167938465D01*
X201289760Y-167439175D01*
X201116634Y-166970460D01*
X201061326Y-166887684D01*
X200863527Y-166802180D01*
X200025707Y-167640000D01*
X200024293Y-167640000D01*
X199186473Y-166802180D01*
X198988674Y-166887684D01*
X198779661Y-167341535D01*
X198760240Y-167840825D01*
X197916000Y-167840825D01*
X197916000Y-166801473D01*
X199187180Y-166801473D01*
X200025000Y-167639293D01*
X200862820Y-166801473D01*
X200777316Y-166603674D01*
X200323465Y-166394661D01*
X199824175Y-166375240D01*
X199355460Y-166548366D01*
X199272684Y-166603674D01*
X199187180Y-166801473D01*
X197916000Y-166801473D01*
X197916000Y-165938527D01*
X199187180Y-165938527D01*
X199272684Y-166136326D01*
X199726535Y-166345339D01*
X200225825Y-166364760D01*
X200694540Y-166191634D01*
X200777316Y-166136326D01*
X200862820Y-165938527D01*
X200025000Y-165100707D01*
X199187180Y-165938527D01*
X197916000Y-165938527D01*
X197916000Y-165300825D01*
X198760240Y-165300825D01*
X198933366Y-165769540D01*
X198988674Y-165852316D01*
X199186473Y-165937820D01*
X200024293Y-165100000D01*
X200025707Y-165100000D01*
X200863527Y-165937820D01*
X201061326Y-165852316D01*
X201270339Y-165398465D01*
X201289760Y-164899175D01*
X201116634Y-164430460D01*
X201061326Y-164347684D01*
X200863527Y-164262180D01*
X200025707Y-165100000D01*
X200024293Y-165100000D01*
X199186473Y-164262180D01*
X198988674Y-164347684D01*
X198779661Y-164801535D01*
X198760240Y-165300825D01*
X197916000Y-165300825D01*
X197916000Y-164261473D01*
X199187180Y-164261473D01*
X200025000Y-165099293D01*
X200862820Y-164261473D01*
X200777316Y-164063674D01*
X200323465Y-163854661D01*
X199824175Y-163835240D01*
X199355460Y-164008366D01*
X199272684Y-164063674D01*
X199187180Y-164261473D01*
X197916000Y-164261473D01*
X197916000Y-163398527D01*
X199187180Y-163398527D01*
X199272684Y-163596326D01*
X199726535Y-163805339D01*
X200225825Y-163824760D01*
X200694540Y-163651634D01*
X200777316Y-163596326D01*
X200862820Y-163398527D01*
X200025000Y-162560707D01*
X199187180Y-163398527D01*
X197916000Y-163398527D01*
X197916000Y-162760825D01*
X198760240Y-162760825D01*
X198933366Y-163229540D01*
X198988674Y-163312316D01*
X199186473Y-163397820D01*
X200024293Y-162560000D01*
X200025707Y-162560000D01*
X200863527Y-163397820D01*
X201061326Y-163312316D01*
X201270339Y-162858465D01*
X201272273Y-162808738D01*
X201308783Y-162808738D01*
X201499595Y-163270537D01*
X201852604Y-163624164D01*
X202314070Y-163815781D01*
X202813738Y-163816217D01*
X203275537Y-163625405D01*
X203629164Y-163272396D01*
X203740404Y-163004500D01*
X207752080Y-163004500D01*
X206164580Y-164592000D01*
X203714092Y-164592000D01*
X203630405Y-164389463D01*
X203277396Y-164035836D01*
X202815930Y-163844219D01*
X202316262Y-163843783D01*
X201854463Y-164034595D01*
X201500836Y-164387604D01*
X201309219Y-164849070D01*
X201308783Y-165348738D01*
X201499595Y-165810537D01*
X201852604Y-166164164D01*
X202314070Y-166355781D01*
X202813738Y-166356217D01*
X203275537Y-166165405D01*
X203629164Y-165812396D01*
X203689052Y-165668167D01*
X209109540Y-165668167D01*
X209126321Y-165735000D01*
X209109540Y-165801833D01*
X209677000Y-166369293D01*
X210244460Y-165801833D01*
X210227679Y-165735000D01*
X210244460Y-165668167D01*
X209677000Y-165100707D01*
X209109540Y-165668167D01*
X203689052Y-165668167D01*
X203714036Y-165608000D01*
X206375000Y-165608000D01*
X206569403Y-165569331D01*
X206734210Y-165459210D01*
X208788536Y-163404884D01*
X208788536Y-164330000D01*
X208815103Y-164471190D01*
X208898546Y-164600865D01*
X208927726Y-164620803D01*
X208803442Y-164890792D01*
X208789878Y-165241013D01*
X208911370Y-165569766D01*
X208949998Y-165627579D01*
X209108833Y-165667460D01*
X209676293Y-165100000D01*
X209662151Y-165085858D01*
X209662858Y-165085151D01*
X209677000Y-165099293D01*
X209691143Y-165085151D01*
X209691850Y-165085858D01*
X209677707Y-165100000D01*
X210245167Y-165667460D01*
X210263931Y-165662749D01*
X210336077Y-165735021D01*
X210263763Y-165807209D01*
X210245167Y-165802540D01*
X209677707Y-166370000D01*
X210245167Y-166937460D01*
X210263931Y-166932749D01*
X210336077Y-167005021D01*
X210311979Y-167029077D01*
X210239791Y-166956763D01*
X210244460Y-166938167D01*
X209677000Y-166370707D01*
X209109540Y-166938167D01*
X209114251Y-166956931D01*
X208938876Y-167132000D01*
X203714092Y-167132000D01*
X203630405Y-166929463D01*
X203277396Y-166575836D01*
X203121285Y-166511013D01*
X208789878Y-166511013D01*
X208911370Y-166839766D01*
X208949998Y-166897579D01*
X209108833Y-166937460D01*
X209676293Y-166370000D01*
X209108833Y-165802540D01*
X208949998Y-165842421D01*
X208803442Y-166160792D01*
X208789878Y-166511013D01*
X203121285Y-166511013D01*
X202815930Y-166384219D01*
X202316262Y-166383783D01*
X201854463Y-166574595D01*
X201500836Y-166927604D01*
X201309219Y-167389070D01*
X201308783Y-167888738D01*
X201499595Y-168350537D01*
X201852604Y-168704164D01*
X202314070Y-168895781D01*
X202813738Y-168896217D01*
X203275537Y-168705405D01*
X203629164Y-168352396D01*
X203714036Y-168148000D01*
X208939277Y-168148000D01*
X209114209Y-168323237D01*
X209109540Y-168341833D01*
X209677000Y-168909293D01*
X210244460Y-168341833D01*
X210239749Y-168323069D01*
X210312021Y-168250923D01*
X210336077Y-168275021D01*
X210263763Y-168347209D01*
X210245167Y-168342540D01*
X209677707Y-168910000D01*
X210245167Y-169477460D01*
X210263931Y-169472749D01*
X210447302Y-169656440D01*
X210484775Y-169672000D01*
X210152199Y-169672000D01*
X210204579Y-169637002D01*
X210244460Y-169478167D01*
X209677000Y-168910707D01*
X209109540Y-169478167D01*
X209149421Y-169637002D01*
X209225449Y-169672000D01*
X203714092Y-169672000D01*
X203630405Y-169469463D01*
X203277396Y-169115836D01*
X203121285Y-169051013D01*
X208789878Y-169051013D01*
X208911370Y-169379766D01*
X208949998Y-169437579D01*
X209108833Y-169477460D01*
X209676293Y-168910000D01*
X209108833Y-168342540D01*
X208949998Y-168382421D01*
X208803442Y-168700792D01*
X208789878Y-169051013D01*
X203121285Y-169051013D01*
X202815930Y-168924219D01*
X202316262Y-168923783D01*
X201854463Y-169114595D01*
X201500836Y-169467604D01*
X201309219Y-169929070D01*
X201308783Y-170428738D01*
X201499595Y-170890537D01*
X201852604Y-171244164D01*
X202314070Y-171435781D01*
X202813738Y-171436217D01*
X203275537Y-171245405D01*
X203629164Y-170892396D01*
X203714036Y-170688000D01*
X210048856Y-170688000D01*
X210027987Y-170708832D01*
X209931111Y-170942137D01*
X209931073Y-170985507D01*
X208704580Y-172212000D01*
X203714092Y-172212000D01*
X203630405Y-172009463D01*
X203277396Y-171655836D01*
X202815930Y-171464219D01*
X202316262Y-171463783D01*
X201854463Y-171654595D01*
X201500836Y-172007604D01*
X201309219Y-172469070D01*
X201308783Y-172968738D01*
X201499595Y-173430537D01*
X201852604Y-173784164D01*
X202314070Y-173975781D01*
X202813738Y-173976217D01*
X203275537Y-173785405D01*
X203629164Y-173432396D01*
X203714036Y-173228000D01*
X208915000Y-173228000D01*
X209109403Y-173189331D01*
X209274210Y-173079210D01*
X210649347Y-171704073D01*
X210691755Y-171704110D01*
X210925228Y-171607640D01*
X211104013Y-171429168D01*
X211200889Y-171195863D01*
X211201110Y-170943245D01*
X211104640Y-170709772D01*
X211082906Y-170688000D01*
X212534500Y-170688000D01*
X212728903Y-170649331D01*
X212893710Y-170539210D01*
X213147710Y-170285210D01*
X213257831Y-170120404D01*
X213271238Y-170053000D01*
X213296500Y-169926000D01*
X213296500Y-166814500D01*
X213257831Y-166620097D01*
X213147710Y-166455290D01*
X212703210Y-166010790D01*
X212538403Y-165900669D01*
X212344000Y-165862000D01*
X211684723Y-165862000D01*
X211557923Y-165734979D01*
X211685124Y-165608000D01*
X212026500Y-165608000D01*
X212220903Y-165569331D01*
X212385710Y-165459210D01*
X213084210Y-164760710D01*
X213194331Y-164595904D01*
X213233000Y-164401500D01*
X213233000Y-162814000D01*
X213194331Y-162619597D01*
X213084210Y-162454790D01*
X212512710Y-161883290D01*
X212347903Y-161773169D01*
X212153500Y-161734500D01*
X211428465Y-161734500D01*
X211454889Y-161670863D01*
X211455110Y-161418245D01*
X211358640Y-161184772D01*
X211180168Y-161005987D01*
X210946863Y-160909111D01*
X210694245Y-160908890D01*
X210460772Y-161005360D01*
X210430078Y-161036000D01*
X209169000Y-161036000D01*
X208974596Y-161074669D01*
X208809790Y-161184790D01*
X208006080Y-161988500D01*
X203687854Y-161988500D01*
X203630405Y-161849463D01*
X203277396Y-161495836D01*
X202815930Y-161304219D01*
X202316262Y-161303783D01*
X201854463Y-161494595D01*
X201500836Y-161847604D01*
X201309219Y-162309070D01*
X201308783Y-162808738D01*
X201272273Y-162808738D01*
X201289760Y-162359175D01*
X201116634Y-161890460D01*
X201061326Y-161807684D01*
X200863527Y-161722180D01*
X200025707Y-162560000D01*
X200024293Y-162560000D01*
X199186473Y-161722180D01*
X198988674Y-161807684D01*
X198779661Y-162261535D01*
X198760240Y-162760825D01*
X197916000Y-162760825D01*
X197916000Y-161721473D01*
X199187180Y-161721473D01*
X200025000Y-162559293D01*
X200862820Y-161721473D01*
X200777316Y-161523674D01*
X200323465Y-161314661D01*
X199824175Y-161295240D01*
X199355460Y-161468366D01*
X199272684Y-161523674D01*
X199187180Y-161721473D01*
X197916000Y-161721473D01*
X197916000Y-160858527D01*
X199187180Y-160858527D01*
X199272684Y-161056326D01*
X199726535Y-161265339D01*
X200225825Y-161284760D01*
X200694540Y-161111634D01*
X200777316Y-161056326D01*
X200862820Y-160858527D01*
X200025000Y-160020707D01*
X199187180Y-160858527D01*
X197916000Y-160858527D01*
X197916000Y-160220825D01*
X198760240Y-160220825D01*
X198933366Y-160689540D01*
X198988674Y-160772316D01*
X199186473Y-160857820D01*
X200024293Y-160020000D01*
X200025707Y-160020000D01*
X200863527Y-160857820D01*
X201061326Y-160772316D01*
X201270339Y-160318465D01*
X201272273Y-160268738D01*
X201308783Y-160268738D01*
X201499595Y-160730537D01*
X201852604Y-161084164D01*
X202314070Y-161275781D01*
X202813738Y-161276217D01*
X203275537Y-161085405D01*
X203629164Y-160732396D01*
X203820781Y-160270930D01*
X203821217Y-159771262D01*
X203630405Y-159309463D01*
X203277396Y-158955836D01*
X202815930Y-158764219D01*
X202316262Y-158763783D01*
X201854463Y-158954595D01*
X201500836Y-159307604D01*
X201309219Y-159769070D01*
X201308783Y-160268738D01*
X201272273Y-160268738D01*
X201289760Y-159819175D01*
X201116634Y-159350460D01*
X201061326Y-159267684D01*
X200863527Y-159182180D01*
X200025707Y-160020000D01*
X200024293Y-160020000D01*
X199186473Y-159182180D01*
X198988674Y-159267684D01*
X198779661Y-159721535D01*
X198760240Y-160220825D01*
X197916000Y-160220825D01*
X197916000Y-159181473D01*
X199187180Y-159181473D01*
X200025000Y-160019293D01*
X200862820Y-159181473D01*
X200777316Y-158983674D01*
X200323465Y-158774661D01*
X199824175Y-158755240D01*
X199355460Y-158928366D01*
X199272684Y-158983674D01*
X199187180Y-159181473D01*
X197916000Y-159181473D01*
X197916000Y-158318527D01*
X199187180Y-158318527D01*
X199272684Y-158516326D01*
X199726535Y-158725339D01*
X200225825Y-158744760D01*
X200694540Y-158571634D01*
X200777316Y-158516326D01*
X200862820Y-158318527D01*
X200025000Y-157480707D01*
X199187180Y-158318527D01*
X197916000Y-158318527D01*
X197916000Y-157680825D01*
X198760240Y-157680825D01*
X198933366Y-158149540D01*
X198988674Y-158232316D01*
X199186473Y-158317820D01*
X200024293Y-157480000D01*
X200025707Y-157480000D01*
X200863527Y-158317820D01*
X201061326Y-158232316D01*
X201270339Y-157778465D01*
X201272273Y-157728738D01*
X201308783Y-157728738D01*
X201499595Y-158190537D01*
X201852604Y-158544164D01*
X202314070Y-158735781D01*
X202813738Y-158736217D01*
X203275537Y-158545405D01*
X203629164Y-158192396D01*
X203820781Y-157730930D01*
X203821217Y-157231262D01*
X203630405Y-156769463D01*
X203277396Y-156415836D01*
X202815930Y-156224219D01*
X202316262Y-156223783D01*
X201854463Y-156414595D01*
X201500836Y-156767604D01*
X201309219Y-157229070D01*
X201308783Y-157728738D01*
X201272273Y-157728738D01*
X201289760Y-157279175D01*
X201116634Y-156810460D01*
X201061326Y-156727684D01*
X200863527Y-156642180D01*
X200025707Y-157480000D01*
X200024293Y-157480000D01*
X199186473Y-156642180D01*
X198988674Y-156727684D01*
X198779661Y-157181535D01*
X198760240Y-157680825D01*
X197916000Y-157680825D01*
X197916000Y-156641473D01*
X199187180Y-156641473D01*
X200025000Y-157479293D01*
X200862820Y-156641473D01*
X200777316Y-156443674D01*
X200323465Y-156234661D01*
X199824175Y-156215240D01*
X199355460Y-156388366D01*
X199272684Y-156443674D01*
X199187180Y-156641473D01*
X197916000Y-156641473D01*
X197916000Y-155188738D01*
X198768783Y-155188738D01*
X198959595Y-155650537D01*
X199312604Y-156004164D01*
X199774070Y-156195781D01*
X200273738Y-156196217D01*
X200735537Y-156005405D01*
X201089164Y-155652396D01*
X201174036Y-155448000D01*
X201301536Y-155448000D01*
X201301536Y-155815000D01*
X201328103Y-155956190D01*
X201411546Y-156085865D01*
X201538866Y-156172859D01*
X201690000Y-156203464D01*
X203110044Y-156203464D01*
X204999790Y-158093210D01*
X205164597Y-158203331D01*
X205359000Y-158242000D01*
X206111872Y-158242000D01*
X206141832Y-158272013D01*
X206375137Y-158368889D01*
X206627755Y-158369110D01*
X206861228Y-158272640D01*
X207040013Y-158094168D01*
X207136889Y-157860863D01*
X207137110Y-157608245D01*
X207040640Y-157374772D01*
X206862168Y-157195987D01*
X206628863Y-157099111D01*
X206376245Y-157098890D01*
X206142772Y-157195360D01*
X206112078Y-157226000D01*
X205569420Y-157226000D01*
X203828464Y-155485044D01*
X203828464Y-154252208D01*
X207033824Y-154252208D01*
X207188175Y-154625766D01*
X207473731Y-154911821D01*
X207847018Y-155066824D01*
X208251208Y-155067176D01*
X208624766Y-154912825D01*
X208910821Y-154627269D01*
X209065824Y-154253982D01*
X209065825Y-154252208D01*
X210033824Y-154252208D01*
X210188175Y-154625766D01*
X210473731Y-154911821D01*
X210847018Y-155066824D01*
X211251208Y-155067176D01*
X211624766Y-154912825D01*
X211910821Y-154627269D01*
X212065824Y-154253982D01*
X212066176Y-153849792D01*
X211911825Y-153476234D01*
X211626269Y-153190179D01*
X211252982Y-153035176D01*
X210848792Y-153034824D01*
X210475234Y-153189175D01*
X210189179Y-153474731D01*
X210034176Y-153848018D01*
X210033824Y-154252208D01*
X209065825Y-154252208D01*
X209066176Y-153849792D01*
X208911825Y-153476234D01*
X208626269Y-153190179D01*
X208252982Y-153035176D01*
X207848792Y-153034824D01*
X207475234Y-153189175D01*
X207189179Y-153474731D01*
X207034176Y-153848018D01*
X207033824Y-154252208D01*
X203828464Y-154252208D01*
X203828464Y-154065000D01*
X203801897Y-153923810D01*
X203718454Y-153794135D01*
X203591134Y-153707141D01*
X203440000Y-153676536D01*
X201690000Y-153676536D01*
X201548810Y-153703103D01*
X201419135Y-153786546D01*
X201332141Y-153913866D01*
X201301536Y-154065000D01*
X201301536Y-154432000D01*
X201174092Y-154432000D01*
X201090405Y-154229463D01*
X200737396Y-153875836D01*
X200275930Y-153684219D01*
X199776262Y-153683783D01*
X199314463Y-153874595D01*
X198960836Y-154227604D01*
X198769219Y-154689070D01*
X198768783Y-155188738D01*
X197916000Y-155188738D01*
X197916000Y-154093448D01*
X198084339Y-153247152D01*
X198539683Y-152565683D01*
X199221152Y-152110339D01*
X200067448Y-151942000D01*
X211793552Y-151942000D01*
X212639848Y-152110339D01*
X212639848Y-152110339D01*
G37*
X212639848Y-152110339D02*
X213321317Y-152565683D01*
X213776661Y-153247152D01*
X213945000Y-154093448D01*
X213945000Y-178646552D01*
X213776661Y-179492848D01*
X213321317Y-180174317D01*
X212639848Y-180629661D01*
X211793552Y-180798000D01*
X200067448Y-180798000D01*
X199221152Y-180629661D01*
X198539683Y-180174317D01*
X198084339Y-179492848D01*
X197916000Y-178646552D01*
X197916000Y-178638527D01*
X199187180Y-178638527D01*
X199272684Y-178836326D01*
X199726535Y-179045339D01*
X200225825Y-179064760D01*
X200694540Y-178891634D01*
X200777316Y-178836326D01*
X200862820Y-178638527D01*
X200025000Y-177800707D01*
X199187180Y-178638527D01*
X197916000Y-178638527D01*
X197916000Y-178000825D01*
X198760240Y-178000825D01*
X198933366Y-178469540D01*
X198988674Y-178552316D01*
X199186473Y-178637820D01*
X200024293Y-177800000D01*
X200025707Y-177800000D01*
X200863527Y-178637820D01*
X201061326Y-178552316D01*
X201270339Y-178098465D01*
X201272273Y-178048738D01*
X201308783Y-178048738D01*
X201499595Y-178510537D01*
X201852604Y-178864164D01*
X202314070Y-179055781D01*
X202813738Y-179056217D01*
X203275537Y-178865405D01*
X203629164Y-178512396D01*
X203820781Y-178050930D01*
X203821217Y-177551262D01*
X203630405Y-177089463D01*
X203277396Y-176735836D01*
X202815930Y-176544219D01*
X202316262Y-176543783D01*
X201854463Y-176734595D01*
X201500836Y-177087604D01*
X201309219Y-177549070D01*
X201308783Y-178048738D01*
X201272273Y-178048738D01*
X201289760Y-177599175D01*
X201116634Y-177130460D01*
X201061326Y-177047684D01*
X200863527Y-176962180D01*
X200025707Y-177800000D01*
X200024293Y-177800000D01*
X199186473Y-176962180D01*
X198988674Y-177047684D01*
X198779661Y-177501535D01*
X198760240Y-178000825D01*
X197916000Y-178000825D01*
X197916000Y-176961473D01*
X199187180Y-176961473D01*
X200025000Y-177799293D01*
X200862820Y-176961473D01*
X200777316Y-176763674D01*
X200323465Y-176554661D01*
X199824175Y-176535240D01*
X199355460Y-176708366D01*
X199272684Y-176763674D01*
X199187180Y-176961473D01*
X197916000Y-176961473D01*
X197916000Y-176098527D01*
X199187180Y-176098527D01*
X199272684Y-176296326D01*
X199726535Y-176505339D01*
X200225825Y-176524760D01*
X200694540Y-176351634D01*
X200777316Y-176296326D01*
X200862820Y-176098527D01*
X200025000Y-175260707D01*
X199187180Y-176098527D01*
X197916000Y-176098527D01*
X197916000Y-175460825D01*
X198760240Y-175460825D01*
X198933366Y-175929540D01*
X198988674Y-176012316D01*
X199186473Y-176097820D01*
X200024293Y-175260000D01*
X200025707Y-175260000D01*
X200863527Y-176097820D01*
X201061326Y-176012316D01*
X201270339Y-175558465D01*
X201272273Y-175508738D01*
X201308783Y-175508738D01*
X201499595Y-175970537D01*
X201852604Y-176324164D01*
X202314070Y-176515781D01*
X202813738Y-176516217D01*
X203275537Y-176325405D01*
X203629164Y-175972396D01*
X203820781Y-175510930D01*
X203821217Y-175011262D01*
X203630405Y-174549463D01*
X203277396Y-174195836D01*
X202815930Y-174004219D01*
X202316262Y-174003783D01*
X201854463Y-174194595D01*
X201500836Y-174547604D01*
X201309219Y-175009070D01*
X201308783Y-175508738D01*
X201272273Y-175508738D01*
X201289760Y-175059175D01*
X201116634Y-174590460D01*
X201061326Y-174507684D01*
X200863527Y-174422180D01*
X200025707Y-175260000D01*
X200024293Y-175260000D01*
X199186473Y-174422180D01*
X198988674Y-174507684D01*
X198779661Y-174961535D01*
X198760240Y-175460825D01*
X197916000Y-175460825D01*
X197916000Y-174421473D01*
X199187180Y-174421473D01*
X200025000Y-175259293D01*
X200862820Y-174421473D01*
X200777316Y-174223674D01*
X200323465Y-174014661D01*
X199824175Y-173995240D01*
X199355460Y-174168366D01*
X199272684Y-174223674D01*
X199187180Y-174421473D01*
X197916000Y-174421473D01*
X197916000Y-173558527D01*
X199187180Y-173558527D01*
X199272684Y-173756326D01*
X199726535Y-173965339D01*
X200225825Y-173984760D01*
X200694540Y-173811634D01*
X200777316Y-173756326D01*
X200862820Y-173558527D01*
X200025000Y-172720707D01*
X199187180Y-173558527D01*
X197916000Y-173558527D01*
X197916000Y-172920825D01*
X198760240Y-172920825D01*
X198933366Y-173389540D01*
X198988674Y-173472316D01*
X199186473Y-173557820D01*
X200024293Y-172720000D01*
X200025707Y-172720000D01*
X200863527Y-173557820D01*
X201061326Y-173472316D01*
X201270339Y-173018465D01*
X201289760Y-172519175D01*
X201116634Y-172050460D01*
X201061326Y-171967684D01*
X200863527Y-171882180D01*
X200025707Y-172720000D01*
X200024293Y-172720000D01*
X199186473Y-171882180D01*
X198988674Y-171967684D01*
X198779661Y-172421535D01*
X198760240Y-172920825D01*
X197916000Y-172920825D01*
X197916000Y-171881473D01*
X199187180Y-171881473D01*
X200025000Y-172719293D01*
X200862820Y-171881473D01*
X200777316Y-171683674D01*
X200323465Y-171474661D01*
X199824175Y-171455240D01*
X199355460Y-171628366D01*
X199272684Y-171683674D01*
X199187180Y-171881473D01*
X197916000Y-171881473D01*
X197916000Y-171018527D01*
X199187180Y-171018527D01*
X199272684Y-171216326D01*
X199726535Y-171425339D01*
X200225825Y-171444760D01*
X200694540Y-171271634D01*
X200777316Y-171216326D01*
X200862820Y-171018527D01*
X200025000Y-170180707D01*
X199187180Y-171018527D01*
X197916000Y-171018527D01*
X197916000Y-170380825D01*
X198760240Y-170380825D01*
X198933366Y-170849540D01*
X198988674Y-170932316D01*
X199186473Y-171017820D01*
X200024293Y-170180000D01*
X200025707Y-170180000D01*
X200863527Y-171017820D01*
X201061326Y-170932316D01*
X201270339Y-170478465D01*
X201289760Y-169979175D01*
X201116634Y-169510460D01*
X201061326Y-169427684D01*
X200863527Y-169342180D01*
X200025707Y-170180000D01*
X200024293Y-170180000D01*
X199186473Y-169342180D01*
X198988674Y-169427684D01*
X198779661Y-169881535D01*
X198760240Y-170380825D01*
X197916000Y-170380825D01*
X197916000Y-169341473D01*
X199187180Y-169341473D01*
X200025000Y-170179293D01*
X200862820Y-169341473D01*
X200777316Y-169143674D01*
X200323465Y-168934661D01*
X199824175Y-168915240D01*
X199355460Y-169088366D01*
X199272684Y-169143674D01*
X199187180Y-169341473D01*
X197916000Y-169341473D01*
X197916000Y-168478527D01*
X199187180Y-168478527D01*
X199272684Y-168676326D01*
X199726535Y-168885339D01*
X200225825Y-168904760D01*
X200694540Y-168731634D01*
X200777316Y-168676326D01*
X200862820Y-168478527D01*
X200025000Y-167640707D01*
X199187180Y-168478527D01*
X197916000Y-168478527D01*
X197916000Y-167840825D01*
X198760240Y-167840825D01*
X198933366Y-168309540D01*
X198988674Y-168392316D01*
X199186473Y-168477820D01*
X200024293Y-167640000D01*
X200025707Y-167640000D01*
X200863527Y-168477820D01*
X201061326Y-168392316D01*
X201270339Y-167938465D01*
X201289760Y-167439175D01*
X201116634Y-166970460D01*
X201061326Y-166887684D01*
X200863527Y-166802180D01*
X200025707Y-167640000D01*
X200024293Y-167640000D01*
X199186473Y-166802180D01*
X198988674Y-166887684D01*
X198779661Y-167341535D01*
X198760240Y-167840825D01*
X197916000Y-167840825D01*
X197916000Y-166801473D01*
X199187180Y-166801473D01*
X200025000Y-167639293D01*
X200862820Y-166801473D01*
X200777316Y-166603674D01*
X200323465Y-166394661D01*
X199824175Y-166375240D01*
X199355460Y-166548366D01*
X199272684Y-166603674D01*
X199187180Y-166801473D01*
X197916000Y-166801473D01*
X197916000Y-165938527D01*
X199187180Y-165938527D01*
X199272684Y-166136326D01*
X199726535Y-166345339D01*
X200225825Y-166364760D01*
X200694540Y-166191634D01*
X200777316Y-166136326D01*
X200862820Y-165938527D01*
X200025000Y-165100707D01*
X199187180Y-165938527D01*
X197916000Y-165938527D01*
X197916000Y-165300825D01*
X198760240Y-165300825D01*
X198933366Y-165769540D01*
X198988674Y-165852316D01*
X199186473Y-165937820D01*
X200024293Y-165100000D01*
X200025707Y-165100000D01*
X200863527Y-165937820D01*
X201061326Y-165852316D01*
X201270339Y-165398465D01*
X201289760Y-164899175D01*
X201116634Y-164430460D01*
X201061326Y-164347684D01*
X200863527Y-164262180D01*
X200025707Y-165100000D01*
X200024293Y-165100000D01*
X199186473Y-164262180D01*
X198988674Y-164347684D01*
X198779661Y-164801535D01*
X198760240Y-165300825D01*
X197916000Y-165300825D01*
X197916000Y-164261473D01*
X199187180Y-164261473D01*
X200025000Y-165099293D01*
X200862820Y-164261473D01*
X200777316Y-164063674D01*
X200323465Y-163854661D01*
X199824175Y-163835240D01*
X199355460Y-164008366D01*
X199272684Y-164063674D01*
X199187180Y-164261473D01*
X197916000Y-164261473D01*
X197916000Y-163398527D01*
X199187180Y-163398527D01*
X199272684Y-163596326D01*
X199726535Y-163805339D01*
X200225825Y-163824760D01*
X200694540Y-163651634D01*
X200777316Y-163596326D01*
X200862820Y-163398527D01*
X200025000Y-162560707D01*
X199187180Y-163398527D01*
X197916000Y-163398527D01*
X197916000Y-162760825D01*
X198760240Y-162760825D01*
X198933366Y-163229540D01*
X198988674Y-163312316D01*
X199186473Y-163397820D01*
X200024293Y-162560000D01*
X200025707Y-162560000D01*
X200863527Y-163397820D01*
X201061326Y-163312316D01*
X201270339Y-162858465D01*
X201272273Y-162808738D01*
X201308783Y-162808738D01*
X201499595Y-163270537D01*
X201852604Y-163624164D01*
X202314070Y-163815781D01*
X202813738Y-163816217D01*
X203275537Y-163625405D01*
X203629164Y-163272396D01*
X203740404Y-163004500D01*
X207752080Y-163004500D01*
X206164580Y-164592000D01*
X203714092Y-164592000D01*
X203630405Y-164389463D01*
X203277396Y-164035836D01*
X202815930Y-163844219D01*
X202316262Y-163843783D01*
X201854463Y-164034595D01*
X201500836Y-164387604D01*
X201309219Y-164849070D01*
X201308783Y-165348738D01*
X201499595Y-165810537D01*
X201852604Y-166164164D01*
X202314070Y-166355781D01*
X202813738Y-166356217D01*
X203275537Y-166165405D01*
X203629164Y-165812396D01*
X203689052Y-165668167D01*
X209109540Y-165668167D01*
X209126321Y-165735000D01*
X209109540Y-165801833D01*
X209677000Y-166369293D01*
X210244460Y-165801833D01*
X210227679Y-165735000D01*
X210244460Y-165668167D01*
X209677000Y-165100707D01*
X209109540Y-165668167D01*
X203689052Y-165668167D01*
X203714036Y-165608000D01*
X206375000Y-165608000D01*
X206569403Y-165569331D01*
X206734210Y-165459210D01*
X208788536Y-163404884D01*
X208788536Y-164330000D01*
X208815103Y-164471190D01*
X208898546Y-164600865D01*
X208927726Y-164620803D01*
X208803442Y-164890792D01*
X208789878Y-165241013D01*
X208911370Y-165569766D01*
X208949998Y-165627579D01*
X209108833Y-165667460D01*
X209676293Y-165100000D01*
X209662151Y-165085858D01*
X209662858Y-165085151D01*
X209677000Y-165099293D01*
X209691143Y-165085151D01*
X209691850Y-165085858D01*
X209677707Y-165100000D01*
X210245167Y-165667460D01*
X210263931Y-165662749D01*
X210336077Y-165735021D01*
X210263763Y-165807209D01*
X210245167Y-165802540D01*
X209677707Y-166370000D01*
X210245167Y-166937460D01*
X210263931Y-166932749D01*
X210336077Y-167005021D01*
X210311979Y-167029077D01*
X210239791Y-166956763D01*
X210244460Y-166938167D01*
X209677000Y-166370707D01*
X209109540Y-166938167D01*
X209114251Y-166956931D01*
X208938876Y-167132000D01*
X203714092Y-167132000D01*
X203630405Y-166929463D01*
X203277396Y-166575836D01*
X203121285Y-166511013D01*
X208789878Y-166511013D01*
X208911370Y-166839766D01*
X208949998Y-166897579D01*
X209108833Y-166937460D01*
X209676293Y-166370000D01*
X209108833Y-165802540D01*
X208949998Y-165842421D01*
X208803442Y-166160792D01*
X208789878Y-166511013D01*
X203121285Y-166511013D01*
X202815930Y-166384219D01*
X202316262Y-166383783D01*
X201854463Y-166574595D01*
X201500836Y-166927604D01*
X201309219Y-167389070D01*
X201308783Y-167888738D01*
X201499595Y-168350537D01*
X201852604Y-168704164D01*
X202314070Y-168895781D01*
X202813738Y-168896217D01*
X203275537Y-168705405D01*
X203629164Y-168352396D01*
X203714036Y-168148000D01*
X208939277Y-168148000D01*
X209114209Y-168323237D01*
X209109540Y-168341833D01*
X209677000Y-168909293D01*
X210244460Y-168341833D01*
X210239749Y-168323069D01*
X210312021Y-168250923D01*
X210336077Y-168275021D01*
X210263763Y-168347209D01*
X210245167Y-168342540D01*
X209677707Y-168910000D01*
X210245167Y-169477460D01*
X210263931Y-169472749D01*
X210447302Y-169656440D01*
X210484775Y-169672000D01*
X210152199Y-169672000D01*
X210204579Y-169637002D01*
X210244460Y-169478167D01*
X209677000Y-168910707D01*
X209109540Y-169478167D01*
X209149421Y-169637002D01*
X209225449Y-169672000D01*
X203714092Y-169672000D01*
X203630405Y-169469463D01*
X203277396Y-169115836D01*
X203121285Y-169051013D01*
X208789878Y-169051013D01*
X208911370Y-169379766D01*
X208949998Y-169437579D01*
X209108833Y-169477460D01*
X209676293Y-168910000D01*
X209108833Y-168342540D01*
X208949998Y-168382421D01*
X208803442Y-168700792D01*
X208789878Y-169051013D01*
X203121285Y-169051013D01*
X202815930Y-168924219D01*
X202316262Y-168923783D01*
X201854463Y-169114595D01*
X201500836Y-169467604D01*
X201309219Y-169929070D01*
X201308783Y-170428738D01*
X201499595Y-170890537D01*
X201852604Y-171244164D01*
X202314070Y-171435781D01*
X202813738Y-171436217D01*
X203275537Y-171245405D01*
X203629164Y-170892396D01*
X203714036Y-170688000D01*
X210048856Y-170688000D01*
X210027987Y-170708832D01*
X209931111Y-170942137D01*
X209931073Y-170985507D01*
X208704580Y-172212000D01*
X203714092Y-172212000D01*
X203630405Y-172009463D01*
X203277396Y-171655836D01*
X202815930Y-171464219D01*
X202316262Y-171463783D01*
X201854463Y-171654595D01*
X201500836Y-172007604D01*
X201309219Y-172469070D01*
X201308783Y-172968738D01*
X201499595Y-173430537D01*
X201852604Y-173784164D01*
X202314070Y-173975781D01*
X202813738Y-173976217D01*
X203275537Y-173785405D01*
X203629164Y-173432396D01*
X203714036Y-173228000D01*
X208915000Y-173228000D01*
X209109403Y-173189331D01*
X209274210Y-173079210D01*
X210649347Y-171704073D01*
X210691755Y-171704110D01*
X210925228Y-171607640D01*
X211104013Y-171429168D01*
X211200889Y-171195863D01*
X211201110Y-170943245D01*
X211104640Y-170709772D01*
X211082906Y-170688000D01*
X212534500Y-170688000D01*
X212728903Y-170649331D01*
X212893710Y-170539210D01*
X213147710Y-170285210D01*
X213257831Y-170120404D01*
X213271238Y-170053000D01*
X213296500Y-169926000D01*
X213296500Y-166814500D01*
X213257831Y-166620097D01*
X213147710Y-166455290D01*
X212703210Y-166010790D01*
X212538403Y-165900669D01*
X212344000Y-165862000D01*
X211684723Y-165862000D01*
X211557923Y-165734979D01*
X211685124Y-165608000D01*
X212026500Y-165608000D01*
X212220903Y-165569331D01*
X212385710Y-165459210D01*
X213084210Y-164760710D01*
X213194331Y-164595904D01*
X213233000Y-164401500D01*
X213233000Y-162814000D01*
X213194331Y-162619597D01*
X213084210Y-162454790D01*
X212512710Y-161883290D01*
X212347903Y-161773169D01*
X212153500Y-161734500D01*
X211428465Y-161734500D01*
X211454889Y-161670863D01*
X211455110Y-161418245D01*
X211358640Y-161184772D01*
X211180168Y-161005987D01*
X210946863Y-160909111D01*
X210694245Y-160908890D01*
X210460772Y-161005360D01*
X210430078Y-161036000D01*
X209169000Y-161036000D01*
X208974596Y-161074669D01*
X208809790Y-161184790D01*
X208006080Y-161988500D01*
X203687854Y-161988500D01*
X203630405Y-161849463D01*
X203277396Y-161495836D01*
X202815930Y-161304219D01*
X202316262Y-161303783D01*
X201854463Y-161494595D01*
X201500836Y-161847604D01*
X201309219Y-162309070D01*
X201308783Y-162808738D01*
X201272273Y-162808738D01*
X201289760Y-162359175D01*
X201116634Y-161890460D01*
X201061326Y-161807684D01*
X200863527Y-161722180D01*
X200025707Y-162560000D01*
X200024293Y-162560000D01*
X199186473Y-161722180D01*
X198988674Y-161807684D01*
X198779661Y-162261535D01*
X198760240Y-162760825D01*
X197916000Y-162760825D01*
X197916000Y-161721473D01*
X199187180Y-161721473D01*
X200025000Y-162559293D01*
X200862820Y-161721473D01*
X200777316Y-161523674D01*
X200323465Y-161314661D01*
X199824175Y-161295240D01*
X199355460Y-161468366D01*
X199272684Y-161523674D01*
X199187180Y-161721473D01*
X197916000Y-161721473D01*
X197916000Y-160858527D01*
X199187180Y-160858527D01*
X199272684Y-161056326D01*
X199726535Y-161265339D01*
X200225825Y-161284760D01*
X200694540Y-161111634D01*
X200777316Y-161056326D01*
X200862820Y-160858527D01*
X200025000Y-160020707D01*
X199187180Y-160858527D01*
X197916000Y-160858527D01*
X197916000Y-160220825D01*
X198760240Y-160220825D01*
X198933366Y-160689540D01*
X198988674Y-160772316D01*
X199186473Y-160857820D01*
X200024293Y-160020000D01*
X200025707Y-160020000D01*
X200863527Y-160857820D01*
X201061326Y-160772316D01*
X201270339Y-160318465D01*
X201272273Y-160268738D01*
X201308783Y-160268738D01*
X201499595Y-160730537D01*
X201852604Y-161084164D01*
X202314070Y-161275781D01*
X202813738Y-161276217D01*
X203275537Y-161085405D01*
X203629164Y-160732396D01*
X203820781Y-160270930D01*
X203821217Y-159771262D01*
X203630405Y-159309463D01*
X203277396Y-158955836D01*
X202815930Y-158764219D01*
X202316262Y-158763783D01*
X201854463Y-158954595D01*
X201500836Y-159307604D01*
X201309219Y-159769070D01*
X201308783Y-160268738D01*
X201272273Y-160268738D01*
X201289760Y-159819175D01*
X201116634Y-159350460D01*
X201061326Y-159267684D01*
X200863527Y-159182180D01*
X200025707Y-160020000D01*
X200024293Y-160020000D01*
X199186473Y-159182180D01*
X198988674Y-159267684D01*
X198779661Y-159721535D01*
X198760240Y-160220825D01*
X197916000Y-160220825D01*
X197916000Y-159181473D01*
X199187180Y-159181473D01*
X200025000Y-160019293D01*
X200862820Y-159181473D01*
X200777316Y-158983674D01*
X200323465Y-158774661D01*
X199824175Y-158755240D01*
X199355460Y-158928366D01*
X199272684Y-158983674D01*
X199187180Y-159181473D01*
X197916000Y-159181473D01*
X197916000Y-158318527D01*
X199187180Y-158318527D01*
X199272684Y-158516326D01*
X199726535Y-158725339D01*
X200225825Y-158744760D01*
X200694540Y-158571634D01*
X200777316Y-158516326D01*
X200862820Y-158318527D01*
X200025000Y-157480707D01*
X199187180Y-158318527D01*
X197916000Y-158318527D01*
X197916000Y-157680825D01*
X198760240Y-157680825D01*
X198933366Y-158149540D01*
X198988674Y-158232316D01*
X199186473Y-158317820D01*
X200024293Y-157480000D01*
X200025707Y-157480000D01*
X200863527Y-158317820D01*
X201061326Y-158232316D01*
X201270339Y-157778465D01*
X201272273Y-157728738D01*
X201308783Y-157728738D01*
X201499595Y-158190537D01*
X201852604Y-158544164D01*
X202314070Y-158735781D01*
X202813738Y-158736217D01*
X203275537Y-158545405D01*
X203629164Y-158192396D01*
X203820781Y-157730930D01*
X203821217Y-157231262D01*
X203630405Y-156769463D01*
X203277396Y-156415836D01*
X202815930Y-156224219D01*
X202316262Y-156223783D01*
X201854463Y-156414595D01*
X201500836Y-156767604D01*
X201309219Y-157229070D01*
X201308783Y-157728738D01*
X201272273Y-157728738D01*
X201289760Y-157279175D01*
X201116634Y-156810460D01*
X201061326Y-156727684D01*
X200863527Y-156642180D01*
X200025707Y-157480000D01*
X200024293Y-157480000D01*
X199186473Y-156642180D01*
X198988674Y-156727684D01*
X198779661Y-157181535D01*
X198760240Y-157680825D01*
X197916000Y-157680825D01*
X197916000Y-156641473D01*
X199187180Y-156641473D01*
X200025000Y-157479293D01*
X200862820Y-156641473D01*
X200777316Y-156443674D01*
X200323465Y-156234661D01*
X199824175Y-156215240D01*
X199355460Y-156388366D01*
X199272684Y-156443674D01*
X199187180Y-156641473D01*
X197916000Y-156641473D01*
X197916000Y-155188738D01*
X198768783Y-155188738D01*
X198959595Y-155650537D01*
X199312604Y-156004164D01*
X199774070Y-156195781D01*
X200273738Y-156196217D01*
X200735537Y-156005405D01*
X201089164Y-155652396D01*
X201174036Y-155448000D01*
X201301536Y-155448000D01*
X201301536Y-155815000D01*
X201328103Y-155956190D01*
X201411546Y-156085865D01*
X201538866Y-156172859D01*
X201690000Y-156203464D01*
X203110044Y-156203464D01*
X204999790Y-158093210D01*
X205164597Y-158203331D01*
X205359000Y-158242000D01*
X206111872Y-158242000D01*
X206141832Y-158272013D01*
X206375137Y-158368889D01*
X206627755Y-158369110D01*
X206861228Y-158272640D01*
X207040013Y-158094168D01*
X207136889Y-157860863D01*
X207137110Y-157608245D01*
X207040640Y-157374772D01*
X206862168Y-157195987D01*
X206628863Y-157099111D01*
X206376245Y-157098890D01*
X206142772Y-157195360D01*
X206112078Y-157226000D01*
X205569420Y-157226000D01*
X203828464Y-155485044D01*
X203828464Y-154252208D01*
X207033824Y-154252208D01*
X207188175Y-154625766D01*
X207473731Y-154911821D01*
X207847018Y-155066824D01*
X208251208Y-155067176D01*
X208624766Y-154912825D01*
X208910821Y-154627269D01*
X209065824Y-154253982D01*
X209065825Y-154252208D01*
X210033824Y-154252208D01*
X210188175Y-154625766D01*
X210473731Y-154911821D01*
X210847018Y-155066824D01*
X211251208Y-155067176D01*
X211624766Y-154912825D01*
X211910821Y-154627269D01*
X212065824Y-154253982D01*
X212066176Y-153849792D01*
X211911825Y-153476234D01*
X211626269Y-153190179D01*
X211252982Y-153035176D01*
X210848792Y-153034824D01*
X210475234Y-153189175D01*
X210189179Y-153474731D01*
X210034176Y-153848018D01*
X210033824Y-154252208D01*
X209065825Y-154252208D01*
X209066176Y-153849792D01*
X208911825Y-153476234D01*
X208626269Y-153190179D01*
X208252982Y-153035176D01*
X207848792Y-153034824D01*
X207475234Y-153189175D01*
X207189179Y-153474731D01*
X207034176Y-153848018D01*
X207033824Y-154252208D01*
X203828464Y-154252208D01*
X203828464Y-154065000D01*
X203801897Y-153923810D01*
X203718454Y-153794135D01*
X203591134Y-153707141D01*
X203440000Y-153676536D01*
X201690000Y-153676536D01*
X201548810Y-153703103D01*
X201419135Y-153786546D01*
X201332141Y-153913866D01*
X201301536Y-154065000D01*
X201301536Y-154432000D01*
X201174092Y-154432000D01*
X201090405Y-154229463D01*
X200737396Y-153875836D01*
X200275930Y-153684219D01*
X199776262Y-153683783D01*
X199314463Y-153874595D01*
X198960836Y-154227604D01*
X198769219Y-154689070D01*
X198768783Y-155188738D01*
X197916000Y-155188738D01*
X197916000Y-154093448D01*
X198084339Y-153247152D01*
X198539683Y-152565683D01*
X199221152Y-152110339D01*
X200067448Y-151942000D01*
X211793552Y-151942000D01*
X212639848Y-152110339D01*
M02*
