%FSLAX46Y46*%
G04 Gerber Fmt 4.6, Leading zero omitted, Abs format (unit mm)*
G04 Created by KiCad (PCBNEW (2014-10-18 BZR 5203)-product) date 10/30/2014 8:46:09 AM*
%MOMM*%
G01*
G04 APERTURE LIST*
%ADD10C,0.150000*%
%ADD11R,1.750000X1.750000*%
%ADD12C,1.750000*%
%ADD13R,1.000000X1.000000*%
%ADD14C,1.000000*%
%ADD15C,1.270000*%
%ADD16C,0.508000*%
%ADD17C,0.254000*%
G04 APERTURE END LIST*
D10*
D11*
X200025000Y-154940000D03*
D12*
X202565000Y-154940000D03*
X200025000Y-157480000D03*
X202565000Y-157480000D03*
X200025000Y-160020000D03*
X202565000Y-160020000D03*
X200025000Y-162560000D03*
X202565000Y-162560000D03*
X200025000Y-165100000D03*
X202565000Y-165100000D03*
X200025000Y-167640000D03*
X202565000Y-167640000D03*
X200025000Y-170180000D03*
X202565000Y-170180000D03*
X200025000Y-172720000D03*
X202565000Y-172720000D03*
X200025000Y-175260000D03*
X202565000Y-175260000D03*
X200025000Y-177800000D03*
X202565000Y-177800000D03*
D13*
X210312000Y-163830000D03*
D14*
X211582000Y-163830000D03*
X210312000Y-165100000D03*
X211582000Y-165100000D03*
X210312000Y-166370000D03*
X211582000Y-166370000D03*
X210312000Y-167640000D03*
X211582000Y-167640000D03*
X210312000Y-168910000D03*
X211582000Y-168910000D03*
D15*
X208050000Y-154051000D03*
X211050000Y-154051000D03*
D16*
X210566000Y-171069000D03*
X210820000Y-161544000D03*
X206502000Y-157734000D03*
D17*
X200025000Y-172720000D02*
X201295000Y-173990000D01*
X207645000Y-173990000D02*
X209327750Y-172307250D01*
X201295000Y-173990000D02*
X207645000Y-173990000D01*
X209327750Y-172307250D02*
X210566000Y-171069000D01*
X200025000Y-167640000D02*
X201295000Y-168910000D01*
X209169000Y-167640000D02*
X210312000Y-167640000D01*
X207899000Y-168910000D02*
X209169000Y-167640000D01*
X201295000Y-168910000D02*
X207899000Y-168910000D01*
X212788500Y-169545000D02*
X212788500Y-166814500D01*
X212788500Y-166814500D02*
X212344000Y-166370000D01*
X212344000Y-166370000D02*
X211582000Y-166370000D01*
X212788500Y-169545000D02*
X212788500Y-169608500D01*
X212471000Y-170243500D02*
X212788500Y-169926000D01*
X212788500Y-169926000D02*
X212788500Y-169545000D01*
X209931000Y-170370500D02*
X210058000Y-170243500D01*
X210058000Y-170243500D02*
X212153500Y-170243500D01*
X208851500Y-171450000D02*
X209931000Y-170370500D01*
X200025000Y-170180000D02*
X201295000Y-171450000D01*
X201295000Y-171450000D02*
X208851500Y-171450000D01*
X212153500Y-170243500D02*
X212471000Y-170243500D01*
X212026500Y-165100000D02*
X211582000Y-165100000D01*
X201295000Y-166370000D02*
X205105000Y-166370000D01*
X205105000Y-166370000D02*
X209232500Y-162242500D01*
X209232500Y-162242500D02*
X212153500Y-162242500D01*
X212153500Y-162242500D02*
X212725000Y-162814000D01*
X212725000Y-162814000D02*
X212725000Y-164401500D01*
X212725000Y-164401500D02*
X212026500Y-165100000D01*
X200025000Y-165100000D02*
X201295000Y-166370000D01*
X201295000Y-163830000D02*
X206883000Y-163830000D01*
X206883000Y-163830000D02*
X209042000Y-161671000D01*
X200025000Y-162560000D02*
X201295000Y-163830000D01*
X210820000Y-161544000D02*
X209169000Y-161544000D01*
X209169000Y-161544000D02*
X209042000Y-161671000D01*
X202565000Y-154940000D02*
X200025000Y-154940000D01*
X205359000Y-157734000D02*
X206502000Y-157734000D01*
X202565000Y-154940000D02*
X205359000Y-157734000D01*
G36*
X202579849Y-165114142D02*
X202579142Y-165114849D01*
X202565000Y-165100707D01*
X202550857Y-165114849D01*
X202550150Y-165114142D01*
X202564293Y-165100000D01*
X202550150Y-165085857D01*
X202550857Y-165085150D01*
X202565000Y-165099293D01*
X202579142Y-165085150D01*
X202579849Y-165085857D01*
X202565707Y-165100000D01*
X202579849Y-165114142D01*
X202579849Y-165114142D01*
G37*
X202579849Y-165114142D02*
X202579142Y-165114849D01*
X202565000Y-165100707D01*
X202550857Y-165114849D01*
X202550150Y-165114142D01*
X202564293Y-165100000D01*
X202550150Y-165085857D01*
X202550857Y-165085150D01*
X202565000Y-165099293D01*
X202579142Y-165085150D01*
X202579849Y-165085857D01*
X202565707Y-165100000D01*
X202579849Y-165114142D01*
G36*
X202579849Y-167654142D02*
X202579142Y-167654849D01*
X202565000Y-167640707D01*
X202550857Y-167654849D01*
X202550150Y-167654142D01*
X202564293Y-167640000D01*
X202550150Y-167625857D01*
X202550857Y-167625150D01*
X202565000Y-167639293D01*
X202579142Y-167625150D01*
X202579849Y-167625857D01*
X202565707Y-167640000D01*
X202579849Y-167654142D01*
X202579849Y-167654142D01*
G37*
X202579849Y-167654142D02*
X202579142Y-167654849D01*
X202565000Y-167640707D01*
X202550857Y-167654849D01*
X202550150Y-167654142D01*
X202564293Y-167640000D01*
X202550150Y-167625857D01*
X202550857Y-167625150D01*
X202565000Y-167639293D01*
X202579142Y-167625150D01*
X202579849Y-167625857D01*
X202565707Y-167640000D01*
X202579849Y-167654142D01*
G36*
X202579849Y-170194142D02*
X202579142Y-170194849D01*
X202565000Y-170180707D01*
X202550857Y-170194849D01*
X202550150Y-170194142D01*
X202564293Y-170180000D01*
X202550150Y-170165857D01*
X202550857Y-170165150D01*
X202565000Y-170179293D01*
X202579142Y-170165150D01*
X202579849Y-170165857D01*
X202565707Y-170180000D01*
X202579849Y-170194142D01*
X202579849Y-170194142D01*
G37*
X202579849Y-170194142D02*
X202579142Y-170194849D01*
X202565000Y-170180707D01*
X202550857Y-170194849D01*
X202550150Y-170194142D01*
X202564293Y-170180000D01*
X202550150Y-170165857D01*
X202550857Y-170165150D01*
X202565000Y-170179293D01*
X202579142Y-170165150D01*
X202579849Y-170165857D01*
X202565707Y-170180000D01*
X202579849Y-170194142D01*
G36*
X202579849Y-172734142D02*
X202579142Y-172734849D01*
X202565000Y-172720707D01*
X202550857Y-172734849D01*
X202550150Y-172734142D01*
X202564293Y-172720000D01*
X202550150Y-172705857D01*
X202550857Y-172705150D01*
X202565000Y-172719293D01*
X202579142Y-172705150D01*
X202579849Y-172705857D01*
X202565707Y-172720000D01*
X202579849Y-172734142D01*
X202579849Y-172734142D01*
G37*
X202579849Y-172734142D02*
X202579142Y-172734849D01*
X202565000Y-172720707D01*
X202550857Y-172734849D01*
X202550150Y-172734142D01*
X202564293Y-172720000D01*
X202550150Y-172705857D01*
X202550857Y-172705150D01*
X202565000Y-172719293D01*
X202579142Y-172705150D01*
X202579849Y-172705857D01*
X202565707Y-172720000D01*
X202579849Y-172734142D01*
G36*
X211272699Y-169735500D02*
X210619759Y-169735500D01*
X210781766Y-169675630D01*
X210839579Y-169637002D01*
X210879460Y-169478167D01*
X210312000Y-168910707D01*
X210311293Y-168911414D01*
X210311293Y-168910000D01*
X209743833Y-168342540D01*
X209584998Y-168382421D01*
X209438442Y-168700792D01*
X209424878Y-169051013D01*
X209546370Y-169379766D01*
X209584998Y-169437579D01*
X209743833Y-169477460D01*
X210311293Y-168910000D01*
X210311293Y-168911414D01*
X209744540Y-169478167D01*
X209784421Y-169637002D01*
X210016378Y-169743779D01*
X209863596Y-169774169D01*
X209698790Y-169884290D01*
X209571793Y-170011286D01*
X209571790Y-170011289D01*
X208641079Y-170942000D01*
X203578923Y-170942000D01*
X203601326Y-170932316D01*
X203810339Y-170478465D01*
X203829760Y-169979175D01*
X203656634Y-169510460D01*
X203601326Y-169427684D01*
X203578923Y-169418000D01*
X207899000Y-169418000D01*
X208093403Y-169379331D01*
X208258210Y-169269210D01*
X209379420Y-168148000D01*
X209574277Y-168148000D01*
X209749209Y-168323237D01*
X209744540Y-168341833D01*
X210312000Y-168909293D01*
X210879460Y-168341833D01*
X210874748Y-168323069D01*
X210947020Y-168250922D01*
X210971077Y-168275020D01*
X210898762Y-168347209D01*
X210880167Y-168342540D01*
X210312707Y-168910000D01*
X210880167Y-169477460D01*
X210898930Y-169472748D01*
X211082302Y-169656440D01*
X211272699Y-169735500D01*
X211272699Y-169735500D01*
G37*
X211272699Y-169735500D02*
X210619759Y-169735500D01*
X210781766Y-169675630D01*
X210839579Y-169637002D01*
X210879460Y-169478167D01*
X210312000Y-168910707D01*
X210311293Y-168911414D01*
X210311293Y-168910000D01*
X209743833Y-168342540D01*
X209584998Y-168382421D01*
X209438442Y-168700792D01*
X209424878Y-169051013D01*
X209546370Y-169379766D01*
X209584998Y-169437579D01*
X209743833Y-169477460D01*
X210311293Y-168910000D01*
X210311293Y-168911414D01*
X209744540Y-169478167D01*
X209784421Y-169637002D01*
X210016378Y-169743779D01*
X209863596Y-169774169D01*
X209698790Y-169884290D01*
X209571793Y-170011286D01*
X209571790Y-170011289D01*
X208641079Y-170942000D01*
X203578923Y-170942000D01*
X203601326Y-170932316D01*
X203810339Y-170478465D01*
X203829760Y-169979175D01*
X203656634Y-169510460D01*
X203601326Y-169427684D01*
X203578923Y-169418000D01*
X207899000Y-169418000D01*
X208093403Y-169379331D01*
X208258210Y-169269210D01*
X209379420Y-168148000D01*
X209574277Y-168148000D01*
X209749209Y-168323237D01*
X209744540Y-168341833D01*
X210312000Y-168909293D01*
X210879460Y-168341833D01*
X210874748Y-168323069D01*
X210947020Y-168250922D01*
X210971077Y-168275020D01*
X210898762Y-168347209D01*
X210880167Y-168342540D01*
X210312707Y-168910000D01*
X210880167Y-169477460D01*
X210898930Y-169472748D01*
X211082302Y-169656440D01*
X211272699Y-169735500D01*
G36*
X212217000Y-163219098D02*
X212081698Y-163083560D01*
X211758011Y-162949153D01*
X211407527Y-162948847D01*
X211097686Y-163076870D01*
X211027819Y-163007004D01*
X210887785Y-162949000D01*
X210736214Y-162949000D01*
X209736214Y-162949000D01*
X209596180Y-163007004D01*
X209489004Y-163114181D01*
X209431000Y-163254215D01*
X209431000Y-163405786D01*
X209431000Y-164405786D01*
X209489004Y-164545820D01*
X209563123Y-164619939D01*
X209438442Y-164890792D01*
X209424878Y-165241013D01*
X209546370Y-165569766D01*
X209584998Y-165627579D01*
X209743833Y-165667460D01*
X210311293Y-165100000D01*
X210297150Y-165085857D01*
X210297857Y-165085150D01*
X210312000Y-165099293D01*
X210326142Y-165085150D01*
X210326849Y-165085857D01*
X210312707Y-165100000D01*
X210880167Y-165667460D01*
X210898930Y-165662748D01*
X210971077Y-165735020D01*
X210898762Y-165807209D01*
X210880167Y-165802540D01*
X210879460Y-165803247D01*
X210879460Y-165801833D01*
X210862679Y-165735000D01*
X210879460Y-165668167D01*
X210312000Y-165100707D01*
X209744540Y-165668167D01*
X209761320Y-165735000D01*
X209744540Y-165801833D01*
X210312000Y-166369293D01*
X210879460Y-165801833D01*
X210879460Y-165803247D01*
X210312707Y-166370000D01*
X210880167Y-166937460D01*
X210898930Y-166932748D01*
X210971077Y-167005020D01*
X210946979Y-167029077D01*
X210874790Y-166956762D01*
X210879460Y-166938167D01*
X210312000Y-166370707D01*
X210311293Y-166371414D01*
X210311293Y-166370000D01*
X209743833Y-165802540D01*
X209584998Y-165842421D01*
X209438442Y-166160792D01*
X209424878Y-166511013D01*
X209546370Y-166839766D01*
X209584998Y-166897579D01*
X209743833Y-166937460D01*
X210311293Y-166370000D01*
X210311293Y-166371414D01*
X209744540Y-166938167D01*
X209749251Y-166956930D01*
X209573876Y-167132000D01*
X209169000Y-167132000D01*
X209006849Y-167164253D01*
X208974596Y-167170669D01*
X208809790Y-167280790D01*
X207688580Y-168402000D01*
X203578923Y-168402000D01*
X203601326Y-168392316D01*
X203810339Y-167938465D01*
X203829760Y-167439175D01*
X203656634Y-166970460D01*
X203601326Y-166887684D01*
X203578923Y-166878000D01*
X205105000Y-166878000D01*
X205299403Y-166839331D01*
X205464210Y-166729210D01*
X209442920Y-162750500D01*
X211943080Y-162750500D01*
X212217000Y-163024420D01*
X212217000Y-163219098D01*
X212217000Y-163219098D01*
G37*
X212217000Y-163219098D02*
X212081698Y-163083560D01*
X211758011Y-162949153D01*
X211407527Y-162948847D01*
X211097686Y-163076870D01*
X211027819Y-163007004D01*
X210887785Y-162949000D01*
X210736214Y-162949000D01*
X209736214Y-162949000D01*
X209596180Y-163007004D01*
X209489004Y-163114181D01*
X209431000Y-163254215D01*
X209431000Y-163405786D01*
X209431000Y-164405786D01*
X209489004Y-164545820D01*
X209563123Y-164619939D01*
X209438442Y-164890792D01*
X209424878Y-165241013D01*
X209546370Y-165569766D01*
X209584998Y-165627579D01*
X209743833Y-165667460D01*
X210311293Y-165100000D01*
X210297150Y-165085857D01*
X210297857Y-165085150D01*
X210312000Y-165099293D01*
X210326142Y-165085150D01*
X210326849Y-165085857D01*
X210312707Y-165100000D01*
X210880167Y-165667460D01*
X210898930Y-165662748D01*
X210971077Y-165735020D01*
X210898762Y-165807209D01*
X210880167Y-165802540D01*
X210879460Y-165803247D01*
X210879460Y-165801833D01*
X210862679Y-165735000D01*
X210879460Y-165668167D01*
X210312000Y-165100707D01*
X209744540Y-165668167D01*
X209761320Y-165735000D01*
X209744540Y-165801833D01*
X210312000Y-166369293D01*
X210879460Y-165801833D01*
X210879460Y-165803247D01*
X210312707Y-166370000D01*
X210880167Y-166937460D01*
X210898930Y-166932748D01*
X210971077Y-167005020D01*
X210946979Y-167029077D01*
X210874790Y-166956762D01*
X210879460Y-166938167D01*
X210312000Y-166370707D01*
X210311293Y-166371414D01*
X210311293Y-166370000D01*
X209743833Y-165802540D01*
X209584998Y-165842421D01*
X209438442Y-166160792D01*
X209424878Y-166511013D01*
X209546370Y-166839766D01*
X209584998Y-166897579D01*
X209743833Y-166937460D01*
X210311293Y-166370000D01*
X210311293Y-166371414D01*
X209744540Y-166938167D01*
X209749251Y-166956930D01*
X209573876Y-167132000D01*
X209169000Y-167132000D01*
X209006849Y-167164253D01*
X208974596Y-167170669D01*
X208809790Y-167280790D01*
X207688580Y-168402000D01*
X203578923Y-168402000D01*
X203601326Y-168392316D01*
X203810339Y-167938465D01*
X203829760Y-167439175D01*
X203656634Y-166970460D01*
X203601326Y-166887684D01*
X203578923Y-166878000D01*
X205105000Y-166878000D01*
X205299403Y-166839331D01*
X205464210Y-166729210D01*
X209442920Y-162750500D01*
X211943080Y-162750500D01*
X212217000Y-163024420D01*
X212217000Y-163219098D01*
G36*
X213945000Y-178646552D02*
X213776661Y-179492847D01*
X213321317Y-180174317D01*
X213296500Y-180190899D01*
X213296500Y-169926000D01*
X213296500Y-169608500D01*
X213296500Y-169545000D01*
X213296500Y-166814500D01*
X213257831Y-166620097D01*
X213147710Y-166455290D01*
X212703210Y-166010790D01*
X212538403Y-165900669D01*
X212344000Y-165862000D01*
X212319722Y-165862000D01*
X212192922Y-165734979D01*
X212328440Y-165599698D01*
X212387532Y-165457387D01*
X213084210Y-164760710D01*
X213194331Y-164595904D01*
X213194331Y-164595903D01*
X213233000Y-164401500D01*
X213233000Y-162814000D01*
X213194331Y-162619597D01*
X213084210Y-162454790D01*
X212512710Y-161883290D01*
X212347903Y-161773169D01*
X212153500Y-161734500D01*
X212066176Y-161734500D01*
X212066176Y-153849792D01*
X211911825Y-153476234D01*
X211626269Y-153190179D01*
X211252982Y-153035176D01*
X210848792Y-153034824D01*
X210475234Y-153189175D01*
X210189179Y-153474731D01*
X210034176Y-153848018D01*
X210033824Y-154252208D01*
X210188175Y-154625766D01*
X210473731Y-154911821D01*
X210847018Y-155066824D01*
X211251208Y-155067176D01*
X211624766Y-154912825D01*
X211910821Y-154627269D01*
X212065824Y-154253982D01*
X212066176Y-153849792D01*
X212066176Y-161734500D01*
X211428464Y-161734500D01*
X211454889Y-161670863D01*
X211455110Y-161418245D01*
X211358640Y-161184772D01*
X211180168Y-161005987D01*
X210946863Y-160909111D01*
X210694245Y-160908890D01*
X210460772Y-161005360D01*
X210430078Y-161036000D01*
X209169000Y-161036000D01*
X209066176Y-161056452D01*
X209066176Y-153849792D01*
X208911825Y-153476234D01*
X208626269Y-153190179D01*
X208252982Y-153035176D01*
X207848792Y-153034824D01*
X207475234Y-153189175D01*
X207189179Y-153474731D01*
X207034176Y-153848018D01*
X207033824Y-154252208D01*
X207188175Y-154625766D01*
X207473731Y-154911821D01*
X207847018Y-155066824D01*
X208251208Y-155067176D01*
X208624766Y-154912825D01*
X208910821Y-154627269D01*
X209065824Y-154253982D01*
X209066176Y-153849792D01*
X209066176Y-161056452D01*
X208974596Y-161074669D01*
X208809790Y-161184790D01*
X208682790Y-161311790D01*
X207137110Y-162857470D01*
X207137110Y-157608245D01*
X207040640Y-157374772D01*
X206862168Y-157195987D01*
X206628863Y-157099111D01*
X206376245Y-157098890D01*
X206142772Y-157195360D01*
X206112078Y-157226000D01*
X205569420Y-157226000D01*
X203736741Y-155393321D01*
X203820781Y-155190930D01*
X203821217Y-154691262D01*
X203630405Y-154229463D01*
X203277396Y-153875836D01*
X202815930Y-153684219D01*
X202316262Y-153683783D01*
X201854463Y-153874595D01*
X201500836Y-154227604D01*
X201415963Y-154432000D01*
X201281000Y-154432000D01*
X201281000Y-153989214D01*
X201222996Y-153849180D01*
X201115819Y-153742004D01*
X200975785Y-153684000D01*
X200824214Y-153684000D01*
X199074214Y-153684000D01*
X198934180Y-153742004D01*
X198827004Y-153849181D01*
X198769000Y-153989215D01*
X198769000Y-154140786D01*
X198769000Y-155890786D01*
X198827004Y-156030820D01*
X198934181Y-156137996D01*
X199074215Y-156196000D01*
X199225786Y-156196000D01*
X200975786Y-156196000D01*
X201115820Y-156137996D01*
X201222996Y-156030819D01*
X201281000Y-155890785D01*
X201281000Y-155739214D01*
X201281000Y-155448000D01*
X201415908Y-155448000D01*
X201499595Y-155650537D01*
X201852604Y-156004164D01*
X202314070Y-156195781D01*
X202813738Y-156196217D01*
X203018281Y-156111701D01*
X204999790Y-158093210D01*
X205164597Y-158203331D01*
X205359000Y-158242000D01*
X206111871Y-158242000D01*
X206141832Y-158272013D01*
X206375137Y-158368889D01*
X206627755Y-158369110D01*
X206861228Y-158272640D01*
X207040013Y-158094168D01*
X207136889Y-157860863D01*
X207137110Y-157608245D01*
X207137110Y-162857470D01*
X206672580Y-163322000D01*
X203578923Y-163322000D01*
X203601326Y-163312316D01*
X203810339Y-162858465D01*
X203829760Y-162359175D01*
X203829760Y-159819175D01*
X203829760Y-157279175D01*
X203656634Y-156810460D01*
X203601326Y-156727684D01*
X203403527Y-156642180D01*
X203402820Y-156642887D01*
X203402820Y-156641473D01*
X203317316Y-156443674D01*
X202863465Y-156234661D01*
X202364175Y-156215240D01*
X201895460Y-156388366D01*
X201812684Y-156443674D01*
X201727180Y-156641473D01*
X202565000Y-157479293D01*
X203402820Y-156641473D01*
X203402820Y-156642887D01*
X202565707Y-157480000D01*
X203403527Y-158317820D01*
X203601326Y-158232316D01*
X203810339Y-157778465D01*
X203829760Y-157279175D01*
X203829760Y-159819175D01*
X203656634Y-159350460D01*
X203601326Y-159267684D01*
X203403527Y-159182180D01*
X203402820Y-159182887D01*
X203402820Y-159181473D01*
X203402820Y-158318527D01*
X202565000Y-157480707D01*
X202564293Y-157481414D01*
X202564293Y-157480000D01*
X201726473Y-156642180D01*
X201528674Y-156727684D01*
X201319661Y-157181535D01*
X201300240Y-157680825D01*
X201473366Y-158149540D01*
X201528674Y-158232316D01*
X201726473Y-158317820D01*
X202564293Y-157480000D01*
X202564293Y-157481414D01*
X201727180Y-158318527D01*
X201812684Y-158516326D01*
X202266535Y-158725339D01*
X202765825Y-158744760D01*
X203234540Y-158571634D01*
X203317316Y-158516326D01*
X203402820Y-158318527D01*
X203402820Y-159181473D01*
X203317316Y-158983674D01*
X202863465Y-158774661D01*
X202364175Y-158755240D01*
X201895460Y-158928366D01*
X201812684Y-158983674D01*
X201727180Y-159181473D01*
X202565000Y-160019293D01*
X203402820Y-159181473D01*
X203402820Y-159182887D01*
X202565707Y-160020000D01*
X203403527Y-160857820D01*
X203601326Y-160772316D01*
X203810339Y-160318465D01*
X203829760Y-159819175D01*
X203829760Y-162359175D01*
X203656634Y-161890460D01*
X203601326Y-161807684D01*
X203403527Y-161722180D01*
X203402820Y-161722887D01*
X203402820Y-161721473D01*
X203402820Y-160858527D01*
X202565000Y-160020707D01*
X202564293Y-160021414D01*
X202564293Y-160020000D01*
X201726473Y-159182180D01*
X201528674Y-159267684D01*
X201319661Y-159721535D01*
X201300240Y-160220825D01*
X201473366Y-160689540D01*
X201528674Y-160772316D01*
X201726473Y-160857820D01*
X202564293Y-160020000D01*
X202564293Y-160021414D01*
X201727180Y-160858527D01*
X201812684Y-161056326D01*
X202266535Y-161265339D01*
X202765825Y-161284760D01*
X203234540Y-161111634D01*
X203317316Y-161056326D01*
X203402820Y-160858527D01*
X203402820Y-161721473D01*
X203317316Y-161523674D01*
X202863465Y-161314661D01*
X202364175Y-161295240D01*
X201895460Y-161468366D01*
X201812684Y-161523674D01*
X201727180Y-161721473D01*
X202565000Y-162559293D01*
X203402820Y-161721473D01*
X203402820Y-161722887D01*
X202565707Y-162560000D01*
X202579849Y-162574142D01*
X202579142Y-162574849D01*
X202565000Y-162560707D01*
X202550857Y-162574849D01*
X202550150Y-162574142D01*
X202564293Y-162560000D01*
X201726473Y-161722180D01*
X201528674Y-161807684D01*
X201319661Y-162261535D01*
X201300240Y-162760825D01*
X201473366Y-163229540D01*
X201528674Y-163312316D01*
X201551076Y-163322000D01*
X201505420Y-163322000D01*
X201196741Y-163013321D01*
X201280781Y-162810930D01*
X201281217Y-162311262D01*
X201281217Y-159771262D01*
X201281217Y-157231262D01*
X201090405Y-156769463D01*
X200737396Y-156415836D01*
X200275930Y-156224219D01*
X199776262Y-156223783D01*
X199314463Y-156414595D01*
X198960836Y-156767604D01*
X198769219Y-157229070D01*
X198768783Y-157728738D01*
X198959595Y-158190537D01*
X199312604Y-158544164D01*
X199774070Y-158735781D01*
X200273738Y-158736217D01*
X200735537Y-158545405D01*
X201089164Y-158192396D01*
X201280781Y-157730930D01*
X201281217Y-157231262D01*
X201281217Y-159771262D01*
X201090405Y-159309463D01*
X200737396Y-158955836D01*
X200275930Y-158764219D01*
X199776262Y-158763783D01*
X199314463Y-158954595D01*
X198960836Y-159307604D01*
X198769219Y-159769070D01*
X198768783Y-160268738D01*
X198959595Y-160730537D01*
X199312604Y-161084164D01*
X199774070Y-161275781D01*
X200273738Y-161276217D01*
X200735537Y-161085405D01*
X201089164Y-160732396D01*
X201280781Y-160270930D01*
X201281217Y-159771262D01*
X201281217Y-162311262D01*
X201090405Y-161849463D01*
X200737396Y-161495836D01*
X200275930Y-161304219D01*
X199776262Y-161303783D01*
X199314463Y-161494595D01*
X198960836Y-161847604D01*
X198769219Y-162309070D01*
X198768783Y-162808738D01*
X198959595Y-163270537D01*
X199312604Y-163624164D01*
X199774070Y-163815781D01*
X200273738Y-163816217D01*
X200478281Y-163731701D01*
X200935790Y-164189210D01*
X201100596Y-164299331D01*
X201100597Y-164299331D01*
X201132849Y-164305746D01*
X201295000Y-164338000D01*
X201551076Y-164338000D01*
X201528674Y-164347684D01*
X201319661Y-164801535D01*
X201300240Y-165300825D01*
X201473366Y-165769540D01*
X201528674Y-165852316D01*
X201551076Y-165862000D01*
X201505420Y-165862000D01*
X201196741Y-165553321D01*
X201280781Y-165350930D01*
X201281217Y-164851262D01*
X201090405Y-164389463D01*
X200737396Y-164035836D01*
X200275930Y-163844219D01*
X199776262Y-163843783D01*
X199314463Y-164034595D01*
X198960836Y-164387604D01*
X198769219Y-164849070D01*
X198768783Y-165348738D01*
X198959595Y-165810537D01*
X199312604Y-166164164D01*
X199774070Y-166355781D01*
X200273738Y-166356217D01*
X200478281Y-166271701D01*
X200935790Y-166729210D01*
X201100596Y-166839331D01*
X201100597Y-166839331D01*
X201132849Y-166845746D01*
X201295000Y-166878000D01*
X201551076Y-166878000D01*
X201528674Y-166887684D01*
X201319661Y-167341535D01*
X201300240Y-167840825D01*
X201473366Y-168309540D01*
X201528674Y-168392316D01*
X201551076Y-168402000D01*
X201505420Y-168402000D01*
X201196741Y-168093321D01*
X201280781Y-167890930D01*
X201281217Y-167391262D01*
X201090405Y-166929463D01*
X200737396Y-166575836D01*
X200275930Y-166384219D01*
X199776262Y-166383783D01*
X199314463Y-166574595D01*
X198960836Y-166927604D01*
X198769219Y-167389070D01*
X198768783Y-167888738D01*
X198959595Y-168350537D01*
X199312604Y-168704164D01*
X199774070Y-168895781D01*
X200273738Y-168896217D01*
X200478281Y-168811701D01*
X200935790Y-169269210D01*
X201100596Y-169379331D01*
X201100597Y-169379331D01*
X201132849Y-169385746D01*
X201295000Y-169418000D01*
X201551076Y-169418000D01*
X201528674Y-169427684D01*
X201319661Y-169881535D01*
X201300240Y-170380825D01*
X201473366Y-170849540D01*
X201528674Y-170932316D01*
X201551076Y-170942000D01*
X201505420Y-170942000D01*
X201196741Y-170633321D01*
X201280781Y-170430930D01*
X201281217Y-169931262D01*
X201090405Y-169469463D01*
X200737396Y-169115836D01*
X200275930Y-168924219D01*
X199776262Y-168923783D01*
X199314463Y-169114595D01*
X198960836Y-169467604D01*
X198769219Y-169929070D01*
X198768783Y-170428738D01*
X198959595Y-170890537D01*
X199312604Y-171244164D01*
X199774070Y-171435781D01*
X200273738Y-171436217D01*
X200478281Y-171351701D01*
X200935790Y-171809210D01*
X201100596Y-171919331D01*
X201100597Y-171919331D01*
X201132849Y-171925746D01*
X201295000Y-171958000D01*
X201551076Y-171958000D01*
X201528674Y-171967684D01*
X201319661Y-172421535D01*
X201300240Y-172920825D01*
X201473366Y-173389540D01*
X201528674Y-173472316D01*
X201551076Y-173482000D01*
X201505420Y-173482000D01*
X201196741Y-173173321D01*
X201280781Y-172970930D01*
X201281217Y-172471262D01*
X201090405Y-172009463D01*
X200737396Y-171655836D01*
X200275930Y-171464219D01*
X199776262Y-171463783D01*
X199314463Y-171654595D01*
X198960836Y-172007604D01*
X198769219Y-172469070D01*
X198768783Y-172968738D01*
X198959595Y-173430537D01*
X199312604Y-173784164D01*
X199774070Y-173975781D01*
X200273738Y-173976217D01*
X200478281Y-173891701D01*
X200935790Y-174349210D01*
X201100596Y-174459331D01*
X201100597Y-174459331D01*
X201132849Y-174465746D01*
X201295000Y-174498000D01*
X201551076Y-174498000D01*
X201528674Y-174507684D01*
X201319661Y-174961535D01*
X201300240Y-175460825D01*
X201473366Y-175929540D01*
X201528674Y-176012316D01*
X201726473Y-176097820D01*
X202564293Y-175260000D01*
X202550150Y-175245857D01*
X202550857Y-175245150D01*
X202565000Y-175259293D01*
X202579142Y-175245150D01*
X202579849Y-175245857D01*
X202565707Y-175260000D01*
X203403527Y-176097820D01*
X203601326Y-176012316D01*
X203810339Y-175558465D01*
X203829760Y-175059175D01*
X203656634Y-174590460D01*
X203601326Y-174507684D01*
X203578923Y-174498000D01*
X207645000Y-174498000D01*
X207839403Y-174459331D01*
X208004210Y-174349210D01*
X209686960Y-172666460D01*
X210649347Y-171704072D01*
X210691755Y-171704110D01*
X210925228Y-171607640D01*
X211104013Y-171429168D01*
X211200889Y-171195863D01*
X211201110Y-170943245D01*
X211121881Y-170751500D01*
X212153500Y-170751500D01*
X212471000Y-170751500D01*
X212665403Y-170712831D01*
X212830210Y-170602710D01*
X213147710Y-170285210D01*
X213257831Y-170120403D01*
X213296500Y-169926000D01*
X213296500Y-180190899D01*
X212639847Y-180629661D01*
X211793552Y-180798000D01*
X203829760Y-180798000D01*
X203829760Y-177599175D01*
X203656634Y-177130460D01*
X203601326Y-177047684D01*
X203403527Y-176962180D01*
X203402820Y-176962887D01*
X203402820Y-176961473D01*
X203402820Y-176098527D01*
X202565000Y-175260707D01*
X201727180Y-176098527D01*
X201812684Y-176296326D01*
X202266535Y-176505339D01*
X202765825Y-176524760D01*
X203234540Y-176351634D01*
X203317316Y-176296326D01*
X203402820Y-176098527D01*
X203402820Y-176961473D01*
X203317316Y-176763674D01*
X202863465Y-176554661D01*
X202364175Y-176535240D01*
X201895460Y-176708366D01*
X201812684Y-176763674D01*
X201727180Y-176961473D01*
X202565000Y-177799293D01*
X203402820Y-176961473D01*
X203402820Y-176962887D01*
X202565707Y-177800000D01*
X203403527Y-178637820D01*
X203601326Y-178552316D01*
X203810339Y-178098465D01*
X203829760Y-177599175D01*
X203829760Y-180798000D01*
X203402820Y-180798000D01*
X203402820Y-178638527D01*
X202565000Y-177800707D01*
X202564293Y-177801414D01*
X202564293Y-177800000D01*
X201726473Y-176962180D01*
X201528674Y-177047684D01*
X201319661Y-177501535D01*
X201300240Y-178000825D01*
X201473366Y-178469540D01*
X201528674Y-178552316D01*
X201726473Y-178637820D01*
X202564293Y-177800000D01*
X202564293Y-177801414D01*
X201727180Y-178638527D01*
X201812684Y-178836326D01*
X202266535Y-179045339D01*
X202765825Y-179064760D01*
X203234540Y-178891634D01*
X203317316Y-178836326D01*
X203402820Y-178638527D01*
X203402820Y-180798000D01*
X201281217Y-180798000D01*
X201281217Y-177551262D01*
X201281217Y-175011262D01*
X201090405Y-174549463D01*
X200737396Y-174195836D01*
X200275930Y-174004219D01*
X199776262Y-174003783D01*
X199314463Y-174194595D01*
X198960836Y-174547604D01*
X198769219Y-175009070D01*
X198768783Y-175508738D01*
X198959595Y-175970537D01*
X199312604Y-176324164D01*
X199774070Y-176515781D01*
X200273738Y-176516217D01*
X200735537Y-176325405D01*
X201089164Y-175972396D01*
X201280781Y-175510930D01*
X201281217Y-175011262D01*
X201281217Y-177551262D01*
X201090405Y-177089463D01*
X200737396Y-176735836D01*
X200275930Y-176544219D01*
X199776262Y-176543783D01*
X199314463Y-176734595D01*
X198960836Y-177087604D01*
X198769219Y-177549070D01*
X198768783Y-178048738D01*
X198959595Y-178510537D01*
X199312604Y-178864164D01*
X199774070Y-179055781D01*
X200273738Y-179056217D01*
X200735537Y-178865405D01*
X201089164Y-178512396D01*
X201280781Y-178050930D01*
X201281217Y-177551262D01*
X201281217Y-180798000D01*
X200067447Y-180798000D01*
X199221152Y-180629661D01*
X198539682Y-180174317D01*
X198084338Y-179492847D01*
X197916000Y-178646552D01*
X197916000Y-154093447D01*
X198084338Y-153247152D01*
X198539682Y-152565682D01*
X199221152Y-152110338D01*
X200067447Y-151942000D01*
X211793552Y-151942000D01*
X212639847Y-152110338D01*
X213321317Y-152565682D01*
X213776661Y-153247152D01*
X213945000Y-154093447D01*
X213945000Y-178646552D01*
X213945000Y-178646552D01*
G37*
X213945000Y-178646552D02*
X213776661Y-179492847D01*
X213321317Y-180174317D01*
X213296500Y-180190899D01*
X213296500Y-169926000D01*
X213296500Y-169608500D01*
X213296500Y-169545000D01*
X213296500Y-166814500D01*
X213257831Y-166620097D01*
X213147710Y-166455290D01*
X212703210Y-166010790D01*
X212538403Y-165900669D01*
X212344000Y-165862000D01*
X212319722Y-165862000D01*
X212192922Y-165734979D01*
X212328440Y-165599698D01*
X212387532Y-165457387D01*
X213084210Y-164760710D01*
X213194331Y-164595904D01*
X213194331Y-164595903D01*
X213233000Y-164401500D01*
X213233000Y-162814000D01*
X213194331Y-162619597D01*
X213084210Y-162454790D01*
X212512710Y-161883290D01*
X212347903Y-161773169D01*
X212153500Y-161734500D01*
X212066176Y-161734500D01*
X212066176Y-153849792D01*
X211911825Y-153476234D01*
X211626269Y-153190179D01*
X211252982Y-153035176D01*
X210848792Y-153034824D01*
X210475234Y-153189175D01*
X210189179Y-153474731D01*
X210034176Y-153848018D01*
X210033824Y-154252208D01*
X210188175Y-154625766D01*
X210473731Y-154911821D01*
X210847018Y-155066824D01*
X211251208Y-155067176D01*
X211624766Y-154912825D01*
X211910821Y-154627269D01*
X212065824Y-154253982D01*
X212066176Y-153849792D01*
X212066176Y-161734500D01*
X211428464Y-161734500D01*
X211454889Y-161670863D01*
X211455110Y-161418245D01*
X211358640Y-161184772D01*
X211180168Y-161005987D01*
X210946863Y-160909111D01*
X210694245Y-160908890D01*
X210460772Y-161005360D01*
X210430078Y-161036000D01*
X209169000Y-161036000D01*
X209066176Y-161056452D01*
X209066176Y-153849792D01*
X208911825Y-153476234D01*
X208626269Y-153190179D01*
X208252982Y-153035176D01*
X207848792Y-153034824D01*
X207475234Y-153189175D01*
X207189179Y-153474731D01*
X207034176Y-153848018D01*
X207033824Y-154252208D01*
X207188175Y-154625766D01*
X207473731Y-154911821D01*
X207847018Y-155066824D01*
X208251208Y-155067176D01*
X208624766Y-154912825D01*
X208910821Y-154627269D01*
X209065824Y-154253982D01*
X209066176Y-153849792D01*
X209066176Y-161056452D01*
X208974596Y-161074669D01*
X208809790Y-161184790D01*
X208682790Y-161311790D01*
X207137110Y-162857470D01*
X207137110Y-157608245D01*
X207040640Y-157374772D01*
X206862168Y-157195987D01*
X206628863Y-157099111D01*
X206376245Y-157098890D01*
X206142772Y-157195360D01*
X206112078Y-157226000D01*
X205569420Y-157226000D01*
X203736741Y-155393321D01*
X203820781Y-155190930D01*
X203821217Y-154691262D01*
X203630405Y-154229463D01*
X203277396Y-153875836D01*
X202815930Y-153684219D01*
X202316262Y-153683783D01*
X201854463Y-153874595D01*
X201500836Y-154227604D01*
X201415963Y-154432000D01*
X201281000Y-154432000D01*
X201281000Y-153989214D01*
X201222996Y-153849180D01*
X201115819Y-153742004D01*
X200975785Y-153684000D01*
X200824214Y-153684000D01*
X199074214Y-153684000D01*
X198934180Y-153742004D01*
X198827004Y-153849181D01*
X198769000Y-153989215D01*
X198769000Y-154140786D01*
X198769000Y-155890786D01*
X198827004Y-156030820D01*
X198934181Y-156137996D01*
X199074215Y-156196000D01*
X199225786Y-156196000D01*
X200975786Y-156196000D01*
X201115820Y-156137996D01*
X201222996Y-156030819D01*
X201281000Y-155890785D01*
X201281000Y-155739214D01*
X201281000Y-155448000D01*
X201415908Y-155448000D01*
X201499595Y-155650537D01*
X201852604Y-156004164D01*
X202314070Y-156195781D01*
X202813738Y-156196217D01*
X203018281Y-156111701D01*
X204999790Y-158093210D01*
X205164597Y-158203331D01*
X205359000Y-158242000D01*
X206111871Y-158242000D01*
X206141832Y-158272013D01*
X206375137Y-158368889D01*
X206627755Y-158369110D01*
X206861228Y-158272640D01*
X207040013Y-158094168D01*
X207136889Y-157860863D01*
X207137110Y-157608245D01*
X207137110Y-162857470D01*
X206672580Y-163322000D01*
X203578923Y-163322000D01*
X203601326Y-163312316D01*
X203810339Y-162858465D01*
X203829760Y-162359175D01*
X203829760Y-159819175D01*
X203829760Y-157279175D01*
X203656634Y-156810460D01*
X203601326Y-156727684D01*
X203403527Y-156642180D01*
X203402820Y-156642887D01*
X203402820Y-156641473D01*
X203317316Y-156443674D01*
X202863465Y-156234661D01*
X202364175Y-156215240D01*
X201895460Y-156388366D01*
X201812684Y-156443674D01*
X201727180Y-156641473D01*
X202565000Y-157479293D01*
X203402820Y-156641473D01*
X203402820Y-156642887D01*
X202565707Y-157480000D01*
X203403527Y-158317820D01*
X203601326Y-158232316D01*
X203810339Y-157778465D01*
X203829760Y-157279175D01*
X203829760Y-159819175D01*
X203656634Y-159350460D01*
X203601326Y-159267684D01*
X203403527Y-159182180D01*
X203402820Y-159182887D01*
X203402820Y-159181473D01*
X203402820Y-158318527D01*
X202565000Y-157480707D01*
X202564293Y-157481414D01*
X202564293Y-157480000D01*
X201726473Y-156642180D01*
X201528674Y-156727684D01*
X201319661Y-157181535D01*
X201300240Y-157680825D01*
X201473366Y-158149540D01*
X201528674Y-158232316D01*
X201726473Y-158317820D01*
X202564293Y-157480000D01*
X202564293Y-157481414D01*
X201727180Y-158318527D01*
X201812684Y-158516326D01*
X202266535Y-158725339D01*
X202765825Y-158744760D01*
X203234540Y-158571634D01*
X203317316Y-158516326D01*
X203402820Y-158318527D01*
X203402820Y-159181473D01*
X203317316Y-158983674D01*
X202863465Y-158774661D01*
X202364175Y-158755240D01*
X201895460Y-158928366D01*
X201812684Y-158983674D01*
X201727180Y-159181473D01*
X202565000Y-160019293D01*
X203402820Y-159181473D01*
X203402820Y-159182887D01*
X202565707Y-160020000D01*
X203403527Y-160857820D01*
X203601326Y-160772316D01*
X203810339Y-160318465D01*
X203829760Y-159819175D01*
X203829760Y-162359175D01*
X203656634Y-161890460D01*
X203601326Y-161807684D01*
X203403527Y-161722180D01*
X203402820Y-161722887D01*
X203402820Y-161721473D01*
X203402820Y-160858527D01*
X202565000Y-160020707D01*
X202564293Y-160021414D01*
X202564293Y-160020000D01*
X201726473Y-159182180D01*
X201528674Y-159267684D01*
X201319661Y-159721535D01*
X201300240Y-160220825D01*
X201473366Y-160689540D01*
X201528674Y-160772316D01*
X201726473Y-160857820D01*
X202564293Y-160020000D01*
X202564293Y-160021414D01*
X201727180Y-160858527D01*
X201812684Y-161056326D01*
X202266535Y-161265339D01*
X202765825Y-161284760D01*
X203234540Y-161111634D01*
X203317316Y-161056326D01*
X203402820Y-160858527D01*
X203402820Y-161721473D01*
X203317316Y-161523674D01*
X202863465Y-161314661D01*
X202364175Y-161295240D01*
X201895460Y-161468366D01*
X201812684Y-161523674D01*
X201727180Y-161721473D01*
X202565000Y-162559293D01*
X203402820Y-161721473D01*
X203402820Y-161722887D01*
X202565707Y-162560000D01*
X202579849Y-162574142D01*
X202579142Y-162574849D01*
X202565000Y-162560707D01*
X202550857Y-162574849D01*
X202550150Y-162574142D01*
X202564293Y-162560000D01*
X201726473Y-161722180D01*
X201528674Y-161807684D01*
X201319661Y-162261535D01*
X201300240Y-162760825D01*
X201473366Y-163229540D01*
X201528674Y-163312316D01*
X201551076Y-163322000D01*
X201505420Y-163322000D01*
X201196741Y-163013321D01*
X201280781Y-162810930D01*
X201281217Y-162311262D01*
X201281217Y-159771262D01*
X201281217Y-157231262D01*
X201090405Y-156769463D01*
X200737396Y-156415836D01*
X200275930Y-156224219D01*
X199776262Y-156223783D01*
X199314463Y-156414595D01*
X198960836Y-156767604D01*
X198769219Y-157229070D01*
X198768783Y-157728738D01*
X198959595Y-158190537D01*
X199312604Y-158544164D01*
X199774070Y-158735781D01*
X200273738Y-158736217D01*
X200735537Y-158545405D01*
X201089164Y-158192396D01*
X201280781Y-157730930D01*
X201281217Y-157231262D01*
X201281217Y-159771262D01*
X201090405Y-159309463D01*
X200737396Y-158955836D01*
X200275930Y-158764219D01*
X199776262Y-158763783D01*
X199314463Y-158954595D01*
X198960836Y-159307604D01*
X198769219Y-159769070D01*
X198768783Y-160268738D01*
X198959595Y-160730537D01*
X199312604Y-161084164D01*
X199774070Y-161275781D01*
X200273738Y-161276217D01*
X200735537Y-161085405D01*
X201089164Y-160732396D01*
X201280781Y-160270930D01*
X201281217Y-159771262D01*
X201281217Y-162311262D01*
X201090405Y-161849463D01*
X200737396Y-161495836D01*
X200275930Y-161304219D01*
X199776262Y-161303783D01*
X199314463Y-161494595D01*
X198960836Y-161847604D01*
X198769219Y-162309070D01*
X198768783Y-162808738D01*
X198959595Y-163270537D01*
X199312604Y-163624164D01*
X199774070Y-163815781D01*
X200273738Y-163816217D01*
X200478281Y-163731701D01*
X200935790Y-164189210D01*
X201100596Y-164299331D01*
X201100597Y-164299331D01*
X201132849Y-164305746D01*
X201295000Y-164338000D01*
X201551076Y-164338000D01*
X201528674Y-164347684D01*
X201319661Y-164801535D01*
X201300240Y-165300825D01*
X201473366Y-165769540D01*
X201528674Y-165852316D01*
X201551076Y-165862000D01*
X201505420Y-165862000D01*
X201196741Y-165553321D01*
X201280781Y-165350930D01*
X201281217Y-164851262D01*
X201090405Y-164389463D01*
X200737396Y-164035836D01*
X200275930Y-163844219D01*
X199776262Y-163843783D01*
X199314463Y-164034595D01*
X198960836Y-164387604D01*
X198769219Y-164849070D01*
X198768783Y-165348738D01*
X198959595Y-165810537D01*
X199312604Y-166164164D01*
X199774070Y-166355781D01*
X200273738Y-166356217D01*
X200478281Y-166271701D01*
X200935790Y-166729210D01*
X201100596Y-166839331D01*
X201100597Y-166839331D01*
X201132849Y-166845746D01*
X201295000Y-166878000D01*
X201551076Y-166878000D01*
X201528674Y-166887684D01*
X201319661Y-167341535D01*
X201300240Y-167840825D01*
X201473366Y-168309540D01*
X201528674Y-168392316D01*
X201551076Y-168402000D01*
X201505420Y-168402000D01*
X201196741Y-168093321D01*
X201280781Y-167890930D01*
X201281217Y-167391262D01*
X201090405Y-166929463D01*
X200737396Y-166575836D01*
X200275930Y-166384219D01*
X199776262Y-166383783D01*
X199314463Y-166574595D01*
X198960836Y-166927604D01*
X198769219Y-167389070D01*
X198768783Y-167888738D01*
X198959595Y-168350537D01*
X199312604Y-168704164D01*
X199774070Y-168895781D01*
X200273738Y-168896217D01*
X200478281Y-168811701D01*
X200935790Y-169269210D01*
X201100596Y-169379331D01*
X201100597Y-169379331D01*
X201132849Y-169385746D01*
X201295000Y-169418000D01*
X201551076Y-169418000D01*
X201528674Y-169427684D01*
X201319661Y-169881535D01*
X201300240Y-170380825D01*
X201473366Y-170849540D01*
X201528674Y-170932316D01*
X201551076Y-170942000D01*
X201505420Y-170942000D01*
X201196741Y-170633321D01*
X201280781Y-170430930D01*
X201281217Y-169931262D01*
X201090405Y-169469463D01*
X200737396Y-169115836D01*
X200275930Y-168924219D01*
X199776262Y-168923783D01*
X199314463Y-169114595D01*
X198960836Y-169467604D01*
X198769219Y-169929070D01*
X198768783Y-170428738D01*
X198959595Y-170890537D01*
X199312604Y-171244164D01*
X199774070Y-171435781D01*
X200273738Y-171436217D01*
X200478281Y-171351701D01*
X200935790Y-171809210D01*
X201100596Y-171919331D01*
X201100597Y-171919331D01*
X201132849Y-171925746D01*
X201295000Y-171958000D01*
X201551076Y-171958000D01*
X201528674Y-171967684D01*
X201319661Y-172421535D01*
X201300240Y-172920825D01*
X201473366Y-173389540D01*
X201528674Y-173472316D01*
X201551076Y-173482000D01*
X201505420Y-173482000D01*
X201196741Y-173173321D01*
X201280781Y-172970930D01*
X201281217Y-172471262D01*
X201090405Y-172009463D01*
X200737396Y-171655836D01*
X200275930Y-171464219D01*
X199776262Y-171463783D01*
X199314463Y-171654595D01*
X198960836Y-172007604D01*
X198769219Y-172469070D01*
X198768783Y-172968738D01*
X198959595Y-173430537D01*
X199312604Y-173784164D01*
X199774070Y-173975781D01*
X200273738Y-173976217D01*
X200478281Y-173891701D01*
X200935790Y-174349210D01*
X201100596Y-174459331D01*
X201100597Y-174459331D01*
X201132849Y-174465746D01*
X201295000Y-174498000D01*
X201551076Y-174498000D01*
X201528674Y-174507684D01*
X201319661Y-174961535D01*
X201300240Y-175460825D01*
X201473366Y-175929540D01*
X201528674Y-176012316D01*
X201726473Y-176097820D01*
X202564293Y-175260000D01*
X202550150Y-175245857D01*
X202550857Y-175245150D01*
X202565000Y-175259293D01*
X202579142Y-175245150D01*
X202579849Y-175245857D01*
X202565707Y-175260000D01*
X203403527Y-176097820D01*
X203601326Y-176012316D01*
X203810339Y-175558465D01*
X203829760Y-175059175D01*
X203656634Y-174590460D01*
X203601326Y-174507684D01*
X203578923Y-174498000D01*
X207645000Y-174498000D01*
X207839403Y-174459331D01*
X208004210Y-174349210D01*
X209686960Y-172666460D01*
X210649347Y-171704072D01*
X210691755Y-171704110D01*
X210925228Y-171607640D01*
X211104013Y-171429168D01*
X211200889Y-171195863D01*
X211201110Y-170943245D01*
X211121881Y-170751500D01*
X212153500Y-170751500D01*
X212471000Y-170751500D01*
X212665403Y-170712831D01*
X212830210Y-170602710D01*
X213147710Y-170285210D01*
X213257831Y-170120403D01*
X213296500Y-169926000D01*
X213296500Y-180190899D01*
X212639847Y-180629661D01*
X211793552Y-180798000D01*
X203829760Y-180798000D01*
X203829760Y-177599175D01*
X203656634Y-177130460D01*
X203601326Y-177047684D01*
X203403527Y-176962180D01*
X203402820Y-176962887D01*
X203402820Y-176961473D01*
X203402820Y-176098527D01*
X202565000Y-175260707D01*
X201727180Y-176098527D01*
X201812684Y-176296326D01*
X202266535Y-176505339D01*
X202765825Y-176524760D01*
X203234540Y-176351634D01*
X203317316Y-176296326D01*
X203402820Y-176098527D01*
X203402820Y-176961473D01*
X203317316Y-176763674D01*
X202863465Y-176554661D01*
X202364175Y-176535240D01*
X201895460Y-176708366D01*
X201812684Y-176763674D01*
X201727180Y-176961473D01*
X202565000Y-177799293D01*
X203402820Y-176961473D01*
X203402820Y-176962887D01*
X202565707Y-177800000D01*
X203403527Y-178637820D01*
X203601326Y-178552316D01*
X203810339Y-178098465D01*
X203829760Y-177599175D01*
X203829760Y-180798000D01*
X203402820Y-180798000D01*
X203402820Y-178638527D01*
X202565000Y-177800707D01*
X202564293Y-177801414D01*
X202564293Y-177800000D01*
X201726473Y-176962180D01*
X201528674Y-177047684D01*
X201319661Y-177501535D01*
X201300240Y-178000825D01*
X201473366Y-178469540D01*
X201528674Y-178552316D01*
X201726473Y-178637820D01*
X202564293Y-177800000D01*
X202564293Y-177801414D01*
X201727180Y-178638527D01*
X201812684Y-178836326D01*
X202266535Y-179045339D01*
X202765825Y-179064760D01*
X203234540Y-178891634D01*
X203317316Y-178836326D01*
X203402820Y-178638527D01*
X203402820Y-180798000D01*
X201281217Y-180798000D01*
X201281217Y-177551262D01*
X201281217Y-175011262D01*
X201090405Y-174549463D01*
X200737396Y-174195836D01*
X200275930Y-174004219D01*
X199776262Y-174003783D01*
X199314463Y-174194595D01*
X198960836Y-174547604D01*
X198769219Y-175009070D01*
X198768783Y-175508738D01*
X198959595Y-175970537D01*
X199312604Y-176324164D01*
X199774070Y-176515781D01*
X200273738Y-176516217D01*
X200735537Y-176325405D01*
X201089164Y-175972396D01*
X201280781Y-175510930D01*
X201281217Y-175011262D01*
X201281217Y-177551262D01*
X201090405Y-177089463D01*
X200737396Y-176735836D01*
X200275930Y-176544219D01*
X199776262Y-176543783D01*
X199314463Y-176734595D01*
X198960836Y-177087604D01*
X198769219Y-177549070D01*
X198768783Y-178048738D01*
X198959595Y-178510537D01*
X199312604Y-178864164D01*
X199774070Y-179055781D01*
X200273738Y-179056217D01*
X200735537Y-178865405D01*
X201089164Y-178512396D01*
X201280781Y-178050930D01*
X201281217Y-177551262D01*
X201281217Y-180798000D01*
X200067447Y-180798000D01*
X199221152Y-180629661D01*
X198539682Y-180174317D01*
X198084338Y-179492847D01*
X197916000Y-178646552D01*
X197916000Y-154093447D01*
X198084338Y-153247152D01*
X198539682Y-152565682D01*
X199221152Y-152110338D01*
X200067447Y-151942000D01*
X211793552Y-151942000D01*
X212639847Y-152110338D01*
X213321317Y-152565682D01*
X213776661Y-153247152D01*
X213945000Y-154093447D01*
X213945000Y-178646552D01*
M02*
