G04 (created by PCBNEW (2013-07-07 BZR 4022)-stable) date 1/31/2014 11:28:53*
%MOIN*%
G04 Gerber Fmt 3.4, Leading zero omitted, Abs format*
%FSLAX34Y34*%
G01*
G70*
G90*
G04 APERTURE LIST*
%ADD10C,0.00590551*%
%ADD11C,0.00472441*%
%ADD12C,0.00787402*%
G04 APERTURE END LIST*
G54D10*
G54D11*
X77319Y-57281D02*
X77164Y-57281D01*
X77136Y-57295D01*
X77122Y-57324D01*
X77122Y-57380D01*
X77136Y-57408D01*
X77305Y-57281D02*
X77319Y-57309D01*
X77319Y-57380D01*
X77305Y-57408D01*
X77277Y-57422D01*
X77249Y-57422D01*
X77221Y-57408D01*
X77207Y-57380D01*
X77207Y-57309D01*
X77192Y-57281D01*
X77319Y-57141D02*
X77122Y-57141D01*
X77178Y-57141D02*
X77150Y-57127D01*
X77136Y-57113D01*
X77122Y-57084D01*
X77122Y-57056D01*
X77319Y-56958D02*
X77122Y-56958D01*
X77150Y-56958D02*
X77136Y-56944D01*
X77122Y-56916D01*
X77122Y-56874D01*
X77136Y-56845D01*
X77164Y-56831D01*
X77319Y-56831D01*
X77164Y-56831D02*
X77136Y-56817D01*
X77122Y-56789D01*
X77122Y-56747D01*
X77136Y-56719D01*
X77164Y-56705D01*
X77319Y-56705D01*
X77052Y-56578D02*
X77038Y-56564D01*
X77024Y-56536D01*
X77024Y-56466D01*
X77038Y-56438D01*
X77052Y-56424D01*
X77080Y-56410D01*
X77108Y-56410D01*
X77150Y-56424D01*
X77319Y-56592D01*
X77319Y-56410D01*
X77024Y-56227D02*
X77024Y-56199D01*
X77038Y-56171D01*
X77052Y-56156D01*
X77080Y-56142D01*
X77136Y-56128D01*
X77207Y-56128D01*
X77263Y-56142D01*
X77291Y-56156D01*
X77305Y-56171D01*
X77319Y-56199D01*
X77319Y-56227D01*
X77305Y-56255D01*
X77291Y-56269D01*
X77263Y-56283D01*
X77207Y-56297D01*
X77136Y-56297D01*
X77080Y-56283D01*
X77052Y-56269D01*
X77038Y-56255D01*
X77024Y-56227D01*
X77122Y-56044D02*
X77122Y-55932D01*
X77024Y-56002D02*
X77277Y-56002D01*
X77305Y-55988D01*
X77319Y-55960D01*
X77319Y-55932D01*
X77319Y-55791D02*
X77305Y-55819D01*
X77291Y-55833D01*
X77263Y-55847D01*
X77178Y-55847D01*
X77150Y-55833D01*
X77136Y-55819D01*
X77122Y-55791D01*
X77122Y-55749D01*
X77136Y-55721D01*
X77150Y-55707D01*
X77178Y-55692D01*
X77263Y-55692D01*
X77291Y-55707D01*
X77305Y-55721D01*
X77319Y-55749D01*
X77319Y-55791D01*
X77319Y-55411D02*
X77319Y-55580D01*
X77319Y-55496D02*
X77024Y-55496D01*
X77066Y-55524D01*
X77094Y-55552D01*
X77108Y-55580D01*
X77024Y-55228D02*
X77024Y-55200D01*
X77038Y-55172D01*
X77052Y-55158D01*
X77080Y-55144D01*
X77136Y-55130D01*
X77207Y-55130D01*
X77263Y-55144D01*
X77291Y-55158D01*
X77305Y-55172D01*
X77319Y-55200D01*
X77319Y-55228D01*
X77305Y-55257D01*
X77291Y-55271D01*
X77263Y-55285D01*
X77207Y-55299D01*
X77136Y-55299D01*
X77080Y-55285D01*
X77052Y-55271D01*
X77038Y-55257D01*
X77024Y-55228D01*
X77122Y-54807D02*
X77319Y-54736D01*
X77122Y-54666D01*
X77024Y-54497D02*
X77024Y-54469D01*
X77038Y-54441D01*
X77052Y-54427D01*
X77080Y-54413D01*
X77136Y-54399D01*
X77207Y-54399D01*
X77263Y-54413D01*
X77291Y-54427D01*
X77305Y-54441D01*
X77319Y-54469D01*
X77319Y-54497D01*
X77305Y-54525D01*
X77291Y-54539D01*
X77263Y-54554D01*
X77207Y-54568D01*
X77136Y-54568D01*
X77080Y-54554D01*
X77052Y-54539D01*
X77038Y-54525D01*
X77024Y-54497D01*
X77291Y-54272D02*
X77305Y-54258D01*
X77319Y-54272D01*
X77305Y-54286D01*
X77291Y-54272D01*
X77319Y-54272D01*
X77319Y-53977D02*
X77319Y-54146D01*
X77319Y-54061D02*
X77024Y-54061D01*
X77066Y-54090D01*
X77094Y-54118D01*
X77108Y-54146D01*
G54D12*
X77568Y-52239D02*
X77231Y-52239D01*
X77400Y-52239D02*
X77400Y-51648D01*
X77343Y-51732D01*
X77287Y-51789D01*
X77231Y-51817D01*
G54D11*
X78370Y-57007D02*
X78595Y-57007D01*
X78482Y-57119D02*
X78482Y-56894D01*
X78876Y-56824D02*
X78735Y-56824D01*
X78721Y-56964D01*
X78735Y-56950D01*
X78764Y-56936D01*
X78834Y-56936D01*
X78862Y-56950D01*
X78876Y-56964D01*
X78890Y-56992D01*
X78890Y-57063D01*
X78876Y-57091D01*
X78862Y-57105D01*
X78834Y-57119D01*
X78764Y-57119D01*
X78735Y-57105D01*
X78721Y-57091D01*
X78974Y-56824D02*
X79073Y-57119D01*
X79171Y-56824D01*
X78406Y-48874D02*
X78504Y-49169D01*
X78603Y-48874D01*
X78870Y-49141D02*
X78856Y-49155D01*
X78814Y-49169D01*
X78785Y-49169D01*
X78743Y-49155D01*
X78715Y-49127D01*
X78701Y-49099D01*
X78687Y-49042D01*
X78687Y-49000D01*
X78701Y-48944D01*
X78715Y-48916D01*
X78743Y-48888D01*
X78785Y-48874D01*
X78814Y-48874D01*
X78856Y-48888D01*
X78870Y-48902D01*
X79165Y-49141D02*
X79151Y-49155D01*
X79109Y-49169D01*
X79081Y-49169D01*
X79039Y-49155D01*
X79010Y-49127D01*
X78996Y-49099D01*
X78982Y-49042D01*
X78982Y-49000D01*
X78996Y-48944D01*
X79010Y-48916D01*
X79039Y-48888D01*
X79081Y-48874D01*
X79109Y-48874D01*
X79151Y-48888D01*
X79165Y-48902D01*
X77901Y-51274D02*
X77901Y-51485D01*
X77887Y-51527D01*
X77859Y-51555D01*
X77817Y-51569D01*
X77789Y-51569D01*
X78028Y-51302D02*
X78042Y-51288D01*
X78070Y-51274D01*
X78140Y-51274D01*
X78168Y-51288D01*
X78182Y-51302D01*
X78196Y-51330D01*
X78196Y-51358D01*
X78182Y-51400D01*
X78014Y-51569D01*
X78196Y-51569D01*
X78575Y-55838D02*
X78546Y-55824D01*
X78504Y-55824D01*
X78462Y-55838D01*
X78434Y-55866D01*
X78420Y-55894D01*
X78406Y-55950D01*
X78406Y-55992D01*
X78420Y-56049D01*
X78434Y-56077D01*
X78462Y-56105D01*
X78504Y-56119D01*
X78532Y-56119D01*
X78575Y-56105D01*
X78589Y-56091D01*
X78589Y-55992D01*
X78532Y-55992D01*
X78715Y-56119D02*
X78715Y-55824D01*
X78884Y-56119D01*
X78884Y-55824D01*
X79024Y-56119D02*
X79024Y-55824D01*
X79095Y-55824D01*
X79137Y-55838D01*
X79165Y-55866D01*
X79179Y-55894D01*
X79193Y-55950D01*
X79193Y-55992D01*
X79179Y-56049D01*
X79165Y-56077D01*
X79137Y-56105D01*
X79095Y-56119D01*
X79024Y-56119D01*
X76801Y-49324D02*
X76801Y-49535D01*
X76787Y-49577D01*
X76759Y-49605D01*
X76717Y-49619D01*
X76689Y-49619D01*
X77096Y-49619D02*
X76928Y-49619D01*
X77012Y-49619D02*
X77012Y-49324D01*
X76984Y-49366D01*
X76956Y-49394D01*
X76928Y-49408D01*
G54D12*
X77218Y-48789D02*
X76881Y-48789D01*
X77050Y-48789D02*
X77050Y-48198D01*
X76993Y-48282D01*
X76937Y-48339D01*
X76881Y-48367D01*
G54D11*
X78575Y-49838D02*
X78546Y-49824D01*
X78504Y-49824D01*
X78462Y-49838D01*
X78434Y-49866D01*
X78420Y-49894D01*
X78406Y-49950D01*
X78406Y-49992D01*
X78420Y-50049D01*
X78434Y-50077D01*
X78462Y-50105D01*
X78504Y-50119D01*
X78532Y-50119D01*
X78575Y-50105D01*
X78589Y-50091D01*
X78589Y-49992D01*
X78532Y-49992D01*
X78715Y-50119D02*
X78715Y-49824D01*
X78884Y-50119D01*
X78884Y-49824D01*
X79024Y-50119D02*
X79024Y-49824D01*
X79095Y-49824D01*
X79137Y-49838D01*
X79165Y-49866D01*
X79179Y-49894D01*
X79193Y-49950D01*
X79193Y-49992D01*
X79179Y-50049D01*
X79165Y-50077D01*
X79137Y-50105D01*
X79095Y-50119D01*
X79024Y-50119D01*
M02*
